<svg id="Layer_1" xmlns="http://www.w3.org/2000/svg" xmlns:xlink="http://www.w3.org/1999/xlink" viewBox="0 0 709 877.8"><g class="st1"><path class="st2" d="M354.2 57.8l1357.3 783.7-1357.3 783.7L-1003 841.5zM-991.8 835l1357.3 783.7M-980.6 828.5l1357.3 783.7M-969.4 822l1357.3 783.7M-958.2 815.5l1357.3 783.7M-947 809.1l1357.3 783.7M-935.7 802.6l1357.2 783.7M-924.5 796.1l1357.3 783.7M-913.3 789.6L444 1573.3M-902.1 783.2l1357.3 783.7M-890.9 776.7l1357.3 783.7M-879.7 770.2l1357.3 783.7M-868.4 763.7l1357.2 783.7M-857.2 757.3L500.1 1541M-846 750.8l1357.3 783.7M-834.8 744.3L522.5 1528M-823.6 737.8l1357.3 783.7M-812.4 731.3L544.9 1515M-801.1 724.9l1357.3 783.7M-789.9 718.4l1357.3 783.7M-778.7 711.9l1357.3 783.7M-767.5 705.4l1357.3 783.7M-756.3 699L601 1482.7M-745.1 692.5l1357.3 783.7M-733.8 686l1357.3 783.7M-722.6 679.5l1357.3 783.7M-711.4 673.1l1357.3 783.7M-700.2 666.6l1357.3 783.7M-689 660.1l1357.3 783.7M-677.7 653.6l1357.2 783.7M-666.5 647.1l1357.3 783.7M-655.3 640.7L702 1424.4M-644.1 634.2l1357.3 783.7M-632.9 627.7l1357.3 783.7M-621.7 621.2l1357.3 783.7M-610.4 614.8l1357.2 783.7M-599.2 608.3L758.1 1392M-588 601.8l1357.3 783.7M-576.8 595.3L780.5 1379M-565.6 588.9l1357.3 783.7M-554.4 582.4l1357.3 783.7M-543.1 575.9l1357.3 783.7M-531.9 569.4l1357.3 783.7M-520.7 562.9l1357.3 783.7M-509.5 556.5l1357.3 783.7M-498.3 550L859 1333.7M-487.1 543.5l1357.3 783.7M-475.8 537l1357.3 783.7M-464.6 530.6l1357.3 783.7M-453.4 524.1l1357.3 783.7M-442.2 517.6l1357.3 783.7M-431 511.1l1357.3 783.7M-419.8 504.7l1357.3 783.7M-408.5 498.2l1357.3 783.7M-397.3 491.7L960 1275.4M-386.1 485.2l1357.3 783.7M-374.9 478.8l1357.3 783.7M-363.7 472.3L993.6 1256M-352.4 465.8l1357.2 783.7M-341.2 459.3L1016.1 1243M-330 452.8l1357.3 783.7M-318.8 446.4l1357.3 783.7M-307.6 439.9l1357.3 783.7M-296.4 433.4l1357.3 783.7M-285.1 426.9l1357.2 783.7M-273.9 420.5l1357.3 783.7M-262.7 414l1357.3 783.7M-251.5 407.5l1357.3 783.7M-240.3 401L1117 1184.7M-229.1 394.6l1357.3 783.7M-217.8 388.1l1357.3 783.7M-206.6 381.6l1357.3 783.7M-195.4 375.1l1357.3 783.7M-184.2 368.6l1357.3 783.7M-173 362.2l1357.3 783.7M-161.8 355.7l1357.3 783.7M-150.5 349.2l1357.3 783.7M-139.3 342.7L1218 1126.4M-128.1 336.3L1229.2 1120M-116.9 329.8l1357.3 783.7M-105.7 323.3L1251.6 1107M-94.4 316.8l1357.2 783.7M-83.2 310.4l1357.3 783.7M-72 303.9l1357.3 783.7M-60.8 297.4l1357.3 783.7M-49.6 290.9l1357.3 783.7M-38.4 284.4l1357.3 783.7M-27.1 278l1357.2 783.7M-15.9 271.5l1357.3 783.7M-4.7 265l1357.3 783.7M6.5 258.5l1357.3 783.7M17.7 252.1L1375 1035.8M28.9 245.6l1357.3 783.7M40.2 239.1l1357.2 783.7M51.4 232.6l1357.3 783.7M62.6 226.2l1357.3 783.7M73.8 219.7l1357.3 783.7M85 213.2l1357.3 783.7M96.2 206.7l1357.3 783.7M107.5 200.2l1357.3 783.7M118.7 193.8L1476 977.5M129.9 187.3L1487.2 971M141.1 180.8l1357.3 783.7M152.3 174.3L1509.6 958M163.5 167.9l1357.3 783.7M174.8 161.4l1357.3 783.7M186 154.9l1357.3 783.7M197.2 148.4l1357.3 783.7M208.4 142l1357.3 783.7M219.6 135.5l1357.3 783.7M230.9 129l1357.2 783.7M242.1 122.5l1357.3 783.7M253.3 116l1357.3 783.7M264.5 109.6l1357.3 783.7M275.7 103.1L1633 886.8M286.9 96.6l1357.3 783.7M298.2 90.1l1357.2 783.7M309.4 83.7l1357.3 783.7M320.6 77.2l1357.3 783.7M331.8 70.7l1357.3 783.7M343 64.2l1357.3 783.7M1700.3 835L343 1618.7M1689.1 828.5L331.8 1612.2M1677.9 822L320.6 1605.7M1666.7 815.5L309.4 1599.2M1655.4 809.1L298.2 1592.8M1644.2 802.6L286.9 1586.3M1633 796.1L275.7 1579.8M1621.8 789.6L264.5 1573.3M1610.6 783.2L253.3 1566.9M1599.4 776.7L242.1 1560.4M1588.1 770.2L230.9 1553.9M1576.9 763.7L219.6 1547.4M1565.7 757.3L208.4 1541M1554.5 750.8L197.2 1534.5M1543.3 744.3L186 1528M1532.1 737.8L174.8 1521.5M1520.8 731.3L163.5 1515M1509.6 724.9L152.3 1508.6M1498.4 718.4L141.1 1502.1M1487.2 711.9L129.9 1495.6M1476 705.4L118.7 1489.1M1464.8 699L107.5 1482.7M1453.5 692.5L96.2 1476.2M1442.3 686L85 1469.7M1431.1 679.5L73.8 1463.2M1419.9 673.1L62.6 1456.8M1408.7 666.6L51.4 1450.3M1397.4 660.1L40.2 1443.8M1386.2 653.6L28.9 1437.3M1375 647.1L17.7 1430.8M1363.8 640.7L6.5 1424.4M1352.6 634.2L-4.7 1417.9M1341.4 627.7L-15.9 1411.4M1330.1 621.2L-27.1 1404.9M1318.9 614.8L-38.4 1398.5M1307.7 608.3L-49.6 1392M1296.5 601.8L-60.8 1385.5M1285.3 595.3L-72 1379M1274.1 588.9L-83.2 1372.6M1262.8 582.4L-94.4 1366.1M1251.6 575.9l-1357.3 783.7M1240.4 569.4l-1357.3 783.7M1229.2 562.9l-1357.3 783.7M1218 556.5l-1357.3 783.7M1206.8 550l-1357.3 783.7M1195.5 543.5l-1357.3 783.7M1184.3 537L-173 1320.7M1173.1 530.6l-1357.3 783.7M1161.9 524.1l-1357.3 783.7M1150.7 517.6l-1357.3 783.7M1139.5 511.1l-1357.3 783.7M1128.2 504.7l-1357.3 783.7M1117 498.2l-1357.3 783.7M1105.8 491.7l-1357.3 783.7M1094.6 485.2l-1357.3 783.7M1083.4 478.8l-1357.3 783.7M1072.1 472.3L-285.1 1256M1060.9 465.8l-1357.3 783.7M1049.7 459.3L-307.6 1243M1038.5 452.8l-1357.3 783.7M1027.3 446.4L-330 1230.1M1016.1 439.9l-1357.3 783.7M1004.8 433.4l-1357.2 783.7M993.6 426.9l-1357.3 783.7M982.4 420.5l-1357.3 783.7M971.2 414l-1357.3 783.7M960 407.5l-1357.3 783.7M948.8 401l-1357.3 783.7M937.5 394.6l-1357.3 783.7M926.3 388.1L-431 1171.8M915.1 381.6l-1357.3 783.7M903.9 375.1l-1357.3 783.7M892.7 368.6l-1357.3 783.7M881.5 362.2l-1357.3 783.7M870.2 355.7l-1357.3 783.7M859 349.2l-1357.3 783.7M847.8 342.7l-1357.3 783.7M836.6 336.3L-520.7 1120M825.4 329.8l-1357.3 783.7M814.2 323.3L-543.1 1107M802.9 316.8l-1357.3 783.7M791.7 310.4l-1357.3 783.7M780.5 303.9l-1357.3 783.7M769.3 297.4L-588 1081.1M758.1 290.9l-1357.3 783.7M746.8 284.4l-1357.2 783.7M735.6 278l-1357.3 783.7M724.4 271.5l-1357.3 783.7M713.2 265l-1357.3 783.7M702 258.5l-1357.3 783.7M690.8 252.1l-1357.3 783.7M679.5 245.6l-1357.2 783.7M668.3 239.1L-689 1022.8M657.1 232.6l-1357.3 783.7M645.9 226.2l-1357.3 783.7M634.7 219.7l-1357.3 783.7M623.5 213.2L-733.8 996.9M612.2 206.7L-745.1 990.4M601 200.2L-756.3 983.9M589.8 193.8L-767.5 977.5M578.6 187.3L-778.7 971M567.4 180.8L-789.9 964.5M556.2 174.3L-801.1 958M544.9 167.9L-812.4 951.6M533.7 161.4L-823.6 945.1M522.5 154.9L-834.8 938.6M511.3 148.4L-846 932.1M500.1 142L-857.2 925.7M488.8 135.5L-868.4 919.2M477.6 129L-879.7 912.7M466.4 122.5L-890.9 906.2M455.2 116L-902.1 899.7M444 109.6L-913.3 893.3M432.8 103.1L-924.5 886.8M421.5 96.6L-935.7 880.3M410.3 90.1L-947 873.8M399.1 83.7L-958.2 867.4M387.9 77.2L-969.4 860.9M376.7 70.7L-980.6 854.4M365.5 64.2L-991.8 847.9"/></g><g class="st1"><linearGradient id="SVGID_1_" gradientUnits="userSpaceOnUse" x1="1633.274" y1="1245.582" x2="1633.274" y2="973.554"><stop offset="0" stop-color="#460055"/><stop offset=".994" stop-color="#940080"/></linearGradient><path opacity=".76" fill="url(#SVGID_1_)" d="M1409.5 1115.5l223.4 130.1 224.1-129.3v-13l-223-129.7-224.5 129z"/><linearGradient id="SVGID_2_" gradientUnits="userSpaceOnUse" x1="1633.274" y1="1232.628" x2="1633.274" y2="973.554"><stop offset="0" stop-color="#460055"/><stop offset=".994" stop-color="#940080"/></linearGradient><path opacity=".76" fill="url(#SVGID_2_)" d="M1409.5 1102.6l223.4 130 224.1-129.3-222.6-129.7z"/></g><g class="st1"><g class="st5"><linearGradient id="SVGID_3_" gradientUnits="userSpaceOnUse" x1="317.239" y1="21.663" x2="344.415" y2="54.05"><stop offset="0" stop-color="#008db2" stop-opacity=".5"/><stop offset=".238" stop-color="#00a7b2" stop-opacity=".619"/><stop offset=".515" stop-color="#00beb2" stop-opacity=".757"/><stop offset=".775" stop-color="#00ccb2" stop-opacity=".888"/><stop offset="1" stop-color="#00d1b2"/></linearGradient><path d="M307.2 51.9s8.6 11.6 20.5 3.9c8.2 2.7 24.5-1.6 25.9-16 6.2 1.6 11-9.2 4.3-12.6-6.7-3.4-21.1-10.1-27.8-1.3-18.6 1.3-44.9 9.9-22.9 26z" fill="url(#SVGID_3_)"/></g></g><g class="st1"><g class="st5"><path class="st7" d="M133.6 597.7l.8 700c0 3.7 2 7.1 5.2 9l201.8 116.9c10.3 6 23.1 6 33.4 0l200.8-116.9c3.2-1.9 5.1-5.2 5.1-8.9l1.9-699.3c0-3.7-2-7.1-5.2-9L363.6 465.6c-3.2-1.9-7.1-1.9-10.4 0L138.8 588.7c-3.2 1.8-5.2 5.2-5.2 9z"/></g></g><linearGradient id="SVGID_4_" gradientUnits="userSpaceOnUse" x1="421.443" y1="157.432" x2="555.094" y2="157.432"><stop offset="0" stop-color="#008db2"/><stop offset="1" stop-color="#00d1b2"/></linearGradient><path d="M425.8 188.7c13.1 17.3 33.7 6.5 39.3 3.2 8.2 7.9 28 9.3 39.1-3.2 24 8.8 47.9 5.8 45-16.2 14.2-17.7 0-32.4-14.4-29.1.7-13.5-10.7-19.4-25.1-16.7-2.4-16.2-30.2-11.1-30.2 1.9-19.9-8.4-31.3 14.2-31.3 14.2s-23.4-1.6-21.3 15.3c-11.7 15.1-1.1 30.6-1.1 30.6z" fill="url(#SVGID_4_)"/><linearGradient id="SVGID_5_" gradientUnits="userSpaceOnUse" x1="189.662" y1="83.763" x2="554.831" y2="83.763"><stop offset="0" stop-color="#008db2"/><stop offset="1" stop-color="#00d1b2"/></linearGradient><path d="M412 158.2s63.2-4.5 95.2-18.5c3.6 17.1 16.2 17.1 20.2 13 13.4 10.3 43.9-11.4 16-29.5 11.4-15.8-4.7-36-32.9-30.7 0 0 11.6-9.8-14.5-17.5-10.5-6.1-9.7-16.6-20.8-6.5 0 0 6.3-60.7-40.9-42.1 3.1-16.2-29-33.9-56.3-12.9 0 0-14.4-.3-15.4 3.1-1.3-10-25.8-21.1-38.3-6.5 0 0-3.6-7.9-13.5 0-9.8 7.9 2.1 19.4 2.1 19.4S274.1 18 277.3 49.1c-22.4-9.7-37.6 1.1-39.3 22.3-13.5-2.9-26.7-1.6-22.4 20.7-8.7 0-15.4 12.4-7.7 21.7 2.1 6.5.9 16.1 7.7 17.1-5.6 5.6-12.4 7.8-11.1 15.3-11.3-3.9-19.9 3.4-11.3 15.3 16.8 7.4 28-2.3 28-2.3s7.1-12.1 33.7 0 100-9.1 100-9.1l57.1 8.1z" fill="url(#SVGID_5_)"/><path class="st7" d="M134.6 465.4l.8 143.1 206.8 119.8c10.4 6 23.2 6 33.6 0l205.8-119.8 1.9-142.4-224.4-129.5-224.5 128.8z"/><path d="M246.9 401.3l-112.1 64.8L247 530.9l95.5 55.2c10.3 5.9 23 5.9 33.2 0l95.6-55.2 112.2-64.8-224.4-129.5-112.2 64.7z" opacity=".26" fill="#d8d8d8"/><path class="st7" d="M248.9 364.8v-75.6c0-11.7 12.6-19 22.8-13.1l72.7 42c9.2 5.3 20.4 5.3 29.6 0l72.7-41.8c10.1-5.8 22.7 1.5 22.7 13.1v75.4c0 5.4-2.9 10.4-7.6 13.1l-95.1 54.9c-4.7 2.7-10.5 2.7-15.2 0l-95-54.9c-4.7-2.7-7.6-7.7-7.6-13.1z"/><path d="M359.1 333.7c0-3.7-1.9-7.1-5.1-8.9l-83.9-49.6c-10.3-5.9-23.2 1.5-23.2 13.4v76c0 5.5 2.9 10.6 7.7 13.4l101.2 58.9c1.4.8 3.3-.2 3.3-1.9V333.7z" opacity=".26" fill="#e6e6e6"/><linearGradient id="SVGID_6_" gradientUnits="userSpaceOnUse" x1="240.445" y1="257.702" x2="477.758" y2="257.702"><stop offset="0" stop-color="#008db2"/><stop offset="1" stop-color="#00d1b2"/></linearGradient><path d="M367.1 330.8l102.7-59.3c10.6-6.1 10.6-21.4 0-27.6l-102.7-59.4c-4.9-2.8-11-2.8-15.9 0l-102.8 59.3c-10.6 6.1-10.6 21.4 0 27.6l102.8 59.3c4.9 3 11 3 15.9.1z" fill="url(#SVGID_6_)"/><linearGradient id="SVGID_7_" gradientUnits="userSpaceOnUse" x1="418.601" y1="131.636" x2="448.753" y2="131.636"><stop offset="0" stop-color="#0a50a0"/><stop offset="1" stop-color="#0a1a60"/></linearGradient><path d="M429.6 153.5l15.3-9.1c2.4-1.4 3.9-3.9 3.9-6.7v-21.5c-4.3 3.1-11.2-6.5-11.2-6.5v22.9c0 1.8-1 3.5-2.6 4.4l-16.4 9.7 11 6.8z" fill="url(#SVGID_7_)"/><linearGradient id="SVGID_8_" gradientUnits="userSpaceOnUse" x1="305.594" y1="186.341" x2="460.956" y2="186.341"><stop offset="0" stop-color="#0a50a0"/><stop offset="1" stop-color="#0a1a60"/></linearGradient><path d="M306.9 254.5c-1.7-1-1.7-3.4 0-4.4l102.6-59.7c7.2-4.2 7.2-14.7 0-18.9l-64.8-37.9c-4.9-2.9-8-8.2-8-13.9v-16.8s14.1 4 22-13l.3 17c.1 5.6 3.1 10.7 7.9 13.5l14.8 8.5 73.9 42.7c7.2 4.1 7.2 14.5 0 18.6L368 240.5c-2.7 1.6-2.7 5.5.1 7l43.1 1.8c2 1.1 2 4 0 5.2L365 281.2c-3.7 2.1-8.2 2.1-11.8 0l-46.3-26.7z" fill="url(#SVGID_8_)"/><g><linearGradient id="SVGID_9_" gradientUnits="userSpaceOnUse" x1="326.851" y1="184.589" x2="441.894" y2="184.589"><stop offset="0" stop-color="#0ff"/><stop offset="1" stop-color="#29abe2"/></linearGradient><path d="M359.1 268c-1.1 0-2.1-.2-3.1-.7l-27.8-13.5c-.8-.4-1.3-1.1-1.3-2 0-.9.4-1.6 1.2-2.1L437.9 187c2.2-1.2 3.5-3.5 3.5-6s-1.3-4.8-3.5-6l-84.1-48.6c-3.8-2.2-6.2-6.3-6.2-10.7v-14.6h.5v14.6c0 4.2 2.3 8.1 5.9 10.2l84.1 48.6c2.3 1.3 3.7 3.8 3.7 6.4 0 2.7-1.4 5.1-3.7 6.4L328.2 250c-.6.3-.9.9-.9 1.6 0 .7.4 1.3 1 1.6l27.8 13.5c1.9.9 4 .9 5.9 0l15.9-7.7c.9-.5 1.1-1.3 1-2s-.7-1.4-1.7-1.4h-21.5c-1 0-1.8.8-1.8 1.8v2.1h-.5v-2.1c0-1.3 1-2.3 2.3-2.3h21.5c1.2 0 2 .9 2.2 1.8s-.1 2-1.2 2.5l-15.9 7.7c-1 .6-2.1.9-3.2.9z" fill="url(#SVGID_9_)"/><linearGradient id="SVGID_10_" gradientUnits="userSpaceOnUse" x1="316.291" y1="188.34" x2="432.697" y2="188.34"><stop offset="0" stop-color="#0ff"/><stop offset="1" stop-color="#29abe2"/></linearGradient><path d="M359.1 274.1c-1.4 0-2.7-.3-4-1l-37.6-19.4c-.8-.4-1.2-1.2-1.3-2 0-.9.4-1.6 1.2-2.1l112.3-64.4c1.6-.9 2.5-2.5 2.5-4.3s-.9-3.4-2.5-4.3l-82.8-47.8c-3-1.7-4.8-4.9-4.8-8.4v-18h.5v18c0 3.3 1.8 6.3 4.6 8l82.8 47.8c1.7 1 2.7 2.7 2.7 4.7s-1 3.7-2.7 4.7L317.7 250c-.6.3-.9.9-.9 1.6s.4 1.3 1 1.6l37.6 19.4c2.4 1.2 5.2 1.2 7.5 0l33.7-17.3c.9-.5 1-1.3.9-2-.1-.6-.7-1.3-1.7-1.3H351c-1.6 0-2.8 1.3-2.8 2.8v2.2h-.5v-2.2c0-1.8 1.5-3.3 3.3-3.3h44.8c1.2 0 2 .9 2.2 1.7s-.1 2-1.2 2.5L363.1 273c-1.2.8-2.6 1.1-4 1.1z" fill="url(#SVGID_10_)"/><g><linearGradient id="SVGID_11_" gradientUnits="userSpaceOnUse" x1="337.851" y1="180.119" x2="450.939" y2="180.119"><stop offset="0" stop-color="#0ff"/><stop offset="1" stop-color="#29abe2"/></linearGradient><path d="M359.1 262.3c-.3 0-.6-.1-1-.2l-19.5-9.1c-.5-.2-.8-.7-.8-1.2s.3-1 .7-1.3l107.3-61.6c2.9-1.6 4.6-4.6 4.6-7.9 0-3.3-1.7-6.3-4.6-7.9l-87.2-50.3c-3.3-1.9-5.4-5.5-5.4-9.4V97.9h.5v15.5c0 3.7 2 7.1 5.2 9l87.2 50.3c3 1.7 4.8 4.9 4.8 8.3 0 3.5-1.8 6.6-4.8 8.3l-107.3 61.6c-.3.2-.5.5-.5.9s.2.7.5.8l19.5 9.1c.2.1.3.1.5.2V260c0-.8.7-1.5 1.5-1.5h3.6c.4 0 .7.2.8.6.1.4-.1.7-.4.9l-4.2 2.1c-.3.2-.7.2-1 .2zm1.2-3.3c-.5 0-1 .4-1 1v1.8c.2 0 .3-.1.5-.2l4.2-2.1c.2-.1.2-.2.2-.3 0-.1-.1-.2-.3-.2h-3.6z" fill="url(#SVGID_11_)"/></g></g><g><linearGradient id="SVGID_12_" gradientUnits="userSpaceOnUse" x1="423.804" y1="132.697" x2="443.519" y2="132.697"><stop offset="0" stop-color="#0ff"/><stop offset="1" stop-color="#29abe2"/></linearGradient><path d="M424.1 150.3l-.3-.4 17.2-10.4c1.2-.8 2-2.1 2-3.6v-20.8h.5v20.8c0 1.6-.9 3.2-2.3 4l-17.1 10.4z" fill="url(#SVGID_12_)"/></g><linearGradient id="SVGID_13_" gradientUnits="userSpaceOnUse" x1="369.106" y1="440.109" x2="573.495" y2="440.109"><stop offset="0" stop-color="#00d1b2"/><stop offset="1" stop-color="#197c82"/></linearGradient><path d="M374.1 448.8l89.1 51.5c5 2.9 11.2 2.9 16.2 0l89.1-51.4c6.7-3.9 6.7-17.5 0-21.3L479.4 380c-5-2.9-11.2-2.9-16.1 0l-89.1 47.5c-6.8 3.8-6.8 17.4-.1 21.3z" fill="url(#SVGID_13_)"/><linearGradient id="SVGID_14_" gradientUnits="userSpaceOnUse" x1="369.106" y1="436.132" x2="573.495" y2="436.132"><stop offset="0" stop-color="#008db2"/><stop offset="1" stop-color="#00d1b2"/></linearGradient><path d="M374.1 444.8l89.1 51.5c5 2.9 11.2 2.9 16.2 0l89.1-51.4c6.7-3.9 6.7-13.5 0-17.4L479.4 376c-5-2.9-11.2-2.9-16.1 0l-89.1 51.4c-6.8 3.9-6.8 13.5-.1 17.4z" fill="url(#SVGID_14_)"/><linearGradient id="SVGID_15_" gradientUnits="userSpaceOnUse" x1="144.818" y1="440.111" x2="349.118" y2="440.111"><stop offset="0" stop-color="#00d1b2"/><stop offset="1" stop-color="#197c82"/></linearGradient><path d="M149.8 448.8l89 51.4c5 2.9 11.2 2.9 16.2 0l89-51.4c6.7-3.9 6.7-17 0-20.8l-89-48c-5-2.9-11.2-2.9-16.1 0l-89 48c-6.8 3.8-6.8 16.9-.1 20.8z" fill="url(#SVGID_15_)"/><linearGradient id="SVGID_16_" gradientUnits="userSpaceOnUse" x1="144.818" y1="436.132" x2="349.118" y2="436.132"><stop offset="0" stop-color="#008db2"/><stop offset="1" stop-color="#00d1b2"/></linearGradient><path d="M149.8 444.8l89 51.4c5 2.9 11.2 2.9 16.2 0l89-51.4c6.7-3.9 6.7-13.5 0-17.4L255 376c-5-2.9-11.2-2.9-16.1 0l-89 51.4c-6.8 3.9-6.8 13.6-.1 17.4z" fill="url(#SVGID_16_)"/><path class="st27" d="M370.4 446.6v38.8l22.4 12.7v13.3M381.6 453.1v38.8M392.8 472.5v12.9l11.2 6.5v38.9l33.7 19.4v295.4"/><ellipse class="st27" cx="392.8" cy="512.9" rx="2" ry="1.2"/><ellipse class="st27" cx="370.2" cy="523.3" rx="2" ry="1.2"/><ellipse class="st27" cx="359.7" cy="505.4" rx="2" ry="1.2"/><ellipse class="st27" cx="314.3" cy="505.9" rx="2" ry="1.2"/><ellipse class="st27" cx="256.8" cy="511.7" rx="2" ry="1.2"/><ellipse class="st27" cx="249" cy="516.9" rx="2" ry="1.2"/><ellipse class="st27" cx="246.9" cy="554.5" rx="1.2" ry="2"/><ellipse class="st27" cx="225.8" cy="556.7" rx="1.2" ry="2"/><ellipse class="st27" cx="336.7" cy="466.7" rx="2" ry="1.2"/><ellipse class="st27" cx="404" cy="479" rx="2" ry="1.2"/><ellipse class="st27" cx="392.8" cy="471.3" rx="2" ry="1.2"/><ellipse class="st27" cx="336.7" cy="479" rx="2" ry="1.2"/><ellipse class="st27" cx="304.1" cy="589.1" rx="1.2" ry="2"/><ellipse class="st27" cx="336.6" cy="543" rx="2" ry="1.2"/><ellipse class="st27" cx="359.1" cy="529.3" rx="2" ry="1.2"/><ellipse class="st27" cx="347.9" cy="536.1" rx="2" ry="1.2"/><ellipse class="st27" cx="482.5" cy="552.2" rx="1.2" ry="2"/><g><linearGradient id="SVGID_17_" gradientUnits="userSpaceOnUse" x1="358.851" y1="626.732" x2="426.693" y2="626.732"><stop offset="0" stop-color="#00d1b2"/><stop offset="1" stop-color="#008db2"/></linearGradient><path fill="url(#SVGID_17_)" d="M426.3 816.4l-.1-259.6-44.9-25.9V505l-22.4-13v-55h.5v54.8l22.4 12.9v25.9l44.9 25.9v.2"/></g><path class="st27" d="M437.7 485.4l-11.1 6.7-11.4 6.9v25.3"/><g><linearGradient id="SVGID_18_" gradientUnits="userSpaceOnUse" x1="437.428" y1="654.071" x2="460.345" y2="654.071"><stop offset="0" stop-color="#00d1b2"/><stop offset="1" stop-color="#008db2"/></linearGradient><path fill="url(#SVGID_18_)" d="M459.9 816.4l-.1-279-22.4-12.9v-26.3l11.4-6.5.2.4-11.1 6.4v25.7l22.4 12.9v.2"/></g><path class="st27" d="M471.3 504.9l.1 13 11.1 6.4v25.9"/><ellipse class="st27" cx="415.2" cy="525.5" rx="2" ry="1.2"/><g><linearGradient id="SVGID_19_" gradientUnits="userSpaceOnUse" x1="426.187" y1="642.27" x2="449.119" y2="642.27"><stop offset="0" stop-color="#00d1b2"/><stop offset="1" stop-color="#008db2"/></linearGradient><path fill="url(#SVGID_19_)" d="M448.6 792.4V543.9l-22.4-13v-.1l.1-38.7h.5l-.1 38.5 22.4 13"/></g><path class="st27" d="M406 479h20.4M359.2 491.9l-11.3 6.5-22.4 13.3-56.1 32v331.1"/><path class="st27" d="M357.7 505.7l-77.1 44.6v38.8L303 602v245.8"/><path class="st27" d="M314.3 608.5v-64.7l56.1-32.4 11.2-6.5M314.3 543.8l-22.5 12.9v25.9l11.3 6.5M314.3 466l11.2 6.5h22.4v-26M336.7 466l-11.2-6.5"/><path class="st27" d="M325.5 472.5l-22.4 12.9-.1 26-44.8 25.9v312M370.4 524.3v13l22.2 13v12.9l-44.7 25.9v236.3"/><path class="st27" d="M359.1 530.8l.1 13 11.2 6.5v12.9l-33.7 19.4-.1 142.9"/><path class="st27" d="M347.9 537.3v25.9l-22.4 12.9v298.7M336.7 543.8l-.1 12.9-22.3 12.9M347.9 472.5v12.9l-33.6 19.5-.1-13 22.5-12.9"/><g><linearGradient id="SVGID_20_" gradientUnits="userSpaceOnUse" x1="392.476" y1="706.139" x2="404.248" y2="706.139"><stop offset="0" stop-color="#00d1b2"/><stop offset="1" stop-color="#008db2"/></linearGradient><path fill="url(#SVGID_20_)" d="M392.6 849.3V601.2l.1-.1 11-18.6v-12.7l-11.2-6.4.2-.4 11.5 6.5v13.2l-11.1 18.6"/></g><path class="st27" d="M258.1 511.4l33.7-19.5-.3 12.8-44.6 26.1V543l-11.5 7.1-55.7-32.3v-25.7l22.4-13.1M168.4 523.9v104.2M527.4 472.5l22.4 13 .3 142.6"/><path class="st27" d="M213.3 485.4l-22.6 13 .2 13.3 44.8 26.2-.2-13.4 11.5-6.7M246.9 795.7v-239"/><path class="st27" d="M190.7 472.6l-22.3 12.8.3 39.1 55.8 32.2M482.4 498.2l.1 13.2 11.2 5.5.2 39.9-11.4 19.4.2 90.5-11.3 6.6-.1-142.5-22.4-13v-12.9l10.3-6"/><linearGradient id="SVGID_21_" gradientUnits="userSpaceOnUse" x1="359.144" y1="283.904" x2="359.144" y2="173.201"><stop offset="0" stop-color="#0ff"/><stop offset="1" stop-color="#f2f2f2" stop-opacity="0"/></linearGradient><path d="M304.7 252.5l-.3-48.1c0-1.3.7-2.6 2-3.3l50.6-27.4c1.2-.7 2.8-.7 4 0l49.6 27.4c1.2.7 1.9 1.9 1.9 3.1l1.2 47.8c0 1.3-.7 2.5-1.9 3.2l-45.7 26.4c-4 2.7-8.9 3.3-14.1.1l-45.3-26.1c-1.2-.6-1.9-1.8-2-3.1z" opacity=".58" fill="url(#SVGID_21_)"/><linearGradient id="SVGID_22_" gradientUnits="userSpaceOnUse" x1="356.696" y1="274.048" x2="356.696" y2="198.011"><stop offset="0" stop-color="#0ff"/><stop offset="1" stop-color="#f2f2f2" stop-opacity="0"/></linearGradient><path d="M316.5 251.9l-.8-28.4c0-.8.4-1.5 1.2-1.8l40.8-23.4c.7-.4 1.6-.4 2.4 0l36.2 29.3c.7.4 1.1 1 1.1 1.8l.3 24.5c0 .7-.4 1.4-1.1 1.8l-34 17.4c-2.4 1.3-5.4 1.3-7.8 0l-37.1-19.5c-.7-.4-1.2-1-1.2-1.7z" opacity=".58" fill="url(#SVGID_22_)"/><linearGradient id="SVGID_23_" gradientUnits="userSpaceOnUse" x1="358.519" y1="261.746" x2="358.519" y2="214.934"><stop offset="0" stop-color="#0ff"/><stop offset="1" stop-color="#f2f2f2" stop-opacity="0"/></linearGradient><path d="M338.2 251.6l-.5-23.7c0-.6.3-1.1.9-1.4l20.2-11.5c.5-.3 1.2-.3 1.8 0l17.7 11.5c.5.3.8.8.8 1.3l.1 23.4c0 .5-.3 1-.8 1.3l-16.9 8.5c-1.8.9-3.5.8-5.2-.1l-17.2-8.1c-.5-.2-.8-.6-.9-1.2z" opacity=".58" fill="url(#SVGID_23_)"/><g><path class="st36" d="M439 410.2l29.2 16.9c2 1.1 4.4 1.1 6.4 0l29.2-16.9c2.8-1.6 2.8-5.8 0-7.4l-29.2-16.9c-2-1.1-4.4-1.1-6.4 0L439 402.8c-2.8 1.6-2.8 5.7 0 7.4z"/><path class="st36" d="M439 402.2l29.2 16.9c2 1.1 4.4 1.1 6.4 0l29.2-16.9c2.8-1.6 2.8-5.8 0-7.4L474.6 378c-2-1.1-4.4-1.1-6.4 0L439 394.8c-2.8 1.7-2.8 5.8 0 7.4z"/><path class="st36" d="M439 392.5l29.2 16.9c2 1.1 4.4 1.1 6.4 0l29.2-16.9c2.8-1.6 2.8-5.8 0-7.4l-29.2-16.9c-2-1.1-4.4-1.1-6.4 0L439 385.1c-2.8 1.7-2.8 5.8 0 7.4z"/><path class="st36" d="M438 382.3l29.2 16.9c2 1.1 4.4 1.1 6.4 0l29.2-16.9c2.8-1.6 2.8-5.8 0-7.4L473.6 358c-2-1.1-4.4-1.1-6.4 0L438 374.9c-2.8 1.6-2.8 5.7 0 7.4z"/><path class="st36" d="M438 371.5l29.2 16.9c2 1.1 4.4 1.1 6.4 0l29.2-16.9c2.8-1.6 2.8-5.8 0-7.4l-29.2-16.9c-2-1.1-4.4-1.1-6.4 0L438 364.1c-2.8 1.6-2.8 5.7 0 7.4z"/><linearGradient id="SVGID_24_" gradientUnits="userSpaceOnUse" x1="471.24" y1="433.695" x2="471.24" y2="338.677"><stop offset="0" stop-color="#0ff"/><stop offset="1" stop-color="#f2f2f2" stop-opacity="0"/></linearGradient><path d="M513.8 404.5v-36.6c0-3.9-2.1-7.5-5.4-9.4l-31.7-18.3c-3.4-1.9-7.5-1.9-10.9 0l-31.7 18.3c-3.4 1.9-5.4 5.5-5.4 9.4v36.6c0 3.9 2.1 7.5 5.4 9.4l31.7 18.3c3.4 1.9 7.5 1.9 10.9 0l31.7-18.3c3.4-1.9 5.4-5.5 5.4-9.4z" opacity=".58" fill="url(#SVGID_24_)"/></g><g><linearGradient id="SVGID_25_" gradientUnits="userSpaceOnUse" x1="509.637" y1="454.427" x2="509.637" y2="359.409"><stop offset="0" stop-color="#0ff"/><stop offset="1" stop-color="#f2f2f2" stop-opacity="0"/></linearGradient><path d="M552.2 425.2v-36.6c0-3.9-2.1-7.5-5.4-9.4l-31.7-18.3c-3.4-1.9-7.5-1.9-10.9 0l-31.7 18.3c-3.4 1.9-5.4 5.5-5.4 9.4v36.6c0 3.9 2.1 7.5 5.4 9.4l31.7 18.3c3.4 1.9 7.5 1.9 10.9 0l31.7-18.3c3.4-1.9 5.4-5.5 5.4-9.4z" opacity=".58" fill="url(#SVGID_25_)"/><path class="st36" d="M477.4 430.9l29.2 16.9c2 1.1 4.4 1.1 6.4 0l29.2-16.9c2.8-1.6 2.8-5.8 0-7.4L513 406.6c-2-1.1-4.4-1.1-6.4 0l-29.2 16.9c-2.8 1.6-2.8 5.7 0 7.4z"/><path class="st36" d="M477.4 423l29.2 16.9c2 1.1 4.4 1.1 6.4 0l29.2-16.9c2.8-1.6 2.8-5.8 0-7.4L513 398.7c-2-1.1-4.4-1.1-6.4 0l-29.2 16.9c-2.8 1.6-2.8 5.7 0 7.4z"/><path class="st36" d="M477.4 413.3l29.2 16.9c2 1.1 4.4 1.1 6.4 0l29.2-16.9c2.8-1.6 2.8-5.8 0-7.4L513 389c-2-1.1-4.4-1.1-6.4 0l-29.2 16.9c-2.8 1.6-2.8 5.7 0 7.4z"/><path class="st36" d="M476.4 403l29.2 16.9c2 1.1 4.4 1.1 6.4 0l29.2-16.9c2.8-1.6 2.8-5.8 0-7.4L512 378.7c-2-1.1-4.4-1.1-6.4 0l-29.2 16.9c-2.8 1.6-2.8 5.7 0 7.4z"/></g><g><path class="st36" d="M400.7 430.9l29.2 16.9c2 1.1 4.4 1.1 6.4 0l29.2-16.9c2.8-1.6 2.8-5.8 0-7.4l-29.2-16.9c-2-1.1-4.4-1.1-6.4 0l-29.2 16.9c-2.9 1.6-2.9 5.7 0 7.4z"/><path class="st36" d="M400.7 423l29.2 16.9c2 1.1 4.4 1.1 6.4 0l29.2-16.9c2.8-1.6 2.8-5.8 0-7.4l-29.2-16.9c-2-1.1-4.4-1.1-6.4 0l-29.2 16.9c-2.9 1.6-2.9 5.7 0 7.4z"/><path class="st36" d="M400.7 413.3l29.2 16.9c2 1.1 4.4 1.1 6.4 0l29.2-16.9c2.8-1.6 2.8-5.8 0-7.4L436.3 389c-2-1.1-4.4-1.1-6.4 0l-29.2 16.9c-2.9 1.6-2.9 5.7 0 7.4z"/><path class="st36" d="M399.7 403l29.2 16.9c2 1.1 4.4 1.1 6.4 0l29.2-16.9c2.8-1.6 2.8-5.8 0-7.4l-29.2-16.9c-2-1.1-4.4-1.1-6.4 0l-29.2 16.9c-2.9 1.6-2.9 5.7 0 7.4z"/><path class="st36" d="M399.7 393.4l29.2 16.9c2 1.1 4.4 1.1 6.4 0l29.2-16.9c2.8-1.6 2.8-5.8 0-7.4l-29.2-16.9c-2-1.1-4.4-1.1-6.4 0L399.7 386c-2.9 1.7-2.9 5.8 0 7.4z"/><linearGradient id="SVGID_26_" gradientUnits="userSpaceOnUse" x1="432.89" y1="454.427" x2="432.89" y2="359.409"><stop offset="0" stop-color="#0ff"/><stop offset="1" stop-color="#f2f2f2" stop-opacity="0"/></linearGradient><path d="M475.5 425.2v-36.6c0-3.9-2.1-7.5-5.4-9.4l-31.7-18.3c-3.4-1.9-7.5-1.9-10.9 0l-31.7 18.3c-3.4 1.9-5.4 5.5-5.4 9.4v36.6c0 3.9 2.1 7.5 5.4 9.4l31.7 18.3c3.4 1.9 7.5 1.9 10.9 0l31.7-18.3c3.3-1.9 5.4-5.5 5.4-9.4z" opacity=".58" fill="url(#SVGID_26_)"/></g><g><linearGradient id="SVGID_27_" gradientUnits="userSpaceOnUse" x1="470.24" y1="476.823" x2="470.24" y2="381.805"><stop offset="0" stop-color="#0ff"/><stop offset="1" stop-color="#f2f2f2" stop-opacity="0"/></linearGradient><path d="M512.8 447.6V411c0-3.9-2.1-7.5-5.4-9.4l-31.7-18.3c-3.4-1.9-7.5-1.9-10.9 0l-31.7 18.3c-3.4 1.9-5.4 5.5-5.4 9.4v36.6c0 3.9 2.1 7.5 5.4 9.4l31.7 18.3c3.4 1.9 7.5 1.9 10.9 0l31.7-18.3c3.4-1.9 5.4-5.5 5.4-9.4z" opacity=".58" fill="url(#SVGID_27_)"/><path class="st36" d="M438 453.3l29.2 16.9c2 1.1 4.4 1.1 6.4 0l29.2-16.9c2.8-1.6 2.8-5.8 0-7.4L473.6 429c-2-1.1-4.4-1.1-6.4 0L438 445.9c-2.8 1.6-2.8 5.7 0 7.4z"/><path class="st36" d="M438 445.4l29.2 16.9c2 1.1 4.4 1.1 6.4 0l29.2-16.9c2.8-1.6 2.8-5.8 0-7.4l-29.2-16.9c-2-1.1-4.4-1.1-6.4 0L438 438c-2.8 1.6-2.8 5.7 0 7.4z"/><path class="st36" d="M438 435.7l29.2 16.9c2 1.1 4.4 1.1 6.4 0l29.2-16.9c2.8-1.6 2.8-5.8 0-7.4l-29.2-16.9c-2-1.1-4.4-1.1-6.4 0L438 428.3c-2.8 1.6-2.8 5.7 0 7.4z"/><path class="st36" d="M437 425.4l29.2 16.9c2 1.1 4.4 1.1 6.4 0l29.2-16.9c2.8-1.6 2.8-5.8 0-7.4l-29.2-16.9c-2-1.1-4.4-1.1-6.4 0L437 418c-2.8 1.6-2.8 5.7 0 7.4z"/></g><g><path class="st36" d="M280.3 410.2L251.1 427c-2 1.1-4.4 1.1-6.4 0l-29.2-16.9c-2.8-1.6-2.8-5.8 0-7.4l29.2-16.9c2-1.1 4.4-1.1 6.4 0l29.2 16.9c2.9 1.7 2.9 5.8 0 7.5z"/><path class="st36" d="M280.3 402.2l-29.2 16.9c-2 1.1-4.4 1.1-6.4 0l-29.2-16.9c-2.8-1.6-2.8-5.8 0-7.4l29.2-16.9c2-1.1 4.4-1.1 6.4 0l29.2 16.9c2.9 1.7 2.9 5.8 0 7.4z"/><path class="st36" d="M280.3 392.5l-29.2 16.9c-2 1.1-4.4 1.1-6.4 0l-29.2-16.9c-2.8-1.6-2.8-5.8 0-7.4l29.2-16.9c2-1.1 4.4-1.1 6.4 0l29.2 16.9c2.9 1.7 2.9 5.8 0 7.4z"/><path class="st36" d="M281.3 382.3l-29.2 16.9c-2 1.1-4.4 1.1-6.4 0l-29.2-16.9c-2.8-1.6-2.8-5.8 0-7.4l29.2-16.9c2-1.1 4.4-1.1 6.4 0l29.2 16.9c2.9 1.6 2.9 5.7 0 7.4z"/><path class="st36" d="M281.3 371.5l-29.2 16.9c-2 1.1-4.4 1.1-6.4 0l-29.2-16.9c-2.8-1.6-2.8-5.8 0-7.4l29.2-16.9c2-1.1 4.4-1.1 6.4 0l29.2 16.9c2.9 1.6 2.9 5.7 0 7.4z"/><linearGradient id="SVGID_28_" gradientUnits="userSpaceOnUse" x1="238.018" y1="433.695" x2="238.018" y2="338.677" gradientTransform="matrix(-1 0 0 1 486.137 0)"><stop offset="0" stop-color="#0ff"/><stop offset="1" stop-color="#f2f2f2" stop-opacity="0"/></linearGradient><path d="M205.5 404.5v-36.6c0-3.9 2.1-7.5 5.4-9.4l31.7-18.3c3.4-1.9 7.5-1.9 10.9 0l31.7 18.3c3.4 1.9 5.4 5.5 5.4 9.4v36.6c0 3.9-2.1 7.5-5.4 9.4l-31.7 18.3c-3.4 1.9-7.5 1.9-10.9 0L211 413.9c-3.4-1.9-5.5-5.5-5.5-9.4z" opacity=".58" fill="url(#SVGID_28_)"/></g><g><linearGradient id="SVGID_29_" gradientUnits="userSpaceOnUse" x1="276.414" y1="454.427" x2="276.414" y2="359.409" gradientTransform="matrix(-1 0 0 1 486.137 0)"><stop offset="0" stop-color="#0ff"/><stop offset="1" stop-color="#f2f2f2" stop-opacity="0"/></linearGradient><path d="M167.1 425.2v-36.6c0-3.9 2.1-7.5 5.4-9.4l31.7-18.3c3.4-1.9 7.5-1.9 10.9 0l31.7 18.3c3.4 1.9 5.4 5.5 5.4 9.4v36.6c0 3.9-2.1 7.5-5.4 9.4L215.2 453c-3.4 1.9-7.5 1.9-10.9 0l-31.7-18.3c-3.4-2-5.5-5.6-5.5-9.5z" opacity=".58" fill="url(#SVGID_29_)"/><path class="st36" d="M241.9 430.9l-29.2 16.9c-2 1.1-4.4 1.1-6.4 0l-29.2-16.9c-2.8-1.6-2.8-5.8 0-7.4l29.2-16.9c2-1.1 4.4-1.1 6.4 0l29.2 16.9c2.9 1.6 2.9 5.7 0 7.4z"/><path class="st36" d="M241.9 423l-29.2 16.9c-2 1.1-4.4 1.1-6.4 0L177.1 423c-2.8-1.6-2.8-5.8 0-7.4l29.2-16.9c2-1.1 4.4-1.1 6.4 0l29.2 16.9c2.9 1.6 2.9 5.7 0 7.4z"/><path class="st36" d="M241.9 413.3l-29.2 16.9c-2 1.1-4.4 1.1-6.4 0l-29.2-16.9c-2.8-1.6-2.8-5.8 0-7.4l29.2-16.9c2-1.1 4.4-1.1 6.4 0l29.2 16.9c2.9 1.6 2.9 5.7 0 7.4z"/><path class="st36" d="M242.9 403l-29.2 16.9c-2 1.1-4.4 1.1-6.4 0L178.1 403c-2.8-1.6-2.8-5.8 0-7.4l29.2-16.9c2-1.1 4.4-1.1 6.4 0l29.2 16.9c2.9 1.6 2.9 5.7 0 7.4z"/></g><g><path class="st36" d="M318.7 430.9l-29.2 16.9c-2 1.1-4.4 1.1-6.4 0l-29.2-16.9c-2.8-1.6-2.8-5.8 0-7.4l29.2-16.9c2-1.1 4.4-1.1 6.4 0l29.2 16.9c2.8 1.6 2.8 5.7 0 7.4z"/><path class="st36" d="M318.7 423l-29.2 16.9c-2 1.1-4.4 1.1-6.4 0L253.8 423c-2.8-1.6-2.8-5.8 0-7.4l29.2-16.9c2-1.1 4.4-1.1 6.4 0l29.2 16.9c2.9 1.6 2.9 5.7.1 7.4z"/><path class="st36" d="M318.7 413.3l-29.2 16.9c-2 1.1-4.4 1.1-6.4 0l-29.2-16.9c-2.8-1.6-2.8-5.8 0-7.4l29.2-16.9c2-1.1 4.4-1.1 6.4 0l29.2 16.9c2.8 1.6 2.8 5.7 0 7.4z"/><path class="st36" d="M319.7 403l-29.2 16.9c-2 1.1-4.4 1.1-6.4 0L254.8 403c-2.8-1.6-2.8-5.8 0-7.4l29.2-16.9c2-1.1 4.4-1.1 6.4 0l29.2 16.9c2.9 1.6 2.9 5.7.1 7.4z"/><path class="st36" d="M319.7 393.4l-29.2 16.9c-2 1.1-4.4 1.1-6.4 0l-29.2-16.9c-2.8-1.6-2.8-5.8 0-7.4l29.2-16.9c2-1.1 4.4-1.1 6.4 0l29.2 16.9c2.8 1.7 2.8 5.8 0 7.4z"/><linearGradient id="SVGID_30_" gradientUnits="userSpaceOnUse" x1="199.668" y1="454.427" x2="199.668" y2="359.409" gradientTransform="matrix(-1 0 0 1 486.137 0)"><stop offset="0" stop-color="#0ff"/><stop offset="1" stop-color="#f2f2f2" stop-opacity="0"/></linearGradient><path d="M243.9 425.2v-36.6c0-3.9 2.1-7.5 5.4-9.4l31.7-18.3c3.4-1.9 7.5-1.9 10.9 0l31.7 18.3c3.4 1.9 5.4 5.5 5.4 9.4v36.6c0 3.9-2.1 7.5-5.4 9.4L291.9 453c-3.4 1.9-7.5 1.9-10.9 0l-31.7-18.3c-3.4-2-5.4-5.6-5.4-9.5z" opacity=".58" fill="url(#SVGID_30_)"/></g><g><linearGradient id="SVGID_31_" gradientUnits="userSpaceOnUse" x1="237.018" y1="476.823" x2="237.018" y2="381.805" gradientTransform="matrix(-1 0 0 1 486.137 0)"><stop offset="0" stop-color="#0ff"/><stop offset="1" stop-color="#f2f2f2" stop-opacity="0"/></linearGradient><path d="M206.5 447.6V411c0-3.9 2.1-7.5 5.4-9.4l31.7-18.3c3.4-1.9 7.5-1.9 10.9 0l31.7 18.3c3.4 1.9 5.4 5.5 5.4 9.4v36.6c0 3.9-2.1 7.5-5.4 9.4l-31.7 18.3c-3.4 1.9-7.5 1.9-10.9 0L212 457c-3.4-1.9-5.5-5.5-5.5-9.4z" opacity=".58" fill="url(#SVGID_31_)"/><path class="st36" d="M281.3 453.3l-29.2 16.9c-2 1.1-4.4 1.1-6.4 0l-29.2-16.9c-2.8-1.6-2.8-5.8 0-7.4l29.2-16.9c2-1.1 4.4-1.1 6.4 0l29.2 16.9c2.9 1.6 2.9 5.7 0 7.4z"/><path class="st36" d="M281.3 445.4l-29.2 16.9c-2 1.1-4.4 1.1-6.4 0l-29.2-16.9c-2.8-1.6-2.8-5.8 0-7.4l29.2-16.9c2-1.1 4.4-1.1 6.4 0l29.2 16.9c2.9 1.6 2.9 5.7 0 7.4z"/><path class="st36" d="M281.3 435.7l-29.2 16.9c-2 1.1-4.4 1.1-6.4 0l-29.2-16.9c-2.8-1.6-2.8-5.8 0-7.4l29.2-16.9c2-1.1 4.4-1.1 6.4 0l29.2 16.9c2.9 1.6 2.9 5.7 0 7.4z"/><path class="st36" d="M282.3 425.4l-29.2 16.9c-2 1.1-4.4 1.1-6.4 0l-29.2-16.9c-2.8-1.6-2.8-5.8 0-7.4l29.2-16.9c2-1.1 4.4-1.1 6.4 0l29.2 16.9c2.9 1.6 2.9 5.7 0 7.4z"/></g></svg>
