<svg xmlns="http://www.w3.org/2000/svg" viewBox="0 0 944.39 201.18"><defs><style>.cls-1{fill:#fff}</style></defs><g id="Layer_2" data-name="Layer 2"><g id="logos"><path class="cls-1" d="M41.87 40.61H0v156.58h41.87v-85.22h24.18V76.76H41.87V40.61zM162.86 72.77c-16.67 0-28.64 6.11-38.5 19.25h-.47V40.61H81.17v156.58h42.72v-61.74c0-14.08 5.4-28.64 22.3-28.64 17.14 0 19.25 14.56 19.25 28.64v61.74h42.72v-73.71c0-30.48-14.78-50.71-45.3-50.71zM288.26 72.77c-39.2 0-66.66 24.18-66.66 64.32 0 41.55 29.81 64.09 69.72 64.09 13.85 0 27.46-3.29 38.49-10.1s19.49-17.08 22.77-31.22H311.5c-4.69 8-11.26 11-20.42 11-17.61 0-26.76-9.39-26.76-26.76h89.91v-4.46c0-41.05-24.18-66.87-65.97-66.87zM265 119.49c2.59-12.44 12.92-19 25.36-19 11.5 0 22.06 7.51 24.17 19zM394.65 19.25c-11.74 13.38-12.21 25.59-12.21 42.26v15.25h-15V112h15v85.22h42.72V112H455V76.76h-29.84V57.28c0-13.62 3.76-20.19 14.79-20.19 5.64 0 10.1 1.88 15 4V4.23A38.2 38.2 0 00436.67 0a54.69 54.69 0 00-42.02 19.25zM556.27 141.08c0 15.26-3.76 26.06-21.37 26.06s-21.36-10.8-21.36-26.06V76.76h-42.72v72.54c0 39.67 27.93 51.88 64.08 51.88S599 189 599 149.3V76.76h-42.73zM670.84 40.61h-42.73v36.15h-13.85v35.21h13.85v85.22h42.73v-85.22h24.18V76.76h-24.18V40.61zM795.39 141.08c0 15.26-3.75 26.06-21.36 26.06s-21.36-10.8-21.36-26.06V76.76h-42.73v72.54c0 39.67 27.94 51.88 64.09 51.88s64.08-12.18 64.08-51.88V76.76h-42.72zM936.18 75.12c-16.67 0-30.76 6.57-39 21.36h-.47V76.76H854v120.43h42.73V148.6c0-20.66 5.86-36.39 29.57-36.39 6.58 0 12.21.7 18.08 4V75.12z"/></g></g></svg>