<svg id="Layer_1" xmlns="http://www.w3.org/2000/svg" xmlns:xlink="http://www.w3.org/1999/xlink" viewBox="0 0 375.8 244.1"><style>.st1{fill:#fff}.st2{display:none}</style><path class="st1" d="M241.3 188.9c13.1 17.3 33.7 6.5 39.3 3.2 8.2 7.9 28 9.3 39.1-3.2 24 8.8 47.9 5.8 45-16.2 14.2-17.7 0-32.4-14.4-29.1.7-13.5-10.7-19.4-25.1-16.7-2.4-16.2-30.2-11.1-30.2 1.9-19.9-8.4-31.3 14.2-31.3 14.2s-23.4-1.6-21.3 15.3c-11.7 15.1-1.1 30.6-1.1 30.6z"/><path class="st1" d="M227.5 158.4s63.2-4.5 95.2-18.5c3.6 17.1 16.2 17.1 20.2 13 13.4 10.3 43.9-11.4 16-29.5 11.4-15.8-4.7-36-32.9-30.7 0 0 11.6-9.8-14.5-17.5-10.5-6.1-9.7-16.6-20.8-6.5 0 0 6.3-60.7-40.9-42.1 3.1-16.2-29-33.9-56.3-12.9 0 0-14.4-.3-15.4 3.1-1.3-10-25.8-21.1-38.3-6.5 0 0-3.6-7.9-13.5 0s2.1 19.4 2.1 19.4-38.7-11.6-35.6 19.6c-22.4-9.7-37.6 1.1-39.3 22.3C40 68.7 26.9 70 31.1 92.3c-8.7 0-15.4 12.4-7.7 21.7 2.1 6.5.9 16.1 7.7 17.1-5.6 5.6-12.4 7.8-11.1 15.3-11.3-3.9-19.9 3.4-11.3 15.3 16.8 7.4 28-2.3 28-2.3s7.1-12.1 33.7 0 100-9.1 100-9.1l57.1 8.1z"/><path class="st1" d="M242.4 155.2l18-10.6c2.4-1.4 3.9-3.9 3.9-6.7v-21.5c-4.3 3.1-11.2-6.5-11.2-6.5v22.9c0 1.8-1 3.5-2.6 4.4l-19 11.2 10.9 6.8z"/><path class="st1" d="M145.5 240.7c-1.9 0-2.6-2.5-.9-3.4l80.4-46.8c7.2-4.2 7.2-14.7 0-18.9l-64.8-37.9c-4.9-2.9-8-8.2-8-13.9V103s14.1 4 22-13l.3 17c.1 5.6 3.1 10.7 7.9 13.5l14.8 8.5 73.9 42.7c7.2 4.1 7.2 14.5 0 18.6L185 239.7c-1 .6-2.1.9-3.3.9l-36.2.1z"/><g class="st2"><linearGradient id="SVGID_1_" gradientUnits="userSpaceOnUse" x1="1453.814" y1="1157.412" x2="1453.814" y2="885.384"><stop offset="0" stop-color="#460055"/><stop offset=".994" stop-color="#940080"/></linearGradient><path opacity=".76" fill="url(#SVGID_1_)" d="M1230.1 1027.4l223.4 130 224-129.3v-13l-222.9-129.7-224.5 129z"/><linearGradient id="SVGID_2_" gradientUnits="userSpaceOnUse" x1="1453.814" y1="1144.459" x2="1453.814" y2="885.384"><stop offset="0" stop-color="#460055"/><stop offset=".994" stop-color="#940080"/></linearGradient><path opacity=".76" fill="url(#SVGID_2_)" d="M1230.1 1014.4l223.4 130.1 224-129.4-222.6-129.7z"/></g><g class="st2"><image width="273" height="248" xlink:href="B0B477C546CFE0A0.png" transform="translate(14.032 -172.465)" overflow="visible" opacity=".2"/><linearGradient id="SVGID_3_" gradientUnits="userSpaceOnUse" x1="137.779" y1="-66.506" x2="164.955" y2="-34.119"><stop offset="0" stop-color="#008db2" stop-opacity=".5"/><stop offset=".238" stop-color="#00a7b2" stop-opacity=".619"/><stop offset=".515" stop-color="#00beb2" stop-opacity=".757"/><stop offset=".775" stop-color="#00ccb2" stop-opacity=".888"/><stop offset="1" stop-color="#00d1b2"/></linearGradient><path d="M127.8-36.3s8.6 11.6 20.5 3.9c8.2 2.7 24.5-1.6 25.9-16 6.2 1.6 11-9.2 4.3-12.6-6.7-3.4-21.1-10.1-27.8-1.3-18.6 1.3-45 10-22.9 26z" fill="url(#SVGID_3_)"/></g></svg>