<svg xmlns="http://www.w3.org/2000/svg" viewBox="0 0 944.39 201.18"><defs><style>.cls-1{fill:#fff;}</style></defs><title>Asset 1</title><g id="Layer_2" data-name="Layer 2"><g id="logos"><polygon class="cls-1" points="41.87 40.61 0 40.61 0 197.19 41.87 197.19 41.87 111.97 66.05 111.97 66.05 76.76 41.87 76.76 41.87 40.61"/><path class="cls-1" d="M162.86,72.77c-16.67,0-28.64,6.11-38.5,19.25h-.47V40.61H81.17V197.19h42.72V135.45c0-14.08,5.4-28.64,22.3-28.64,17.14,0,19.25,14.56,19.25,28.64v61.74h42.72V123.48C208.16,93,193.38,72.77,162.86,72.77Z"/><path class="cls-1" d="M288.26,72.77c-39.2,0-66.66,24.18-66.66,64.32,0,41.55,29.81,64.09,69.72,64.09,13.85,0,27.46-3.29,38.49-10.1S349.3,174,352.58,159.86H311.5c-4.69,8-11.26,11-20.42,11-17.61,0-26.76-9.39-26.76-26.76h89.91v-4.46C354.23,98.59,330.05,72.77,288.26,72.77ZM265,119.49c2.59-12.44,12.92-19,25.36-19,11.5,0,22.06,7.51,24.17,19Z"/><path class="cls-1" d="M394.65,19.25c-11.74,13.38-12.21,25.59-12.21,42.26V76.76h-15V112h15v85.22h42.72V112H455V76.76H425.16V57.28c0-13.62,3.76-20.19,14.79-20.19,5.64,0,10.1,1.88,15,4V4.23A38.2,38.2,0,0,0,436.67,0,54.69,54.69,0,0,0,394.65,19.25Z"/><path class="cls-1" d="M556.27,141.08c0,15.26-3.76,26.06-21.37,26.06s-21.36-10.8-21.36-26.06V76.76H470.82V149.3c0,39.67,27.93,51.88,64.08,51.88S599,189,599,149.3V76.76H556.27Z"/><polygon class="cls-1" points="670.84 40.61 628.11 40.61 628.11 76.76 614.26 76.76 614.26 111.97 628.11 111.97 628.11 197.19 670.84 197.19 670.84 111.97 695.02 111.97 695.02 76.76 670.84 76.76 670.84 40.61"/><path class="cls-1" d="M795.39,141.08c0,15.26-3.75,26.06-21.36,26.06s-21.36-10.8-21.36-26.06V76.76H709.94V149.3c0,39.67,27.94,51.88,64.09,51.88S838.11,189,838.11,149.3V76.76H795.39Z"/><path class="cls-1" d="M936.18,75.12c-16.67,0-30.76,6.57-39,21.36h-.47V76.76H854V197.19h42.73V148.6c0-20.66,5.86-36.39,29.57-36.39,6.58,0,12.21.7,18.08,4V75.12Z"/></g></g></svg>