<svg width="200" height="150" viewBox="0 0 800 600" fill="none" xmlns="http://www.w3.org/2000/svg"><path d="M498.747 388.518s-97.426 20.697-121.361 2.365c-23.936-18.33-31.47-42.681-31.47-42.681s2.913 10.248 21.888 20.153c7.824 4.083 22.65 6.405 33.138 5.516 32.597-2.76 39.517-3.291 45.161-3.852 3.265-.324 19.803-3.241 27.76-25.037 3.491-9.557 12.7-40.045 12.7-40.045 7.24 43.543 5.565 63.811 12.184 83.581z" stroke="#265F58"/><path d="M482.177 305.012a.83.83 0 11.002-1.664.83.83 0 01-.002 1.664z" fill="#231F20" stroke="#265F58"/><path d="M482.178 302.088a2.09 2.09 0 10-.003 4.18 2.09 2.09 0 00.003-4.18z" fill="#414042" stroke="#265F58"/><path d="M350.043 335.391a.835.835 0 01-.442-.127.831.831 0 11.442.127z" fill="#231F20" stroke="#265F58"/><path d="M350.046 332.471a2.09 2.09 0 10-.006 4.181 2.09 2.09 0 00.006-4.181z" fill="#414042" stroke="#265F58"/><path d="M456.725 318.914a.813.813 0 01-.444-.131.82.82 0 01-.366-.519.819.819 0 01.109-.625.825.825 0 011.146-.256.824.824 0 01.366.52.819.819 0 01-.109.625.823.823 0 01-.702.386z" fill="#231F20" stroke="#265F58"/><path d="M456.725 315.995a2.091 2.091 0 10-.002 4.18 2.091 2.091 0 00.002-4.18z" fill="#414042" stroke="#265F58"/><path d="M475.948 293.389a.834.834 0 01-.699-1.277.83.83 0 111.404.888.829.829 0 01-.705.389z" fill="#231F20" stroke="#265F58"/><path d="M475.956 290.466a2.09 2.09 0 10-.005 4.18 2.09 2.09 0 00.005-4.18z" fill="#414042" stroke="#265F58"/><path d="M471.768 332.155a.815.815 0 01-.442-.131.83.83 0 01-.257-1.146.827.827 0 011.145-.256.83.83 0 01-.446 1.533z" fill="#231F20" stroke="#265F58"/><path d="M471.772 329.232a2.09 2.09 0 101.764 3.209 2.088 2.088 0 00-1.764-3.209z" fill="#414042" stroke="#265F58"/><path d="M460.906 348.322a.833.833 0 01-.702-1.275.826.826 0 011.147-.255.827.827 0 01-.445 1.53z" fill="#231F20" stroke="#265F58"/><path d="M460.907 345.402a2.091 2.091 0 10-.003 4.18 2.091 2.091 0 00.003-4.18z" fill="#414042" stroke="#265F58"/><path d="M446.683 339.963a.812.812 0 01-.442-.13.82.82 0 01-.367-.519.823.823 0 01.11-.627.825.825 0 011.145-.259.834.834 0 01.257 1.149.83.83 0 01-.703.386z" fill="#231F20" stroke="#265F58"/><path d="M446.688 337.04a2.09 2.09 0 10-.004 4.18 2.09 2.09 0 00.004-4.18z" fill="#414042" stroke="#265F58"/><path d="M438.265 363.871a.813.813 0 01-.443-.13.827.827 0 01-.258-1.144.832.832 0 011.148-.258.83.83 0 01-.447 1.532z" fill="#231F20" stroke="#265F58"/><path d="M438.266 360.948a2.09 2.09 0 10-.004 4.181 2.09 2.09 0 00.004-4.181z" fill="#414042" stroke="#265F58"/><path d="M361.595 353.44a.814.814 0 01-.443-.131.827.827 0 01-.257-1.146.828.828 0 011.147-.256.832.832 0 01-.447 1.533z" fill="#231F20" stroke="#265F58"/><path d="M361.597 350.517a2.089 2.089 0 00-1.121 3.856 2.088 2.088 0 002.884-.647 2.091 2.091 0 00-1.763-3.209z" fill="#414042" stroke="#265F58"/><path d="M395.307 363.038a.83.83 0 11.005-1.662.83.83 0 01-.005 1.662z" fill="#231F20" stroke="#265F58"/><path d="M395.313 360.116a2.091 2.091 0 10-.002 4.183 2.091 2.091 0 00.002-4.183z" fill="#414042" stroke="#265F58"/><path d="M399.49 312.187a.836.836 0 01-.701-1.277.83.83 0 011.512.263.827.827 0 01-.108.625.829.829 0 01-.703.389z" fill="#231F20" stroke="#265F58"/><path d="M399.495 309.265a2.091 2.091 0 10-.003 4.182 2.091 2.091 0 00.003-4.182z" fill="#414042" stroke="#265F58"/><path d="M367.799 330.063a.83.83 0 11.003-1.662.83.83 0 01-.003 1.662z" fill="#231F20" stroke="#265F58"/><path d="M367.806 327.142a2.089 2.089 0 10-.005 4.18 2.091 2.091 0 00.005-4.18z" fill="#414042" stroke="#265F58"/><path d="M435.341 317.014a.828.828 0 01-.7-1.277.83.83 0 011.147-.256.83.83 0 01-.447 1.533z" fill="#231F20" stroke="#265F58"/><path d="M435.349 314.092a2.09 2.09 0 10-.006 4.183 2.09 2.09 0 00.006-4.183z" fill="#414042" stroke="#265F58"/><path d="M336.297 298.736a.83.83 0 01.006-1.663c.156 0 .309.045.442.131a.824.824 0 01.365.519.814.814 0 01-.108.625.826.826 0 01-.705.388z" fill="#231F20" stroke="#265F58"/><path d="M336.302 295.813a2.09 2.09 0 10-.004 4.18 2.09 2.09 0 00.004-4.18z" fill="#414042" stroke="#265F58"/><path d="M377.382 352.506a.83.83 0 11.002-1.664.83.83 0 01-.002 1.664z" fill="#231F20" stroke="#265F58"/><path d="M377.384 349.585a2.09 2.09 0 101.763 3.209 2.09 2.09 0 00-1.763-3.209z" fill="#414042" stroke="#265F58"/><path d="M341.541 317.014a.827.827 0 01-.442-.128.834.834 0 01-.257-1.149.83.83 0 011.146-.256.832.832 0 01-.447 1.533z" fill="#231F20" stroke="#265F58"/><path d="M341.548 314.092a2.089 2.089 0 10-.004 4.182c.692 0 1.37-.344 1.768-.973a2.088 2.088 0 00-.648-2.883 2.077 2.077 0 00-1.116-.326z" fill="#414042" stroke="#265F58"/><path d="M420.752 356.767a.833.833 0 01-.7-1.278.833.833 0 011.512.264.83.83 0 01-.812 1.014z" fill="#231F20" stroke="#265F58"/><path d="M420.755 353.846a2.091 2.091 0 10-.003 4.182 2.091 2.091 0 00.003-4.182z" fill="#414042" stroke="#265F58"/><path d="M501.506 408.753l-1.682-21.947 161.82 88.181v81.138c0 7.621-22.655 11.317-40.678 14.257-7.605 1.241-14.385 2.348-18.291 3.557-148.54 46.016-234.373-23.945-391.932-.001-27.91 4.24-71.743 4.002-71.743-6.834v-81.137l179.803-95.028v29.878c19.187 36.287 60.194 40.77 89.208 42.586 9.514.054 20.178-.508 31.53-2.079 37.061-7.803 55.147-32.966 61.965-52.571z" stroke="#265F58"/><path d="M416.721 493.272c-42.416.002-84.761-13.79-100.331-30.021-2.021-2.105-3.063-5.02-2.856-7.996l10.55-152.045a2.512 2.512 0 012.688-2.338 2.518 2.518 0 012.338 2.687l-10.55 152.045c-.108 1.56.426 3.076 1.465 4.159 17.731 18.483 75.478 34.065 123.346 26.454 20.541-3.265 47.478-12.24 59.158-36.457a5.616 5.616 0 00.52-3.16l-18.345-142.894a2.519 2.519 0 012.177-2.82 2.511 2.511 0 012.82 2.178l18.346 142.893a10.652 10.652 0 01-.98 5.994c-9.993 20.718-31.745 34.288-62.904 39.241-8.964 1.426-18.209 2.08-27.442 2.08z" fill="#414042" stroke="#265F58"/><path d="M163.467 500.814a2.52 2.52 0 01-1.171-4.753l129.661-67.876a2.52 2.52 0 112.337 4.464l-129.66 67.876a2.518 2.518 0 01-1.167.289z" stroke="#265F58"/><path d="M407.826 376.391c-14.532 0-43.227-1.665-54.694-14.077-17.524-18.965-37.785-83.539-38.912-87.159a132.142 132.142 0 01-5.827-71.543l8.128-41.441h183.262l6.726 46.85c3.252 16.72-.859 44.571-6.541 60.817-3.777 11.105-6.948 22.284-10.016 33.094-7.337 25.858-13.674 48.19-25.754 62.113-5.993 6.907-32.025 10.989-53.473 11.323-.885.014-1.857.023-2.899.023zM320.667 167.21l-7.329 37.371a127.098 127.098 0 005.628 68.88l.045.133c.207.668 20.943 67.034 37.822 85.301h0c7.57 8.194 27.686 12.861 53.813 12.435 25.12-.39 46.002-5.273 49.746-9.587 11.345-13.075 17.54-34.907 24.713-60.186 3.085-10.872 6.274-22.113 10.1-33.362 5.503-15.732 9.362-42.887 6.347-58.269l-.022-.126-6.112-42.59H320.667v0z" fill="#414042" stroke="#265F58"/><path d="M506.392 228.927s9.914-13.449 22.904-1.485c12.989 11.964 4.623 61.558-29.79 40.974M298.629 275.876c-6.336 0-11.853-2.757-16.034-8.227-8.97-11.735-9.248-33.632-.532-41.838 4.271-4.022 8.921-5.94 13.829-5.69 8.347.418 14.204 7.052 14.449 7.334l-3.798 3.311c-.047-.054-4.75-5.324-10.937-5.615-3.471-.152-6.864 1.292-10.089 4.328-6.263 5.897-6.885 24.688 1.081 35.111 5.979 7.824 15.009 8.361 26.113 1.554l2.633 4.295c-5.925 3.633-11.588 5.437-16.715 5.437zM381.119 226.271l-51.545 4.095a4.507 4.507 0 01-4.849-4.136l1.507-2.468c-.197-2.48 9.178-5.43 11.658-5.627 0 0 46.7-5.077 46.898-2.595l.466 5.881a4.507 4.507 0 01-4.135 4.85zM436.988 230.007l45.843-.792a4.507 4.507 0 004.54-4.474l-1.68-2.352c.018-2.489-9.544-4.757-12.033-4.776 0 0-39.391-5.307-44.149-.892-4.758 4.415-2.856 7.573-2.856 7.573-.019 2.489 7.846 5.694 10.335 5.713zM359.648 253.368a4.15 4.15 0 10-.001-8.301 4.15 4.15 0 00.001 8.301zM450.63 252.99a4.15 4.15 0 10-.002-8.3 4.15 4.15 0 00.002 8.3zM411.507 291.092c-4.191 0-10.718-.59-15.202-3.802-2.81-2.014-5.1-6.223.298-33.021 2.676-13.282 6.099-26.228 6.134-26.357a3.778 3.778 0 117.304 1.937c-5.632 21.248-10.547 46.617-8.919 51.573 3.844 2.366 11.191 2.219 13.548 1.969a3.779 3.779 0 01.802 7.515c-.415.044-1.908.186-3.965.186zM407.161 338.965c-1.316 0-2.67-.068-4.057-.215-6.684-.706-12.991-3.652-18.238-8.517a3.778 3.778 0 115.138-5.542c4.099 3.801 8.774 6.002 13.896 6.544 13.388 1.409 23.186-6.558 23.284-6.638a3.786 3.786 0 015.318.482 3.773 3.773 0 01-.464 5.309c-.451.381-10.378 8.577-24.877 8.577z" fill="#414042" stroke="#265F58"/><path d="M554.098 135.394c-15.916 17.288-20.349 16.514-20.349 16.514s-2.397 23.16-3.66 33.541c-2.844 23.247-24.489 45.404-24.489 45.404l-15.425-43.999c-.011-.152-.468-2.364-1.514-3.409-9.205-9.205-23.268-11.253-50.469-8.53-32.223 3.214-70.851 7.081-87.757-17.135-26.057-37.321 9.074-71.33 40.817-98.901 44.587-4.205 113.934-27.103 122.9-48.879l5.218 49.532 30.229-32.168s20.425 90.742 4.499 108.03z" stroke="#265F58"/><path clip-rule="evenodd" d="M490.171 186.854c-7.778-3.213-66.471-.838-75.099.262-40.284 5.109-66.286.839-75.513-3.53-1.394-.664-2.625-1.644-3.638-2.81l-1.656-1.906a7.803 7.803 0 00-2.135-1.057 7.573 7.573 0 00-2.244-.338c-.153 0-.305 0-.447.011-.283.022-.577.055-.85.098-.294.055-.577.12-.86.196-.414.12-.817.273-1.209.469a6.134 6.134 0 00-1.003.588 7.261 7.261 0 00-.904.741 7.556 7.556 0 00-1.95 3.072l-14.139 42.015s-.447 5.709-8.17-2.048c0 0-30.654-117.953-9.423-113.433 21.22 4.532 33.552.916 33.552.916s9.324-51.69 50.806-50.568c.872.022 1.754.033 2.658.033.654 0 1.318-.01 1.994-.022.675-.01 1.372-.032 2.08-.054 2.931-.098 6.014-.305 9.227-.61-31.743 27.57-66.874 61.58-40.817 98.901 16.906 24.216 55.534 20.349 87.757 17.135 27.201-2.723 41.264-.675 50.469 8.53 1.046 1.046 1.503 3.257 1.514 3.409z" stroke="#265F58"/><path fill-rule="evenodd" clip-rule="evenodd" d="M326.523 178.248a7.082 7.082 0 011.21-.468 9.54 9.54 0 00-1.21.468z" fill="#8ADFFF" stroke="#265F58"/></svg>