<svg width="200" height="150" viewBox="0 0 200 150" fill="none" xmlns="http://www.w3.org/2000/svg">
<path d="M53.8473 132.61H10.304C5.97948 132.61 2.5 129.131 2.5 124.806V27.381C2.5 23.0564 5.97948 19.5769 10.304 19.5769H53.8473C58.1718 19.5769 61.6512 23.0564 61.6512 27.381V124.806C61.6512 129.081 58.122 132.61 53.8473 132.61ZM10.304 20.1237C6.32743 20.1237 3.09647 23.3546 3.09647 27.3313V124.757C3.09647 128.733 6.32743 131.964 10.304 131.964H53.8473C57.8238 131.964 61.0547 128.733 61.0547 124.757V27.3313C61.0547 23.3546 57.8238 20.1237 53.8473 20.1237H10.304Z" fill="#D1A2F1"/>
<path fill-rule="evenodd" clip-rule="evenodd" d="M83.8203 20.3725H192.082C193.424 20.3725 194.567 21.5158 194.567 22.8579V97.6667C194.567 99.0585 193.474 100.152 192.082 100.152H83.8203H83.6213C82.329 100.053 81.3348 98.959 81.3348 97.6667V22.8579C81.3348 21.4661 82.4285 20.3725 83.8203 20.3725ZM134.322 45.1763C132.931 45.1763 131.837 46.2698 131.837 47.6615H131.787V56.9568C131.787 58.3485 132.881 59.4423 134.273 59.4423H147.644C149.036 59.4423 150.129 58.3485 150.129 56.9568V47.6615C150.129 46.2698 149.036 45.1763 147.644 45.1763H134.322ZM19.5491 86.979H44.5518C46.043 86.979 47.2358 85.786 47.1863 84.3445V51.8363C47.1863 50.3948 46.043 49.2018 44.5518 49.2018H19.5491C18.1076 49.2018 16.9147 50.345 16.9147 51.8363V84.3445C16.9147 85.786 18.0579 86.979 19.5491 86.979ZM50.964 92.9935H13.1868V98.2128H50.964V92.9935ZM12.8892 107.309H51.2628V101.493H12.8892V107.309ZM50.6663 106.762H13.4857V102.14H50.6663V106.762ZM51.6105 118.692H13.2368V112.876H51.6105V118.692ZM13.8333 118.145H51.014V113.522H13.8333V118.145ZM139.244 55.0183V49.8985C139.244 49.5008 139.691 49.2523 139.989 49.5008L143.717 52.185C144.016 52.3838 144.016 52.7815 143.717 52.9803L139.989 55.416C139.691 55.6645 139.244 55.416 139.244 55.0183Z" fill="#D1A2F1"/>
<path opacity="0.19" d="M188.801 36.6257H89.7352V74.3035H188.801V36.6257Z" fill="#B5CDFB"/>
<path fill-rule="evenodd" clip-rule="evenodd" d="M40.7733 25.79H23.376C21.0398 25.79 19.1509 23.9013 19.1509 21.565V17.6382H44.9488V21.565C44.9985 23.9013 43.1095 25.79 40.7733 25.79ZM190.093 108.801H90.381C86.653 108.801 83.6208 105.769 83.6208 102.041V89.0673C83.6208 85.3393 86.653 82.307 90.381 82.307H190.093C193.821 82.307 196.853 85.3393 196.853 89.0673V102.041C196.853 105.818 193.821 108.801 190.093 108.801ZM19.9464 82.506H44.2033H44.253V80.5178C44.253 76.15 41.6195 74.792 37.2685 72.5488L37.2673 72.548C36.6175 72.213 35.9295 71.8585 35.2065 71.471H28.993C28.6598 71.6345 28.3318 71.7937 28.0098 71.9502C23.3396 74.219 19.9464 75.8675 19.9464 80.5178V82.506ZM32.076 98.412C33.778 98.412 35.1578 97.0323 35.1578 95.3303C35.1578 93.628 33.778 92.2483 32.076 92.2483C30.374 92.2483 28.9943 93.628 28.9943 95.3303C28.9943 97.0323 30.374 98.412 32.076 98.412ZM150.129 47.6615V56.9565C150.129 58.3485 149.035 59.442 147.643 59.442H134.272C132.881 59.442 131.787 58.3485 131.787 56.9565V47.6615C131.787 46.2698 132.881 45.176 134.272 45.176H147.643C149.035 45.176 150.129 46.2698 150.129 47.6615ZM139.297 55.1585C139.297 55.3813 139.542 55.5173 139.731 55.399L143.824 52.841C143.996 52.7333 144.003 52.4845 143.836 52.368L139.743 49.503C139.555 49.3713 139.297 49.5058 139.297 49.7353V55.1585Z" fill="#9F8AFF"/>
<path d="M197.251 78.1313C197.102 78.1313 197.003 78.0318 197.003 77.8828V25.2928C197.003 21.2168 193.673 17.8865 189.597 17.8865H91.674C87.598 17.8865 84.2675 21.2168 84.2675 25.2928V51.19C84.2675 51.3393 84.1683 51.4385 84.019 51.4385C83.87 51.4385 83.7705 51.3393 83.7705 51.19V25.2928C83.7705 20.9683 87.2998 17.3894 91.674 17.3894H189.597C193.921 17.3894 197.5 20.9186 197.5 25.2928V77.8828C197.5 78.0318 197.401 78.1313 197.251 78.1313Z" fill="#00376E"/>
<path d="M190.541 106.912H90.7793C86.902 106.912 83.7705 103.781 83.7705 99.9033V86.9297C83.7705 83.0527 86.902 79.9212 90.7793 79.9212H190.491C194.368 79.9212 197.5 83.0527 197.5 86.9297V99.9033C197.5 103.781 194.368 106.912 190.541 106.912ZM90.7793 80.4183C87.2003 80.4183 84.2675 83.351 84.2675 86.9297V99.9033C84.2675 103.482 87.2003 106.415 90.7793 106.415H190.491C194.07 106.415 197.003 103.482 197.003 99.9033V86.9297C197.003 83.351 194.07 80.4183 190.491 80.4183H90.7793Z" fill="#00376E"/>
<path opacity="0.19" d="M97.0415 102.24C100.72 102.24 103.702 99.2573 103.702 95.5788C103.702 91.9 100.72 88.918 97.0415 88.918C93.363 88.918 90.3807 91.9 90.3807 95.5788C90.3807 99.2573 93.363 102.24 97.0415 102.24Z" fill="#00376E"/>
<path opacity="0.19" d="M187.309 101.693H112.202C110.114 101.693 108.375 100.003 108.375 97.8655V91.9505C108.375 89.8628 110.065 88.123 112.202 88.123H187.309C189.397 88.123 191.137 89.813 191.137 91.9505V97.9153C191.087 100.003 189.397 101.693 187.309 101.693Z" fill="#00376E"/>
<path d="M89.8343 48.0587C89.6853 48.0587 89.5363 47.9097 89.5363 47.7605V29.369C89.5363 29.22 89.6853 29.0707 89.8343 29.0707C89.9835 29.0707 90.1325 29.22 90.1325 29.369V47.7605C90.1325 47.9097 89.9835 48.0587 89.8343 48.0587Z" fill="#00376E"/>
<path d="M188.851 71.67C188.701 71.67 188.552 71.5207 188.552 71.3717V27.58H90.1325V29.4192C90.1325 29.5682 89.9835 29.7172 89.8343 29.7172C89.6853 29.7172 89.5363 29.5682 89.5363 29.4192V27.0332H189.149V71.4215C189.099 71.5208 189 71.67 188.851 71.67Z" fill="#00376E"/>
<path d="M188.851 36.9243H89.8343C89.6853 36.9243 89.5363 36.7753 89.5363 36.626C89.5363 36.477 89.6853 36.328 89.8343 36.328H188.851C189 36.328 189.149 36.477 189.149 36.626C189.149 36.7753 189 36.9243 188.851 36.9243Z" fill="#00376E"/>
<path d="M158.728 71.0735H92.7675C92.6182 71.0735 92.4692 70.9245 92.4692 70.7753C92.4692 70.6263 92.6182 70.477 92.7675 70.477H158.728C158.877 70.477 159.027 70.6263 159.027 70.7753C159.027 70.9245 158.877 71.0735 158.728 71.0735Z" fill="#00376E"/>
<path d="M184.775 71.0735H163.003C162.854 71.0735 162.705 70.9245 162.705 70.7753C162.705 70.6263 162.854 70.477 163.003 70.477H184.775C184.924 70.477 185.073 70.6263 185.073 70.7753C185.073 70.9245 184.924 71.0735 184.775 71.0735Z" fill="#00376E"/>
<path d="M49.8703 127.938H14.28C9.95555 127.938 6.47607 124.458 6.47607 120.134V31.6555C6.47607 31.5063 6.6252 31.3573 6.77432 31.3573C6.92342 31.3573 7.07255 31.5063 7.07255 31.6555V120.084C7.07255 124.061 10.3035 127.292 14.28 127.292H49.8703C53.8468 127.292 57.0778 124.061 57.0778 120.084V31.6555C57.0778 31.5063 57.2267 31.3573 57.376 31.3573C57.525 31.3573 57.6743 31.5063 57.6743 31.6555V120.084C57.6743 124.409 54.1948 127.938 49.8703 127.938Z" fill="#D1A2F1"/>
<path d="M32.0752 75.3972C30.584 75.3972 29.3412 74.1547 29.3412 72.6635V66.8975C29.3412 65.4062 30.584 64.1635 32.0752 64.1635C33.5665 64.1635 34.809 65.4062 34.809 66.8975V72.7132C34.809 74.2042 33.5665 75.3972 32.0752 75.3972Z" fill="#B5CDFB"/>
<path d="M32.0755 75.8453C29.938 75.8453 28.1982 74.4038 28.1982 72.664C28.1982 72.4155 28.397 72.167 28.6952 72.167C28.9935 72.167 29.1925 72.3658 29.1925 72.664C29.1925 73.9068 30.5345 74.9007 32.125 74.9007C33.7157 74.9007 35.0577 73.9068 35.0577 72.664C35.0577 72.4155 35.2565 72.167 35.5547 72.167C35.853 72.167 36.052 72.3658 36.052 72.664C35.9525 74.4038 34.2127 75.8453 32.0755 75.8453Z" fill="#00376E"/>
<path opacity="0.34" d="M34.8092 68.339V68.8363C34.0635 69.4328 33.0695 70.1783 32.0752 70.1783C31.0812 70.1783 30.1367 69.4823 29.391 68.886V68.3887C30.1367 68.9355 31.0812 69.2835 32.0752 69.2835C33.0695 69.2338 34.0137 68.886 34.8092 68.339Z" fill="black"/>
<path d="M36.6485 58.7955V64.661C36.6485 66.152 35.9028 67.4942 34.8093 68.3392C34.014 68.9357 33.0695 69.234 32.0755 69.234C31.0813 69.234 30.1368 68.886 29.3913 68.3392C28.248 67.4942 27.4528 66.152 27.4528 64.6113V61.9767C27.4528 59.4417 29.4905 57.354 32.0755 57.354C33.2683 57.354 34.362 57.1055 35.1573 57.1055C36.052 57.1055 36.6485 57.4535 36.6485 58.7955Z" fill="#B5CDFB"/>
<path d="M27.6977 65.1202C28.399 64.8798 28.722 63.9693 28.4192 63.0863C28.1167 62.2033 27.3027 61.6823 26.6017 61.9228C25.9005 62.163 25.5775 63.0738 25.88 63.9568C26.1827 64.8398 26.9965 65.3605 27.6977 65.1202Z" fill="#B5CDFB"/>
<path d="M32.9202 67.2447C32.7212 67.2447 32.5225 67.195 32.3732 67.0957C31.926 66.8967 31.777 66.4495 31.777 66.4495C31.7272 66.35 31.8265 66.201 31.926 66.201C32.0255 66.1512 32.1745 66.2507 32.1745 66.35C32.1745 66.35 32.274 66.6482 32.5722 66.7477C32.8207 66.8472 33.1687 66.8472 33.5167 66.698C33.616 66.6482 33.7652 66.698 33.8147 66.8472C33.8645 66.9962 33.8147 67.0957 33.6657 67.1455C33.3675 67.195 33.119 67.2447 32.9202 67.2447Z" fill="#00376E"/>
<path d="M33.1183 65.2075C32.8698 65.2075 32.82 65.1578 32.7705 65.0088L32.7208 64.8595L32.9195 64.76C33.019 64.7105 33.0688 64.7105 33.168 64.76C33.2675 64.76 33.4165 64.76 33.7148 64.7105C33.7645 64.7105 33.8143 64.6608 33.864 64.611C34.0628 64.263 33.7645 63.1695 33.5658 62.5233C33.516 62.424 33.5658 62.2747 33.6653 62.225C33.7645 62.1752 33.9138 62.225 33.9633 62.3245C34.013 62.5233 34.6095 64.114 34.2615 64.76C34.1623 64.9093 34.013 65.0088 33.8143 65.0583C33.4165 65.1578 33.2178 65.2075 33.1183 65.2075Z" fill="#00376E"/>
<path d="M31.3298 63.368C31.5768 63.368 31.777 63.1677 31.777 62.9207C31.777 62.6737 31.5768 62.4735 31.3298 62.4735C31.0825 62.4735 30.8823 62.6737 30.8823 62.9207C30.8823 63.1677 31.0825 63.368 31.3298 63.368Z" fill="#00376E"/>
<path d="M35.0577 63.368C35.3047 63.368 35.505 63.1677 35.505 62.9207C35.505 62.6737 35.3047 62.4735 35.0577 62.4735C34.8107 62.4735 34.6102 62.6737 34.6102 62.9207C34.6102 63.1677 34.8107 63.368 35.0577 63.368Z" fill="#00376E"/>
<path d="M29.49 59.591C29.49 59.591 34.2618 60.2372 35.952 59.5412C37.642 58.8455 38.139 57.0062 36.6478 56.6085C35.1565 56.211 27.8993 56.2607 27.303 58.0005C27.0048 57.553 26.11 59.9887 26.8555 62.126L27.5515 62.5237C27.5515 62.5237 28.0485 64.164 28.3468 64.164C28.645 64.164 29.7883 61.2312 29.7883 61.2312C29.7883 61.2312 29.0428 59.4915 29.49 59.591Z" fill="#00376E"/>
<path d="M35.5052 59.0445C35.5052 59.0445 36.251 60.4363 36.3008 61.828C36.3505 63.2198 36.6488 63.6175 36.6488 63.6175V58.796L35.5052 59.0445Z" fill="#00376E"/>
<path opacity="0.86" d="M51.3115 38.2665H13.5342V43.4857H51.3115V38.2665Z" fill="#B5CDFB"/>
<path d="M96.5955 95.8275H94.1103C93.961 95.8275 93.8618 95.728 93.8618 95.579C93.8618 95.4298 93.961 95.3305 94.1103 95.3305H96.5955C96.7448 95.3305 96.844 95.4298 96.844 95.579C96.844 95.728 96.695 95.8275 96.5955 95.8275ZM91.6248 95.8275H89.1395C88.9903 95.8275 88.891 95.728 88.891 95.579C88.891 95.4298 88.9903 95.3305 89.1395 95.3305H91.6248C91.774 95.3305 91.8733 95.4298 91.8733 95.579C91.8733 95.728 91.7243 95.8275 91.6248 95.8275ZM86.6543 95.8275H84.1688C84.0198 95.8275 83.9203 95.728 83.9203 95.579C83.9203 95.4298 84.0198 95.3305 84.1688 95.3305H86.6543C86.8033 95.3305 86.9028 95.4298 86.9028 95.579C86.9028 95.728 86.7535 95.8275 86.6543 95.8275ZM81.6835 95.8275H79.198C79.049 95.8275 78.9495 95.728 78.9495 95.579C78.9495 95.4298 79.049 95.3305 79.198 95.3305H81.6835C81.8325 95.3305 81.932 95.4298 81.932 95.579C81.932 95.728 81.7828 95.8275 81.6835 95.8275ZM76.7128 95.8275H74.2275C74.0783 95.8275 73.979 95.728 73.979 95.579C73.979 95.4298 74.0783 95.3305 74.2275 95.3305H76.7128C76.862 95.3305 76.9613 95.4298 76.9613 95.579C76.9613 95.728 76.8123 95.8275 76.7128 95.8275ZM71.742 95.8275H69.2568C69.1075 95.8275 69.0083 95.728 69.0083 95.579C69.0083 95.4298 69.1075 95.3305 69.2568 95.3305H71.742C71.8913 95.3305 71.9905 95.4298 71.9905 95.579C71.9905 95.728 71.8415 95.8275 71.742 95.8275ZM66.7715 95.8275H64.286C64.137 95.8275 64.0375 95.728 64.0375 95.579C64.0375 95.4298 64.137 95.3305 64.286 95.3305H66.7715C66.9205 95.3305 67.02 95.4298 67.02 95.579C67.02 95.728 66.8708 95.8275 66.7715 95.8275ZM61.8008 95.8275H59.3153C59.1663 95.8275 59.0668 95.728 59.0668 95.579C59.0668 95.4298 59.1663 95.3305 59.3153 95.3305H61.8008C61.9498 95.3305 62.0493 95.4298 62.0493 95.579C62.0493 95.728 61.9 95.8275 61.8008 95.8275ZM56.83 95.8275H54.3448C54.1955 95.8275 54.0963 95.728 54.0963 95.579C54.0963 95.4298 54.1955 95.3305 54.3448 95.3305H56.83C56.9793 95.3305 57.0785 95.4298 57.0785 95.579C57.0785 95.728 56.9295 95.8275 56.83 95.8275ZM51.8593 95.8275H49.374C49.2248 95.8275 49.1255 95.728 49.1255 95.579C49.1255 95.4298 49.2248 95.3305 49.374 95.3305H51.8593C52.0085 95.3305 52.1078 95.4298 52.1078 95.579C52.1078 95.728 51.9588 95.8275 51.8593 95.8275ZM46.8888 95.8275H44.4033C44.2543 95.8275 44.1548 95.728 44.1548 95.579C44.1548 95.4298 44.2543 95.3305 44.4033 95.3305H46.8888C47.0378 95.3305 47.1373 95.4298 47.1373 95.579C47.1373 95.728 46.988 95.8275 46.8888 95.8275ZM41.918 95.8275H39.4325C39.2835 95.8275 39.184 95.728 39.184 95.579C39.184 95.4298 39.2835 95.3305 39.4325 95.3305H41.918C42.067 95.3305 42.1665 95.4298 42.1665 95.579C42.1665 95.728 42.0173 95.8275 41.918 95.8275Z" fill="#00376E"/>
<path d="M32.0755 99.853C29.5902 99.853 27.5522 97.815 27.5522 95.3298C27.5522 92.8445 29.5902 90.8065 32.0755 90.8065C34.561 90.8065 36.599 92.8445 36.599 95.3298C36.599 97.815 34.561 99.853 32.0755 99.853ZM32.0755 91.3035C29.8387 91.3035 28.0492 93.093 28.0492 95.3298C28.0492 97.5665 29.8387 99.356 32.0755 99.356C34.3125 99.356 36.1017 97.5665 36.1017 95.3298C36.1017 93.093 34.2627 91.3035 32.0755 91.3035Z" fill="#00376E"/>
</svg>
