<svg width="200" height="150" viewBox="0 0 200 150" fill="none" xmlns="http://www.w3.org/2000/svg">
<path d="M26.8995 14.8129C28.0905 14.8129 29.056 13.8475 29.056 12.6565C29.056 11.4655 28.0905 10.5 26.8995 10.5C25.7085 10.5 24.7431 11.4655 24.7431 12.6565C24.7431 13.8475 25.7085 14.8129 26.8995 14.8129Z" fill="#24386C"/>
<path d="M140.844 31.252L140.807 27.0557L139.693 27.0655L139.73 31.2617L140.844 31.252Z" fill="#24386C"/>
<path d="M143.164 31.2318L143.092 23.0225L141.978 23.0322L142.05 31.2415L143.164 31.2318Z" fill="#24386C"/>
<path d="M171.564 39.4972L175.76 39.4605L175.75 38.3465L171.554 38.3832L171.564 39.4972Z" fill="#8A95F4"/>
<path d="M171.584 41.8172L179.793 41.7452L179.783 40.6315L171.574 40.7032L171.584 41.8172Z" fill="#8A95F4"/>
<path d="M2.5 128.908C2.5 107.416 2.5 96.7937 2.5 75.3018C4.88307 65.1178 7.80445 56.1932 10.8807 56.272C15.0506 56.3785 17.2584 72.9712 19.4634 72.7533C22.4288 72.4598 19.5675 19.3069 25.8647 19.0818C33.2027 18.8196 27.0608 26.869 37.3133 28.9562C43.0315 30.1202 45.8885 23.3978 50.0008 25.122C57.144 28.1167 58.2752 70.2345 62.3153 71.1892C65.8392 72.0222 67.898 70.8135 73.0125 71.3938C78.8167 72.0525 79.0902 91.482 82.3418 91.613C87.4665 91.8197 87.9858 77.74 103.052 87.875C107.211 90.6722 113.589 92.8687 117.046 90.7635C120.608 88.594 130.103 97.2415 134.398 97.56C137.779 97.8105 140.912 77.1908 145.779 77.3408C150.04 77.472 152.435 93.4185 154.922 93.1423C157.124 92.8978 169.334 92.454 173.954 91.613C180.251 90.467 177.861 81.6208 183.842 80.7343C186.79 80.2975 188.981 86.7837 191.865 86.3412C197.557 85.468 197.102 58.982 197.375 58.9857C197.51 58.9877 197.571 65.5117 197.375 88.8897C197.375 112.137 197.375 105.66 197.375 128.908C132.417 128.908 67.4583 128.908 2.5 128.908Z" fill="black" fill-opacity="0.31"/>
<path d="M89.3085 103.64C88.5133 101.044 86.227 104.597 86.227 104.597C86.227 104.597 87.8303 95.9738 85.4445 95.9013C83.0588 95.8288 82.35 97.926 82.35 97.926C82.35 97.926 82.0822 91.807 80.293 91.807C79.1382 91.807 78.368 94.345 77.8852 97.8918C77.402 95.5573 76.4012 95.5685 75.4567 95.5685C73.6675 95.5685 73.3997 101.15 73.3997 101.15C73.3997 101.15 73.3997 99.5628 71.014 99.6288C68.628 99.695 69.8357 105.675 69.8357 105.675C69.8357 105.675 67.011 102.467 66.2158 104.835C65.4205 107.203 59.905 119.56 59.905 119.56H92.5265C92.5265 119.56 90.104 106.236 89.3085 103.64Z" fill="#24386C"/>
<path d="M179.133 115.968L170.923 116L170.928 117.114L179.137 117.082L179.133 115.968Z" fill="#231F20"/>
<path d="M179.142 118.288L170.932 118.32L170.937 119.434L179.146 119.402L179.142 118.288Z" fill="#231F20"/>
<path d="M28.5493 46.4207L24.3531 46.384L24.3434 47.498L28.5395 47.5347L28.5493 46.4207Z" fill="#8A95F4"/>
<path d="M28.529 48.7408L20.3198 48.669L20.31 49.7828L28.5192 49.8545L28.529 48.7408Z" fill="#24386C"/>
<path d="M28.529 44.2005L26.443 44.1823L26.4333 45.296L28.5193 45.3143L28.529 44.2005Z" fill="#8A95F4"/>
<path d="M79.736 79.667L75.5397 79.6302L75.53 80.744L79.7262 80.7807L79.736 79.667Z" fill="#24386C"/>
<path d="M79.7158 81.987L71.5065 81.915L71.4967 83.0287L79.706 83.1007L79.7158 81.987Z" fill="#24386C"/>
<path d="M79.7158 77.4467L77.6298 77.4285L77.62 78.5422L79.706 78.5605L79.7158 77.4467Z" fill="#24386C"/>
<path d="M133.622 79.1748L129.426 79.138L129.416 80.252L133.612 80.2887L133.622 79.1748Z" fill="#24386C"/>
<path d="M133.601 81.4947L125.392 81.423L125.382 82.5367L133.592 82.6087L133.601 81.4947Z" fill="#24386C"/>
<path d="M133.601 76.9548L131.515 76.9365L131.505 78.0503L133.592 78.0685L133.601 76.9548Z" fill="#24386C"/>
<path d="M120.21 36.9865V113.967C120.21 116.181 118.919 118.098 117.051 119.005C116.315 119.357 115.489 119.557 114.62 119.557H85.3885C82.2997 119.557 79.798 117.053 79.798 113.967V36.9865C79.798 33.9002 82.2997 31.396 85.3885 31.396H114.62C117.706 31.396 120.21 33.9002 120.21 36.9865Z" fill="#A1DBE8"/>
<path fill-rule="evenodd" clip-rule="evenodd" d="M85.3885 31.5177C82.367 31.5177 79.9197 33.9675 79.9197 36.9865V113.967C79.9197 116.986 82.367 119.435 85.3885 119.435H114.62C115.471 119.435 116.278 119.24 116.998 118.895C118.826 118.008 120.088 116.132 120.088 113.967V36.9865C120.088 33.9675 117.639 31.5177 114.62 31.5177H85.3885ZM79.6762 36.9865C79.6762 33.833 82.2325 31.2742 85.3885 31.2742H114.62C117.773 31.2742 120.332 33.833 120.332 36.9865V113.967C120.332 116.229 119.012 118.188 117.104 119.114L117.104 119.114C116.352 119.475 115.508 119.679 114.62 119.679H85.3885C82.2325 119.679 79.6762 117.12 79.6762 113.967V36.9865Z" fill="#414042"/>
<path d="M69.0807 37.4415V114.42C69.0807 117.508 66.5793 120.01 63.4905 120.01H34.2615C33.1485 120.01 32.1108 119.684 31.2388 119.121C29.6943 118.13 28.6712 116.395 28.6712 114.42V37.4415C28.6712 34.3528 31.1728 31.8513 34.2615 31.8513H63.4905C66.5793 31.8513 69.0807 34.3528 69.0807 37.4415Z" fill="#A1DBE8"/>
<path fill-rule="evenodd" clip-rule="evenodd" d="M34.2615 31.973C31.24 31.973 28.793 34.42 28.793 37.4415V114.42C28.793 116.352 29.7935 118.049 31.3045 119.019H31.3047C32.1577 119.569 33.1725 119.888 34.2615 119.888H63.4905C66.512 119.888 68.959 117.441 68.959 114.42V37.4415C68.959 34.42 66.512 31.973 63.4905 31.973H34.2615ZM28.5492 37.4415C28.5492 34.2855 31.1055 31.7292 34.2615 31.7292H63.4905C66.6465 31.7292 69.2028 34.2855 69.2028 37.4415V114.42C69.2028 117.576 66.6465 120.132 63.4905 120.132H34.2615C33.1242 120.132 32.0637 119.798 31.1727 119.223C29.595 118.211 28.5492 116.438 28.5492 114.42V37.4415Z" fill="#414042"/>
<path d="M171.907 36.8522V113.83C171.907 114.03 171.898 114.227 171.876 114.422C171.581 117.233 169.206 119.421 166.317 119.421H137.085C133.999 119.421 131.495 116.919 131.495 113.83V36.8522C131.495 33.7635 133.999 31.2617 137.085 31.2617H166.317C169.406 31.2617 171.907 33.7635 171.907 36.8522Z" fill="#A1DBE8"/>
<path fill-rule="evenodd" clip-rule="evenodd" d="M112.918 70.2512C114.567 69.6677 116.376 70.531 116.96 72.1797C117.328 73.219 117.578 74.3112 117.696 75.4437C117.904 77.4412 117.683 79.395 117.105 81.2205C116.577 82.8877 114.798 83.8115 113.13 83.2835C111.463 82.7555 110.539 80.976 111.067 79.3087C111.391 78.2852 111.512 77.2052 111.397 76.1002C111.331 75.4707 111.193 74.867 110.989 74.2932C110.406 72.6447 111.269 70.835 112.918 70.2512Z" fill="#8A95F4"/>
<path d="M171.997 114.276C171.703 117.087 169.328 119.274 166.439 119.274H137.207C134.121 119.274 131.617 116.773 131.617 113.684V107.628C133.086 109.046 134.321 114.195 135.577 114.12C137.974 113.971 138.362 94.9322 140.145 94.869C141.524 94.8227 142.552 106.154 145.182 106.252C146.707 106.308 147.375 102.549 149.287 102.52C151.777 102.481 152.951 108.807 154.885 108.678C157.028 108.532 157.63 100.625 158.99 100.654C160.566 100.688 161.491 111.341 162.529 111.289C163.277 111.25 162.906 105.733 164.775 105.131C166.178 104.678 168.256 107.192 169.812 109.424C171.116 110.805 171.844 112.532 171.997 114.276Z" fill="#8A95F4"/>
<path fill-rule="evenodd" clip-rule="evenodd" d="M87.639 64.0977C89.2372 64.808 89.9573 66.6792 89.247 68.2775C88.7463 69.4045 88.3175 70.8372 88.1363 72.2592C87.9503 73.7167 88.0568 74.8982 88.36 75.685L85.43 76.8142L88.36 75.685C88.5518 76.1825 88.9695 76.7195 89.7937 77.349C90.5405 77.9192 91.3877 78.4003 92.4025 78.9765C92.5557 79.0633 92.7127 79.1525 92.8737 79.2445C94.3925 80.1115 94.921 82.0455 94.054 83.5645C93.187 85.0832 91.2527 85.6118 89.7337 84.7448C89.6017 84.6693 89.4622 84.5905 89.3167 84.508C88.3327 83.952 87.0695 83.2375 85.9498 82.3822C84.6288 81.3735 83.223 79.9678 82.4502 77.9625L85.405 76.8238L82.4502 77.9625C81.6312 75.837 81.594 73.493 81.8538 71.4577C82.1178 69.387 82.7243 67.3597 83.4593 65.7057C84.1695 64.1075 86.0408 63.3875 87.639 64.0977Z" fill="#8A95F4"/>
<path d="M89.8982 71.8428C89.8982 71.8428 91.3535 74.5333 92.1688 76.2858C93.7235 79.6288 99.3757 82.003 101.746 82.2113C104.231 82.4298 108.355 81.3995 111.362 78.553C111.612 78.3165 112.744 78.068 111.682 80.2645C110.507 82.6965 108.654 85.8128 107.642 86.3028C105.716 87.2358 94.0188 87.7328 93.2295 87.1958C92.4405 86.6588 88.7922 76.5675 89.8982 71.8428Z" fill="#8A95F4"/>
<path d="M89.8982 71.8428C89.8982 71.8428 91.3535 74.5333 92.1688 76.2858C93.7235 79.6288 99.3757 82.003 101.746 82.2113C104.231 82.4298 108.355 81.3995 111.362 78.553C111.612 78.3168 112.744 78.068 111.682 80.2648C110.507 82.6968 108.654 85.8128 107.642 86.303C105.716 87.2358 94.0188 87.7328 93.2295 87.1958C92.4405 86.6588 88.7922 76.5675 89.8982 71.8428Z" fill="black" fill-opacity="0.3"/>
<path d="M114.517 119.188H104.201L96.8177 93.8717L95.797 90.3762H106.113L106.537 91.8305L114.517 119.188Z" fill="#8A95F4"/>
<path d="M106.537 91.8305C105.144 92.566 103.626 93.1287 102.019 93.4867C101.41 93.6232 100.795 93.7255 100.182 93.7962C99.0562 93.9277 97.9285 93.9522 96.8177 93.8717L95.797 90.3762H106.113L106.537 91.8305Z" fill="black" fill-opacity="0.3"/>
<path d="M100.068 21.5845V21.5846C100.068 22.9702 98.9447 24.0935 97.5592 24.0935H73.059C71.6732 24.0935 70.55 22.9702 70.55 21.5846V21.5845C70.55 20.1989 71.6732 19.0756 73.059 19.0756H97.5592C98.9447 19.0756 100.068 20.1989 100.068 21.5845Z" fill="#24386C"/>
<path fill-rule="evenodd" clip-rule="evenodd" d="M176.148 16.528H164.331C162.492 16.528 161.001 18.0189 161.001 19.858C161.001 21.6971 162.492 23.188 164.331 23.188H176.148C177.987 23.188 179.478 21.6971 179.478 19.858C179.478 18.0189 177.987 16.528 176.148 16.528ZM164.331 16.2844H176.148C178.122 16.2844 179.722 17.8844 179.722 19.858C179.722 21.8316 178.122 23.4315 176.148 23.4315H164.331C162.358 23.4315 160.758 21.8316 160.758 19.858C160.758 17.8844 162.358 16.2844 164.331 16.2844Z" fill="#24386C"/>
<path d="M111.97 60.399H106.991V76.807H111.97V60.399Z" fill="#A1DBE8"/>
<path d="M57.7487 62.249L64.01 66.96L61.6942 61.3068L57.7487 62.249Z" fill="#8A95F4"/>
<path d="M68.964 112.104V114.369C68.964 117.458 66.4622 119.96 63.3735 119.96H34.1447C33.0315 119.96 31.9937 119.633 31.1217 119.071C31.297 117.614 31.6065 115.838 31.9912 113.617C32.3932 111.3 33.336 105.878 34.9753 105.78C36.437 105.693 37.063 109.911 38.9873 109.977C41.031 110.05 42.025 105.356 43.7448 105.5C45.8105 105.671 46.222 112.579 48.1295 112.684C49.7373 112.771 50.5385 107.936 52.4215 107.926C54.48 107.914 55.2692 113.682 57.274 113.709C59.5857 113.741 60.845 106.099 62.9642 106.245C64.2065 106.333 64.1017 108.984 66.7887 111.005C67.6145 111.624 68.3452 111.916 68.964 112.104Z" fill="#8A95F4"/>
<path d="M159.681 59.3175L149.673 62.3997L153.604 57.2277L159.681 59.3175Z" fill="#24386C"/>
<path d="M100.257 59.2365H94.4V76.7928H100.257V59.2365Z" fill="#A1DBE8"/>
<path d="M94.4 76.7928L87.6178 72.8483L87.6123 55.5935L94.4 60.3848V76.7928Z" fill="#A1DBE8"/>
<path d="M111.93 59.3585H94.4V76.6693H111.93V59.3585Z" fill="#24386C"/>
<path d="M94.2783 76.807L87.6722 72.6915V55.3805L94.3447 59.2367L94.2783 76.807Z" fill="black" fill-opacity="0.31"/>
<path d="M111.97 59.235H94.4717L87.7253 55.183H105.295L111.97 59.235Z" fill="#8A95F4"/>
<path fill-rule="evenodd" clip-rule="evenodd" d="M89.7765 74.1922V56.5002H90.0202V74.1922H89.7765Z" fill="#414042"/>
<path fill-rule="evenodd" clip-rule="evenodd" d="M87.7395 72.7787V55.1412H87.496V72.9177L94.287 76.9285L94.411 76.7187L87.7395 72.7787Z" fill="#414042"/>
<path fill-rule="evenodd" clip-rule="evenodd" d="M92.0573 75.5363V57.893H92.3008V75.5363H92.0573Z" fill="#414042"/>
<path fill-rule="evenodd" clip-rule="evenodd" d="M87.6797 66.8867L94.4617 70.8835L94.3382 71.0932L87.556 67.0965L87.6797 66.8867Z" fill="#414042"/>
<path fill-rule="evenodd" clip-rule="evenodd" d="M94.3382 65.2365L87.556 61.2398L87.6797 61.03L94.4617 65.0268L94.3382 65.2365Z" fill="#414042"/>
<path fill-rule="evenodd" clip-rule="evenodd" d="M93.9072 55.1572L100.315 59.1315L100.187 59.3385L93.7787 55.3642L93.9072 55.1572Z" fill="#414042"/>
<path fill-rule="evenodd" clip-rule="evenodd" d="M100.104 59.1133H105.961V59.357H100.104V59.1133Z" fill="#414042"/>
<path fill-rule="evenodd" clip-rule="evenodd" d="M106.043 59.3385L99.6598 55.364L99.7885 55.1572L106.172 59.1317L106.043 59.3385Z" fill="#414042"/>
<path fill-rule="evenodd" clip-rule="evenodd" d="M105.463 55.3825H87.496V55.1387H105.463V55.3825Z" fill="#414042"/>
<path fill-rule="evenodd" clip-rule="evenodd" d="M94.4333 59.1148L87.72 55.1558L87.5963 55.3655L94.3668 59.3585L100.104 59.357V59.1133L94.4333 59.1148Z" fill="#414042"/>
<path d="M111.989 59.3395L105.308 55.325L105.433 55.1163L112.093 59.1155L111.989 59.3395Z" fill="#414042"/>
<path fill-rule="evenodd" clip-rule="evenodd" d="M105.961 59.1133H112.058V59.357H105.961V59.1133Z" fill="#414042"/>
<path fill-rule="evenodd" clip-rule="evenodd" d="M92.1687 57.7885H109.87V58.032H92.1687V57.7885Z" fill="#414042"/>
<path fill-rule="evenodd" clip-rule="evenodd" d="M107.642 56.7072H89.8217V56.4637H107.642V56.7072Z" fill="#414042"/>
<path fill-rule="evenodd" clip-rule="evenodd" d="M100.135 76.807V59.2368H100.379V76.807H100.135Z" fill="#414042"/>
<path fill-rule="evenodd" clip-rule="evenodd" d="M94.5218 59.2368V76.807H94.2783V59.2368H94.5218Z" fill="#414042"/>
<path fill-rule="evenodd" clip-rule="evenodd" d="M105.992 76.807V59.2368H106.235V76.807H105.992Z" fill="#414042"/>
<path fill-rule="evenodd" clip-rule="evenodd" d="M111.849 76.807V59.1155H112.092V76.807H111.849Z" fill="#414042"/>
<path fill-rule="evenodd" clip-rule="evenodd" d="M94.4 70.8282H111.97V71.072H94.4V70.8282Z" fill="#414042"/>
<path fill-rule="evenodd" clip-rule="evenodd" d="M111.97 65.2152H94.4V64.9715H111.97V65.2152Z" fill="#414042"/>
<path fill-rule="evenodd" clip-rule="evenodd" d="M94.2783 76.685H111.97V76.9287H94.2783V76.685Z" fill="#414042"/>
<path fill-rule="evenodd" clip-rule="evenodd" d="M89.7343 65.1092C91.1173 66.1797 91.3705 68.1687 90.3 69.5517C88.6608 71.6697 88.1055 74.4282 88.6308 76.9195L85.536 77.572L88.6308 76.9195C89.0638 78.9735 90.4588 81.0592 92.3393 82.342C93.784 83.3275 94.1565 85.2975 93.1708 86.7425C92.1853 88.1872 90.2153 88.5595 88.7703 87.574C85.595 85.408 83.2168 81.942 82.4335 78.226C81.5435 74.0035 82.4612 69.3317 85.2915 65.6752C86.3622 64.292 88.351 64.0387 89.7343 65.1092Z" fill="#8A95F4"/>
<path fill-rule="evenodd" clip-rule="evenodd" d="M92.4232 67.4255C93.781 68.528 93.9875 70.5225 92.885 71.88C91.4118 73.694 90.5982 76.101 90.8217 78.2445L87.6723 78.5728L90.8217 78.2445C91.0185 80.1315 91.8793 81.8345 93.2415 83.1893C94.4815 84.4228 94.487 86.4278 93.2535 87.6678C92.0203 88.9078 90.0153 88.9133 88.7753 87.68C86.4605 85.3778 84.882 82.3498 84.5225 78.9013C84.0988 74.8368 85.6048 70.798 87.9688 67.8873C89.0713 66.5295 91.0657 66.3228 92.4232 67.4255Z" fill="#8A95F4"/>
<path fill-rule="evenodd" clip-rule="evenodd" d="M115.042 77.2455C116.709 77.7735 117.633 79.5532 117.105 81.2205C115.204 87.2237 109.534 91.685 102.696 92.3977C97.3317 92.9567 92.2315 91.1175 88.7753 87.68C87.5353 86.4467 87.5297 84.4415 88.763 83.2015C89.9962 81.9615 92.0015 81.956 93.2415 83.1895C95.3002 85.237 98.499 86.4672 102.039 86.0982C106.592 85.624 109.992 82.7032 111.067 79.3087C111.595 77.6412 113.375 76.7177 115.042 77.2455Z" fill="#8A95F4"/>
<path d="M116.175 119.188C115.439 119.541 114.463 119.423 113.593 119.423H101.711L98.6172 108.279L96.9485 102.323L96.6513 101.261H111.118L111.415 102.323L113.084 108.279L116.175 119.188Z" fill="#24386C"/>
<path opacity="0.28" d="M113.084 108.279H98.6172L96.9485 102.323H111.415L113.084 108.279Z" fill="#231F20"/>
<path d="M34.9622 119.527C34.9622 119.527 42.356 90.6617 41.1237 85.1462C39.8915 79.6307 36.3485 87.1787 36.3485 87.1787C36.3485 87.1787 37.735 69.6182 34.038 69.4642C30.341 69.3102 30.341 73.0072 30.341 73.0072C30.341 73.0072 30.187 53.2902 27.4142 53.2902C21.5609 53.2902 23.5634 117.678 25.2577 119.527H34.9622Z" fill="#24386C"/>
<path d="M62.394 118.15V118.15C61.1393 119.585 58.9585 119.732 57.5233 118.477L40.498 103.592C39.0628 102.338 38.9165 100.157 40.1713 98.7217C41.426 97.2865 43.6065 97.1402 45.0418 98.395L62.0673 113.28C63.5025 114.534 63.6488 116.715 62.394 118.15Z" fill="#24386C"/>
<path fill-rule="evenodd" clip-rule="evenodd" d="M52.4938 95.386C50.294 95.386 48.5107 97.1693 48.5107 99.369C48.5107 101.569 50.294 103.352 52.4938 103.352C54.6935 103.352 56.4767 101.569 56.4767 99.369C56.4767 97.1693 54.6935 95.386 52.4938 95.386ZM48.2673 99.369C48.2673 97.0348 50.1595 95.1425 52.4938 95.1425C54.8283 95.1425 56.7205 97.0348 56.7205 99.369C56.7205 101.703 54.8283 103.596 52.4938 103.596C50.1595 103.596 48.2673 101.703 48.2673 99.369Z" fill="#414042"/>
<path d="M112.725 106.798H97.1093C96.6718 106.798 96.281 106.525 96.1312 106.114L94.7193 102.238C94.472 101.559 94.9748 100.841 95.6975 100.841H111.186C111.551 100.841 111.877 101.069 112.002 101.411L113.54 105.634C113.746 106.2 113.327 106.798 112.725 106.798Z" fill="black" fill-opacity="0.31"/>
<path d="M99.322 103.283H96.4997C96.3582 103.283 96.2432 103.168 96.2432 103.027C96.2432 102.885 96.3582 102.77 96.4997 102.77H99.322C99.4635 102.77 99.5785 102.885 99.5785 103.027C99.5785 103.168 99.4635 103.283 99.322 103.283Z" fill="#24386C"/>
<path d="M99.8818 104.869H97.0595C96.918 104.869 96.803 104.754 96.803 104.613C96.803 104.471 96.918 104.356 97.0595 104.356H99.8818C100.023 104.356 100.138 104.471 100.138 104.613C100.138 104.754 100.023 104.869 99.8818 104.869Z" fill="#24386C"/>
<path fill-rule="evenodd" clip-rule="evenodd" d="M59.5093 84.517L61.1587 85.8042L62.809 84.517L64.459 85.8042L66.1093 84.517L67.7598 85.8042L69.4095 84.517L71.0608 85.8045L72.713 84.517L74.4402 85.8627C74.4932 85.904 74.5028 85.9805 74.4613 86.0337C74.42 86.0867 74.3435 86.0962 74.2905 86.055L72.713 84.8257L71.0608 86.1132L69.4095 84.8257L67.76 86.1132L66.1093 84.8257L64.459 86.1132L62.809 84.8257L61.1587 86.1132L59.5093 84.826L57.8588 86.1132L56.2085 84.8257L54.5585 86.1132L52.8335 84.7675C52.7805 84.726 52.771 84.6495 52.8122 84.5965C52.8537 84.5435 52.9303 84.534 52.9833 84.5752L54.5585 85.8042L56.2085 84.517L57.8588 85.8042L59.5093 84.517Z" fill="#414042"/>
<path fill-rule="evenodd" clip-rule="evenodd" d="M56.0575 86.7413L57.7067 88.0285L59.357 86.7413L61.007 88.0285L62.6573 86.7413L64.308 88.0285L65.9575 86.7413L67.6087 88.0288L69.261 86.7413L70.9883 88.087C71.0413 88.1283 71.0507 88.2048 71.0095 88.258C70.968 88.311 70.8915 88.3205 70.8385 88.2793L69.261 87.05L67.6087 88.3375L65.9577 87.05L64.308 88.3375L62.6573 87.05L61.007 88.3375L59.357 87.05L57.7067 88.3375L56.0573 87.05L54.4068 88.3375L52.7565 87.05L51.1065 88.3375L49.3815 86.9918C49.3285 86.9503 49.319 86.8738 49.3602 86.8208C49.4017 86.7678 49.4783 86.7583 49.5313 86.7995L51.1065 88.0285L52.7565 86.7413L54.4068 88.0285L56.0575 86.7413Z" fill="#414042"/>
<path fill-rule="evenodd" clip-rule="evenodd" d="M114.646 43.882L116.296 45.1695L117.946 43.882L119.596 45.1695L121.246 43.882L122.896 45.1695L124.546 43.882L126.198 45.1695L127.85 43.882L129.577 45.2278C129.63 45.2693 129.639 45.3458 129.598 45.3988C129.557 45.4518 129.48 45.4613 129.427 45.42L127.85 44.191L126.197 45.4783L124.546 44.191L122.896 45.4785L121.246 44.191L119.596 45.4785L117.946 44.191L116.296 45.4785L114.646 44.191L112.995 45.4785L111.345 44.191L109.695 45.4785L107.97 44.1325C107.917 44.0913 107.907 44.0145 107.949 43.9615C107.99 43.9085 108.067 43.899 108.12 43.9405L109.695 45.1695L111.345 43.882L112.995 45.1695L114.646 43.882Z" fill="#8A95F4"/>
<path fill-rule="evenodd" clip-rule="evenodd" d="M111.194 46.1063L112.844 47.3935L114.494 46.1063L116.144 47.3938L117.794 46.1063L119.445 47.3938L121.094 46.1063L122.746 47.3938L124.398 46.1063L126.125 47.452C126.178 47.4933 126.187 47.57 126.146 47.623C126.105 47.676 126.028 47.6855 125.975 47.6443L124.398 46.415L122.745 47.7025L121.094 46.4153L119.445 47.7025L117.794 46.4153L116.144 47.7025L114.494 46.4153L112.844 47.7025L111.194 46.4153L109.544 47.7025L107.893 46.4153L106.243 47.7025L104.518 46.3568C104.465 46.3153 104.456 46.2388 104.497 46.1858C104.538 46.1328 104.615 46.1233 104.668 46.1648L106.243 47.3935L107.893 46.1063L109.544 47.3938L111.194 46.1063Z" fill="#8A95F4"/>
<path d="M48.1728 126.698C60.0312 126.698 69.6443 126.155 69.6443 125.485C69.6443 124.815 60.0312 124.272 48.1728 124.272C36.3143 124.272 26.701 124.815 26.701 125.485C26.701 126.155 36.3143 126.698 48.1728 126.698Z" fill="black" fill-opacity="0.22"/>
<path d="M100.001 126.698C111.859 126.698 121.473 126.155 121.473 125.485C121.473 124.815 111.859 124.272 100.001 124.272C88.1422 124.272 78.529 124.815 78.529 125.485C78.529 126.155 88.1422 126.698 100.001 126.698Z" fill="black" fill-opacity="0.22"/>
<path d="M151.701 126.698C163.56 126.698 173.173 126.155 173.173 125.485C173.173 124.815 163.56 124.272 151.701 124.272C139.843 124.272 130.229 124.815 130.229 125.485C130.229 126.155 139.843 126.698 151.701 126.698Z" fill="black" fill-opacity="0.22"/>
<path d="M10.2105 45.3807C11.4015 45.3807 12.367 44.4153 12.367 43.2243C12.367 42.0333 11.4015 41.0677 10.2105 41.0677C9.01952 41.0677 8.05405 42.0333 8.05405 43.2243C8.05405 44.4153 9.01952 45.3807 10.2105 45.3807Z" fill="#24386C"/>
<path d="M188.391 57.1995C190.48 57.1995 192.173 55.5062 192.173 53.4177C192.173 51.3292 190.48 49.636 188.391 49.636C186.303 49.636 184.61 51.3292 184.61 53.4177C184.61 55.5062 186.303 57.1995 188.391 57.1995Z" fill="#24386C"/>
<path d="M79.7653 114.346C80.9563 114.346 81.9218 113.38 81.9218 112.189C81.9218 110.998 80.9563 110.033 79.7653 110.033C78.5743 110.033 77.6087 110.998 77.6087 112.189C77.6087 113.38 78.5743 114.346 79.7653 114.346Z" fill="#8A95F4"/>
<path d="M120.93 91.4865C122.121 91.4865 123.086 90.521 123.086 89.33C123.086 88.139 122.121 87.1735 120.93 87.1735C119.739 87.1735 118.773 88.139 118.773 89.33C118.773 90.521 119.739 91.4865 120.93 91.4865Z" fill="#8A95F4"/>
<path fill-rule="evenodd" clip-rule="evenodd" d="M76.187 137.351C76.187 137.283 76.2415 137.229 76.3087 137.229C77.3902 137.229 77.9375 137.745 78.4553 138.233L78.4587 138.236C78.973 138.721 79.4592 139.178 80.4415 139.178C81.424 139.178 81.9102 138.721 82.4245 138.236L82.428 138.233C82.9458 137.745 83.493 137.229 84.5748 137.229C85.6565 137.229 86.2035 137.745 86.7215 138.233L86.725 138.236C87.2392 138.721 87.7255 139.178 88.7083 139.178C89.6908 139.178 90.1768 138.721 90.6913 138.236L90.6945 138.233C91.2125 137.745 91.7595 137.229 92.8412 137.229C93.923 137.229 94.47 137.745 94.988 138.233L94.9912 138.236C95.5057 138.721 95.9918 139.178 96.9743 139.178C97.9568 139.178 98.443 138.721 98.9573 138.236L98.9607 138.233C99.4787 137.745 100.026 137.229 101.107 137.229C102.189 137.229 102.736 137.745 103.254 138.233L103.257 138.236C103.772 138.721 104.258 139.178 105.241 139.178C106.223 139.178 106.709 138.721 107.224 138.236L107.227 138.233C107.745 137.745 108.292 137.229 109.374 137.229C110.456 137.229 111.003 137.745 111.521 138.233L111.524 138.236C112.039 138.721 112.525 139.178 113.508 139.178C114.49 139.178 114.977 138.721 115.491 138.236L115.494 138.233C116.012 137.745 116.559 137.229 117.641 137.229C118.723 137.229 119.27 137.745 119.788 138.233L119.791 138.236C120.306 138.721 120.792 139.178 121.774 139.178C122.757 139.178 123.243 138.721 123.757 138.236L123.761 138.233C124.278 137.745 124.825 137.229 125.907 137.229C126.989 137.229 127.536 137.745 128.053 138.233L128.057 138.236C128.571 138.721 129.057 139.178 130.04 139.178C131.022 139.178 131.508 138.721 132.023 138.236L132.027 138.233C132.544 137.745 133.092 137.229 134.173 137.229C135.255 137.229 135.802 137.745 136.32 138.233L136.324 138.236C136.838 138.721 137.324 139.178 138.307 139.178C139.29 139.178 139.776 138.721 140.29 138.236L140.294 138.233C140.812 137.745 141.358 137.229 142.44 137.229C143.522 137.229 144.069 137.745 144.587 138.233L144.59 138.236C145.105 138.721 145.591 139.178 146.574 139.178C147.556 139.178 148.043 138.721 148.557 138.236L148.561 138.233C149.078 137.745 149.626 137.229 150.708 137.229C151.79 137.229 152.337 137.745 152.855 138.233L152.858 138.236C153.373 138.721 153.859 139.178 154.842 139.178C155.824 139.178 156.311 138.721 156.825 138.236L156.828 138.233C157.346 137.745 157.893 137.229 158.975 137.229C160.057 137.229 160.604 137.745 161.122 138.233L161.126 138.236C161.64 138.721 162.126 139.178 163.109 139.178C164.092 139.178 164.579 138.721 165.093 138.236L165.097 138.233C165.615 137.745 166.162 137.229 167.244 137.229C168.326 137.229 168.874 137.745 169.392 138.233L169.395 138.236C169.91 138.721 170.396 139.178 171.38 139.178C172.363 139.178 172.849 138.721 173.363 138.236L173.367 138.233C173.885 137.745 174.433 137.229 175.515 137.229C175.582 137.229 175.637 137.283 175.637 137.351C175.637 137.418 175.582 137.472 175.515 137.472C174.532 137.472 174.045 137.929 173.531 138.414L173.527 138.417C173.009 138.905 172.462 139.421 171.38 139.421C170.297 139.421 169.75 138.905 169.232 138.417L169.228 138.414C168.714 137.929 168.227 137.472 167.244 137.472C166.261 137.472 165.775 137.929 165.26 138.414L165.257 138.417C164.739 138.905 164.191 139.421 163.109 139.421C162.027 139.421 161.48 138.905 160.962 138.417L160.958 138.414C160.444 137.929 159.958 137.472 158.975 137.472C157.993 137.472 157.506 137.928 156.992 138.414L156.988 138.417C156.47 138.905 155.924 139.421 154.842 139.421C153.76 139.421 153.213 138.905 152.695 138.417L152.691 138.414C152.176 137.929 151.69 137.472 150.708 137.472C149.725 137.472 149.239 137.929 148.724 138.414L148.721 138.417C148.203 138.905 147.656 139.421 146.574 139.421C145.492 139.421 144.945 138.905 144.427 138.417L144.423 138.414C143.909 137.929 143.423 137.472 142.44 137.472C141.458 137.472 140.971 137.928 140.457 138.414L140.454 138.417C139.936 138.905 139.389 139.421 138.307 139.421C137.225 139.421 136.678 138.905 136.16 138.417L136.156 138.414C135.642 137.929 135.156 137.472 134.173 137.472C133.191 137.472 132.705 137.928 132.19 138.414L132.186 138.417C131.669 138.905 131.121 139.421 130.04 139.421C128.958 139.421 128.411 138.905 127.893 138.417L127.89 138.414C127.375 137.928 126.889 137.472 125.907 137.472C124.925 137.472 124.438 137.928 123.924 138.414L123.921 138.417C123.403 138.905 122.856 139.421 121.774 139.421C120.693 139.421 120.146 138.905 119.628 138.417L119.624 138.414C119.11 137.928 118.623 137.472 117.641 137.472C116.659 137.472 116.172 137.928 115.658 138.414L115.655 138.417C115.137 138.905 114.59 139.421 113.508 139.421C112.426 139.421 111.879 138.905 111.361 138.417L111.357 138.414C110.843 137.929 110.356 137.472 109.374 137.472C108.391 137.472 107.905 137.928 107.391 138.414L107.387 138.417C106.87 138.905 106.322 139.421 105.241 139.421C104.159 139.421 103.612 138.905 103.094 138.417L103.09 138.414C102.576 137.928 102.09 137.472 101.107 137.472C100.125 137.472 99.6387 137.928 99.1245 138.414L99.121 138.417C98.603 138.905 98.056 139.421 96.9743 139.421C95.8927 139.421 95.3455 138.905 94.8278 138.417L94.8242 138.414C94.3097 137.928 93.8237 137.472 92.8412 137.472C91.8587 137.472 91.3728 137.928 90.8583 138.414L90.8548 138.417C90.337 138.905 89.7898 139.421 88.7083 139.421C87.6265 139.421 87.0792 138.905 86.5612 138.417L86.5577 138.414C86.0435 137.928 85.5573 137.472 84.5748 137.472C83.5923 137.472 83.106 137.928 82.5918 138.414L82.5882 138.417C82.0702 138.905 81.5232 139.421 80.4415 139.421C79.36 139.421 78.813 138.905 78.295 138.417L78.2915 138.414C77.7772 137.928 77.2912 137.472 76.3087 137.472C76.2415 137.472 76.187 137.418 76.187 137.351Z" fill="#24386C"/>
<path d="M157.386 119.291C159.653 119.291 161.491 117.453 161.491 115.186C161.491 112.919 159.653 111.081 157.386 111.081C155.119 111.081 153.281 112.919 153.281 115.186C153.281 117.453 155.119 119.291 157.386 119.291Z" fill="#24386C"/>
<path d="M154.484 76.3002L153.52 79.7595L152.555 83.219L150.042 80.6542L147.528 78.0895L151.006 77.195L154.484 76.3002Z" fill="#8A95F4"/>
<path fill-rule="evenodd" clip-rule="evenodd" d="M157.676 76.377L154.405 88.111L145.878 79.4115L157.676 76.377ZM157.327 76.718L146.347 79.5423L154.283 87.6393L157.327 76.718Z" fill="#414042"/>
<path d="M64.0452 62.249H37.656C36.9702 62.249 36.4142 61.693 36.4142 61.007V56.8268C36.4142 56.141 36.9702 55.585 37.656 55.585H64.0452C64.7312 55.585 65.2872 56.141 65.2872 56.8268V61.007C65.2872 61.693 64.7312 62.249 64.0452 62.249Z" fill="#24386C"/>
<path d="M40.2177 49.8882L33.9565 54.5995L36.2722 48.946L40.2177 49.8882Z" fill="#24386C"/>
<path d="M33.921 49.8882H60.3102C60.9962 49.8882 61.552 49.3322 61.552 48.6465V44.466C61.552 43.7802 60.9962 43.2242 60.3102 43.2242H33.921C33.2352 43.2242 32.6792 43.7802 32.6792 44.466V48.6465C32.6792 49.3322 33.2352 49.8882 33.921 49.8882Z" fill="#8A95F4"/>
<path d="M46.7335 47.595C47.0198 47.6205 46.9273 47.2283 46.8828 47.024C46.793 46.612 47.6207 46.7443 47.967 46.21C48.1765 45.8865 48.2313 45.1958 47.9808 44.8523C47.7235 44.499 47.1953 44.4238 46.9188 44.4773C46.2733 44.6023 46.116 45.1228 46.086 45.529C46.07 45.7438 46.155 45.753 46.3415 45.733C46.5835 45.707 46.4038 45.0355 46.9688 44.9C47.1585 44.8545 47.6193 44.9618 47.7158 45.129C47.8765 45.408 47.6493 45.9718 47.5595 46.0755C47.3513 46.316 46.4353 46.5195 46.5075 46.997C46.5543 47.3058 46.3645 47.562 46.7335 47.595Z" fill="#24386C"/>
<path d="M46.7422 48.6507C46.893 48.6507 47.015 48.5285 47.015 48.378C47.015 48.2272 46.893 48.1052 46.7422 48.1052C46.5917 48.1052 46.4695 48.2272 46.4695 48.378C46.4695 48.5285 46.5917 48.6507 46.7422 48.6507Z" fill="#24386C"/>
<path fill-rule="evenodd" clip-rule="evenodd" d="M140.525 104.161C138.325 104.161 136.542 105.944 136.542 108.144C136.542 110.343 138.325 112.127 140.525 112.127C142.724 112.127 144.508 110.343 144.508 108.144C144.508 105.944 142.724 104.161 140.525 104.161ZM136.298 108.144C136.298 105.809 138.19 103.917 140.525 103.917C142.859 103.917 144.751 105.809 144.751 108.144C144.751 110.478 142.859 112.37 140.525 112.37C138.19 112.37 136.298 110.478 136.298 108.144Z" fill="#414042"/>
<path d="M48.876 59.4532C49.1722 59.4532 49.4125 59.2132 49.4125 58.917C49.4125 58.6207 49.1722 58.3805 48.876 58.3805C48.5797 58.3805 48.3395 58.6207 48.3395 58.917C48.3395 59.2132 48.5797 59.4532 48.876 59.4532Z" fill="#8A95F4"/>
<path d="M50.8507 59.4532C51.147 59.4532 51.3872 59.2132 51.3872 58.917C51.3872 58.6207 51.147 58.3805 50.8507 58.3805C50.5545 58.3805 50.3143 58.6207 50.3143 58.917C50.3143 59.2132 50.5545 59.4532 50.8507 59.4532Z" fill="#8A95F4"/>
<path d="M52.8255 59.4532C53.1218 59.4532 53.362 59.2132 53.362 58.917C53.362 58.6207 53.1218 58.3805 52.8255 58.3805C52.5293 58.3805 52.289 58.6207 52.289 58.917C52.289 59.2132 52.5293 59.4532 52.8255 59.4532Z" fill="#8A95F4"/>
<path d="M55.3285 34.5907H41.0168C39.9335 34.5907 39.0552 33.7125 39.0552 32.629V31.0455H57.29V32.629C57.29 33.7125 56.4117 34.5907 55.3285 34.5907Z" fill="#24386C"/>
<path d="M107.004 34.5907H92.692C91.6088 34.5907 90.7305 33.7125 90.7305 32.629V31.0455H108.965V32.629C108.965 33.7125 108.087 34.5907 107.004 34.5907Z" fill="#24386C"/>
<path d="M158.857 34.5907H144.545C143.462 34.5907 142.584 33.7125 142.584 32.629V31.0455H160.818V32.629C160.818 33.7125 159.94 34.5907 158.857 34.5907Z" fill="#8A95F4"/>
<path d="M85.9935 71.0515C85.9935 71.0515 87.782 72.1943 88.9392 70.4238C90.8507 67.4998 88.5523 67.3403 88.5523 67.3403C88.5523 67.3403 86.8875 68.3423 85.9935 71.0515Z" fill="#24386C"/>
<path fill-rule="evenodd" clip-rule="evenodd" d="M137.178 31.2702C134.157 31.2702 131.71 33.7197 131.71 36.739V113.719C131.71 116.738 134.157 119.188 137.178 119.188H166.41C167.26 119.188 168.068 118.992 168.788 118.647C170.616 117.76 171.878 115.885 171.878 113.719V36.739C171.878 33.72 169.429 31.2702 166.41 31.2702H137.178ZM131.466 36.739C131.466 33.5855 134.022 31.0267 137.178 31.0267H166.41C169.563 31.0267 172.122 33.5852 172.122 36.739V113.719C172.122 115.982 170.802 117.941 168.894 118.866L168.893 118.867C168.142 119.227 167.298 119.432 166.41 119.432H137.178C134.022 119.432 131.466 116.873 131.466 113.719V36.739Z" fill="#414042"/>
<path d="M131.368 59.405C132.559 59.405 133.525 58.4395 133.525 57.2487C133.525 56.0577 132.559 55.0922 131.368 55.0922C130.177 55.0922 129.212 56.0577 129.212 57.2487C129.212 58.4395 130.177 59.405 131.368 59.405Z" fill="#24386C"/>
<path d="M152.011 56.5997L173.235 63.7875C174.926 64.3602 176.76 63.4537 177.333 61.7627L180.736 51.7157C181.308 50.0247 180.402 48.19 178.711 47.6172L157.487 40.4295C155.796 39.857 153.961 40.7635 153.389 42.4542L149.986 52.5015C149.413 54.1922 150.32 56.027 152.011 56.5997Z" fill="#8A95F4"/>
<path fill-rule="evenodd" clip-rule="evenodd" d="M153.273 42.4153C153.868 40.6608 155.772 39.72 157.526 40.3143L178.75 47.502C180.505 48.0963 181.445 50.0003 180.851 51.7548L177.448 61.802C176.854 63.5565 174.95 64.497 173.196 63.903L151.971 56.715C150.217 56.121 149.276 54.217 149.871 52.4623L149.986 52.5015L149.871 52.4623L153.273 42.4153ZM157.448 40.545C155.821 39.994 154.055 40.8663 153.504 42.4933L153.389 42.4543L153.504 42.4933L150.101 52.5405C149.55 54.1675 150.423 55.9333 152.05 56.4843L173.274 63.6723C174.901 64.2233 176.667 63.3508 177.218 61.7238L180.62 51.6765C181.171 50.0495 180.299 48.2838 178.672 47.7328L157.448 40.545Z" fill="black" fill-opacity="0.31"/>
<path d="M163.553 52.3447C163.849 52.3447 164.089 52.1047 164.089 51.8085C164.089 51.5122 163.849 51.272 163.553 51.272C163.256 51.272 163.016 51.5122 163.016 51.8085C163.016 52.1047 163.256 52.3447 163.553 52.3447Z" fill="#24386C"/>
<path d="M165.512 52.8812C165.808 52.8812 166.048 52.641 166.048 52.3447C166.048 52.0485 165.808 51.8085 165.512 51.8085C165.215 51.8085 164.975 52.0485 164.975 52.3447C164.975 52.641 165.215 52.8812 165.512 52.8812Z" fill="#24386C"/>
<path d="M167.471 53.4177C167.767 53.4177 168.007 53.1775 168.007 52.8812C168.007 52.585 167.767 52.3447 167.471 52.3447C167.174 52.3447 166.934 52.585 166.934 52.8812C166.934 53.1775 167.174 53.4177 167.471 53.4177Z" fill="#24386C"/>
<path d="M173.959 119.527C173.959 119.527 180.766 92.9055 179.631 87.828C178.497 82.7507 175.235 89.699 175.235 89.699C175.235 89.699 176.512 73.5332 173.108 73.3915C169.705 73.2497 169.705 76.653 169.705 76.653C169.705 76.653 169.323 64.6852 166.77 64.6852C161.382 64.6852 161.852 117.825 163.412 119.527H173.959Z" fill="#24386C"/>
<path d="M151.108 116.075C151.108 117.981 149.562 119.527 147.656 119.527H125.042C123.135 119.527 121.59 117.981 121.59 116.075C121.59 114.169 123.135 112.623 125.042 112.623H147.656C149.562 112.623 151.108 114.169 151.108 116.075Z" fill="#24386C"/>
</svg>
