<svg width="200" height="150" viewBox="0 0 200 150" fill="none" xmlns="http://www.w3.org/2000/svg">
<path d="M19.0119 124.452C15.5774 123.456 15.2584 114.792 15.2045 113.328C14.9064 105.234 18.0738 98.557 19.9787 95.2407C23.7671 88.645 26.4687 88.5412 28.7045 83.329C29.2495 82.0582 29.6427 80.7735 29.9135 79.496C30.3717 77.3342 33.199 77.2652 33.6977 79.3985C34.6162 83.3282 35.041 86.7282 35.248 89.3567C35.6387 94.3115 35.993 99.4282 34.0827 105.697C32.0992 112.207 28.8117 116.225 26.9192 118.49C24.0768 121.891 21.3665 125.134 19.0119 124.452Z" fill="#165ADF"/>
<path d="M17.6147 121.253C13.5649 119.961 9.12848 116.15 9.53348 112.661C9.91291 109.392 14.2824 108.634 14.0681 105.914C13.8654 103.341 9.88888 103.175 9.31228 100.329C8.62106 96.917 13.918 95.0948 13.6158 90.9995C13.3625 87.5658 9.45303 86.7923 9.86188 83.942C10.2362 81.3333 13.6483 80.991 14.1787 77.6003C14.4597 75.8043 13.6719 74.8158 14.4552 73.9505C15.3534 72.9585 17.5978 72.9228 18.7686 73.9505C19.9985 75.03 19.2904 76.3223 20.4829 78.3745C21.8321 80.6965 23.4817 80.1895 24.2986 81.9138C25.6293 84.7223 21.774 87.1675 22.7502 90.3195C23.7204 93.4518 28.131 92.9858 28.8333 95.794C29.677 99.1685 23.9058 102.231 24.9648 104.75C25.7403 106.594 29.0553 105.476 31.1005 108.071C32.4608 109.797 32.8245 112.613 31.8195 114.541C30.835 116.429 29.6193 116.259 26.6023 119.289C25.1118 120.786 25.1915 121.954 24.1767 122.48C21.8824 123.671 18.8084 121.633 17.6147 121.253Z" fill="#8FE4FF"/>
<path d="M81.4333 106.104H76.327L74.5308 101.488H83.2295L81.4333 106.104Z" fill="#165ADF"/>
<path d="M76.058 105.412L73.969 100.078H72.2943C72.037 99.977 72.0145 99.5975 72.2403 99.5975H74.3467L76.5058 105.165L76.058 105.412Z" fill="#165ADF"/>
<path d="M76.9813 107.918C77.315 107.918 77.5853 107.647 77.5853 107.313C77.5853 106.98 77.315 106.709 76.9813 106.709C76.6478 106.709 76.3773 106.98 76.3773 107.313C76.3773 107.647 76.6478 107.918 76.9813 107.918Z" fill="#165ADF"/>
<path d="M80.779 107.918C81.1125 107.918 81.383 107.647 81.383 107.313C81.383 106.98 81.1125 106.709 80.779 106.709C80.4452 106.709 80.1747 106.98 80.1747 107.313C80.1747 107.647 80.4452 107.918 80.779 107.918Z" fill="#165ADF"/>
<path d="M34.9962 59.9618C34.9962 57.71 36.8217 53.9738 39.0735 53.9738H44.0762C46.328 53.9738 48.1535 57.71 48.1535 59.9618C48.1535 62.2135 34.9962 62.2135 34.9962 59.9618Z" fill="#165ADF"/>
<path d="M41.575 53.011C43.461 53.011 44.99 51.4823 44.99 49.596C44.99 47.71 43.461 46.181 41.575 46.181C39.6888 46.181 38.1598 47.71 38.1598 49.596C38.1598 51.4823 39.6888 53.011 41.575 53.011Z" fill="#165ADF"/>
<path d="M73.3262 70.0123H48.924C48.2867 70.0123 47.77 69.4958 47.77 68.8585V68.5118C47.77 67.8745 48.2867 67.358 48.924 67.358H73.3262C73.9635 67.358 74.48 67.8745 74.48 68.5118V68.8585C74.48 69.4958 73.9635 70.0123 73.3262 70.0123Z" fill="#165ADF"/>
<path d="M73.3262 74.9923H48.924C48.2867 74.9923 47.77 74.4758 47.77 73.8385V73.4918C47.77 72.8545 48.2867 72.338 48.924 72.338H73.3262C73.9635 72.338 74.48 72.8545 74.48 73.4918V73.8385C74.48 74.4758 73.9635 74.9923 73.3262 74.9923Z" fill="#165ADF"/>
<path d="M73.3262 80.0747H48.924C48.2867 80.0747 47.77 79.558 47.77 78.9207V78.5742C47.77 77.937 48.2867 77.4202 48.924 77.4202H73.3262C73.9635 77.4202 74.48 77.937 74.48 78.5742V78.9207C74.48 79.558 73.9635 80.0747 73.3262 80.0747Z" fill="#165ADF"/>
<path d="M43.913 70.0123H43.3322C42.7137 70.0123 42.2125 69.511 42.2125 68.8925V68.3118C42.2125 67.6935 42.7137 67.192 43.3322 67.192H43.913C44.5312 67.192 45.0327 67.6935 45.0327 68.3118V68.8925C45.0327 69.511 44.5312 70.0123 43.913 70.0123Z" fill="#B3CAF8"/>
<path d="M43.913 75.0753H43.3322C42.7137 75.0753 42.2125 74.5738 42.2125 73.9553V73.3748C42.2125 72.7563 42.7137 72.255 43.3322 72.255H43.913C44.5312 72.255 45.0327 72.7563 45.0327 73.3748V73.9553C45.0327 74.5738 44.5312 75.0753 43.913 75.0753Z" fill="#B3CAF8"/>
<path d="M43.913 80.138H43.3322C42.7137 80.138 42.2125 79.6367 42.2125 79.0182V78.4375C42.2125 77.819 42.7137 77.3177 43.3322 77.3177H43.913C44.5312 77.3177 45.0327 77.819 45.0327 78.4375V79.0182C45.0327 79.6367 44.5312 80.138 43.913 80.138Z" fill="#B3CAF8"/>
<path d="M81.3192 91.4965H40.3042C39.5027 91.4965 38.853 90.8468 38.853 90.0453V84.5448C38.853 83.7433 39.5027 83.0935 40.3042 83.0935H81.3192C82.121 83.0935 82.7707 83.7433 82.7707 84.5448V90.0453C82.7707 90.8468 82.121 91.4965 81.3192 91.4965Z" fill="#B3CAF8"/>
<path d="M92.5315 129.618H56.2798C55.5248 129.618 54.9125 129.006 54.9125 128.251V122.582C54.9125 121.827 55.5248 121.215 56.2798 121.215H92.5315C93.2868 121.215 93.899 121.827 93.899 122.582V128.251C93.899 129.006 93.2868 129.618 92.5315 129.618Z" fill="#165ADF"/>
<path fill-rule="evenodd" clip-rule="evenodd" d="M32.012 96.3668H31.4705V96.1503H32.012V96.3668Z" fill="#8FE4FF"/>
<path fill-rule="evenodd" clip-rule="evenodd" d="M34.0298 96.3668H33.5045V96.1503H34.0298V96.3668ZM36.131 96.3668H35.0805V96.1503H36.131V96.3668ZM38.2323 96.3668H37.1818V96.1503H38.2323V96.3668ZM40.3335 96.3668H39.283V96.1503H40.3335V96.3668ZM42.4348 96.3668H41.3843V96.1503H42.4348V96.3668ZM44.536 96.3668H43.4855V96.1503H44.536V96.3668ZM46.6373 96.3668H45.5868V96.1503H46.6373V96.3668ZM48.7385 96.3668H47.688V96.1503H48.7385V96.3668ZM50.8398 96.3668H49.7893V96.1503H50.8398V96.3668ZM52.941 96.3668H51.8905V96.1503H52.941V96.3668ZM55.0423 96.3668H53.9918V96.1503H55.0423V96.3668ZM57.1435 96.3668H56.0928V96.1503H57.1435V96.3668ZM59.2448 96.3668H58.194V96.1503H59.2448V96.3668ZM61.346 96.3668H60.2953V96.1503H61.346V96.3668ZM63.4473 96.3668H62.3965V96.1503H63.4473V96.3668ZM65.5485 96.3668H64.4978V96.1503H65.5485V96.3668ZM67.6498 96.3668H66.599V96.1503H67.6498V96.3668ZM69.751 96.3668H68.7003V96.1503H69.751V96.3668ZM71.8523 96.3668H70.8015V96.1503H71.8523V96.3668ZM73.9535 96.3668H72.9028V96.1503H73.9535V96.3668ZM76.0548 96.3668H75.004V96.1503H76.0548V96.3668ZM78.156 96.3668H77.1053V96.1503H78.156V96.3668ZM80.2573 96.3668H79.2065V96.1503H80.2573V96.3668ZM82.3585 96.3668H81.3078V96.1503H82.3585V96.3668ZM83.9343 96.3668H83.409V96.1503H83.9343V96.3668Z" fill="#8FE4FF"/>
<path fill-rule="evenodd" clip-rule="evenodd" d="M85.2223 96.3668H84.6808V96.1503H85.2223V96.3668Z" fill="#8FE4FF"/>
<path d="M89.6963 94.749C90.5043 94.749 91.1595 94.0938 91.1595 93.2858C91.1595 92.4775 90.5043 91.8225 89.6963 91.8225C88.888 91.8225 88.2328 92.4775 88.2328 93.2858C88.2328 94.0938 88.888 94.749 89.6963 94.749Z" fill="#165ADF"/>
<path d="M34.1725 27.019C35.1553 27.019 35.952 26.2223 35.952 25.2395C35.952 24.2567 35.1553 23.46 34.1725 23.46C33.1898 23.46 32.393 24.2567 32.393 25.2395C32.393 26.2223 33.1898 27.019 34.1725 27.019Z" stroke="#242424" stroke-width="0.25" stroke-miterlimit="10"/>
<path d="M72.84 50.5943C73.3913 50.5943 73.8383 50.1473 73.8383 49.596C73.8383 49.0448 73.3913 48.598 72.84 48.598C72.2888 48.598 71.842 49.0448 71.842 49.596C71.842 50.1473 72.2888 50.5943 72.84 50.5943Z" stroke="#242424" stroke-width="0.25" stroke-miterlimit="10"/>
<path d="M95.6992 20.1509C95.6992 20.1509 95.5832 22.9816 94.6187 23.4599H100.176L95.6992 20.1509Z" fill="#B3CAF8"/>
<path d="M99.775 23.4597H111.358C114.108 23.4597 116.337 21.2301 116.337 18.4798V18.4797C116.337 15.7294 114.108 13.4998 111.358 13.4998H100.591C97.8408 13.4998 95.6113 15.7294 95.6113 18.4797V19.296C95.6113 21.5955 97.4755 23.4597 99.775 23.4597Z" fill="#B3CAF8"/>
<path d="M100.791 22.1516C101.197 22.1516 101.526 21.8227 101.526 21.4169C101.526 21.0112 101.197 20.6823 100.791 20.6823C100.385 20.6823 100.057 21.0112 100.057 21.4169C100.057 21.8227 100.385 22.1516 100.791 22.1516Z" fill="#8FE4FF"/>
<path d="M98.5783 22.1513C98.984 22.1513 99.313 21.8224 99.313 21.4167C99.313 21.0109 98.984 20.682 98.5783 20.682C98.1725 20.682 97.8435 21.0109 97.8435 21.4167C97.8435 21.8224 98.1725 22.1513 98.5783 22.1513Z" fill="#165ADF"/>
<path fill-rule="evenodd" clip-rule="evenodd" d="M40.9365 86.9205C41.6088 91.579 40.5995 94.4823 39.413 96.3305L39.2892 96.2513L39.413 96.3305C37.6167 99.1295 34.936 100.253 32.403 101.297L32.3343 101.325C29.8148 102.363 27.465 103.33 26.1448 105.75L25.8867 105.609C27.257 103.097 29.6942 102.094 32.1835 101.069C32.2195 101.054 32.2553 101.04 32.291 101.025C34.8302 99.9788 37.425 98.8835 39.1657 96.1718C40.3112 94.3865 41.3083 91.5555 40.6455 86.9625L40.9365 86.9205Z" fill="#8FE4FF"/>
<path fill-rule="evenodd" clip-rule="evenodd" d="M26.1255 105.74C26.0425 105.892 25.9638 106.049 25.889 106.213C25.209 107.706 25.3023 108.785 25.411 110.024L25.4115 110.029C25.5208 111.274 25.6435 112.671 24.9937 114.758C23.6194 119.171 20.2425 122.017 17.736 123.684L17.5975 123.476C20.0868 121.82 23.4062 119.015 24.755 114.683C25.39 112.644 25.271 111.287 25.1623 110.05L25.162 110.046C25.0525 108.801 24.953 107.666 25.6615 106.11L25.7753 106.161L25.6615 106.11C25.7385 105.94 25.8203 105.777 25.906 105.62L26.1255 105.74Z" fill="#165ADF"/>
<path d="M16.4057 120.851H25.2805C25.7773 120.851 26.208 121.197 26.3168 121.681C27.2765 125.957 28.0275 134.453 28.0275 134.453C28.0275 135.497 27.1813 136.343 26.1373 136.343H15.5489C14.5049 136.343 13.6586 135.497 13.6586 134.453C13.6586 134.453 14.4096 125.957 15.3694 121.681C15.4781 121.197 15.9091 120.851 16.4057 120.851Z" fill="#165ADF"/>
<path fill-rule="evenodd" clip-rule="evenodd" d="M48.003 136.468H9.41125V136.218H48.003V136.468Z" fill="#B3CAF8"/>
<path d="M63.8237 123.927L64.3075 124.908L65.3892 125.065L64.6065 125.828L64.7912 126.905L63.8237 126.397L62.856 126.905L63.041 125.828L62.258 125.065L63.34 124.908L63.8237 123.927Z" fill="#8FE4FF"/>
<path d="M69.1148 123.927L69.5985 124.908L70.6803 125.065L69.8975 125.828L70.0823 126.905L69.1148 126.397L68.1473 126.905L68.332 125.828L67.5493 125.065L68.631 124.908L69.1148 123.927Z" fill="#8FE4FF"/>
<path d="M74.4057 123.927L74.8895 124.908L75.9713 125.065L75.1885 125.828L75.3733 126.905L74.4057 126.397L73.438 126.905L73.623 125.828L72.84 125.065L73.922 124.908L74.4057 123.927Z" fill="#8FE4FF"/>
<path d="M79.6967 123.927L80.1805 124.908L81.2622 125.065L80.4795 125.828L80.6642 126.905L79.6967 126.397L78.729 126.905L78.914 125.828L78.131 125.065L79.213 124.908L79.6967 123.927Z" fill="#8FE4FF"/>
<path d="M84.9877 123.927L85.4715 124.908L86.5533 125.065L85.7705 125.828L85.9553 126.905L84.9877 126.397L84.02 126.905L84.205 125.828L83.422 125.065L84.504 124.908L84.9877 123.927Z" fill="#8FE4FF"/>
<path fill-rule="evenodd" clip-rule="evenodd" d="M55.1665 120.368H44.6873V120.074H55.1665V120.368Z" fill="#B3CAF8"/>
<path fill-rule="evenodd" clip-rule="evenodd" d="M59.449 122.356H44.6873V122.062H59.449V122.356Z" fill="#B3CAF8"/>
<path d="M89.4252 33.975C92.5142 33.975 95.0185 31.4707 95.0185 28.3818C95.0185 25.2928 92.5142 22.7886 89.4252 22.7886C86.3362 22.7886 83.832 25.2928 83.832 28.3818C83.832 31.4707 86.3362 33.975 89.4252 33.975Z" fill="#165ADF"/>
<path d="M87.4065 27.486C87.7092 27.486 87.9547 27.2405 87.9547 26.9378C87.9547 26.635 87.7092 26.3898 87.4065 26.3898C87.1037 26.3898 86.8582 26.635 86.8582 26.9378C86.8582 27.2405 87.1037 27.486 87.4065 27.486Z" fill="#8FE4FF"/>
<path d="M91.5503 27.4255C91.853 27.4255 92.0985 27.1802 92.0985 26.8775C92.0985 26.5747 91.853 26.3292 91.5503 26.3292C91.2475 26.3292 91.0023 26.5747 91.0023 26.8775C91.0023 27.1802 91.2475 27.4255 91.5503 27.4255Z" fill="#8FE4FF"/>
<path d="M86.6703 29.8267C86.7258 29.9162 87.66 31.366 89.3508 31.3635C91.1938 31.3607 92.1198 29.6355 92.1803 29.5185" stroke="#FFE458" stroke-width="0.312335" stroke-miterlimit="10" stroke-linecap="round"/>
<path d="M66.097 19.0752H56.2285V20.279H66.097V19.0752Z" fill="#8FE4FF"/>
<path d="M62.976 21.585H56.2285V22.7888H62.976V21.585Z" fill="#8FE4FF"/>
<path d="M64.4138 24.0946H56.2285V25.2985H64.4138V24.0946Z" fill="#8FE4FF"/>
<path d="M105.989 36.3107H107.529V58.3462H105.989C104.888 58.3462 103.995 57.4537 103.995 56.3527V38.3042C103.995 37.2032 104.888 36.3107 105.989 36.3107Z" fill="#165ADF"/>
<path d="M105.762 75.0753H92.2473V76.7315H105.762V75.0753Z" fill="#B3CAF8"/>
<path d="M105.762 78.4183H99.0703V80.0748H105.762V78.4183Z" fill="#B3CAF8"/>
<path d="M177.474 117.982H96.3987C92.478 117.982 89.2997 114.804 89.2997 110.884V110.883C89.2997 106.963 92.478 103.785 96.3987 103.785H177.474C181.395 103.785 184.573 106.963 184.573 110.883V110.884C184.573 114.804 181.395 117.982 177.474 117.982Z" fill="#165ADF"/>
<path d="M165.528 56.5197C176.943 56.5197 186.197 47.266 186.197 35.8507C186.197 24.4354 176.943 15.1815 165.528 15.1815C154.113 15.1815 144.859 24.4354 144.859 35.8507C144.859 47.266 154.113 56.5197 165.528 56.5197Z" fill="#B3CAF8"/>
<path d="M105.878 63.3413V59.4635" stroke="#242424" stroke-width="0.216592" stroke-miterlimit="10"/>
<path d="M105.878 44.0493V32.2503C105.878 30.602 107.214 29.2655 108.863 29.2655H167.808C169.456 29.2655 170.792 30.602 170.792 32.2503V128.366C170.792 130.015 169.456 131.351 167.808 131.351H108.863C107.214 131.351 105.878 130.015 105.878 128.366V71.294" stroke="#242424" stroke-width="0.25" stroke-miterlimit="10"/>
<path d="M158.235 32.608H118.436C117.622 32.608 116.962 31.9478 116.962 31.1338V27.3975C116.962 26.5833 117.622 25.9233 118.436 25.9233H158.235C159.049 25.9233 159.709 26.5833 159.709 27.3975V31.1338C159.709 31.9478 159.049 32.608 158.235 32.608Z" fill="#165ADF"/>
<path d="M118.173 39.366H111.64C111.181 39.366 110.81 38.9948 110.81 38.5365C110.81 38.0785 111.181 37.707 111.64 37.707H118.173C118.631 37.707 119.003 38.0785 119.003 38.5365C119.003 38.9948 118.631 39.366 118.173 39.366Z" fill="#165ADF"/>
<path d="M128.57 39.366H122.036C121.578 39.366 121.206 38.9948 121.206 38.5365C121.206 38.0785 121.578 37.707 122.036 37.707H128.57C129.028 37.707 129.399 38.0785 129.399 38.5365C129.399 38.9948 129.028 39.366 128.57 39.366Z" fill="#165ADF"/>
<path d="M138.966 39.366H132.432C131.974 39.366 131.603 38.9948 131.603 38.5365C131.603 38.0785 131.974 37.707 132.432 37.707H138.966C139.424 37.707 139.796 38.0785 139.796 38.5365C139.796 38.9948 139.424 39.366 138.966 39.366Z" fill="#165ADF"/>
<path d="M165.031 39.366H158.497C158.039 39.366 157.668 38.9948 157.668 38.5365C157.668 38.0785 158.039 37.707 158.497 37.707H165.031C165.489 37.707 165.861 38.0785 165.861 38.5365C165.861 38.9948 165.489 39.366 165.031 39.366Z" fill="#165ADF"/>
<path d="M121.095 72.5217C120.674 72.1005 119.991 72.1005 119.57 72.5217L119.419 72.6727L119.268 72.5217C118.847 72.1005 118.164 72.1005 117.743 72.5217C117.322 72.9427 117.322 73.6255 117.743 74.0467L117.894 74.1977L119.419 75.7227L121.095 74.0467C121.516 73.6255 121.516 72.9427 121.095 72.5217Z" fill="#165ADF"/>
<path d="M125.702 72.2673H123.615C123.091 72.2673 122.667 72.692 122.667 73.2158V74.0703C122.667 74.594 123.091 75.0185 123.615 75.0185H124.989L126.001 75.7228V74.966C126.377 74.8403 126.651 74.489 126.651 74.0703V73.2158C126.651 72.692 126.226 72.2673 125.702 72.2673Z" stroke="#005B9D" stroke-width="0.25" stroke-miterlimit="10"/>
<path d="M151.278 76.4727C150.427 76.4727 149.735 75.7803 149.735 74.9293V72.9993C149.735 72.1483 150.427 71.4557 151.278 71.4557H158.915C159.766 71.4557 160.458 72.1483 160.458 72.9993V74.9293C160.458 75.7803 159.766 76.4727 158.915 76.4727H151.278Z" fill="#165ADF"/>
<path d="M158.915 75.7227H151.278C150.84 75.7227 150.485 75.3675 150.485 74.9293V72.9993C150.485 72.561 150.84 72.2057 151.278 72.2057H158.915C159.353 72.2057 159.708 72.561 159.708 72.9993V74.9293C159.708 75.3675 159.353 75.7227 158.915 75.7227Z" fill="#B3CAF8"/>
<path d="M157.494 69.4608H119.641C118.419 69.4608 117.427 68.4695 117.427 67.2465V46.6795C117.427 45.4565 118.419 44.4653 119.641 44.4653H157.494C158.717 44.4653 159.708 45.4565 159.708 46.6795V67.2465C159.708 68.4695 158.717 69.4608 157.494 69.4608Z" fill="#165ADF"/>
<path d="M157.494 112.712H119.641C118.419 112.712 117.427 111.72 117.427 110.497V89.9303C117.427 88.7073 118.419 87.716 119.641 87.716H157.494C158.717 87.716 159.708 88.7073 159.708 89.9303V110.497C159.708 111.72 158.717 112.712 157.494 112.712Z" fill="#B3CAF8"/>
<path d="M121.095 115.772C120.674 115.351 119.991 115.351 119.57 115.772L119.419 115.923L119.268 115.772C118.847 115.351 118.164 115.351 117.743 115.772C117.322 116.193 117.322 116.876 117.743 117.297L117.894 117.448L119.419 118.973L121.095 117.297C121.516 116.876 121.516 116.193 121.095 115.772Z" fill="#B3CAF8"/>
<path d="M125.702 115.518H123.615C123.091 115.518 122.667 115.943 122.667 116.467V117.321C122.667 117.845 123.091 118.269 123.615 118.269H124.989L126.001 118.974V118.217C126.377 118.091 126.651 117.74 126.651 117.321V116.467C126.651 115.943 126.226 115.518 125.702 115.518Z" fill="#B3CAF8"/>
<path d="M158.915 118.973H151.278C150.84 118.973 150.485 118.618 150.485 118.18V116.25C150.485 115.812 150.84 115.456 151.278 115.456H158.915C159.353 115.456 159.708 115.812 159.708 116.25V118.18C159.708 118.618 159.353 118.973 158.915 118.973Z" fill="#B3CAF8"/>
<path d="M114.789 81.7192H162.347" stroke="#242424" stroke-width="0.216592" stroke-miterlimit="10" stroke-linecap="round"/>
<path d="M183.321 60.354L185.28 61.103L187.239 61.852L185.611 63.174L183.983 64.4963L183.652 62.425L183.321 60.354Z" fill="#165ADF"/>
<path d="M141.015 50.758C141.015 49.304 139.836 48.1252 138.382 48.1252H129.878C128.424 48.1252 127.245 49.304 127.245 50.758V63.4705C127.245 64.9245 128.424 66.103 129.878 66.103H138.163H141.015H147.258C148.712 66.103 149.89 64.9245 149.89 63.4705V56.0232C149.89 54.5692 148.712 53.3907 147.258 53.3907H143.647C142.193 53.3907 141.015 52.212 141.015 50.758Z" fill="#8FE4FF"/>
<path d="M141.015 93.82C141.015 92.366 139.836 91.1875 138.382 91.1875H129.878C128.424 91.1875 127.245 92.366 127.245 93.82V106.533C127.245 107.987 128.424 109.165 129.878 109.165H138.163H141.015H147.258C148.712 109.165 149.89 107.987 149.89 106.533V99.0853C149.89 97.6313 148.712 96.4528 147.258 96.4528H143.647C142.193 96.4528 141.015 95.274 141.015 93.82Z" fill="#8FE4FF"/>
<path d="M155.604 74.0057C147.768 88.6292 135.346 96.6342 125.631 94.2457C118.546 92.5035 114.58 85.6847 111.308 80.0612C103.616 66.841 102.077 49.1392 106.645 46.9695C107.642 46.4957 109.047 46.7075 109.594 47.4617C111.91 50.6545 100.621 66.295 94.204 64.5495C88.2525 62.9307 91.3493 48.6197 83.4368 43.4802C75.6895 38.448 62.2793 43.888 49.4853 51.661" stroke="#005B9D" stroke-width="0.25" stroke-miterlimit="10" stroke-dasharray="1.08 1.08"/>
<path d="M164.429 28.4005H168.518C170.305 28.4005 171.754 29.8493 171.754 31.6365V36.3108" stroke="#242424" stroke-width="0.25" stroke-miterlimit="10"/>
<path d="M172.175 125.555V129.644C172.175 131.431 170.727 132.88 168.939 132.88H164.265" stroke="#242424" stroke-width="0.25" stroke-miterlimit="10"/>
<path d="M171.754 37.8098V43.8443V46.1668" stroke="#242424" stroke-width="0.25" stroke-miterlimit="10"/>
<path d="M171.754 48.4895V62.425" stroke="#242424" stroke-width="0.25" stroke-miterlimit="10"/>
<path opacity="0.3" d="M105.878 103.785H104.877V117.982H105.878V103.785Z" fill="#242424"/>
<path d="M109.932 132.88H149.46" stroke="#242424" stroke-width="0.25" stroke-miterlimit="10"/>
<path d="M37.3178 40.1483C37.5088 40.1483 37.6635 39.9935 37.6635 39.8028C37.6635 39.6118 37.5088 39.457 37.3178 39.457C37.127 39.457 36.9723 39.6118 36.9723 39.8028C36.9723 39.9935 37.127 40.1483 37.3178 40.1483Z" fill="#242424"/>
<path d="M21.6215 24.7381C21.8124 24.7381 21.9671 24.5834 21.9671 24.3925C21.9671 24.2016 21.8124 24.0469 21.6215 24.0469C21.4306 24.0469 21.2759 24.2016 21.2759 24.3925C21.2759 24.5834 21.4306 24.7381 21.6215 24.7381Z" fill="#242424"/>
<path d="M48.6045 28.0482C48.7955 28.0482 48.9503 27.8935 48.9503 27.7025C48.9503 27.5117 48.7955 27.357 48.6045 27.357C48.4138 27.357 48.259 27.5117 48.259 27.7025C48.259 27.8935 48.4138 28.0482 48.6045 28.0482Z" fill="#242424"/>
<path d="M19.0299 44.811C19.2208 44.811 19.3755 44.6562 19.3755 44.4652C19.3755 44.2742 19.2208 44.1198 19.0299 44.1198C18.839 44.1198 18.6843 44.2742 18.6843 44.4652C18.6843 44.6562 18.839 44.811 19.0299 44.811Z" fill="#242424"/>
<path d="M25.892 64.842C26.0828 64.842 26.2375 64.6873 26.2375 64.4963C26.2375 64.3055 26.0828 64.1508 25.892 64.1508C25.701 64.1508 25.5463 64.3055 25.5463 64.4963C25.5463 64.6873 25.701 64.842 25.892 64.842Z" fill="#242424"/>
<path d="M41.005 15.3374C41.1957 15.3374 41.3505 15.1826 41.3505 14.9917C41.3505 14.8008 41.1957 14.6461 41.005 14.6461C40.814 14.6461 40.6592 14.8008 40.6592 14.9917C40.6592 15.1826 40.814 15.3374 41.005 15.3374Z" fill="#242424"/>
<path d="M69.485 57.4703H78.1915" stroke="#005B9D" stroke-width="0.25" stroke-miterlimit="10"/>
<path d="M69.485 58.976H78.1915" stroke="#005B9D" stroke-width="0.25" stroke-miterlimit="10"/>
<path d="M69.485 60.4818H78.1915" stroke="#005B9D" stroke-width="0.25" stroke-miterlimit="10"/>
<path fill-rule="evenodd" clip-rule="evenodd" d="M48.6952 105.078L50.4995 106.882L52.2957 105.086L54.017 106.807L55.676 105.148L57.5567 107.029C57.599 107.071 57.599 107.14 57.5567 107.182C57.5145 107.224 57.446 107.224 57.4037 107.182L55.676 105.454L54.017 107.114L52.2957 105.392L50.4995 107.189L48.6952 105.384L46.865 107.215L45.0607 105.411L43.3232 107.148C43.281 107.19 43.2122 107.19 43.17 107.148C43.1277 107.106 43.1277 107.038 43.17 106.995L45.0607 105.104L46.865 106.909L48.6952 105.078Z" fill="#B3CAF8"/>
<path fill-rule="evenodd" clip-rule="evenodd" d="M52.4462 107.225L54.2505 109.029L56.047 107.233L57.7682 108.954L59.4272 107.295L61.308 109.176C61.3502 109.218 61.3502 109.287 61.308 109.329C61.2657 109.371 61.197 109.371 61.1547 109.329L59.4272 107.601L57.7682 109.26L56.047 107.539L54.2505 109.336L52.4462 107.531L50.616 109.362L48.812 107.557L47.0742 109.295C47.032 109.337 46.9635 109.337 46.921 109.295C46.8788 109.253 46.8788 109.184 46.921 109.142L48.812 107.251L50.616 109.055L52.4462 107.225Z" fill="#B3CAF8"/>
<path d="M143.357 127.416H133.314C132.491 127.416 131.825 126.749 131.825 125.927C131.825 125.104 132.491 124.438 133.314 124.438H143.357C144.179 124.438 144.846 125.104 144.846 125.927C144.846 126.749 144.179 127.416 143.357 127.416Z" fill="#165ADF"/>
<path d="M22.8472 121.102C19.9581 118.665 16.457 112.911 16.7658 109.09C17.0668 105.364 20.3093 104.372 21.4957 100.08C22.8219 95.283 19.7781 92.8782 18.3424 86.5662C16.2454 77.3457 20.8568 74.196 20.3696 65.1687C20.1208 60.56 18.5068 53.7455 11.5854 45.5732" stroke="#005B9D" stroke-width="0.25" stroke-miterlimit="10"/>
<path d="M185.994 95.1417L183.973 90.585L179.348 80.1567C178.673 78.6365 176.894 77.951 175.374 78.6252C174.443 79.0382 173.827 79.867 173.643 80.796C172.831 80.3085 171.803 80.2092 170.872 80.6225C169.94 81.0357 169.324 81.8642 169.14 82.7932C168.328 82.306 167.3 82.2065 166.369 82.6197C164.849 83.2937 164.163 85.0725 164.837 86.5925L159.337 74.193C158.663 72.673 156.885 71.9875 155.365 72.6617C153.844 73.336 153.159 75.1147 153.833 76.6347L162.469 96.1052C162.609 96.4197 162.467 96.7877 162.152 96.9272C161.924 97.0285 161.657 96.9835 161.475 96.813L156.534 92.196C155.422 90.9592 153.518 90.858 152.282 91.9697C151.045 93.0812 150.944 94.985 152.055 96.2217L162.469 105.952C163.867 107.258 165.907 107.607 167.66 106.84L184.29 99.5622C185.982 98.812 186.745 96.833 185.994 95.1417Z" fill="#8FE4FF"/>
<path d="M190.366 104.999L189.414 102.849C188.906 101.709 187.574 101.194 186.434 101.699L169.786 109.214C168.646 109.719 168.131 111.054 168.636 112.194L169.591 114.344C170.096 115.484 171.431 115.999 172.571 115.494L189.219 107.979C190.359 107.472 190.871 106.139 190.366 104.999ZM187.018 106.549C186.393 106.827 185.664 106.544 185.386 105.922C185.109 105.297 185.391 104.567 186.016 104.289C186.641 104.011 187.371 104.294 187.649 104.917C187.926 105.542 187.643 106.274 187.018 106.549Z" fill="#8FE4FF"/>
</svg>
