<svg width="200" height="150" viewBox="0 0 200 150" fill="none" xmlns="http://www.w3.org/2000/svg">
<path d="M113.612 127.957H95.8827C94.4247 127.957 93.2427 126.775 93.2427 125.317V124.748C93.2427 123.29 94.4247 122.108 95.8827 122.108H113.612C115.07 122.108 116.252 123.29 116.252 124.748V125.317C116.252 126.775 115.07 127.957 113.612 127.957Z" fill="#2249B3"/>
<path d="M135.508 117.728H120.123C119.52 117.728 119.032 117.24 119.032 116.638C119.032 116.036 119.52 115.547 120.123 115.547H135.508C136.11 115.547 136.598 116.036 136.598 116.638C136.598 117.24 136.11 117.728 135.508 117.728Z" fill="#2249B3"/>
<path d="M62.9845 16.844V16.6158C62.9845 15.6049 63.804 14.7855 64.8147 14.7855H85.743C86.754 14.7855 87.5732 15.6049 87.5732 16.6158V16.844H62.9845Z" fill="#2249B3"/>
<path d="M158.404 134.118C169.062 134.118 177.701 133.634 177.701 133.036C177.701 132.438 169.062 131.953 158.404 131.953C147.747 131.953 139.107 132.438 139.107 133.036C139.107 133.634 147.747 134.118 158.404 134.118Z" fill="#D3D4D4"/>
<path d="M68.004 94.8125H12.0687C10.6501 94.8125 9.5 93.6625 9.5 92.2438V40.6568C9.5 39.238 10.6501 38.088 12.0687 38.088H68.004C69.4227 38.088 70.5727 39.238 70.5727 40.6568V92.2438C70.5727 93.6625 69.4227 94.8125 68.004 94.8125Z" fill="#75E0E6"/>
<path d="M34.5708 82.9893H25.947C24.8366 82.9893 23.9364 82.089 23.9364 80.9785C23.9364 79.8683 24.8366 78.968 25.947 78.968H34.5708C35.6813 78.968 36.5815 79.8683 36.5815 80.9785C36.5815 82.089 35.6813 82.9893 34.5708 82.9893Z" fill="#2249B3"/>
<path d="M51.1712 82.9893H42.5475C41.437 82.9893 40.5367 82.089 40.5367 80.9785C40.5367 79.8683 41.437 78.968 42.5475 78.968H51.1712C52.2817 78.968 53.182 79.8683 53.182 80.9785C53.182 82.089 52.2817 82.9893 51.1712 82.9893Z" fill="#2249B3"/>
<path d="M102.791 23.4831H78.9347C76.9157 23.4831 75.279 21.8464 75.279 19.8274V16.0302H106.447V19.8274C106.447 21.8464 104.81 23.4831 102.791 23.4831Z" fill="#2249B3"/>
<path d="M58.968 76.912H56.8823C55.3205 76.912 54.0547 75.646 54.0547 74.0842V55.151C54.0547 53.5892 55.3205 52.3232 56.8823 52.3232H58.968V76.912Z" fill="#2249B3"/>
<path d="M187.401 36.4905C188.319 36.4905 189.062 35.7467 189.062 34.829C189.062 33.9115 188.319 33.1675 187.401 33.1675C186.484 33.1675 185.74 33.9115 185.74 34.829C185.74 35.7467 186.484 36.4905 187.401 36.4905Z" fill="#B5CDFB"/>
<path d="M19.9556 114.4C21.7907 114.4 23.2784 112.912 23.2784 111.077C23.2784 109.242 21.7907 107.754 19.9556 107.754C18.1204 107.754 16.6327 109.242 16.6327 111.077C16.6327 112.912 18.1204 114.4 19.9556 114.4Z" stroke="#005B9D" stroke-width="0.5" stroke-miterlimit="10" stroke-linecap="round"/>
<path d="M128.357 24.915C131.124 24.9463 133.492 36.0813 133.217 45.2138C133.131 48.065 132.799 59.1093 128.214 60.3663C125.973 60.9805 123.709 58.986 123.497 58.7938C119.647 55.3118 121.089 48.0618 122.782 40.0675C124.288 32.9545 125.996 24.8883 128.357 24.915Z" fill="#B5CDFB"/>
<path d="M143.446 24.915C146.213 24.9463 148.581 36.0813 148.306 45.2138C148.22 48.065 147.888 59.1093 143.303 60.3663C141.062 60.9805 138.798 58.986 138.586 58.7938C134.736 55.3118 136.178 48.0618 137.871 40.0675C139.377 32.9545 141.085 24.8883 143.446 24.915Z" fill="#B5CDFB"/>
<path d="M158.534 24.915C161.301 24.9463 163.67 36.0813 163.395 45.2138C163.309 48.065 162.977 59.1093 158.392 60.3663C156.151 60.9805 153.887 58.986 153.674 58.7938C149.825 55.3118 151.267 48.0618 152.96 40.0675C154.466 32.9545 156.174 24.8883 158.534 24.915Z" fill="#B5CDFB"/>
<path d="M173.624 24.915C176.39 24.9463 178.759 36.0813 178.484 45.2138C178.398 48.065 178.065 59.1093 173.481 60.3663C171.24 60.9805 168.976 58.986 168.763 58.7938C164.914 55.3118 166.356 48.0618 168.049 40.0675C169.555 32.9545 171.263 24.8883 173.624 24.915Z" fill="#B5CDFB"/>
<path d="M127.145 68.218C126.802 68.218 126.523 67.9395 126.523 67.596V58.8155C126.523 58.472 126.802 58.1932 127.145 58.1932C127.489 58.1932 127.768 58.472 127.768 58.8155V67.596C127.768 67.9395 127.489 68.218 127.145 68.218Z" fill="#B5CDFB"/>
<path d="M142.234 68.218C141.891 68.218 141.612 67.9395 141.612 67.596V58.8155C141.612 58.472 141.891 58.1932 142.234 58.1932C142.578 58.1932 142.857 58.472 142.857 58.8155V67.596C142.857 67.9395 142.578 68.218 142.234 68.218Z" fill="#B5CDFB"/>
<path d="M157.045 68.218C156.702 68.218 156.423 67.9395 156.423 67.596V58.8155C156.423 58.472 156.702 58.1932 157.045 58.1932C157.389 58.1932 157.667 58.472 157.667 58.8155V67.596C157.667 67.9395 157.389 68.218 157.045 68.218Z" fill="#B5CDFB"/>
<path d="M172.413 68.218C172.069 68.218 171.79 67.9395 171.79 67.596V58.8155C171.79 58.472 172.069 58.1932 172.413 58.1932C172.756 58.1932 173.035 58.472 173.035 58.8155V67.596C173.035 67.9395 172.756 68.218 172.413 68.218Z" fill="#B5CDFB"/>
<path d="M170.481 60.0937C170.481 60.0937 172.502 60.397 174.294 59.9925C176.864 59.4122 178.332 53.2812 177.439 46.269" fill="#B5CDFB"/>
<path d="M170.481 60.0937C170.481 60.0937 172.502 60.397 174.294 59.9925C176.864 59.4122 178.332 53.2812 177.439 46.269" stroke="#005B9D" stroke-width="0.5" stroke-miterlimit="10" stroke-linecap="round"/>
<path d="M140.183 60.0937C140.183 60.0937 142.204 60.397 143.996 59.9925C146.566 59.4122 148.034 53.2812 147.14 46.269" fill="#B5CDFB"/>
<path d="M140.183 60.0937C140.183 60.0937 142.204 60.397 143.996 59.9925C146.566 59.4122 148.034 53.2812 147.14 46.269" stroke="#005B9D" stroke-width="0.5" stroke-miterlimit="10" stroke-linecap="round"/>
<path d="M118.033 67.3353C124.624 66.2945 127.92 65.7743 132.622 65.7995C141.968 65.8498 141.677 67.6868 149.258 67.5913C156.874 67.495 157.489 65.6368 165.894 65.2878C171.868 65.0395 188.239 66.3358 188.693 68.887C189.037 70.8195 177.467 72.8765 173.061 74.2458C163.765 77.1338 160.398 72.6608 148.746 72.454C135.104 72.2123 131.325 78.1955 119.824 75.0135C115.423 73.7958 110.097 71.2925 110.354 69.6388C110.452 69.0118 111.371 68.387 118.033 67.3353Z" fill="#B5CDFB"/>
<path d="M117.829 134.118H63.8968C59.9693 134.118 56.7855 130.934 56.7855 127.007V23.1415C56.7855 19.214 59.9693 16.0302 63.8968 16.0302H117.829C121.757 16.0302 124.941 19.214 124.941 23.1415V127.007C124.941 130.934 121.757 134.118 117.829 134.118Z" stroke="#005B9D" stroke-width="0.75" stroke-miterlimit="10"/>
<path d="M118.575 31.2377H63.1508V111.077H118.575V31.2377Z" fill="#2249B3" stroke="#78D2EE" stroke-width="0.25" stroke-miterlimit="10"/>
<path d="M85.8432 127.957H68.1137C66.6557 127.957 65.474 126.775 65.474 125.317V124.748C65.474 123.29 66.6557 122.108 68.1137 122.108H85.8432C87.3012 122.108 88.483 123.29 88.483 124.748V125.317C88.483 126.775 87.3012 127.957 85.8432 127.957Z" stroke="#005B9D" stroke-width="0.5" stroke-miterlimit="10"/>
<path d="M68.587 73.5595L96.6122 106.636" stroke="#FFE458" stroke-width="2.5183" stroke-miterlimit="10" stroke-linecap="round"/>
<path d="M80.0127 48.9755H73.398C73.1205 48.9755 72.8958 48.7505 72.8958 48.4732C72.8958 48.1957 74.9773 47.5555 75.2548 47.5555H79.4935C79.771 47.5555 80.515 48.1957 80.515 48.4732C80.515 48.7505 80.29 48.9755 80.0127 48.9755Z" fill="#B5CDFB"/>
<path d="M79.59 47.9708H74.889V47.1658C74.889 46.017 75.8202 45.0858 76.969 45.0858H78.047C78.8992 45.0858 79.59 45.7765 79.59 46.6288V47.9708Z" fill="#B5CDFB"/>
<path d="M74.672 49.6805C75.0583 49.6805 75.3713 49.3675 75.3713 48.9812C75.3713 48.595 75.0583 48.282 74.672 48.282C74.286 48.282 73.9728 48.595 73.9728 48.9812C73.9728 49.3675 74.286 49.6805 74.672 49.6805Z" fill="#B5CDFB"/>
<path d="M78.7945 49.6805C79.1805 49.6805 79.4935 49.3675 79.4935 48.9812C79.4935 48.595 79.1805 48.282 78.7945 48.282C78.4083 48.282 78.0953 48.595 78.0953 48.9812C78.0953 49.3675 78.4083 49.6805 78.7945 49.6805Z" fill="#B5CDFB"/>
<path d="M111.627 102.633H105.012C104.734 102.633 104.51 102.408 104.51 102.13C104.51 101.853 106.591 101.213 106.869 101.213H111.108C111.385 101.213 112.129 101.853 112.129 102.13C112.129 102.408 111.904 102.633 111.627 102.633Z" fill="#B5CDFB"/>
<path d="M111.204 101.628H106.503V100.823C106.503 99.674 107.434 98.7427 108.583 98.7427H109.661C110.513 98.7427 111.204 99.4337 111.204 100.286V101.628Z" fill="#B5CDFB"/>
<path d="M106.286 103.338C106.672 103.338 106.985 103.025 106.985 102.639C106.985 102.252 106.672 101.939 106.286 101.939C105.9 101.939 105.586 102.252 105.586 102.639C105.586 103.025 105.9 103.338 106.286 103.338Z" fill="#B5CDFB"/>
<path d="M110.408 103.338C110.794 103.338 111.107 103.025 111.107 102.639C111.107 102.252 110.794 101.939 110.408 101.939C110.022 101.939 109.709 102.252 109.709 102.639C109.709 103.025 110.022 103.338 110.408 103.338Z" fill="#B5CDFB"/>
<path d="M159.661 120.225C167.914 120.225 174.604 113.535 174.604 105.282C174.604 97.0297 167.914 90.3395 159.661 90.3395C151.408 90.3395 144.718 97.0297 144.718 105.282C144.718 113.535 151.408 120.225 159.661 120.225Z" fill="#2249B3"/>
<path fill-rule="evenodd" clip-rule="evenodd" d="M156.83 95.539H157.58V106.26H163.823V107.01H156.83V95.539Z" fill="#75E0E6"/>
<path d="M158.558 88.7225H155.852V91.4288H158.558V88.7225Z" fill="#75E0E6"/>
<path d="M158.558 121.843H155.852V124.549H158.558V121.843Z" fill="#75E0E6"/>
<path d="M175.118 107.989V105.282H172.412V107.989H175.118Z" fill="#75E0E6"/>
<path d="M141.998 107.989V105.282H139.292V107.989H141.998Z" fill="#75E0E6"/>
<path d="M157.205 124.549C167.098 124.549 175.118 116.529 175.118 106.636C175.118 96.7425 167.098 88.7225 157.205 88.7225C147.312 88.7225 139.292 96.7425 139.292 106.636C139.292 116.529 147.312 124.549 157.205 124.549Z" stroke="#005B9D" stroke-width="0.75" stroke-miterlimit="10"/>
<path d="M17.3583 117.583H32.228" stroke="#005B9D" stroke-width="0.5" stroke-miterlimit="10" stroke-linecap="round"/>
<path d="M17.3583 119.562H32.228" stroke="#005B9D" stroke-width="0.5" stroke-miterlimit="10" stroke-linecap="round"/>
<path d="M17.3583 124.349H32.228" stroke="#005B9D" stroke-width="0.5" stroke-miterlimit="10" stroke-linecap="round"/>
<path d="M17.3583 126.328H32.228" stroke="#005B9D" stroke-width="0.5" stroke-miterlimit="10" stroke-linecap="round"/>
<path d="M25.324 59.479H20.5204C20.2085 59.479 19.9556 59.226 19.9556 58.9143C19.9556 57.408 21.1766 56.187 22.6828 56.187H23.1618C24.6679 56.187 25.889 57.408 25.889 58.9143C25.889 59.226 25.636 59.479 25.324 59.479Z" fill="#2249B3"/>
<path d="M22.9223 55.7055C24.0015 55.7055 24.8764 54.8305 24.8764 53.7512C24.8764 52.672 24.0015 51.797 22.9223 51.797C21.843 51.797 20.9681 52.672 20.9681 53.7512C20.9681 54.8305 21.843 55.7055 22.9223 55.7055Z" fill="#2249B3"/>
<path d="M111.522 100.205C112.429 100.205 113.164 99.4703 113.164 98.5638C113.164 97.657 112.429 96.922 111.522 96.922C110.615 96.922 109.88 97.657 109.88 98.5638C109.88 99.4703 110.615 100.205 111.522 100.205Z" fill="#75E0E6"/>
<path d="M112.234 99.703H110.81C110.717 99.703 110.642 99.628 110.642 99.5355C110.642 99.0887 111.004 98.7265 111.451 98.7265H111.593C112.04 98.7265 112.402 99.0887 112.402 99.5355C112.402 99.628 112.327 99.703 112.234 99.703Z" fill="#2249B3"/>
<path d="M111.522 98.5838C111.842 98.5838 112.102 98.3243 112.102 98.004C112.102 97.6838 111.842 97.4243 111.522 97.4243C111.202 97.4243 110.943 97.6838 110.943 98.004C110.943 98.3243 111.202 98.5838 111.522 98.5838Z" fill="#2249B3"/>
<path d="M27.7048 69.282H18.4667C18.0792 69.282 17.7651 69.1747 17.7651 68.7872V68.0337C17.7651 67.6462 20.7285 66.8107 21.1159 66.8107L26.9798 67.299C27.3673 67.299 28.0793 67.3475 28.0793 67.735C28.0793 67.735 28.0923 69.282 27.7048 69.282Z" fill="#2249B3"/>
<path d="M26.5917 67.7628H21.5317C21.2429 67.7628 20.4388 67.5005 20.4388 67.2118L20.6222 66.9693C22.3235 65.307 22.2908 65.0348 23.2158 64.8078C23.3541 64.7738 24.3003 64.674 24.4427 64.674H24.594C25.986 64.674 27.1145 65.8025 27.1145 67.1945V67.2398C27.1145 67.5288 26.8805 67.7628 26.5917 67.7628Z" fill="#2249B3"/>
<path d="M20.2461 70.2667C20.7854 70.2667 21.2226 69.8295 21.2226 69.2902C21.2226 68.7507 20.7854 68.3135 20.2461 68.3135C19.7067 68.3135 19.2695 68.7507 19.2695 69.2902C19.2695 69.8295 19.7067 70.2667 20.2461 70.2667Z" fill="#2249B3"/>
<path d="M26.2165 70.2667C26.756 70.2667 27.193 69.8295 27.193 69.2902C27.193 68.7507 26.756 68.3135 26.2165 68.3135C25.6772 68.3135 25.24 68.7507 25.24 69.2902C25.24 69.8295 25.6772 70.2667 26.2165 70.2667Z" fill="#2249B3"/>
<path d="M30.3237 54.1483H45.1935" stroke="#005B9D" stroke-width="0.5" stroke-miterlimit="10"/>
<path d="M30.3237 55.4808H40.6792" stroke="#005B9D" stroke-width="0.5" stroke-miterlimit="10"/>
<path d="M30.3237 58.1462H45.1935" stroke="#005B9D" stroke-width="0.5" stroke-miterlimit="10"/>
<path d="M30.3237 59.479H41.0205" stroke="#005B9D" stroke-width="0.5" stroke-miterlimit="10"/>
<path d="M15.0493 42.327C15.4995 42.327 15.8644 41.962 15.8644 41.512C15.8644 41.0618 15.4995 40.697 15.0493 40.697C14.5992 40.697 14.2343 41.0618 14.2343 41.512C14.2343 41.962 14.5992 42.327 15.0493 42.327Z" stroke="#005B9D" stroke-width="0.25" stroke-miterlimit="10"/>
<path d="M18.2276 42.327C18.6778 42.327 19.0427 41.962 19.0427 41.512C19.0427 41.0618 18.6778 40.697 18.2276 40.697C17.7775 40.697 17.4125 41.0618 17.4125 41.512C17.4125 41.962 17.7775 42.327 18.2276 42.327Z" fill="#2249B3"/>
<path d="M21.4059 42.327C21.856 42.327 22.2209 41.962 22.2209 41.512C22.2209 41.0618 21.856 40.697 21.4059 40.697C20.9557 40.697 20.5908 41.0618 20.5908 41.512C20.5908 41.962 20.9557 42.327 21.4059 42.327Z" fill="#2249B3"/>
<path d="M17.8017 45.0858H61.2553" stroke="#005B9D" stroke-width="0.5" stroke-miterlimit="10" stroke-linecap="round"/>
<path d="M64.0647 115.69C64.601 115.69 65.0355 115.256 65.0355 114.72C65.0355 114.184 64.601 113.749 64.0647 113.749C63.5287 113.749 63.094 114.184 63.094 114.72C63.094 115.256 63.5287 115.69 64.0647 115.69Z" fill="#2249B3"/>
<path d="M67.04 115.69C67.576 115.69 68.0105 115.256 68.0105 114.72C68.0105 114.184 67.576 113.749 67.04 113.749C66.5038 113.749 66.0693 114.184 66.0693 114.72C66.0693 115.256 66.5038 115.69 67.04 115.69Z" fill="#09213E"/>
<path d="M70.015 115.69C70.5512 115.69 70.9857 115.256 70.9857 114.72C70.9857 114.184 70.5512 113.749 70.015 113.749C69.479 113.749 69.0443 114.184 69.0443 114.72C69.0443 115.256 69.479 115.69 70.015 115.69Z" fill="#2249B3"/>
<path d="M26.4415 25.1465H40.278C40.278 25.1465 40.9293 20.6929 37.9885 20.6945C35.0478 20.696 34.0265 22.9205 34.0265 22.9205C34.0265 22.9205 33.6653 17.1017 27.3313 18.5312C20.9972 19.9608 15.8194 25.1465 15.8194 25.1465H26.4415Z" fill="#2249B3"/>
<path d="M30.3237 68.934H42.94" stroke="#005B9D" stroke-width="0.5" stroke-miterlimit="10"/>
<path d="M30.3237 70.2665H42.94" stroke="#005B9D" stroke-width="0.5" stroke-miterlimit="10"/>
<path d="M32.1002 65.8117C32.1002 66.1645 31.8145 66.4505 31.4617 66.4505C31.109 66.4505 30.823 66.1645 30.823 65.8117C30.823 65.459 31.109 65.173 31.4617 65.173C31.8145 65.173 32.1002 65.459 32.1002 65.8117Z" fill="#2249B3" stroke="#005B9D" stroke-width="0.5"/>
<path d="M34.6855 65.8117C34.6855 66.1645 34.3995 66.4505 34.0468 66.4505C33.694 66.4505 33.408 66.1645 33.408 65.8117C33.408 65.459 33.694 65.173 34.0468 65.173C34.3995 65.173 34.6855 65.459 34.6855 65.8117Z" fill="#2249B3" stroke="#005B9D" stroke-width="0.5"/>
<path d="M37.2705 65.8117C37.2705 66.1645 36.9847 66.4505 36.632 66.4505C36.2792 66.4505 35.9932 66.1645 35.9932 65.8117C35.9932 65.459 36.2792 65.173 36.632 65.173C36.9847 65.173 37.2705 65.459 37.2705 65.8117Z" fill="#2249B3" stroke="#005B9D" stroke-width="0.5"/>
<path d="M39.8557 65.8117C39.8557 66.1645 39.5697 66.4505 39.217 66.4505C38.8642 66.4505 38.5782 66.1645 38.5782 65.8117C38.5782 65.459 38.8642 65.173 39.217 65.173C39.5697 65.173 39.8557 65.459 39.8557 65.8117Z" fill="#2249B3" stroke="#005B9D" stroke-width="0.5"/>
<path d="M42.4408 65.8117C42.4408 66.1645 42.1548 66.4505 41.802 66.4505C41.4493 66.4505 41.1635 66.1645 41.1635 65.8117C41.1635 65.459 41.4493 65.173 41.802 65.173C42.1548 65.173 42.4408 65.459 42.4408 65.8117Z" fill="#2249B3" stroke="#005B9D" stroke-width="0.5"/>
<path d="M46.8595 80.9785V82.2285" stroke="#005B9D" stroke-width="0.5" stroke-miterlimit="10"/>
<path d="M46.8595 84.721V136.247C46.8595 138.595 48.7627 140.498 51.1107 140.498H100.496C102.844 140.498 104.747 138.595 104.747 136.247V127.131" stroke="#005B9D" stroke-width="0.5" stroke-miterlimit="10" stroke-dasharray="2.49 2.49"/>
<path d="M104.747 125.884V124.634" stroke="#005B9D" stroke-width="0.5" stroke-miterlimit="10"/>
<path d="M46.8595 81.762C47.4255 81.762 47.8842 81.3033 47.8842 80.7373C47.8842 80.1713 47.4255 79.7125 46.8595 79.7125C46.2935 79.7125 45.8345 80.1713 45.8345 80.7373C45.8345 81.3033 46.2935 81.762 46.8595 81.762Z" fill="#75E0E6"/>
<path d="M104.747 126.058C105.313 126.058 105.772 125.599 105.772 125.033C105.772 124.467 105.313 124.008 104.747 124.008C104.181 124.008 103.723 124.467 103.723 125.033C103.723 125.599 104.181 126.058 104.747 126.058Z" fill="#75E0E6"/>
<path d="M134.402 81.92C134.402 83.1097 132.402 83.1097 132.402 84.2995C132.402 85.4895 134.402 85.4895 134.402 86.6795C134.402 87.8695 132.402 87.8695 132.402 89.0597C132.402 90.2497 134.402 90.2497 134.402 91.4397C134.402 92.6297 132.402 92.6297 132.402 93.8197C132.402 95.01 134.402 95.01 134.402 96.2002C134.402 97.3905 132.402 97.3905 132.402 98.581C132.402 99.771 134.402 99.771 134.402 100.961C134.402 102.151 132.402 102.151 132.402 103.342C132.402 104.532 134.402 104.532 134.402 105.722C134.402 106.912 132.402 106.912 132.402 108.102C132.402 109.292 134.402 109.292 134.402 110.482C134.402 111.673 132.402 111.673 132.402 112.864C132.402 114.054 134.402 114.054 134.402 115.244C134.402 116.435 132.402 116.435 132.402 117.626C132.402 118.818 134.402 118.818 134.402 120.009" stroke="#005B9D" stroke-width="0.5" stroke-miterlimit="10" stroke-linecap="round"/>
<path d="M52.7775 30.6262C52.7775 32.181 50.7775 32.181 50.7775 33.736C50.7775 35.2902 52.7775 35.2902 52.7775 36.8447C52.7775 38.3995 50.7775 38.3995 50.7775 39.9542C50.7775 41.5095 52.7775 41.5095 52.7775 43.0647C52.7775 44.6195 50.7775 44.6195 50.7775 46.1742C50.7775 47.7302 52.7775 47.7302 52.7775 49.286C52.7775 50.842 50.7775 50.842 50.7775 52.3977" stroke="#005B9D" stroke-width="0.5" stroke-miterlimit="10" stroke-linecap="round"/>
<path d="M133.115 15.0302C134.305 15.0302 134.305 17.0302 135.494 17.0302C136.684 17.0302 136.684 15.0302 137.874 15.0302C139.065 15.0302 139.065 17.0302 140.255 17.0302C141.445 17.0302 141.445 15.0302 142.635 15.0302C143.825 15.0302 143.825 17.0302 145.015 17.0302C146.205 17.0302 146.205 15.0302 147.395 15.0302C148.586 15.0302 148.586 17.0302 149.776 17.0302C150.966 17.0302 150.966 15.0302 152.156 15.0302C153.347 15.0302 153.347 17.0302 154.537 17.0302C155.727 17.0302 155.727 15.0302 156.917 15.0302C158.107 15.0302 158.107 17.0302 159.297 17.0302C160.487 17.0302 160.487 15.0302 161.677 15.0302C162.868 15.0302 162.868 17.0302 164.059 17.0302C165.249 17.0302 165.249 15.0302 166.439 15.0302C167.63 15.0302 167.63 17.0302 168.822 17.0302C170.013 17.0302 170.013 15.0302 171.204 15.0302" stroke="#005B9D" stroke-width="0.5" stroke-miterlimit="10" stroke-linecap="round"/>
<path d="M172.319 19.2255H188.349C188.349 19.2255 189.104 14.0659 185.697 14.0677C182.29 14.0694 181.107 16.6466 181.107 16.6466C181.107 16.6466 180.688 9.9054 173.35 11.5615C166.012 13.2177 160.107 19.2255 160.107 19.2255H172.319Z" fill="#2249B3"/>
<path d="M149.227 35.976L150.076 34.951C150.387 34.576 150.953 34.5495 151.298 34.894L152.06 35.656L153.338 34.749C153.72 34.4775 154.252 34.5782 154.509 34.971L155.092 35.8635" stroke="#005B9D" stroke-width="0.5" stroke-miterlimit="10" stroke-linecap="round"/>
<path d="M43.927 13.9027L44.7763 12.8779C45.087 12.5027 45.6533 12.4762 45.9978 12.8207L46.7598 13.5828L48.0378 12.6759C48.4205 12.4043 48.952 12.5051 49.2088 12.8978L49.792 13.7902" stroke="#005B9D" stroke-width="0.5" stroke-miterlimit="10" stroke-linecap="round"/>
<path d="M190.427 79.1622H173.034V80.91H190.427V79.1622Z" fill="#2249B3"/>
<path d="M190.427 82.8805H173.034V84.6282H190.427V82.8805Z" fill="#2249B3"/>
<path d="M190.427 86.599H173.034V88.3467H190.427V86.599Z" fill="#2249B3"/>
<path d="M190.427 127.377H173.034V129.125H190.427V127.377Z" fill="#2249B3"/>
<path d="M189.15 53.236V119.371" stroke="#005B9D" stroke-width="0.5" stroke-miterlimit="10" stroke-linecap="round"/>
<path d="M186.87 70.2665V131.28" stroke="#005B9D" stroke-width="0.5" stroke-miterlimit="10" stroke-dasharray="2.5 2.5"/>
<path d="M115.75 47.902H108.15C107.832 47.902 107.573 47.8135 107.573 47.495V46.875C107.573 46.5563 110.011 45.869 110.33 45.869L115.153 46.2708C115.472 46.2708 116.058 46.3105 116.058 46.6293C116.058 46.6293 116.069 47.902 115.75 47.902Z" fill="#B5CDFB"/>
<path d="M114.802 46.7477H110.326C110.071 46.7477 109.864 46.5407 109.864 46.2852C111.02 44.8282 112.616 44.3452 112.716 44.3445H113.029C114.264 44.3445 115.264 44.4337 115.264 45.6685V46.2852C115.264 46.5407 115.057 46.7477 114.802 46.7477Z" fill="#B5CDFB"/>
<path d="M109.614 48.7117C110.058 48.7117 110.417 48.3522 110.417 47.9085C110.417 47.465 110.058 47.1052 109.614 47.1052C109.17 47.1052 108.811 47.465 108.811 47.9085C108.811 48.3522 109.17 48.7117 109.614 48.7117Z" fill="#B5CDFB"/>
<path d="M114.526 48.7117C114.97 48.7117 115.329 48.3522 115.329 47.9085C115.329 47.465 114.97 47.1052 114.526 47.1052C114.082 47.1052 113.723 47.465 113.723 47.9085C113.723 48.3522 114.082 48.7117 114.526 48.7117Z" fill="#B5CDFB"/>
<path d="M63.1508 79.8755L90.3165 111.077" stroke="#78D2EE" stroke-width="0.25" stroke-miterlimit="10"/>
<path d="M63.1328 59.7612L107.811 111.077" stroke="#78D2EE" stroke-width="0.25" stroke-miterlimit="10"/>
<path d="M83.6298 63.015L118.575 103.535" stroke="#78D2EE" stroke-width="0.25" stroke-miterlimit="10"/>
<path d="M95.3317 56.557L118.575 83.253" stroke="#78D2EE" stroke-width="0.25" stroke-miterlimit="10"/>
<path d="M71.9277 31.2377V69.8745" stroke="#78D2EE" stroke-width="0.25" stroke-miterlimit="10"/>
<path d="M83.6298 31.2377V83.3032" stroke="#78D2EE" stroke-width="0.25" stroke-miterlimit="10"/>
<path d="M95.3317 31.2377V76.5837" stroke="#78D2EE" stroke-width="0.25" stroke-miterlimit="10"/>
<path d="M107.034 31.2377V70.028" stroke="#78D2EE" stroke-width="0.25" stroke-miterlimit="10"/>
<path d="M63.1508 37.5855H83.6298" stroke="#78D2EE" stroke-width="0.25" stroke-miterlimit="10"/>
<path d="M63.1508 43.5875H83.6298" stroke="#78D2EE" stroke-width="0.25" stroke-miterlimit="10"/>
<path d="M63.1508 49.5895H83.6298" stroke="#78D2EE" stroke-width="0.25" stroke-miterlimit="10"/>
<path d="M83.8958 83.6088H118.575" stroke="#78D2EE" stroke-width="0.25" stroke-miterlimit="10"/>
<path d="M101.235 103.535H118.575" stroke="#78D2EE" stroke-width="0.25" stroke-miterlimit="10"/>
<path d="M83.6298 46.2217H95.3318" stroke="#78D2EE" stroke-width="0.25" stroke-miterlimit="10"/>
<path d="M118.575 49.0532H95.3317" stroke="#78D2EE" stroke-width="0.25" stroke-miterlimit="10"/>
<path d="M115.252 45.45C116.021 45.45 116.644 44.8268 116.644 44.0578C116.644 43.289 116.021 42.6658 115.252 42.6658C114.483 42.6658 113.86 43.289 113.86 44.0578C113.86 44.8268 114.483 45.45 115.252 45.45Z" fill="#75E0E6"/>
<path d="M115.856 45.0242H114.648C114.569 45.0242 114.506 44.9605 114.506 44.8822C114.506 44.5032 114.813 44.196 115.192 44.196H115.312C115.691 44.196 115.998 44.5032 115.998 44.8822C115.998 44.9605 115.935 45.0242 115.856 45.0242Z" fill="#2249B3"/>
<path d="M115.252 44.0747C115.524 44.0747 115.744 43.8547 115.744 43.5832C115.744 43.3117 115.524 43.0915 115.252 43.0915C114.981 43.0915 114.76 43.3117 114.76 43.5832C114.76 43.8547 114.981 44.0747 115.252 44.0747Z" fill="#2249B3"/>
<path d="M93.4605 33.4307H85.501V40.2967H93.4605V33.4307Z" fill="#75E0E6"/>
<path d="M105.082 33.4307H97.1227V40.2967H105.082V33.4307Z" fill="#75E0E6"/>
<path d="M96.3132 50.8552V54.8737H100.93V50.8552H96.3132Z" fill="#75E0E6"/>
<path d="M96.3132 43.5668V47.5853H100.93V43.5668H96.3132Z" fill="#75E0E6"/>
<path d="M81.6848 35.483H77.6663V43.2728H81.6848V35.483Z" fill="#75E0E6"/>
<path d="M105.868 59.6615H101.849V61.5373H105.868V59.6615Z" fill="#75E0E6"/>
<path d="M105.868 56.7175H101.849V58.593H105.868V56.7175Z" fill="#75E0E6"/>
<path d="M105.868 50.8552H101.849V52.731H105.868V50.8552Z" fill="#75E0E6"/>
<path d="M81.18 70.788V66.7695H73.3903V70.788H81.18Z" fill="#75E0E6"/>
<path d="M79.6755 68.7788V66.0048H74.895V68.7788H79.6755Z" fill="#75E0E6"/>
<path d="M76.4608 67.3917V64.6175H75.6665V67.3917H76.4608Z" fill="#75E0E6"/>
<path d="M85.9365 49.2393H84.972V50.7825H85.9365V49.2393Z" fill="#75E0E6"/>
<path d="M87.6885 49.2393H86.724V50.7825H87.6885V49.2393Z" fill="#75E0E6"/>
<path d="M85.9365 51.6927H84.972V53.236H85.9365V51.6927Z" fill="#75E0E6"/>
<path d="M87.6885 51.6927H86.724V53.236H87.6885V51.6927Z" fill="#75E0E6"/>
<path d="M85.9365 54.1465H84.972V55.6895H85.9365V54.1465Z" fill="#75E0E6"/>
<path d="M87.6885 54.1465H86.724V55.6895H87.6885V54.1465Z" fill="#75E0E6"/>
<path d="M66.0693 95.1747H64.528V97.6407H66.0693V95.1747Z" fill="#75E0E6"/>
<path d="M69.3578 95.1747H67.8165V97.6407H69.3578V95.1747Z" fill="#75E0E6"/>
<path d="M66.0693 99.0958H64.528V101.562H66.0693V99.0958Z" fill="#75E0E6"/>
<path d="M69.3578 99.0958H67.8165V101.562H69.3578V99.0958Z" fill="#75E0E6"/>
<path d="M66.0693 103.017H64.528V105.483H66.0693V103.017Z" fill="#75E0E6"/>
<path d="M69.3578 103.017H67.8165V105.483H69.3578V103.017Z" fill="#75E0E6"/>
<path d="M93.222 79.0853C93.222 80.3813 91.547 81.4318 89.4808 81.4318C87.4145 81.4318 85.7395 80.3813 85.7395 79.0853C85.7395 77.7893 85.14 75.117 87.2063 75.117C89.2725 75.117 93.222 77.7893 93.222 79.0853Z" fill="#75E0E6"/>
<path d="M108.62 88.1755C108.62 86.8795 110.295 85.8287 112.362 85.8287C114.428 85.8287 116.103 86.8795 116.103 88.1755C116.103 89.4715 116.702 92.1437 114.636 92.1437C112.57 92.1437 108.62 89.4715 108.62 88.1755Z" fill="#75E0E6"/>
<path d="M87.1823 42.8675C87.1823 42.2195 88.0197 41.694 89.0527 41.694C90.086 41.694 90.9235 42.2195 90.9235 42.8675C90.9235 43.5155 91.2233 44.8515 90.19 44.8515C89.157 44.8515 87.1823 43.5155 87.1823 42.8675Z" fill="#75E0E6"/>
<path d="M114.524 66.7695C115.82 66.7625 116.879 68.4317 116.89 70.498C116.902 72.5642 117.846 78.2672 116.55 78.2742C115.254 78.2812 109.228 71.382 109.217 69.3157C109.206 67.2495 113.228 66.7765 114.524 66.7695Z" fill="#75E0E6"/>
<path d="M66.538 35.2863C67.0685 35.2923 67.5227 37.427 67.47 39.178C67.4535 39.7248 67.3897 41.8423 66.5105 42.0833C66.081 42.201 65.6467 41.8188 65.6062 41.7818C64.8682 41.1143 65.1445 39.7243 65.469 38.1915C65.758 36.8275 66.0855 35.281 66.538 35.2863Z" fill="#75E0E6"/>
<path d="M69.5593 35.2863C70.0898 35.2923 70.544 37.427 70.4913 39.178C70.4748 39.7248 70.411 41.8423 69.532 42.0833C69.1025 42.201 68.6683 41.8188 68.6275 41.7818C67.8895 41.1143 68.1658 39.7243 68.4905 38.1915C68.7793 36.8275 69.1068 35.281 69.5593 35.2863Z" fill="#75E0E6"/>
<path d="M66.4307 41.7863H66.1807V43.4695H66.4307V41.7863Z" fill="#75E0E6"/>
<path d="M69.452 41.7863H69.202V43.4695H69.452V41.7863Z" fill="#75E0E6"/>
<path d="M86.009 59.1905C86.3672 59.1945 86.6737 60.6358 86.6382 61.8178C86.627 62.1868 86.584 63.6165 85.9905 63.779C85.7005 63.8585 85.4075 63.6005 85.38 63.5755C84.8817 63.1248 85.0682 62.1865 85.2875 61.1517C85.4825 60.231 85.7035 59.187 86.009 59.1905Z" fill="#75E0E6"/>
<path d="M88.0488 59.1905C88.4068 59.1945 88.7135 60.6358 88.6778 61.8178C88.6668 62.1868 88.6235 63.6165 88.0303 63.779C87.7403 63.8585 87.447 63.6005 87.4195 63.5755C86.9215 63.1248 87.108 62.1865 87.327 61.1517C87.522 60.231 87.7433 59.187 88.0488 59.1905Z" fill="#75E0E6"/>
<path d="M85.9772 63.5782H85.7272V64.7147H85.9772V63.5782Z" fill="#75E0E6"/>
<path d="M88.017 63.5782H87.767V64.7147H88.017V63.5782Z" fill="#75E0E6"/>
<path d="M90.231 61.3845C90.5892 61.3885 90.8957 62.8298 90.86 64.0118C90.849 64.3808 90.806 65.8103 90.2125 65.973C89.9225 66.0525 89.6295 65.7945 89.602 65.7695C89.1037 65.3188 89.2902 64.3805 89.5095 63.3458C89.7042 62.425 89.9255 61.381 90.231 61.3845Z" fill="#75E0E6"/>
<path d="M92.2707 61.3845C92.6287 61.3885 92.9352 62.8298 92.8997 64.0118C92.8885 64.3808 92.8455 65.8103 92.2522 65.973C91.9622 66.0525 91.669 65.7945 91.6415 65.7695C91.1432 65.3188 91.33 64.3805 91.549 63.3458C91.744 62.425 91.965 61.381 92.2707 61.3845Z" fill="#75E0E6"/>
<path d="M90.1992 65.7725H89.9492V66.909H90.1992V65.7725Z" fill="#75E0E6"/>
<path d="M92.239 65.7725H91.989V66.909H92.239V65.7725Z" fill="#75E0E6"/>
<path d="M104.996 72.9835C105.598 72.9902 106.113 75.4137 106.054 77.4012C106.035 78.0217 105.963 80.4252 104.965 80.699C104.477 80.8325 103.984 80.3985 103.938 80.3567C103.1 79.5987 103.414 78.021 103.783 76.2812C104.11 74.7332 104.482 72.9777 104.996 72.9835Z" fill="#75E0E6"/>
<path d="M108.425 72.9835C109.027 72.9902 109.543 75.4137 109.483 77.4012C109.464 78.0217 109.392 80.4252 108.394 80.699C107.907 80.8325 107.414 80.3985 107.368 80.3567C106.53 79.5987 106.844 78.021 107.212 76.2812C107.54 74.7332 107.912 72.9777 108.425 72.9835Z" fill="#75E0E6"/>
<path d="M104.857 80.3613H104.607V82.2723H104.857V80.3613Z" fill="#75E0E6"/>
<path d="M108.286 80.3613H108.036V82.2723H108.286V80.3613Z" fill="#75E0E6"/>
<path d="M101.795 91.7628C102.398 91.7698 102.913 94.193 102.853 96.1805C102.835 96.801 102.762 99.2045 101.764 99.4783C101.277 99.6118 100.784 99.1778 100.738 99.136C99.8998 98.3783 100.214 96.8003 100.582 95.0605C100.91 93.5125 101.282 91.757 101.795 91.7628Z" fill="#75E0E6"/>
<path d="M105.225 91.7628C105.827 91.7698 106.343 94.193 106.283 96.1805C106.264 96.801 106.192 99.2045 105.194 99.4783C104.706 99.6118 104.213 99.1778 104.167 99.136C103.329 98.3783 103.643 96.8003 104.012 95.0605C104.339 93.5125 104.711 91.757 105.225 91.7628Z" fill="#75E0E6"/>
<path d="M101.657 99.1405H101.407V101.051H101.657V99.1405Z" fill="#75E0E6"/>
<path d="M105.086 99.1405H104.836V101.051H105.086V99.1405Z" fill="#75E0E6"/>
<path d="M94.9535 86.5587C95.3313 86.563 95.6545 88.083 95.617 89.3295C95.6053 89.7187 95.56 91.226 94.934 91.3977C94.6283 91.4815 94.3193 91.2092 94.2903 91.183C93.7648 90.7077 93.9615 89.7182 94.1928 88.627C94.3983 87.6562 94.6315 86.5552 94.9535 86.5587Z" fill="#75E0E6"/>
<path d="M97.1045 86.5587C97.482 86.563 97.8055 88.083 97.7678 89.3295C97.7563 89.7187 97.7108 91.226 97.085 91.3977C96.7793 91.4815 96.47 91.2092 96.441 91.183C95.9158 90.7077 96.1125 89.7182 96.3435 88.627C96.549 87.6562 96.7823 86.5552 97.1045 86.5587Z" fill="#75E0E6"/>
<path d="M94.9133 91.186H94.6633V92.3845H94.9133V91.186Z" fill="#75E0E6"/>
<path d="M97.0643 91.186H96.8143V92.3845H97.0643V91.186Z" fill="#75E0E6"/>
<path d="M67.4475 80.3893C68.2088 80.3893 68.8258 79.772 68.8258 79.011C68.8258 78.2498 68.2088 77.6325 67.4475 77.6325C66.6863 77.6325 66.0693 78.2498 66.0693 79.011C66.0693 79.772 66.6863 80.3893 67.4475 80.3893Z" fill="#75E0E6"/>
<path d="M70.736 84.3355C71.4972 84.3355 72.1142 83.7185 72.1142 82.9572C72.1142 82.196 71.4972 81.579 70.736 81.579C69.9747 81.579 69.3577 82.196 69.3577 82.9572C69.3577 83.7185 69.9747 84.3355 70.736 84.3355Z" fill="#75E0E6"/>
<path d="M74.0245 88.282C74.7857 88.282 75.4027 87.665 75.4027 86.9038C75.4027 86.1425 74.7857 85.5255 74.0245 85.5255C73.2632 85.5255 72.6462 86.1425 72.6462 86.9038C72.6462 87.665 73.2632 88.282 74.0245 88.282Z" fill="#75E0E6"/>
<path d="M77.313 92.2282C78.0743 92.2282 78.6913 91.6112 78.6913 90.85C78.6913 90.0887 78.0743 89.4717 77.313 89.4717C76.5518 89.4717 75.9348 90.0887 75.9348 90.85C75.9348 91.6112 76.5518 92.2282 77.313 92.2282Z" fill="#75E0E6"/>
<path d="M80.6015 96.1747C81.3628 96.1747 81.9798 95.5575 81.9798 94.7965C81.9798 94.0352 81.3628 93.418 80.6015 93.418C79.8403 93.418 79.2233 94.0352 79.2233 94.7965C79.2233 95.5575 79.8403 96.1747 80.6015 96.1747Z" fill="#75E0E6"/>
<path d="M83.89 100.121C84.6512 100.121 85.2682 99.504 85.2682 98.7428C85.2682 97.9815 84.6512 97.3645 83.89 97.3645C83.1287 97.3645 82.5117 97.9815 82.5117 98.7428C82.5117 99.504 83.1287 100.121 83.89 100.121Z" fill="#75E0E6"/>
<path d="M87.1785 104.067C87.9397 104.067 88.5567 103.45 88.5567 102.689C88.5567 101.928 87.9397 101.311 87.1785 101.311C86.4172 101.311 85.8002 101.928 85.8002 102.689C85.8002 103.45 86.4172 104.067 87.1785 104.067Z" fill="#75E0E6"/>
<path d="M90.467 108.014C91.2282 108.014 91.8452 107.397 91.8452 106.636C91.8452 105.874 91.2282 105.257 90.467 105.257C89.7057 105.257 89.0887 105.874 89.0887 106.636C89.0887 107.397 89.7057 108.014 90.467 108.014Z" fill="#75E0E6"/>
<path d="M77.6703 107.243H72.0935V109.392H77.6703V107.243Z" fill="#75E0E6"/>
<path d="M117.053 58.536H107.83V61.2925H117.053V58.536Z" fill="#75E0E6"/>
<path d="M117.053 53.7945H107.83V56.5512H117.053V53.7945Z" fill="#75E0E6"/>
<path d="M117.053 39.5703H107.83V42.327H117.053V39.5703Z" fill="#75E0E6"/>
<path d="M117.053 34.829H107.83V37.5855H117.053V34.829Z" fill="#75E0E6"/>
<path d="M96.86 82.564H88.343C87.986 82.564 87.6962 82.2745 87.6962 81.9172C87.6962 81.56 90.3765 80.7357 90.7337 80.7357H96.1915C96.5487 80.7357 97.5067 81.56 97.5067 81.9172C97.5067 82.2745 97.217 82.564 96.86 82.564Z" fill="#B5CDFB"/>
<path d="M96.3158 81.2705H90.263V80.2337C90.263 78.7547 91.462 77.5557 92.941 77.5557H94.329C95.4263 77.5557 96.3158 78.4452 96.3158 79.5425V81.2705Z" fill="#B5CDFB"/>
<path d="M89.9835 83.4718C90.4807 83.4718 90.8838 83.0688 90.8838 82.5715C90.8838 82.0743 90.4807 81.6713 89.9835 81.6713C89.4862 81.6713 89.0833 82.0743 89.0833 82.5715C89.0833 83.0688 89.4862 83.4718 89.9835 83.4718Z" fill="#B5CDFB"/>
<path d="M95.2912 83.4718C95.7885 83.4718 96.1915 83.0688 96.1915 82.5715C96.1915 82.0743 95.7885 81.6713 95.2912 81.6713C94.794 81.6713 94.391 82.0743 94.391 82.5715C94.391 83.0688 94.794 83.4718 95.2912 83.4718Z" fill="#B5CDFB"/>
<path d="M97.3155 79.2212C98.6638 79.2212 99.7568 78.1282 99.7568 76.78C99.7568 75.4317 98.6638 74.3387 97.3155 74.3387C95.9673 74.3387 94.8743 75.4317 94.8743 76.78C94.8743 78.1282 95.9673 79.2212 97.3155 79.2212Z" fill="#75E0E6"/>
<path d="M98.375 78.4745H96.256C96.1183 78.4745 96.0068 78.363 96.0068 78.2252C96.0068 77.5607 96.5455 77.0222 97.2098 77.0222H97.4213C98.0855 77.0222 98.6243 77.5607 98.6243 78.2252C98.6243 78.363 98.5128 78.4745 98.375 78.4745Z" fill="#2249B3"/>
<path d="M97.3155 76.8098C97.7915 76.8098 98.1775 76.4238 98.1775 75.9478C98.1775 75.4715 97.7915 75.0855 97.3155 75.0855C96.8392 75.0855 96.4535 75.4715 96.4535 75.9478C96.4535 76.4238 96.8392 76.8098 97.3155 76.8098Z" fill="#2249B3"/>
<path d="M73.7625 96.4072C71.805 96.4072 70.2175 97.9947 70.2175 99.9522C70.2175 101.912 73.7625 108.237 73.7625 108.237C73.7625 108.237 77.3075 101.912 77.3075 99.9522C77.3075 97.9947 75.72 96.4072 73.7625 96.4072ZM73.7625 101.302C72.7075 101.302 71.8525 100.447 71.8525 99.3922C71.8525 98.3372 72.7075 97.4822 73.7625 97.4822C74.8175 97.4822 75.6725 98.3372 75.6725 99.3922C75.6725 100.447 74.8175 101.302 73.7625 101.302Z" fill="#B5CDFB"/>
<path d="M77.313 104.81C78.5125 104.81 79.485 103.838 79.485 102.638C79.485 101.439 78.5125 100.466 77.313 100.466C76.1135 100.466 75.141 101.439 75.141 102.638C75.141 103.838 76.1135 104.81 77.313 104.81Z" fill="#75E0E6"/>
<path d="M78.2558 104.146H76.3702C76.2477 104.146 76.1485 104.047 76.1485 103.924C76.1485 103.333 76.6278 102.854 77.219 102.854H77.407C77.9982 102.854 78.4775 103.333 78.4775 103.924C78.4775 104.047 78.3783 104.146 78.2558 104.146Z" fill="#2249B3"/>
<path d="M77.313 102.665C77.7365 102.665 78.08 102.321 78.08 101.898C78.08 101.474 77.7365 101.131 77.313 101.131C76.8895 101.131 76.546 101.474 76.546 101.898C76.546 102.321 76.8895 102.665 77.313 102.665Z" fill="#2249B3"/>
<path d="M87.7425 34.6177H86.5938V36.4557H87.7425V34.6177Z" fill="#2249B3"/>
<path d="M89.255 34.6177H88.1063V36.4557H89.255V34.6177Z" fill="#2249B3"/>
<path d="M87.7425 37.54H86.5938V39.378H87.7425V37.54Z" fill="#2249B3"/>
<path d="M89.255 37.54H88.1063V39.378H89.255V37.54Z" fill="#2249B3"/>
<path d="M91.0618 37.54H89.913V39.378H91.0618V37.54Z" fill="#2249B3"/>
<path d="M92.574 37.54H91.4255V39.378H92.574V37.54Z" fill="#2249B3"/>
<path d="M91.0618 34.6177H89.913V36.4557H91.0618V34.6177Z" fill="#2249B3"/>
<path d="M92.574 34.6177H91.4255V36.4557H92.574V34.6177Z" fill="#2249B3"/>
<path d="M99.3643 34.6177H98.2155V36.4557H99.3643V34.6177Z" fill="#2249B3"/>
<path d="M100.877 34.6177H99.728V36.4557H100.877V34.6177Z" fill="#2249B3"/>
<path d="M99.3643 37.54H98.2155V39.378H99.3643V37.54Z" fill="#2249B3"/>
<path d="M100.877 37.54H99.728V39.378H100.877V37.54Z" fill="#2249B3"/>
<path d="M102.683 37.54H101.535V39.378H102.683V37.54Z" fill="#2249B3"/>
<path d="M104.196 37.54H103.047V39.378H104.196V37.54Z" fill="#2249B3"/>
<path d="M102.683 34.6177H101.535V36.4557H102.683V34.6177Z" fill="#2249B3"/>
<path d="M104.196 34.6177H103.047V36.4557H104.196V34.6177Z" fill="#2249B3"/>
<path d="M96.6122 127.957H106.058" stroke="#FFE458" stroke-width="0.222766" stroke-miterlimit="10" stroke-linecap="round"/>
<path d="M106.985 127.957H113.968" stroke="#FFE458" stroke-width="0.222766" stroke-miterlimit="10" stroke-linecap="round"/>
<path d="M114.016 82.4342H106.416C106.098 82.4342 105.839 82.346 105.839 82.0272V81.4072C105.839 81.0885 108.277 80.4012 108.596 80.4012L113.419 80.803C113.738 80.803 114.324 80.843 114.324 81.1617C114.324 81.1617 114.335 82.4342 114.016 82.4342Z" fill="#B5CDFB"/>
<path d="M113.068 81.28H108.592C108.337 81.28 108.13 81.073 108.13 80.8175C109.286 79.3605 110.882 78.8775 110.982 78.877H111.295C112.53 78.877 113.53 78.9663 113.53 80.2008V80.8175C113.53 81.073 113.323 81.28 113.068 81.28Z" fill="#B5CDFB"/>
<path d="M107.88 83.2443C108.324 83.2443 108.684 82.8845 108.684 82.441C108.684 81.9973 108.324 81.6375 107.88 81.6375C107.437 81.6375 107.077 81.9973 107.077 82.441C107.077 82.8845 107.437 83.2443 107.88 83.2443Z" fill="#B5CDFB"/>
<path d="M112.792 83.2443C113.235 83.2443 113.595 82.8845 113.595 82.441C113.595 81.9973 113.235 81.6375 112.792 81.6375C112.348 81.6375 111.988 81.9973 111.988 82.441C111.988 82.8845 112.348 83.2443 112.792 83.2443Z" fill="#B5CDFB"/>
<path d="M34.0315 94.7965H48.9012" stroke="#005B9D" stroke-width="0.25" stroke-miterlimit="10" stroke-linecap="round"/>
<path d="M32.5745 94.7965H30.259" stroke="#005B9D" stroke-width="0.25" stroke-miterlimit="10" stroke-linecap="round"/>
<path d="M28.7447 94.8125H12.5159" stroke="#005B9D" stroke-width="0.25" stroke-miterlimit="10" stroke-linecap="round"/>
<path d="M69.2125 50.0098C66.4525 50.0098 64.215 52.2473 64.215 55.0098C64.215 57.7698 69.2125 66.6873 69.2125 66.6873C69.2125 66.6873 74.21 57.7698 74.21 55.0098C74.21 52.2473 71.9725 50.0098 69.2125 50.0098ZM69.2125 56.9098C67.725 56.9098 66.52 55.7048 66.52 54.2173C66.52 52.7298 67.725 51.5248 69.2125 51.5248C70.7 51.5248 71.905 52.7298 71.905 54.2173C71.905 55.7048 70.7 56.9098 69.2125 56.9098Z" fill="#B5CDFB"/>
<path d="M74.672 61.364C76.2337 61.364 77.5 60.0978 77.5 58.536C77.5 56.9743 76.2337 55.7083 74.672 55.7083C73.1102 55.7083 71.8442 56.9743 71.8442 58.536C71.8442 60.0978 73.1102 61.364 74.672 61.364Z" fill="#75E0E6"/>
<path d="M75.8995 60.499H73.4448C73.2853 60.499 73.156 60.3698 73.156 60.2103C73.156 59.4405 73.78 58.8168 74.5498 58.8168H74.7945C75.564 58.8168 76.188 59.4405 76.188 60.2103C76.188 60.3698 76.0588 60.499 75.8995 60.499Z" fill="#2249B3"/>
<path d="M74.672 58.5705C75.2235 58.5705 75.6708 58.1235 75.6708 57.5717C75.6708 57.0202 75.2235 56.5732 74.672 56.5732C74.1205 56.5732 73.6735 57.0202 73.6735 57.5717C73.6735 58.1235 74.1205 58.5705 74.672 58.5705Z" fill="#2249B3"/>
<path d="M93.4163 67.071C92.0613 67.071 90.9662 68.1685 90.9662 69.521C90.9662 70.8735 93.4163 75.2435 93.4163 75.2435C93.4163 75.2435 95.8637 70.8735 95.8637 69.521C95.8637 68.1685 94.7688 67.071 93.4163 67.071ZM93.4163 70.451C92.6863 70.451 92.0963 69.861 92.0963 69.131C92.0963 68.4035 92.6863 67.8135 93.4163 67.8135C94.1438 67.8135 94.7337 68.4035 94.7337 69.131C94.7337 69.861 94.1438 70.451 93.4163 70.451Z" fill="#B5CDFB"/>
</svg>
