<svg width="200" height="150" viewBox="0 0 200 150" fill="none" xmlns="http://www.w3.org/2000/svg">
<path d="M177.6 63.741C178.505 55.5052 182.162 54.5644 186.487 53.7974C190.811 53.0304 183.04 45.8539 185.145 43.6913C187.251 41.5286 196.375 44.9442 190.103 36.1834C185.085 29.1747 177.056 28.1329 177.056 28.1329" stroke="#9F86FF" stroke-width="0.112309"/>
<rect x="24.2012" y="109.056" width="37.3521" height="4.90686" fill="#8060FD"/>
<g opacity="0.9" filter="url(#filter0_b)">
<ellipse cx="21.6584" cy="100.533" rx="11.7873" ry="11.5649" fill="url(#paint0_linear)"/>
</g>
<ellipse cx="136.026" cy="122.98" rx="11.7873" ry="11.5649" fill="url(#paint1_linear)"/>
<path d="M138.283 100.023C138.702 103.493 139.727 106.411 141.776 107.538C145.789 109.746 145.085 103.348 143.765 97.9481C143.613 97.3271 144.531 96.8773 144.919 97.3854C150.512 104.707 159.643 114.767 163.533 112.014C167.963 108.879 158.208 103.497 156.671 95.3328C155.325 88.1799 179.865 115.896 185.235 115.173C188.407 114.747 185.676 108.296 181.557 101.589" stroke="#6D258F" stroke-width="0.112309" stroke-linecap="round"/>
<path d="M167.975 136.995L134.884 136.324C133.78 136.324 129.893 136.107 129.893 135.003V128.068C129.893 126.964 130.78 126.076 131.884 126.076H167.951C169.055 126.076 178.054 130.827 178.054 130.827C178.054 131.931 169.055 136.995 167.975 136.995Z" fill="#8060FD"/>
<path d="M141.987 130.827L131.884 126.076C131.884 126.076 129.893 126.196 129.893 127.492C129.893 128.812 129.689 134.306 129.689 135.242C129.689 136.178 140.931 141.746 141.459 141.746C141.987 141.746 141.987 130.827 141.987 130.827Z" fill="#F2F4FF"/>
<path d="M178.055 141.746H141.988C140.884 141.746 139.996 140.858 139.996 139.754V132.819C139.996 131.715 140.884 130.828 141.988 130.828H178.055C179.159 130.828 179.159 141.746 178.055 141.746Z" fill="#8060FD"/>
<path d="M144.219 132.795H179.182" stroke="#6331CF" stroke-width="0.112309" stroke-miterlimit="10" stroke-linecap="round"/>
<path d="M142.611 134.547H179.182" stroke="#6331CF" stroke-width="0.112309" stroke-miterlimit="10" stroke-linecap="round"/>
<path d="M142.611 136.299H179.182" stroke="#6331CF" stroke-width="0.112309" stroke-miterlimit="10" stroke-linecap="round"/>
<path d="M142.611 138.051H179.182" stroke="#6331CF" stroke-width="0.112309" stroke-miterlimit="10" stroke-linecap="round"/>
<path d="M144.219 139.778H179.182" stroke="#6331CF" stroke-width="0.112309" stroke-miterlimit="10" stroke-linecap="round"/>
<path fill-rule="evenodd" clip-rule="evenodd" d="M141.986 131.187C141.081 131.187 140.355 131.914 140.355 132.819V139.754C140.355 140.659 141.081 141.386 141.986 141.386H178.053C178.252 141.386 178.413 141.547 178.413 141.746C178.413 141.945 178.252 142.106 178.053 142.106H141.986C140.684 142.106 139.635 141.057 139.635 139.754V132.819C139.635 131.517 140.684 130.468 141.986 130.468H178.053C178.252 130.468 178.413 130.629 178.413 130.827C178.413 131.026 178.252 131.187 178.053 131.187H141.986Z" fill="#F2F4FF"/>
<rect x="24.2012" y="118.382" width="37.3521" height="4.90686" fill="#8060FD"/>
<rect x="68.4199" y="131.166" width="37.3521" height="4.90686" fill="#8060FD"/>
<rect x="68.4199" y="121.826" width="37.3521" height="4.90686" fill="#8060FD"/>
<path opacity="0.4" d="M174.905 101.013H20.744C19.2334 101.013 18.0195 99.7996 18.0195 98.289V21.6266C18.0195 20.116 19.2334 18.9021 20.744 18.9021H174.905C176.416 18.9021 177.63 20.116 177.63 21.6266V98.262C177.657 99.7726 176.416 101.013 174.905 101.013Z" fill="#B5CDFB"/>
<path d="M62.61 67.3445C62.874 67.3685 64.4338 69.2162 64.2658 69.4802C64.0978 69.7201 55.483 77.3511 55.1231 77.3511C54.7631 77.3511 52.9874 76.2952 53.1074 76.0073C53.2034 75.7433 62.3221 67.3205 62.61 67.3445Z" fill="#20008C"/>
<path d="M34.4857 70.224L42.1167 73.8475L41.5408 73.6795L50.7315 75.5992C52.0273 75.8632 52.8672 77.135 52.5792 78.4308C52.3153 79.6787 51.1394 80.4706 49.9156 80.3266L40.6049 79.0788L40.4369 79.0548L40.029 78.9108L32.0381 76.1032C30.3823 75.5273 29.5184 73.7035 30.0944 72.0477C30.6703 70.392 32.494 69.5281 34.1498 70.104C34.2698 70.128 34.3658 70.176 34.4857 70.224Z" fill="#20008C"/>
<path d="M23.1469 50.0702C23.6415 45.8309 28.652 60.2561 31.0955 67.9986L29.9474 77.4486L34.5399 95.9952C34.1277 97.9088 31.1838 102.124 22.7053 103.679C12.1072 105.622 19.0843 98.8214 18.0245 95.9952C16.9647 93.1691 7.16146 97.1434 8.30959 92.9041C9.45771 88.6649 10.1643 84.9556 3.09888 80.628C-3.96652 76.3004 14.3152 73.0327 13.2554 71.0897C12.1956 69.1467 7.60305 57.7538 7.16146 49.0987C6.71988 40.4436 19.7025 64.9075 22.7053 65.7907C25.7081 66.6738 22.5287 55.3692 23.1469 50.0702Z" stroke="#9F86FF" stroke-width="0.112309"/>
<path d="M30.2148 93.9806L44.6848 77.3509C45.2608 76.703 46.2926 76.751 46.7965 77.4469L59.2988 95.1325" stroke="#14F1D9" stroke-width="2.4708" stroke-miterlimit="10"/>
<path d="M52.8906 91.317L57.258 96.6923C57.258 96.6923 61.1455 95.2765 61.2415 94.2446C61.3375 93.2127 61.0015 93.1168 61.0015 93.1168L57.57 87.7655L52.8906 91.317Z" fill="#F2F2F2"/>
<path d="M56.0823 95.0124L56.2023 94.9404C56.3463 94.8684 56.5143 94.8924 56.6582 94.9644C57.1382 95.2764 58.41 95.9723 59.4898 95.5403C60.8817 94.9884 59.3219 91.4609 59.2739 91.077C59.2499 90.813 60.9296 90.429 61.2416 90.3331C61.3856 90.2851 61.5536 90.3331 61.6256 90.477C62.0335 91.1729 62.5614 94.1005 63.3773 94.3645C64.2172 94.6525 69.4725 96.3562 71.1762 96.5722C71.6322 96.6202 71.8241 96.9082 72.1121 97.2441C72.688 97.916 72.736 98.7559 72.2561 99.4278C71.3442 100.772 57.9061 100.82 56.8022 99.4038C56.5863 99.1398 55.9383 98.6599 55.8184 95.3964C55.8184 95.2524 55.9143 95.0844 56.0823 95.0124Z" fill="#3913B8"/>
<path d="M62.7533 94.3406C62.6813 94.4126 62.5853 94.4846 62.4654 94.5086C62.3454 94.5326 62.2494 94.5086 62.1534 94.4366C62.0574 94.3646 61.9854 94.2446 61.9854 94.1486L61.9614 94.0047C61.9374 93.8127 61.9134 93.6207 61.8894 93.4287C61.8414 93.0448 61.8174 92.6609 61.8414 92.2529C61.8654 91.845 61.8894 91.437 62.0814 91.0051C62.1774 90.7891 62.3214 90.5731 62.5374 90.3812C62.7533 90.1892 63.0653 90.0692 63.3532 90.0692C63.4972 90.0692 63.6412 90.0692 63.7852 90.1172C63.9292 90.1412 64.1211 90.2132 64.2651 90.3572C64.4331 90.5012 64.5291 90.6931 64.5531 90.8611C64.6011 91.0291 64.6011 91.1731 64.5771 91.317C64.5531 91.581 64.4811 91.797 64.3851 91.9889C64.3131 92.1809 64.1931 92.3729 64.0971 92.5409C63.7132 93.1888 63.2333 93.7647 62.7533 94.3406ZM62.3694 94.0527C62.7533 93.4287 63.0893 92.7568 63.3532 92.1089C63.4732 91.797 63.5692 91.437 63.5692 91.1971C63.5692 91.1491 63.5692 91.1011 63.5452 91.1011C63.5452 91.1011 63.5452 91.1251 63.5692 91.1251C63.5932 91.1491 63.5932 91.1251 63.5452 91.1251C63.5212 91.1251 63.4732 91.1251 63.4252 91.1251C63.3292 91.1251 63.2812 91.1491 63.2093 91.1971C63.1373 91.2451 63.0653 91.341 62.9933 91.461C62.8493 91.701 62.7533 92.0369 62.6813 92.3729C62.6093 92.7088 62.5613 93.0688 62.5374 93.4287C62.5134 93.6207 62.5134 93.7887 62.5134 93.9807V94.1247C62.5134 94.1007 62.4894 94.0767 62.4654 94.0767C62.4414 94.0287 62.3934 94.0527 62.3694 94.0527Z" fill="#3913B8"/>
<path d="M32.8301 71.5437L31.5822 66.9123L31.416 66.0966C31.512 66.0726 34.4131 65.2892 34.941 63.1295L39.2852 65.1126C38.3253 69.072 34.7738 71.0158 32.8301 71.5437Z" fill="#9B691F"/>
<path fill-rule="evenodd" clip-rule="evenodd" d="M39.2852 65.1125L36.1387 64.3502L37.018 69.0766C38.0232 68.0806 38.8824 66.774 39.2852 65.1125Z" fill="#68440D"/>
<path d="M62.6571 94.7006C62.5611 94.7006 62.4171 94.6766 62.3452 94.6046C62.2492 94.5326 62.2012 94.4126 62.2012 94.2926C62.2012 94.1727 62.2492 94.0527 62.3212 93.9567L62.4171 93.8367C62.5371 93.6927 62.6811 93.5488 62.8011 93.4048C63.0651 93.1168 63.353 92.8528 63.665 92.6129C63.9769 92.3729 64.3369 92.1329 64.8168 92.013C65.0568 91.941 65.3207 91.917 65.6087 91.989C65.8967 92.037 66.2086 92.2289 66.3766 92.4449C66.4726 92.5649 66.5446 92.6609 66.6166 92.8049C66.6886 92.9488 66.7365 93.1408 66.7365 93.3328C66.7125 93.5487 66.6406 93.7407 66.5206 93.8847C66.4006 94.0047 66.3046 94.1007 66.1846 94.1727C65.9687 94.3166 65.7527 94.3886 65.5367 94.4366C65.3447 94.4846 65.1288 94.5326 64.9368 94.5566C64.5528 94.6046 64.1689 94.6286 63.785 94.6526C63.401 94.6766 63.0411 94.6526 62.6571 94.7006ZM62.6331 94.1967C62.9931 94.2207 63.377 94.1247 63.737 94.0527C64.0969 93.9807 64.4569 93.8847 64.7928 93.7647C65.1288 93.6447 65.4647 93.5008 65.6327 93.3328C65.6807 93.2848 65.7047 93.2608 65.7047 93.2368C65.7047 93.2128 65.6807 93.2368 65.6807 93.2608C65.6807 93.2848 65.6807 93.2848 65.6567 93.2608C65.6327 93.2368 65.6087 93.1888 65.5847 93.1648C65.5367 93.1168 65.4887 93.0928 65.4167 93.0688C65.3447 93.0448 65.2248 93.0448 65.1048 93.0688C64.8408 93.1168 64.5289 93.2368 64.2169 93.3808C63.9049 93.5248 63.593 93.7167 63.281 93.9087C63.137 94.0047 62.9931 94.1247 62.8251 94.2207L62.7291 94.2926C62.7531 94.2686 62.7531 94.2447 62.7531 94.2207C62.7531 94.1967 62.7291 94.1727 62.7051 94.1727C62.6811 94.1967 62.6331 94.1967 62.6331 94.1967Z" fill="#3913B8"/>
<path fill-rule="evenodd" clip-rule="evenodd" d="M66.474 94.5524C66.6485 94.7519 66.6283 95.0551 66.4289 95.2296L65.085 96.4055C64.8856 96.58 64.5824 96.5598 64.4078 96.3603C64.2333 96.1608 64.2535 95.8576 64.453 95.6831L65.7968 94.5072C65.9963 94.3327 66.2995 94.3529 66.474 94.5524Z" fill="#3913B8"/>
<path d="M38.3723 87.6696L35.4207 100.964L28.9416 101.156C24.8861 101.276 21.7426 97.6282 22.4865 93.6207L22.8224 91.749L38.3723 87.6696Z" fill="#14F1D9"/>
<path fill-rule="evenodd" clip-rule="evenodd" d="M34.677 59.1854C33.1736 59.8322 33.8606 62.2236 34.3444 63.4746L36.2462 63.7838L36.7601 66.0472C37.0571 66.604 38.7224 68.4706 39.4583 69.2571C39.6738 69.4874 39.8376 69.6624 39.9082 69.744C40.4362 70.3439 42.6199 66.8884 42.6199 66.8884C42.6199 66.8884 43.4346 67.3248 43.6848 67.0297C43.5077 65.9528 43.5077 64.5579 43.5077 64.5016C43.5077 64.4824 43.5262 64.477 43.5601 64.4669C43.6653 64.4357 43.9189 64.3604 44.2318 63.6966C44.7022 62.6988 45.2835 61.1532 45.2835 61.1532C45.2835 61.1532 44.8516 58.8255 44.2276 57.8896C43.6037 56.9537 36.7407 58.2736 34.677 59.1854Z" fill="#9B691F"/>
<path d="M42.5745 63.9452C42.6819 63.8106 42.6709 63.6231 42.5498 63.5264C42.4287 63.4298 42.2434 63.4606 42.136 63.5953C42.0285 63.7299 42.0396 63.9174 42.1607 64.0141C42.2818 64.1107 42.467 64.0799 42.5745 63.9452Z" fill="white" fill-opacity="0.67"/>
<path d="M58.0502 99.3799C58.6261 99.4759 60.6178 99.1879 64.0493 99.4759C71.8243 100.124 72.3042 98.3241 72.3762 98.2281C72.4002 98.1801 72.4482 98.1321 72.4722 98.0841C72.4962 98.0601 72.4962 98.0361 72.4962 98.0121L72.5202 97.9881C72.5202 97.9881 72.5202 97.9641 72.5202 98.0121C72.5202 98.0121 73.744 101.156 69.1846 101.132C66.881 101.108 60.6898 101.588 57.9302 100.964C57.0183 100.748 56.2984 100.052 56.1064 99.116C55.9625 98.4441 55.8665 97.6762 55.9625 97.1722C56.0345 96.9323 56.0824 99.02 58.0502 99.3799Z" fill="#3DBBAD"/>
<path d="M27.2148 98.132L54.811 98.5879C56.0828 98.6119 56.8507 99.9797 56.2268 101.06L47.1321 116.609" stroke="#14F1D9" stroke-width="2.58311" stroke-miterlimit="10"/>
<path d="M49.3405 78.3349L50.6364 82.2704L53.492 80.6386L55.5077 79.2468C55.8196 79.2708 57.2594 76.8951 57.2594 76.8951C56.6355 75.7193 54.8118 75.4313 54.3318 75.4313C53.5639 75.4313 51.1403 75.0714 51.1403 75.0714C51.1403 75.0714 49.0046 77.9509 49.3405 78.3349Z" fill="#9B691F"/>
<path d="M50.4431 76.1751L51.7389 74.1354L51.9789 73.7515L52.1469 73.6795L54.0666 72.7676C54.4505 72.5756 54.9305 72.7436 55.1224 73.1515C55.2904 73.5115 55.1704 73.9674 54.8345 74.1594L53.0347 75.2872L53.4427 74.8313L53.0107 77.207C52.8668 77.9749 52.1469 78.4788 51.379 78.3348C50.6111 78.1908 50.1071 77.4709 50.2511 76.703C50.2751 76.4871 50.3471 76.3191 50.4431 76.1751Z" fill="#9B691F"/>
<path d="M43.7557 63.7276C43.7166 63.7764 43.6452 63.7839 43.5968 63.7443L42.5718 62.905C42.5238 62.857 42.5238 62.857 42.5238 62.857C42.4998 62.857 42.5238 62.857 42.4758 62.857H42.1878L41.5879 62.833V62.329L42.1878 62.3051H42.4758C42.5478 62.3051 42.6437 62.3051 42.7157 62.353C42.8117 62.377 42.8837 62.449 42.9077 62.473L43.9753 63.2669C44.0263 63.3049 44.0357 63.3776 43.996 63.4272L43.7557 63.7276Z" fill="#131845"/>
<path d="M35.1087 63.1449C35.1087 63.1449 34.5808 64.5367 34.2689 64.2728C33.9569 64.0088 31.1493 62.1851 32.4451 58.5856C33.7409 54.9861 35.0847 54.5781 35.9486 54.5541C35.9486 54.5541 36.9085 53.4983 37.9883 53.4023C39.8841 53.2103 43.6756 55.154 45.6433 57.9856C46.4352 59.1135 46.3152 60.7933 46.1232 61.2732C45.5473 62.761 44.6834 60.6733 43.9635 60.4573C42.3557 59.9294 38.7802 62.857 38.5403 62.449C38.3003 62.0411 38.3483 61.2012 38.0363 61.6091C37.7004 62.0171 37.4364 61.6091 37.4844 61.1772C37.5324 60.7453 36.7645 59.0175 35.2527 59.9774C33.7169 60.9132 35.1087 63.1449 35.1087 63.1449Z" fill="#131845"/>
<path d="M33.2613 65.4726C33.1653 65.2327 32.8773 65.1367 32.6614 65.2567C32.4214 65.4007 28.366 66.8405 25.7503 68.9522C22.8947 71.2798 20.0871 75.9832 19.8711 83.6621C19.6312 92.4929 21.9109 96.8603 22.5108 96.6923C23.6386 96.3803 34.5331 96.4763 34.3891 92.9248C34.2451 89.3733 35.8049 82.7502 35.445 80.9505C35.085 79.1507 37.9166 71.5678 36.2129 70.176C34.8211 69.0481 33.8132 66.8644 33.2613 65.4726Z" fill="#3913B8"/>
<path fill-rule="evenodd" clip-rule="evenodd" d="M63.5577 67.9056C63.6453 68.005 63.6358 68.1566 63.5364 68.2443L59.8889 71.4598C59.7895 71.5474 59.6378 71.5379 59.5502 71.4385C59.4626 71.3391 59.4721 71.1874 59.5715 71.0998L63.219 67.8842C63.3184 67.7966 63.4701 67.8061 63.5577 67.9056Z" fill="#E6E6E6"/>
<path d="M42.4766 120.353C42.4766 120.353 44.1028 115.855 44.1988 115.663C44.2948 115.471 44.2948 114.943 44.6067 114.655C44.9187 114.343 45.9311 111.656 46.172 112.098C46.436 112.074 47.9718 115.314 51.4033 115.002C52.5072 115.602 50.7554 116.154 50.5874 116.657C50.4195 117.161 49.2916 119.585 49.2436 119.801C49.1716 120.017 47.1319 122.825 45.5721 122.249C44.0123 121.673 42.4766 120.353 42.4766 120.353Z" fill="#F2F2F2"/>
<path d="M42.3804 118.217L42.5724 118.193C42.7883 118.169 42.9803 118.265 43.1003 118.433C43.5562 119.057 44.6361 121.433 46.1719 121.385C48.1396 121.337 49.1955 118.457 49.3154 117.953C49.4114 117.617 50.0593 117.545 50.4673 117.545C50.6593 117.545 50.8512 117.689 50.8752 117.881C51.0672 118.937 50.8992 122.201 51.7871 122.921C52.675 123.641 55.4346 125.56 57.4263 126.616C57.9542 126.904 58.0742 127.336 58.2662 127.888C58.6501 128.992 58.4582 130.264 57.4503 130.672C56.0585 131.2 42.1644 126.472 41.0606 124.96C40.7966 124.6 40.5087 122.681 41.8525 118.601C41.9485 118.385 42.1404 118.241 42.3804 118.217Z" fill="#3913B8"/>
<path fill-rule="evenodd" clip-rule="evenodd" d="M55.0664 123.944C55.1907 124.27 55.0267 124.636 54.7001 124.76L52.4924 125.6C52.1659 125.724 51.8005 125.56 51.6763 125.233C51.5521 124.907 51.7161 124.541 52.0426 124.417L54.2503 123.577C54.5768 123.453 54.9422 123.617 55.0664 123.944Z" fill="#4C25D1"/>
<path d="M32.1342 72.5996L35.2058 79.9906L36.7416 83.6861L37.5095 85.5338L37.7015 85.9898L37.7975 86.2057C37.7975 86.1817 37.7735 86.1817 37.7735 86.1577L37.7495 86.1337L37.7255 86.0857C37.5815 85.8698 37.3895 85.7018 37.1735 85.6058C36.9576 85.5098 36.7176 85.4858 36.4776 85.5098C36.3577 85.5338 36.2377 85.5578 36.1417 85.6058C36.1177 85.6298 36.0697 85.6298 36.0457 85.6538C36.0217 85.6538 36.0217 85.6778 35.9977 85.6778C35.9737 85.6778 35.9497 85.7258 35.9737 85.7018L36.1897 85.5818L37.8934 84.55L41.277 82.4862L48.068 78.3828C49.1959 77.6869 50.6837 78.0469 51.3556 79.1987C52.0035 80.2786 51.7155 81.6704 50.6837 82.3903L44.1566 87.0216L40.917 89.4213L39.2852 90.5731L39.0933 90.7171C39.0933 90.7171 39.0213 90.7651 38.9733 90.7891L38.8053 90.8851C38.7093 90.9331 38.5653 91.0051 38.4694 91.0531C38.0614 91.245 37.6295 91.365 37.1735 91.413C36.2857 91.533 35.3498 91.389 34.5579 91.0051C34.15 90.8131 33.766 90.5491 33.4301 90.2612C33.0941 89.9492 32.7821 89.6133 32.5662 89.2053L32.4702 89.0613L32.3982 88.9174L32.2542 88.6534L32.1342 88.4134L31.9183 87.9815L31.0304 86.2057L29.2546 82.6542L25.7031 75.5752C24.8153 73.8234 25.5352 71.6877 27.2869 70.7999C29.0387 69.912 31.1744 70.6319 32.0622 72.3837C32.0622 72.4556 32.1102 72.5276 32.1342 72.5996Z" fill="#3913B8"/>
<g opacity="0.9" filter="url(#filter1_bd)">
<path d="M42.5997 63.9478C42.7071 63.8132 42.7333 63.6554 42.6581 63.5954C42.5829 63.5354 42.4348 63.5959 42.3274 63.7305C42.2199 63.8652 42.1938 64.023 42.269 64.083C42.3441 64.143 42.4922 64.0825 42.5997 63.9478Z" fill="url(#paint2_linear)"/>
</g>
<path fill-rule="evenodd" clip-rule="evenodd" d="M41.1335 67.175C41.1335 67.175 41.1335 67.175 41.1335 67.175C41.1335 67.175 41.1335 67.1751 41.1335 67.1751L41.1331 67.1779C41.1327 67.1808 41.1321 67.1857 41.1315 67.1924C41.1302 67.2058 41.1288 67.2263 41.1285 67.252C41.1278 67.3038 41.1318 67.3749 41.1495 67.4523C41.1846 67.6051 41.2715 67.7773 41.4858 67.8845C41.5585 67.9209 41.588 68.0093 41.5516 68.082C41.5153 68.1547 41.4269 68.1842 41.3541 68.1479C41.0405 67.9911 40.9115 67.7314 40.8625 67.5182C40.8383 67.4126 40.8332 67.3173 40.8341 67.2483C40.8345 67.2137 40.8364 67.1852 40.8384 67.1648C40.8393 67.1546 40.8403 67.1463 40.8411 67.1403L40.8421 67.1329L40.8424 67.1306L40.8426 67.1297L40.8426 67.1293L40.8426 67.1292C40.8426 67.1291 40.8427 67.129 40.988 67.1523L40.8427 67.129C40.8555 67.0488 40.931 66.9941 41.0113 67.0069C41.0914 67.0198 41.146 67.0949 41.1335 67.175Z" fill="#131845"/>
<path d="M42.4771 125.368C43.077 125.728 45.4527 126.232 49.2201 128.008C51.4643 129.064 56.1087 131.774 58.3629 129.52C58.3869 129.496 58.4109 129.472 58.4349 129.472L58.4588 129.448C58.4588 129.448 58.4828 129.424 58.4588 129.472C58.4588 129.472 58.4828 133.623 50.06 130.744C47.4204 129.832 44.5408 129.016 41.6852 127.144C40.7253 126.52 40.2214 125.416 40.3894 124.289C40.5093 123.473 40.5953 122.506 40.9312 121.978C41.0752 121.714 40.4133 124.169 42.4771 125.368Z" fill="#14F1D9"/>
<path d="M51.5229 123.065C51.4509 123.16 51.307 123.256 51.163 123.28C51.019 123.304 50.875 123.28 50.779 123.184C50.6591 123.113 50.5871 122.945 50.5631 122.825L50.5391 122.657C50.5151 122.417 50.4671 122.177 50.4431 121.937C50.3951 121.457 50.3711 120.977 50.3711 120.473C50.3951 119.969 50.4431 119.465 50.6831 118.913C50.803 118.649 50.971 118.361 51.259 118.121C51.5469 117.881 51.9309 117.737 52.2908 117.713C52.4588 117.713 52.6268 117.713 52.8188 117.761C53.0107 117.809 53.2267 117.905 53.4187 118.073C53.6106 118.241 53.7306 118.481 53.7786 118.697C53.8266 118.913 53.8266 119.105 53.8026 119.249C53.7786 119.585 53.6826 119.825 53.5866 120.089C53.4907 120.329 53.3707 120.545 53.2507 120.761C52.7228 121.625 52.1229 122.345 51.5229 123.065ZM51.043 122.705C51.5229 121.937 51.9549 121.097 52.2428 120.281C52.3148 120.089 52.3868 119.873 52.4348 119.681C52.4828 119.489 52.5068 119.297 52.5068 119.153C52.5068 119.081 52.4828 119.033 52.4828 119.033C52.4588 119.033 52.4828 119.057 52.5068 119.081C52.5308 119.105 52.5308 119.105 52.4828 119.081C52.4348 119.081 52.3868 119.081 52.3148 119.057C52.1948 119.057 52.1468 119.081 52.0509 119.153C51.9549 119.201 51.8829 119.321 51.7869 119.465C51.6189 119.753 51.4749 120.161 51.403 120.593C51.307 121.025 51.259 121.457 51.211 121.913C51.187 122.129 51.187 122.369 51.187 122.585V122.753C51.187 122.729 51.163 122.705 51.139 122.681C51.115 122.657 51.067 122.681 51.043 122.705Z" fill="#3913B8"/>
<path d="M51.4027 123.521C51.2827 123.545 51.1147 123.497 50.9947 123.401C50.8747 123.305 50.8267 123.161 50.8027 123.017C50.8027 122.873 50.8507 122.705 50.9707 122.609L51.0907 122.465C51.2587 122.297 51.4027 122.105 51.5706 121.937C51.9066 121.601 52.2425 121.241 52.6505 120.953C53.0584 120.641 53.4904 120.377 54.0663 120.209C54.3542 120.137 54.6902 120.089 55.0501 120.161C55.4101 120.233 55.77 120.449 56.01 120.737C56.13 120.881 56.226 121.001 56.298 121.193C56.37 121.361 56.442 121.601 56.442 121.865C56.418 122.129 56.322 122.369 56.178 122.537C56.034 122.705 55.89 122.825 55.77 122.897C55.4821 123.065 55.2421 123.161 54.9782 123.233C54.7142 123.305 54.4742 123.353 54.2343 123.377C53.7543 123.449 53.2744 123.473 52.7945 123.473C52.3385 123.473 51.8586 123.425 51.4027 123.521ZM51.3547 122.897C51.8106 122.921 52.2665 122.801 52.6985 122.729C53.1544 122.633 53.5863 122.513 53.9943 122.369C54.2103 122.297 54.4022 122.225 54.5702 122.129C54.7622 122.033 54.9062 121.937 55.0261 121.841C55.0741 121.793 55.0981 121.745 55.1221 121.745C55.1221 121.721 55.0981 121.745 55.0981 121.793C55.0981 121.817 55.0981 121.817 55.0741 121.793C55.0501 121.769 55.0261 121.721 54.9782 121.673C54.9062 121.601 54.8582 121.577 54.7622 121.553C54.6662 121.529 54.5462 121.529 54.3782 121.553C54.0423 121.601 53.6583 121.769 53.2744 121.961C52.8904 122.153 52.5065 122.369 52.1226 122.633C51.9306 122.753 51.7626 122.897 51.5706 123.017L51.4506 123.113C51.4746 123.089 51.4746 123.041 51.4746 123.017C51.4746 122.993 51.4506 122.969 51.4266 122.945C51.4266 122.897 51.3787 122.897 51.3547 122.897Z" fill="#3913B8"/>
<path fill-rule="evenodd" clip-rule="evenodd" d="M59.6256 73.1235C59.9723 73.3181 60.0957 73.7569 59.9012 74.1036L58.7254 76.1997L56.8331 77.6573C56.5181 77.8999 56.0661 77.8412 55.8234 77.5262C55.5808 77.2113 55.6395 76.7592 55.9545 76.5166L57.6136 75.2386L58.6455 73.3992C58.84 73.0524 59.2788 72.929 59.6256 73.1235Z" fill="#9B691F"/>
<path fill-rule="evenodd" clip-rule="evenodd" d="M59.5998 74.5962C59.9154 74.838 59.9752 75.2899 59.7334 75.6055L58.2717 77.5132L56.1915 78.6873C55.8453 78.8827 55.4062 78.7604 55.2108 78.4141C55.0153 78.0679 55.1376 77.6288 55.4839 77.4334L57.3078 76.404L58.5905 74.7298C58.8323 74.4142 59.2841 74.3544 59.5998 74.5962Z" fill="#9B691F"/>
<g opacity="0.9" filter="url(#filter2_bd)">
<path d="M74.8331 31.8359C74.8331 29.5405 70.2571 30.4066 71.664 28.0557C76.0217 20.7741 91.8839 9.95369 95.7141 13.1366C100.781 17.347 74.8331 46.3872 74.8331 31.8359Z" fill="url(#paint3_linear)"/>
</g>
<g opacity="0.9" filter="url(#filter3_bd)">
<path d="M59.493 28.526C59.4959 27.0076 58.5768 28.4013 59.4929 26.8444C62.3307 22.0221 70.5881 14.0293 73.0701 16.1299C76.3535 18.9086 59.4745 38.1516 59.493 28.526Z" fill="url(#paint4_linear)"/>
</g>
<g opacity="0.9" filter="url(#filter4_bd)">
<path d="M48.8852 30.9427C48.4485 29.9619 48.2579 31.1268 48.3995 29.8574C48.8382 25.9254 51.859 18.3819 54.0676 19.0207C56.9893 19.8658 51.6535 37.1605 48.8852 30.9427Z" fill="url(#paint5_linear)"/>
</g>
<g opacity="0.9" filter="url(#filter5_b)">
<circle cx="40.835" cy="42.006" r="12.0987" fill="url(#paint6_linear)"/>
</g>
<path opacity="0.2" d="M36.5733 64.7527C38.495 64.7527 40.0528 63.1949 40.0528 61.2732C40.0528 59.3515 38.495 57.7937 36.5733 57.7937C34.6516 57.7937 33.0938 59.3515 33.0938 61.2732C33.0938 63.1949 34.6516 64.7527 36.5733 64.7527Z" fill="black"/>
<path fill-rule="evenodd" clip-rule="evenodd" d="M58.6245 72.7819C59.0461 72.9966 59.2137 73.5125 58.999 73.934L58.0848 75.7285L55.2521 76.9061C54.8153 77.0878 54.3139 76.8808 54.1323 76.444C53.9506 76.0071 54.1576 75.5057 54.5944 75.3241L56.8445 74.3887L57.4723 73.1563C57.6871 72.7348 58.2029 72.5671 58.6245 72.7819Z" fill="#9B691F"/>
<path d="M36.5733 64.2488C38.495 64.2488 40.0528 62.6909 40.0528 60.7693C40.0528 58.8476 38.495 57.2897 36.5733 57.2897C34.6516 57.2897 33.0938 58.8476 33.0938 60.7693C33.0938 62.6909 34.6516 64.2488 36.5733 64.2488Z" fill="#14F1D9"/>
<g opacity="0.9" filter="url(#filter6_b)">
<path d="M36.2619 63.0009C37.839 63.0009 39.1175 61.7224 39.1175 60.1453C39.1175 58.5682 37.839 57.2897 36.2619 57.2897C34.6847 57.2897 33.4062 58.5682 33.4062 60.1453C33.4062 61.7224 34.6847 63.0009 36.2619 63.0009Z" fill="url(#paint7_linear)"/>
</g>
<g opacity="0.9" filter="url(#filter7_b)">
<circle cx="36.262" cy="59.8622" r="1.16826" fill="url(#paint8_linear)"/>
</g>
<path d="M34.0977 59.7524C33.9513 60.3036 34.1297 61.5432 34.9506 61.9951C35.4253 62.2564 36.0666 62.3723 36.0666 62.3723" stroke="#706BEF" stroke-width="0.224619" stroke-linecap="round"/>
<path d="M36.248 59.8623C36.248 59.8623 37.6878 56.0948 39.3436 54.487C41.0234 52.8793 42.8387 54.487 42.8387 54.487" stroke="#14F1D9" stroke-width="0.561546" stroke-miterlimit="10" stroke-linecap="round"/>
<g opacity="0.94" filter="url(#filter8_b)">
<path d="M167.463 30.8798H28.1868C26.483 30.8798 25.1152 29.512 25.1152 27.8082C25.1152 26.1044 26.483 24.7366 28.1868 24.7366H167.463C169.167 24.7366 170.535 26.1044 170.535 27.8082C170.535 29.512 169.167 30.8798 167.463 30.8798Z" fill="white" fill-opacity="0.36"/>
</g>
<g opacity="0.9">
<path d="M37.053 39.6042L31.7977 46.8272C31.7737 46.8751 31.7017 46.8991 31.6537 46.8991H30.2859C30.2379 46.8991 30.2139 46.8751 30.2379 46.8272L35.4932 39.6042C35.5172 39.5562 35.5892 39.5322 35.6372 39.5322H37.005C37.077 39.5322 37.101 39.5562 37.053 39.6042Z" fill="#FDFF8F"/>
<path d="M40.1721 39.6042L34.9169 46.8272C34.8929 46.8752 34.8209 46.8992 34.7729 46.8992H33.4051C33.3571 46.8992 33.3331 46.8752 33.3571 46.8272L38.6123 39.6042C38.6363 39.5562 38.7083 39.5322 38.7563 39.5322H40.1241C40.1961 39.5322 40.2201 39.5562 40.1721 39.6042Z" fill="#FDFF8F"/>
</g>
<path d="M90.5022 97.2259L85.2469 104.449C85.2229 104.497 85.151 104.521 85.103 104.521H83.7351C83.6872 104.521 83.6632 104.497 83.6871 104.449L88.9424 97.2259C88.9664 97.1779 89.0384 97.1539 89.0864 97.1539H90.4542C90.5022 97.1539 90.5262 97.1779 90.5022 97.2259Z" fill="#3913B8"/>
<path d="M93.6213 97.2251L88.3661 104.448C88.3421 104.496 88.2701 104.52 88.2221 104.52H86.8543C86.8063 104.52 86.7823 104.496 86.8063 104.448L92.0616 97.2251C92.0856 97.1771 92.1575 97.1531 92.2055 97.1531H93.5734C93.6213 97.1531 93.6453 97.1771 93.6213 97.2251Z" fill="#3913B8"/>
<path d="M165.391 42.458H123.013C122.893 42.458 122.797 42.3621 122.797 42.2421V41.1142C122.797 40.9942 122.893 40.8983 123.013 40.8983H165.391C165.511 40.8983 165.607 40.9942 165.607 41.1142V42.2421C165.583 42.3621 165.511 42.458 165.391 42.458Z" fill="#C8BAFF"/>
<path d="M119.966 42.4575H99.185C99.113 42.4575 99.041 42.3855 99.041 42.3135V41.0657C99.041 40.9937 99.113 40.9217 99.185 40.9217H119.966C120.038 40.9217 120.11 40.9937 120.11 41.0657V42.3135C120.11 42.3855 120.038 42.4575 119.966 42.4575Z" fill="#C8BAFF"/>
<path d="M141.754 45.5776H122.941C122.869 45.5776 122.797 45.5056 122.797 45.4336V44.1618C122.797 44.0898 122.869 44.0178 122.941 44.0178H141.754C141.826 44.0178 141.898 44.0898 141.898 44.1618V45.4336C141.898 45.5056 141.826 45.5776 141.754 45.5776Z" fill="#C8BAFF"/>
<path d="M119.966 45.5776H99.185C99.113 45.5776 99.041 45.5056 99.041 45.4336V44.1858C99.041 44.1138 99.113 44.0418 99.185 44.0418H119.966C120.038 44.0418 120.11 44.1138 120.11 44.1858V45.4336C120.11 45.5056 120.038 45.5776 119.966 45.5776Z" fill="#C8BAFF"/>
<path d="M133.861 53.7125H113.08C113.008 53.7125 112.936 53.6405 112.936 53.5685V52.3207C112.936 52.2487 113.008 52.1767 113.08 52.1767H133.861C133.933 52.1767 134.005 52.2487 134.005 52.3207V53.5685C134.005 53.6405 133.933 53.7125 133.861 53.7125Z" fill="#C8BAFF"/>
<path d="M133.861 56.8321H113.08C113.008 56.8321 112.936 56.7601 112.936 56.6881V55.4403C112.936 55.3683 113.008 55.2963 113.08 55.2963H133.861C133.933 55.2963 134.005 55.3683 134.005 55.4403V56.6881C134.005 56.7601 133.933 56.8321 133.861 56.8321Z" fill="#C8BAFF"/>
<path d="M165.439 45.5776H144.658C144.586 45.5776 144.514 45.5056 144.514 45.4336V44.1858C144.514 44.1138 144.586 44.0418 144.658 44.0418H165.439C165.511 44.0418 165.583 44.1138 165.583 44.1858V45.4336C165.583 45.5056 165.535 45.5776 165.439 45.5776Z" fill="#C8BAFF"/>
<path d="M105.088 64.5983C107.076 64.5983 107.424 65.5677 107.424 67.2083V72.6023C107.424 74.6157 107.921 75.784 110.531 75.784C110.78 75.784 110.904 75.6597 110.904 75.4111V74.7648C110.904 74.5163 110.78 74.392 110.531 74.392C109.239 74.392 108.965 73.696 108.965 72.5028V67.7551C108.965 65.7914 108.593 64.4491 106.828 63.952V63.8526C108.593 63.3803 108.965 62.038 108.965 60.0494V55.3017C108.965 54.1086 109.239 53.4126 110.531 53.4126C110.78 53.4126 110.904 53.2883 110.904 53.0397V52.3934C110.904 52.1449 110.78 52.0206 110.531 52.0206C107.921 52.0206 107.424 53.1889 107.424 55.2023V60.5963C107.424 62.2617 107.076 63.2063 105.088 63.2063C104.839 63.2063 104.715 63.3306 104.715 63.5791V64.2254C104.715 64.474 104.839 64.5983 105.088 64.5983Z" fill="#8060FD"/>
<path d="M164.84 45.364C162.851 45.364 162.503 46.3334 162.503 47.974V53.368C162.503 55.3814 162.006 56.5497 159.396 56.5497C159.148 56.5497 159.023 56.4254 159.023 56.1768V55.5305C159.023 55.2819 159.148 55.1577 159.396 55.1577C160.689 55.1577 160.962 54.4617 160.962 53.2685V48.5208C160.962 46.5571 161.335 45.2148 163.1 44.7177V44.6182C161.335 44.146 160.962 42.8037 160.962 40.8151V36.0674C160.962 34.8743 160.689 34.1783 159.396 34.1783C159.148 34.1783 159.023 34.054 159.023 33.8054V33.1591C159.023 32.9105 159.148 32.7863 159.396 32.7863C162.006 32.7863 162.503 33.9545 162.503 35.968V41.362C162.503 43.0274 162.851 43.972 164.84 43.972C165.089 43.972 165.213 44.0962 165.213 44.3448V44.9911C165.213 45.2397 165.089 45.364 164.84 45.364Z" fill="#8060FD"/>
<path d="M144.394 65.6148H123.613C123.541 65.6148 123.469 65.5428 123.469 65.4708V64.223C123.469 64.151 123.541 64.079 123.613 64.079H144.394C144.466 64.079 144.538 64.151 144.538 64.223V65.4708C144.538 65.5668 144.466 65.6148 144.394 65.6148Z" fill="#C8BAFF"/>
<path d="M144.394 68.7343H123.613C123.541 68.7343 123.469 68.6623 123.469 68.5904V67.3425C123.469 67.2705 123.541 67.1985 123.613 67.1985H144.394C144.466 67.1985 144.538 67.2705 144.538 67.3425V68.5904C144.538 68.6863 144.466 68.7343 144.394 68.7343Z" fill="#C8BAFF"/>
<path d="M144.394 74.4215H123.613C123.541 74.4215 123.469 74.3495 123.469 74.2775V73.0057C123.469 72.9337 123.541 72.8617 123.613 72.8617H144.394C144.466 72.8617 144.538 72.9337 144.538 73.0057V74.2535C144.538 74.3495 144.466 74.4215 144.394 74.4215Z" fill="#C8BAFF"/>
<path d="M144.394 77.541H123.613C123.541 77.541 123.469 77.4691 123.469 77.3971V76.1252C123.469 76.0533 123.541 75.9813 123.613 75.9813H144.394C144.466 75.9813 144.538 76.0533 144.538 76.1252V77.3731C144.538 77.4691 144.466 77.541 144.394 77.541Z" fill="#C8BAFF"/>
<path d="M173.69 121.717L149.193 119.933C149.193 119.933 138.555 115.182 139.658 115.182H175.725C176.829 115.182 185.828 119.933 185.828 119.933C185.828 121.013 174.794 121.717 173.69 121.717Z" fill="#8060FD"/>
<path fill-rule="evenodd" clip-rule="evenodd" d="M139.658 115.182C138.555 115.182 139.586 126.004 139.586 126.004L149.127 130.981L149.416 129.75L149.754 119.911L139.658 115.182Z" fill="#F2F4FF"/>
<path d="M185.829 130.827L149.594 130.563C149.594 129.196 149.834 119.669 149.834 119.669L185.829 119.909C186.909 119.909 186.909 130.827 185.829 130.827Z" fill="#F2F4FF"/>
<path fill-rule="evenodd" clip-rule="evenodd" d="M64.6602 18.8037C60.6825 22.659 56.6212 27.7988 54.0967 31.3578L53.6621 31.1426C54.5123 28.4171 55.4752 24.5132 55.6154 21.6387C55.6504 20.9217 55.6337 20.2761 55.5539 19.733C55.4736 19.1867 55.3321 18.7634 55.1318 18.475C54.9383 18.1962 54.6899 18.0416 54.363 18.0163C54.0219 17.99 53.5669 18.1026 52.9717 18.4301C51.8175 19.0652 50.9841 20.3223 50.4106 21.9978C49.8384 23.6695 49.5371 25.7238 49.423 27.9003C49.1947 32.2523 49.7169 37.0437 50.2697 40.1258L49.7864 40.2125C49.2292 37.1057 48.7018 32.275 48.9326 27.8746C49.048 25.6749 49.3534 23.5705 49.9461 21.8388C50.5375 20.1108 51.427 18.7197 52.735 17.9999C53.371 17.65 53.9251 17.49 54.4008 17.5268C54.8908 17.5646 55.2669 17.8087 55.5351 18.1949C55.7966 18.5716 55.9541 19.0796 56.0397 19.6616C56.1257 20.2469 56.1417 20.9266 56.1058 21.6626C55.9853 24.1327 55.2748 27.3194 54.5441 29.8985C57.087 26.4298 60.7323 21.927 64.3185 18.4511C66.3204 16.5108 68.3164 14.8781 70.1011 13.9276C71.8703 12.9854 73.5225 12.6682 74.7524 13.5386C75.3545 13.9646 75.7051 14.5106 75.8292 15.1471C75.9518 15.7758 75.8493 16.4715 75.5889 17.2001C75.0694 18.6536 73.8941 20.3116 72.4116 21.9866C71.4897 23.0282 70.4416 24.0844 69.3438 25.1117C72.8441 22.6108 76.7218 19.9538 80.4541 17.5925C83.8381 15.4516 87.108 13.5504 89.8716 12.2288C91.2532 11.568 92.5136 11.0496 93.6019 10.7189C94.6843 10.3899 95.6211 10.2388 96.3452 10.3362C96.8125 10.3991 97.1867 10.5836 97.456 10.8894C97.7223 11.192 97.866 11.5907 97.9181 12.0481C98.0212 12.9544 97.7725 14.1617 97.291 15.5416C96.3241 18.3122 94.3709 21.9069 92.1113 25.4656C89.8497 29.0274 87.2714 32.5684 85.0444 35.2341C83.9314 36.5663 82.9022 37.6847 82.0414 38.4786C81.6113 38.8753 81.2183 39.1956 80.8741 39.4215C80.5381 39.6421 80.2175 39.794 79.9389 39.811L79.909 39.3209C80.0533 39.3121 80.2833 39.222 80.6046 39.0111C80.9177 38.8055 81.2887 38.5048 81.7085 38.1177C82.5473 37.344 83.5612 36.2436 84.6676 34.9193C86.8794 32.2718 89.4453 28.7484 91.6968 25.2024C93.9504 21.6532 95.8794 18.0965 96.8274 15.3798C97.3033 14.016 97.5203 12.8956 97.4302 12.1037C97.3856 11.7119 97.268 11.4189 97.0874 11.2139C96.9097 11.012 96.6514 10.8729 96.2797 10.8228C95.6615 10.7396 94.8063 10.866 93.7446 11.1887C92.6888 11.5096 91.4529 12.0168 90.0834 12.6717C87.345 13.9813 84.0937 15.871 80.7166 18.0075C74.9987 21.625 68.9355 25.9403 64.419 29.3195C63.6081 29.9571 62.8325 30.5422 62.1247 31.0565L61.831 30.6631C62.536 30.1224 63.3027 29.5415 64.1201 28.9299C66.7694 26.8467 69.792 24.2055 72.0439 21.6612C73.5157 19.9983 74.6394 18.3976 75.1265 17.0349C75.3694 16.3555 75.4472 15.7537 75.3473 15.2411C75.2489 14.7362 74.9743 14.2971 74.4688 13.9394C73.4838 13.2423 72.0715 13.4345 70.3319 14.361C68.6078 15.2792 66.6507 16.8744 64.6602 18.8037Z" fill="#14F1D9"/>
<path d="M138.703 116.741L148.854 122.117" stroke="#DBDDE8" stroke-width="0.112309" stroke-miterlimit="10" stroke-linecap="round"/>
<path d="M139.016 118.637L148.854 123.844" stroke="#DBDDE8" stroke-width="0.112309" stroke-miterlimit="10" stroke-linecap="round"/>
<path d="M138.943 120.365L148.854 125.596" stroke="#DBDDE8" stroke-width="0.112309" stroke-miterlimit="10" stroke-linecap="round"/>
<path d="M138.943 122.117L148.854 127.348" stroke="#DBDDE8" stroke-width="0.112309" stroke-miterlimit="10" stroke-linecap="round"/>
<path d="M138.943 123.844L148.854 129.1" stroke="#DBDDE8" stroke-width="0.112309" stroke-miterlimit="10" stroke-linecap="round"/>
<path opacity="0.9" fill-rule="evenodd" clip-rule="evenodd" d="M95.4257 27.6861L95.4257 27.6837C95.4528 26.2221 94.2316 24.9939 92.7311 24.9939H47.7375C46.2397 24.9939 45.0131 26.2205 45.0131 27.7183V53.1819C45.0131 54.6797 46.2397 55.9063 47.7375 55.9063H54.602C56.755 55.9063 58.6399 57.3514 59.1987 59.4306C60.2217 63.2367 65.4277 63.7158 67.1282 60.1603L67.7285 58.9051C68.6049 57.0726 70.4557 55.9063 72.4869 55.9063H92.7013C94.1991 55.9063 95.4257 54.6797 95.4257 53.1819V27.6861ZM47.7375 24.7366H92.7311C94.371 24.7366 95.7128 26.0784 95.683 27.6885V53.1819C95.683 54.8218 94.3412 56.1635 92.7013 56.1635H72.4869C70.5548 56.1635 68.7943 57.273 67.9607 59.0161L67.3603 60.2714C65.5568 64.0423 60.0352 63.5342 58.9502 59.4974C58.4216 57.5306 56.6386 56.1635 54.602 56.1635H47.7375C46.0976 56.1635 44.7559 54.8218 44.7559 53.1819V27.7183C44.7559 26.0784 46.0976 24.7366 47.7375 24.7366Z" fill="#3913B8"/>
<path d="M88.6857 22.8889H45.7533C44.1885 22.8889 42.9082 24.1692 42.9082 25.734V50.0311C42.9082 51.5959 44.1885 52.8762 45.7533 52.8762H46.8913H53.7313C54.8322 52.8762 55.7959 53.6151 56.0817 54.6782L57.7591 60.9193C58.3456 63.1013 61.3301 63.376 62.305 61.3376L65.69 54.2599C66.0944 53.4144 66.9483 52.8762 67.8856 52.8762H88.6573C90.2221 52.8762 91.5024 51.5959 91.5024 50.0311V25.7056C91.5308 24.1692 90.2505 22.8889 88.6857 22.8889Z" fill="url(#paint9_linear)"/>
<path d="M72.8292 40.2697H47.764C46.7966 40.2697 46 39.4731 46 38.5058V24.764C46 23.7966 46.7966 23 47.764 23H72.8292C73.7966 23 74.5932 23.7966 74.5932 24.764V38.5058C74.5932 39.5015 73.825 40.2697 72.8292 40.2697Z" fill="#3913B8"/>
<path d="M66.0961 38.0534H60.2067C59.6377 38.0534 59.2109 37.5982 59.2109 37.0576C59.2109 35.8627 61.2594 34.4401 62.4543 34.4401H64.0476C65.2425 34.4401 67.1203 35.8627 67.1203 37.0576C67.1203 37.6266 66.6651 38.0534 66.0961 38.0534Z" fill="#14F1D9"/>
<path d="M64.9579 30.9405C64.9579 30.0586 64.1612 29.3473 63.1655 29.3473C62.1697 29.3473 61.373 30.0586 61.373 30.9405C61.373 31.1966 61.373 32.0786 61.373 32.3346C61.373 33.2166 62.1697 33.9279 63.1655 33.9279C64.1612 33.9279 64.9579 33.2166 64.9579 32.3346C64.9579 32.0786 64.9579 31.1966 64.9579 30.9405Z" fill="#14F1D9"/>
<path opacity="0.7" d="M84.389 40.8984H46.094C45.5819 40.8984 45.1836 40.5001 45.1836 39.988C45.1836 39.4759 45.5819 39.0776 46.094 39.0776H84.389C84.9011 39.0776 85.2994 39.4759 85.2994 39.988C85.2994 40.5001 84.8726 40.8984 84.389 40.8984Z" fill="#DED6FF"/>
<g opacity="0.4" filter="url(#filter9_dd)">
<path d="M53.861 40.6992H46.3499C45.9516 40.6992 45.6387 40.3862 45.6387 39.9879C45.6387 39.5896 45.9516 39.2766 46.3499 39.2766H53.861C54.2593 39.2766 54.5723 39.5896 54.5723 39.9879C54.5723 40.3862 54.2309 40.6992 53.861 40.6992Z" fill="#F0F3F5"/>
</g>
<g opacity="0.94" filter="url(#filter10_b)">
<path d="M55.6687 43.9426H50.8036C50.4029 43.9426 50.0781 44.2674 50.0781 44.6681C50.0781 45.0687 50.4029 45.3936 50.8036 45.3936H55.6687C56.0694 45.3936 56.3942 45.0687 56.3942 44.6681C56.3942 44.2674 56.0694 43.9426 55.6687 43.9426Z" fill="white" fill-opacity="0.36"/>
</g>
<g opacity="0.94" filter="url(#filter11_b)">
<path d="M66.6223 46.7023H50.4338C50.2373 46.7023 50.0781 46.8616 50.0781 47.058C50.0781 47.2544 50.2373 47.4136 50.4338 47.4136H66.6223C66.8188 47.4136 66.978 47.2544 66.978 47.058C66.978 46.8616 66.8188 46.7023 66.6223 46.7023Z" fill="white" fill-opacity="0.36"/>
</g>
<g opacity="0.94" filter="url(#filter12_b)">
<path d="M66.6223 48.0395H50.4338C50.2373 48.0395 50.0781 48.1987 50.0781 48.3951C50.0781 48.5915 50.2373 48.7508 50.4338 48.7508H66.6223C66.8188 48.7508 66.978 48.5915 66.978 48.3951C66.978 48.1987 66.8188 48.0395 66.6223 48.0395Z" fill="white" fill-opacity="0.36"/>
</g>
<path fill-rule="evenodd" clip-rule="evenodd" d="M99.2596 35.6487H108.761C109.667 35.6487 110.406 34.92 110.433 33.9731V28.8177C110.433 27.9073 109.672 27.1455 108.761 27.1455H99.2596C98.3492 27.1455 97.5874 27.9073 97.5874 28.8177V33.9766C97.5874 34.8869 98.3492 35.6487 99.2596 35.6487ZM110.685 33.9766V28.8177C110.685 27.7684 109.811 26.894 108.761 26.894H99.2596C98.2103 26.894 97.3359 27.7684 97.3359 28.8177V33.9766C97.3359 35.0258 98.2103 35.9002 99.2596 35.9002H108.761C109.811 35.9002 110.656 35.055 110.685 33.9766Z" fill="#14F1D9"/>
<path d="M106.524 34.2124H97.2489C96.2246 34.2124 95.3711 33.3589 95.3711 32.3347V27.2988C95.3711 26.2746 96.2246 25.4211 97.2489 25.4211H106.524C107.548 25.4211 108.402 26.2746 108.402 27.2988V32.3347C108.373 33.3873 107.548 34.2124 106.524 34.2124Z" fill="#8060FD"/>
<g opacity="0.94" filter="url(#filter13_b)">
<path d="M101.004 31.8793H97.0774C96.8214 31.8793 96.5938 31.6802 96.5938 31.3957C96.5938 31.1396 96.7929 30.912 97.0774 30.912H101.004C101.26 30.912 101.487 31.1111 101.487 31.3957C101.459 31.6517 101.26 31.8793 101.004 31.8793Z" fill="white" fill-opacity="0.36"/>
</g>
<g opacity="0.94" filter="url(#filter14_b)">
<path d="M105.271 33.2735H97.0774C96.8214 33.2735 96.5938 33.0744 96.5938 32.7899C96.5938 32.5338 96.7929 32.3062 97.0774 32.3062H105.271C105.527 32.3062 105.755 32.5054 105.755 32.7899C105.755 33.0744 105.527 33.2735 105.271 33.2735Z" fill="white" fill-opacity="0.36"/>
</g>
<path d="M91.1606 34.127H81.8856C80.8613 34.127 80.0078 33.2735 80.0078 32.2493V27.2135C80.0078 26.1892 80.8613 25.3357 81.8856 25.3357H91.1606C92.1848 25.3357 93.0383 26.1892 93.0383 27.2135V32.2493C93.0383 33.302 92.2133 34.127 91.1606 34.127Z" fill="white"/>
<g filter="url(#filter15_dd)">
<path d="M85.6404 31.7939H81.7141C81.4581 31.7939 81.2305 31.5948 81.2305 31.3103C81.2305 31.0542 81.4296 30.8266 81.7141 30.8266H85.6404C85.8964 30.8266 86.124 31.0258 86.124 31.3103C86.124 31.5948 85.8964 31.7939 85.6404 31.7939Z" fill="#3913B8"/>
</g>
<g filter="url(#filter16_dd)">
<path d="M89.908 33.2736H81.7141C81.4581 33.2736 81.2305 33.0744 81.2305 32.7899C81.2305 32.5339 81.4296 32.3063 81.7141 32.3063H89.908C90.1641 32.3063 90.3917 32.5054 90.3917 32.7899C90.3632 33.046 90.1641 33.2736 89.908 33.2736Z" fill="#3913B8"/>
</g>
<path fill-rule="evenodd" clip-rule="evenodd" d="M70.8397 82.2649H80.3413C81.247 82.2649 81.9862 81.5363 82.0135 80.5893V75.4339C82.0135 74.5235 81.2517 73.7618 80.3413 73.7618H70.8397C69.9293 73.7618 69.1675 74.5235 69.1675 75.4339V80.5928C69.1675 81.5032 69.9293 82.2649 70.8397 82.2649ZM82.265 80.5928V75.4339C82.265 74.3846 81.3906 73.5103 80.3413 73.5103H70.8397C69.7904 73.5103 68.916 74.3846 68.916 75.4339V80.5928C68.916 81.6421 69.7904 82.5164 70.8397 82.5164H80.3413C81.3906 82.5164 82.2359 81.6712 82.265 80.5928Z" fill="#14F1D9"/>
<path d="M94.5532 81.5651H85.2782C84.2539 81.5651 83.4004 80.7116 83.4004 79.6874V74.6516C83.4004 73.6273 84.2539 72.7738 85.2782 72.7738H94.5532C95.5774 72.7738 96.4309 73.6273 96.4309 74.6516V79.6874C96.4025 80.7401 95.5774 81.5651 94.5532 81.5651Z" fill="#8060FD"/>
<g opacity="0.94" filter="url(#filter17_b)">
<path d="M89.0349 79.2321H85.1087C84.8526 79.2321 84.625 79.0329 84.625 78.7484C84.625 78.4924 84.8242 78.2648 85.1087 78.2648H89.0349C89.291 78.2648 89.5186 78.4639 89.5186 78.7484C89.4901 79.0045 89.291 79.2321 89.0349 79.2321Z" fill="white" fill-opacity="0.36"/>
</g>
<g opacity="0.94" filter="url(#filter18_b)">
<path d="M93.3025 80.6262H85.1087C84.8526 80.6262 84.625 80.427 84.625 80.1425C84.625 79.8865 84.8242 79.6589 85.1087 79.6589H93.3025C93.5586 79.6589 93.7862 79.858 93.7862 80.1425C93.7862 80.427 93.5586 80.6262 93.3025 80.6262Z" fill="white" fill-opacity="0.36"/>
</g>
<path fill-rule="evenodd" clip-rule="evenodd" d="M120.297 83.0015H129.798C130.704 83.0015 131.443 82.2728 131.471 81.3259V76.1705C131.471 75.2601 130.709 74.4983 129.798 74.4983H120.297C119.386 74.4983 118.625 75.2601 118.625 76.1705V81.3294C118.625 82.2397 119.386 83.0015 120.297 83.0015ZM131.722 81.3294V76.1705C131.722 75.1212 130.848 74.2468 129.798 74.2468H120.297C119.247 74.2468 118.373 75.1212 118.373 76.1705V81.3294C118.373 82.3786 119.247 83.253 120.297 83.253H129.798C130.848 83.253 131.693 82.4078 131.722 81.3294Z" fill="#14F1D9"/>
<path d="M127.563 81.5651H118.288C117.264 81.5651 116.41 80.7116 116.41 79.6874V74.6516C116.41 73.6273 117.264 72.7738 118.288 72.7738H127.563C128.587 72.7738 129.441 73.6273 129.441 74.6516V79.6874C129.412 80.7401 128.587 81.5651 127.563 81.5651Z" fill="#7B42F6"/>
<g opacity="0.94" filter="url(#filter19_b)">
<path d="M122.043 79.2321H118.116C117.86 79.2321 117.633 79.0329 117.633 78.7484C117.633 78.4924 117.832 78.2648 118.116 78.2648H122.043C122.299 78.2648 122.526 78.4639 122.526 78.7484C122.498 79.0045 122.299 79.2321 122.043 79.2321Z" fill="white" fill-opacity="0.36"/>
</g>
<g opacity="0.94" filter="url(#filter20_b)">
<path d="M126.31 80.6262H118.116C117.86 80.6262 117.633 80.427 117.633 80.1425C117.633 79.8865 117.832 79.6589 118.116 79.6589H126.31C126.566 79.6589 126.794 79.858 126.794 80.1425C126.794 80.427 126.566 80.6262 126.31 80.6262Z" fill="white" fill-opacity="0.36"/>
</g>
<path opacity="0.9" d="M79.1899 81.4797H69.9149C68.8906 81.4797 68.0371 80.6262 68.0371 79.6019V74.5661C68.0371 73.5419 68.8906 72.6884 69.9149 72.6884H79.1899C80.2141 72.6884 81.0676 73.5419 81.0676 74.5661V79.6019C81.0676 80.6546 80.2426 81.4797 79.1899 81.4797Z" fill="#14F1D9"/>
<g filter="url(#filter21_dd)">
<path d="M73.6697 79.1468H69.7434C69.4874 79.1468 69.2598 78.9476 69.2598 78.6631C69.2598 78.407 69.4589 78.1794 69.7434 78.1794H73.6697C73.9257 78.1794 74.1533 78.3786 74.1533 78.6631C74.1533 78.9476 73.9257 79.1468 73.6697 79.1468Z" fill="#7B42F6"/>
</g>
<g filter="url(#filter22_dd)">
<path d="M77.9666 80.5692H69.7727C69.5167 80.5692 69.2891 80.37 69.2891 80.0855C69.2891 79.8295 69.4882 79.6019 69.7727 79.6019H77.9666C78.2227 79.6019 78.4503 79.801 78.4503 80.0855C78.4218 80.3416 78.2227 80.5692 77.9666 80.5692Z" fill="#7B42F6"/>
</g>
<path opacity="0.9" d="M112.2 81.4797H102.925C101.9 81.4797 101.047 80.6262 101.047 79.6019V74.5661C101.047 73.5419 101.9 72.6884 102.925 72.6884H112.2C113.224 72.6884 114.077 73.5419 114.077 74.5661V79.6019C114.077 80.6546 113.252 81.4797 112.2 81.4797Z" fill="#14F1D9"/>
<g filter="url(#filter23_dd)">
<path d="M106.681 79.1468H102.755C102.499 79.1468 102.271 78.9476 102.271 78.6631C102.271 78.407 102.471 78.1794 102.755 78.1794H106.681C106.937 78.1794 107.165 78.3786 107.165 78.6631C107.165 78.9476 106.937 79.1468 106.681 79.1468Z" fill="#7B42F6"/>
</g>
<g filter="url(#filter24_dd)">
<path d="M110.976 80.5692H102.782C102.526 80.5692 102.299 80.37 102.299 80.0855C102.299 79.8295 102.498 79.6019 102.782 79.6019H110.976C111.232 79.6019 111.46 79.801 111.46 80.0855C111.432 80.3416 111.232 80.5692 110.976 80.5692Z" fill="#7B42F6"/>
</g>
<g filter="url(#filter25_dd)">
<path d="M171.839 116.741H155.977C154.033 116.741 152.449 115.158 152.449 113.214V75.875C152.449 73.9313 154.033 72.3475 155.977 72.3475H171.839C173.782 72.3475 175.366 73.9313 175.366 75.875V113.214C175.366 115.158 173.782 116.741 171.839 116.741Z" fill="#3913B8"/>
</g>
<path d="M158.521 75.2273H155.905C155.473 75.2273 155.113 74.8673 155.113 74.4354C155.113 74.0034 155.473 73.6435 155.905 73.6435H158.521C158.953 73.6435 159.313 74.0034 159.313 74.4354C159.313 74.8673 158.977 75.2273 158.521 75.2273Z" fill="#14F1D9"/>
<path d="M171.886 75.2273H169.27C168.838 75.2273 168.479 74.8674 168.479 74.4354C168.479 74.0035 168.838 73.6436 169.27 73.6436H171.886C172.318 73.6436 172.678 74.0035 172.678 74.4354C172.678 74.8674 172.342 75.2273 171.886 75.2273Z" fill="#14F1D9"/>
<g opacity="0.94" filter="url(#filter26_b)">
<path d="M168.598 114.078H159.191C158.966 114.078 158.783 114.26 158.783 114.486C158.783 114.711 158.966 114.894 159.191 114.894H168.598C168.823 114.894 169.006 114.711 169.006 114.486C169.006 114.26 168.823 114.078 168.598 114.078Z" fill="white" fill-opacity="0.36"/>
</g>
<path fill-rule="evenodd" clip-rule="evenodd" d="M44.9567 114.387C45.015 114.352 45.0903 114.372 45.1249 114.43C45.3388 114.791 46.1452 115.653 47.6024 116.06C47.6677 116.078 47.7059 116.146 47.6877 116.211C47.6695 116.277 47.6017 116.315 47.5365 116.296C46.0199 115.873 45.1607 114.972 44.9137 114.555C44.8791 114.497 44.8984 114.421 44.9567 114.387Z" fill="#3913B8"/>
<path fill-rule="evenodd" clip-rule="evenodd" d="M53.386 92.7119C53.3783 92.6446 53.4267 92.5837 53.4941 92.5761C53.5281 92.5722 53.601 92.5482 53.7164 92.4938C53.8272 92.4417 53.965 92.3676 54.1231 92.2751C54.4391 92.0902 54.8305 91.8353 55.2396 91.5444C56.0604 90.9608 56.9396 90.2413 57.4225 89.6605C57.4659 89.6084 57.5433 89.6013 57.5954 89.6447C57.6475 89.688 57.6546 89.7654 57.6113 89.8175C57.1072 90.4237 56.2065 91.1581 55.3819 91.7445C54.9683 92.0386 54.5707 92.2977 54.2471 92.487C54.0854 92.5816 53.9408 92.6596 53.821 92.716C53.7059 92.7702 53.6002 92.8111 53.5218 92.82C53.4545 92.8277 53.3937 92.7793 53.386 92.7119Z" fill="#3913B8"/>
<path fill-rule="evenodd" clip-rule="evenodd" d="M45.7828 117.44C45.8412 117.405 45.9165 117.424 45.951 117.483C46.165 117.844 46.9714 118.706 48.4286 119.113C48.4939 119.131 48.5321 119.199 48.5139 119.264C48.4956 119.329 48.4279 119.368 48.3626 119.349C46.8461 118.926 45.9869 118.025 45.7398 117.608C45.7053 117.55 45.7245 117.474 45.7828 117.44Z" fill="#3913B8"/>
<path fill-rule="evenodd" clip-rule="evenodd" d="M69.0234 27.3274C69.0234 27.2596 69.0784 27.2047 69.1462 27.2047H75.8931C75.9609 27.2047 76.0159 27.2596 76.0159 27.3274C76.0159 27.3952 75.9609 27.4502 75.8931 27.4502H69.1462C69.0784 27.4502 69.0234 27.3952 69.0234 27.3274Z" fill="#9859B6"/>
<path fill-rule="evenodd" clip-rule="evenodd" d="M69.0234 28.289C69.0234 28.2212 69.0784 28.1662 69.1462 28.1662H75.8931C75.9609 28.1662 76.0159 28.2212 76.0159 28.289C76.0159 28.3567 75.9609 28.4117 75.8931 28.4117H69.1462C69.0784 28.4117 69.0234 28.3567 69.0234 28.289Z" fill="#9859B6"/>
<rect x="146.85" y="86.9468" width="35.6" height="16.772" rx="0.742509" fill="white"/>
<path d="M146.85 86.9468H182.45V92.4653H146.85V86.9468Z" fill="#14F1D9"/>
<g opacity="0.94" filter="url(#filter27_b)">
<rect x="148.354" y="88.5698" width="3.09593" height="2.38054" rx="1.19027" fill="white" fill-opacity="0.36"/>
</g>
<g opacity="0.94" filter="url(#filter28_b)">
<rect x="151.936" y="88.5698" width="4.76109" height="2.38054" rx="1.19027" fill="white" fill-opacity="0.36"/>
</g>
<g opacity="0.94" filter="url(#filter29_b)">
<rect x="174.66" y="88.5698" width="6.05957" height="2.38054" rx="1.19027" fill="white" fill-opacity="0.36"/>
</g>
<path opacity="0.2" d="M148.582 94.7375C148.582 94.1997 149.018 93.7637 149.556 93.7637H155.746C156.283 93.7637 156.719 94.1997 156.719 94.7375C156.719 95.2754 156.283 95.7114 155.746 95.7114H149.556C149.018 95.7114 148.582 95.2754 148.582 94.7375Z" fill="url(#paint10_linear)"/>
<path opacity="0.2" d="M148.582 96.631C148.582 96.3621 148.8 96.1441 149.069 96.1441H156.233C156.501 96.1441 156.719 96.3621 156.719 96.631C156.719 96.9 156.501 97.118 156.233 97.118H149.069C148.8 97.118 148.582 96.9 148.582 96.631Z" fill="url(#paint11_linear)"/>
<path opacity="0.2" d="M148.582 101.5C148.582 101.231 148.8 101.013 149.069 101.013H159.823C160.092 101.013 160.31 101.231 160.31 101.5C160.31 101.769 160.092 101.987 159.823 101.987H149.069C148.8 101.987 148.582 101.769 148.582 101.5Z" fill="url(#paint12_linear)"/>
<rect opacity="0.4" x="146.742" y="78.5063" width="35.8164" height="4.76109" fill="#B5CDFB"/>
<path fill-rule="evenodd" clip-rule="evenodd" d="M139.332 115.005C139.417 114.825 139.631 114.747 139.811 114.832L149.631 119.451C149.927 119.589 150.121 119.884 150.12 120.218C150.117 121.105 150.104 123.761 150.032 126.198C149.996 127.415 149.945 128.583 149.873 129.449C149.837 129.88 149.795 130.247 149.745 130.512C149.72 130.641 149.69 130.765 149.65 130.863C149.631 130.911 149.6 130.975 149.552 131.033C149.505 131.089 149.399 131.187 149.232 131.187C149.178 131.187 149.127 131.177 149.097 131.17C149.06 131.162 149.021 131.151 148.981 131.139C148.901 131.114 148.801 131.079 148.687 131.036C148.459 130.951 148.155 130.828 147.797 130.676C147.081 130.373 146.136 129.951 145.111 129.471C143.067 128.513 140.687 127.318 139.18 126.382C139.011 126.277 138.959 126.055 139.064 125.886C139.169 125.717 139.391 125.666 139.56 125.77C141.028 126.682 143.376 127.863 145.417 128.819C146.435 129.296 147.372 129.715 148.078 130.013C148.432 130.163 148.724 130.282 148.94 130.362C148.973 130.375 149.005 130.386 149.034 130.397C149.035 130.39 149.036 130.384 149.038 130.377C149.081 130.151 149.12 129.814 149.156 129.389C149.226 128.543 149.277 127.39 149.313 126.176C149.384 123.75 149.397 121.101 149.4 120.216C149.4 120.169 149.374 120.125 149.325 120.102L139.505 115.483C139.325 115.399 139.247 115.184 139.332 115.005ZM148.98 130.6C148.98 130.6 148.98 130.6 148.98 130.599C148.98 130.6 148.979 130.6 148.98 130.6ZM149.263 130.47C149.264 130.47 149.265 130.47 149.265 130.47C149.265 130.47 149.265 130.47 149.263 130.47Z" fill="#8060FD"/>
<path d="M85.3008 84.9414H93.4382V86.8891H85.3008V84.9414Z" fill="#6F53DC"/>
<path d="M85.3008 87.3218H93.4382V88.2956H85.3008V87.3218Z" fill="#6F53DC"/>
<path d="M85.3008 90.2446H97.0284V91.2185H85.3008V90.2446Z" fill="#6F53DC"/>
<path d="M118.373 84.9414H126.511V86.8891H118.373V84.9414Z" fill="#6F53DC"/>
<path d="M118.373 87.3218H126.511V88.2956H118.373V87.3218Z" fill="#6F53DC"/>
<path d="M118.373 90.2446H130.101V91.2185H118.373V90.2446Z" fill="#6F53DC"/>
<path d="M55.6832 40.6992H51.5863C51.188 40.6992 50.875 40.3862 50.875 39.9879C50.875 39.5896 51.188 39.2766 51.5863 39.2766H55.6832C56.0815 39.2766 56.3945 39.5896 56.3945 39.9879C56.3945 40.3862 56.0815 40.6992 55.6832 40.6992Z" fill="#8060FD"/>
<circle cx="59.9772" cy="64.0828" r="2.95771" fill="url(#paint13_linear)"/>
<g opacity="0.9" filter="url(#filter30_b)">
<circle cx="177.593" cy="46.7594" r="5.26124" fill="url(#paint14_linear)"/>
</g>
<path d="M37.7715 55.8469C38.1589 55.1988 39.1264 53.8562 40.3252 53.5502C41.1036 53.3515 42.1948 53.6906 42.399 53.8245" stroke="#5EFFED" stroke-width="0.112309" stroke-linecap="round"/>
<path fill-rule="evenodd" clip-rule="evenodd" d="M41.6422 63.5319L41.6452 63.5318C41.6482 63.5317 41.6532 63.5316 41.6601 63.5316C41.6738 63.5316 41.6951 63.5318 41.7233 63.533C41.7798 63.5355 41.864 63.5418 41.9711 63.5575C42.1854 63.5889 42.4912 63.6579 42.8504 63.8086C42.9254 63.84 43.0116 63.8047 43.0431 63.7297C43.0745 63.6547 43.0392 63.5685 42.9643 63.537C42.5796 63.3757 42.2495 63.3007 42.0138 63.2662C41.896 63.2489 41.8017 63.2417 41.7359 63.2389C41.703 63.2375 41.6773 63.2371 41.6592 63.2372C41.6502 63.2372 41.6431 63.2373 41.638 63.2375L41.6319 63.2376L41.63 63.2377L41.6293 63.2377L41.629 63.2378C41.629 63.2378 41.6288 63.2378 41.6355 63.3848L41.629 63.2378C41.5478 63.2414 41.4847 63.3103 41.4884 63.3915C41.4921 63.4727 41.561 63.5355 41.6422 63.5319L41.6418 63.5319C41.6418 63.5319 41.6418 63.5319 41.6418 63.5319L41.6422 63.5319Z" fill="#131845"/>
<path d="M41.873 63.4089H42.0203L42.1675 63.4087L42.1675 63.4093L42.1675 63.413C42.1676 63.4165 42.1677 63.4221 42.168 63.4294C42.1686 63.4442 42.1698 63.4662 42.1722 63.4936C42.177 63.5486 42.1866 63.6239 42.2056 63.7054C42.2453 63.8753 42.3185 64.0409 42.4418 64.129C42.508 64.1763 42.5233 64.2682 42.476 64.3344C42.4288 64.4005 42.3368 64.4158 42.2707 64.3686C42.058 64.2167 41.9632 63.9624 41.9189 63.7723C41.8959 63.6739 41.8845 63.5842 41.8789 63.5192C41.876 63.4866 41.8746 63.4598 41.8738 63.4409C41.8734 63.4314 41.8733 63.4238 41.8732 63.4184L41.8731 63.412L41.873 63.41L41.873 63.4093L41.873 63.4089Z" fill="#131845"/>
<defs>
<filter id="filter0_b" x="6.72643" y="85.8235" width="29.864" height="29.4192" filterUnits="userSpaceOnUse" color-interpolation-filters="sRGB">
<feFlood flood-opacity="0" result="BackgroundImageFix"/>
<feGaussianBlur in="BackgroundImage" stdDeviation="1.57233"/>
<feComposite in2="SourceAlpha" operator="in" result="effect1_backgroundBlur"/>
<feBlend mode="normal" in="SourceGraphic" in2="effect1_backgroundBlur" result="shape"/>
</filter>
<filter id="filter1_bd" x="39.0819" y="60.4275" width="6.7643" height="6.82332" filterUnits="userSpaceOnUse" color-interpolation-filters="sRGB">
<feFlood flood-opacity="0" result="BackgroundImageFix"/>
<feGaussianBlur in="BackgroundImage" stdDeviation="1.57233"/>
<feComposite in2="SourceAlpha" operator="in" result="effect1_backgroundBlur"/>
<feColorMatrix in="SourceAlpha" type="matrix" values="0 0 0 0 0 0 0 0 0 0 0 0 0 0 0 0 0 0 127 0"/>
<feOffset dy="0.449237"/>
<feGaussianBlur stdDeviation="0.673856"/>
<feColorMatrix type="matrix" values="0 0 0 0 0.132367 0 0 0 0 0.0383334 0 0 0 0 0.4 0 0 0 0.25 0"/>
<feBlend mode="normal" in2="effect1_backgroundBlur" result="effect2_dropShadow"/>
<feBlend mode="normal" in="SourceGraphic" in2="effect2_dropShadow" result="shape"/>
</filter>
<filter id="filter2_bd" x="68.2499" y="9.42034" width="31.2641" height="29.608" filterUnits="userSpaceOnUse" color-interpolation-filters="sRGB">
<feFlood flood-opacity="0" result="BackgroundImageFix"/>
<feGaussianBlur in="BackgroundImage" stdDeviation="1.57233"/>
<feComposite in2="SourceAlpha" operator="in" result="effect1_backgroundBlur"/>
<feColorMatrix in="SourceAlpha" type="matrix" values="0 0 0 0 0 0 0 0 0 0 0 0 0 0 0 0 0 0 127 0"/>
<feOffset dy="0.449237"/>
<feGaussianBlur stdDeviation="0.673856"/>
<feColorMatrix type="matrix" values="0 0 0 0 0.132367 0 0 0 0 0.0383334 0 0 0 0 0.4 0 0 0 0.25 0"/>
<feBlend mode="normal" in2="effect1_backgroundBlur" result="effect2_dropShadow"/>
<feBlend mode="normal" in="SourceGraphic" in2="effect2_dropShadow" result="shape"/>
</filter>
<filter id="filter3_bd" x="55.9413" y="12.6406" width="20.6967" height="21.7043" filterUnits="userSpaceOnUse" color-interpolation-filters="sRGB">
<feFlood flood-opacity="0" result="BackgroundImageFix"/>
<feGaussianBlur in="BackgroundImage" stdDeviation="1.57233"/>
<feComposite in2="SourceAlpha" operator="in" result="effect1_backgroundBlur"/>
<feColorMatrix in="SourceAlpha" type="matrix" values="0 0 0 0 0 0 0 0 0 0 0 0 0 0 0 0 0 0 127 0"/>
<feOffset dy="0.449237"/>
<feGaussianBlur stdDeviation="0.673856"/>
<feColorMatrix type="matrix" values="0 0 0 0 0.132367 0 0 0 0 0.0383334 0 0 0 0 0.4 0 0 0 0.25 0"/>
<feBlend mode="normal" in2="effect1_backgroundBlur" result="effect2_dropShadow"/>
<feBlend mode="normal" in="SourceGraphic" in2="effect2_dropShadow" result="shape"/>
</filter>
<filter id="filter4_bd" x="45.2089" y="15.8379" width="12.8526" height="19.5954" filterUnits="userSpaceOnUse" color-interpolation-filters="sRGB">
<feFlood flood-opacity="0" result="BackgroundImageFix"/>
<feGaussianBlur in="BackgroundImage" stdDeviation="1.57233"/>
<feComposite in2="SourceAlpha" operator="in" result="effect1_backgroundBlur"/>
<feColorMatrix in="SourceAlpha" type="matrix" values="0 0 0 0 0 0 0 0 0 0 0 0 0 0 0 0 0 0 127 0"/>
<feOffset dy="0.449237"/>
<feGaussianBlur stdDeviation="0.673856"/>
<feColorMatrix type="matrix" values="0 0 0 0 0.132367 0 0 0 0 0.0383334 0 0 0 0 0.4 0 0 0 0.25 0"/>
<feBlend mode="normal" in2="effect1_backgroundBlur" result="effect2_dropShadow"/>
<feBlend mode="normal" in="SourceGraphic" in2="effect2_dropShadow" result="shape"/>
</filter>
<filter id="filter5_b" x="25.5917" y="26.7627" width="30.4867" height="30.4867" filterUnits="userSpaceOnUse" color-interpolation-filters="sRGB">
<feFlood flood-opacity="0" result="BackgroundImageFix"/>
<feGaussianBlur in="BackgroundImage" stdDeviation="1.57233"/>
<feComposite in2="SourceAlpha" operator="in" result="effect1_backgroundBlur"/>
<feBlend mode="normal" in="SourceGraphic" in2="effect1_backgroundBlur" result="shape"/>
</filter>
<filter id="filter6_b" x="30.2616" y="54.1451" width="12.0005" height="12.0005" filterUnits="userSpaceOnUse" color-interpolation-filters="sRGB">
<feFlood flood-opacity="0" result="BackgroundImageFix"/>
<feGaussianBlur in="BackgroundImage" stdDeviation="1.57233"/>
<feComposite in2="SourceAlpha" operator="in" result="effect1_backgroundBlur"/>
<feBlend mode="normal" in="SourceGraphic" in2="effect1_backgroundBlur" result="shape"/>
</filter>
<filter id="filter7_b" x="31.9491" y="55.5493" width="8.62585" height="8.62585" filterUnits="userSpaceOnUse" color-interpolation-filters="sRGB">
<feFlood flood-opacity="0" result="BackgroundImageFix"/>
<feGaussianBlur in="BackgroundImage" stdDeviation="1.57233"/>
<feComposite in2="SourceAlpha" operator="in" result="effect1_backgroundBlur"/>
<feBlend mode="normal" in="SourceGraphic" in2="effect1_backgroundBlur" result="shape"/>
</filter>
<filter id="filter8_b" x="21.074" y="20.6954" width="153.502" height="14.2256" filterUnits="userSpaceOnUse" color-interpolation-filters="sRGB">
<feFlood flood-opacity="0" result="BackgroundImageFix"/>
<feGaussianBlur in="BackgroundImage" stdDeviation="2.02062"/>
<feComposite in2="SourceAlpha" operator="in" result="effect1_backgroundBlur"/>
<feBlend mode="normal" in="SourceGraphic" in2="effect1_backgroundBlur" result="shape"/>
</filter>
<filter id="filter9_dd" x="41.5909" y="37.2527" width="17.0291" height="9.51807" filterUnits="userSpaceOnUse" color-interpolation-filters="sRGB">
<feFlood flood-opacity="0" result="BackgroundImageFix"/>
<feColorMatrix in="SourceAlpha" type="matrix" values="0 0 0 0 0 0 0 0 0 0 0 0 0 0 0 0 0 0 127 0"/>
<feOffset dy="2.02388"/>
<feGaussianBlur stdDeviation="2.02388"/>
<feColorMatrix type="matrix" values="0 0 0 0 0.36 0 0 0 0 0.404445 0 0 0 0 0.6 0 0 0 0.2 0"/>
<feBlend mode="normal" in2="BackgroundImageFix" result="effect1_dropShadow"/>
<feColorMatrix in="SourceAlpha" type="matrix" values="0 0 0 0 0 0 0 0 0 0 0 0 0 0 0 0 0 0 127 0"/>
<feOffset dy="0.101194"/>
<feGaussianBlur stdDeviation="0.151791"/>
<feColorMatrix type="matrix" values="0 0 0 0 0 0 0 0 0 0 0 0 0 0 0 0 0 0 0.05 0"/>
<feBlend mode="normal" in2="effect1_dropShadow" result="effect2_dropShadow"/>
<feBlend mode="normal" in="SourceGraphic" in2="effect2_dropShadow" result="shape"/>
</filter>
<filter id="filter10_b" x="40.9092" y="34.7736" width="24.654" height="19.7889" filterUnits="userSpaceOnUse" color-interpolation-filters="sRGB">
<feFlood flood-opacity="0" result="BackgroundImageFix"/>
<feGaussianBlur in="BackgroundImage" stdDeviation="4.58447"/>
<feComposite in2="SourceAlpha" operator="in" result="effect1_backgroundBlur"/>
<feBlend mode="normal" in="SourceGraphic" in2="effect1_backgroundBlur" result="shape"/>
</filter>
<filter id="filter11_b" x="40.9092" y="37.5334" width="35.2377" height="19.0491" filterUnits="userSpaceOnUse" color-interpolation-filters="sRGB">
<feFlood flood-opacity="0" result="BackgroundImageFix"/>
<feGaussianBlur in="BackgroundImage" stdDeviation="4.58447"/>
<feComposite in2="SourceAlpha" operator="in" result="effect1_backgroundBlur"/>
<feBlend mode="normal" in="SourceGraphic" in2="effect1_backgroundBlur" result="shape"/>
</filter>
<filter id="filter12_b" x="40.9092" y="38.8706" width="35.2377" height="19.0491" filterUnits="userSpaceOnUse" color-interpolation-filters="sRGB">
<feFlood flood-opacity="0" result="BackgroundImageFix"/>
<feGaussianBlur in="BackgroundImage" stdDeviation="4.58447"/>
<feComposite in2="SourceAlpha" operator="in" result="effect1_backgroundBlur"/>
<feBlend mode="normal" in="SourceGraphic" in2="effect1_backgroundBlur" result="shape"/>
</filter>
<filter id="filter13_b" x="87.4248" y="21.7431" width="23.2314" height="19.3052" filterUnits="userSpaceOnUse" color-interpolation-filters="sRGB">
<feFlood flood-opacity="0" result="BackgroundImageFix"/>
<feGaussianBlur in="BackgroundImage" stdDeviation="4.58447"/>
<feComposite in2="SourceAlpha" operator="in" result="effect1_backgroundBlur"/>
<feBlend mode="normal" in="SourceGraphic" in2="effect1_backgroundBlur" result="shape"/>
</filter>
<filter id="filter14_b" x="87.4248" y="23.1373" width="27.4991" height="19.3052" filterUnits="userSpaceOnUse" color-interpolation-filters="sRGB">
<feFlood flood-opacity="0" result="BackgroundImageFix"/>
<feGaussianBlur in="BackgroundImage" stdDeviation="4.58447"/>
<feComposite in2="SourceAlpha" operator="in" result="effect1_backgroundBlur"/>
<feBlend mode="normal" in="SourceGraphic" in2="effect1_backgroundBlur" result="shape"/>
</filter>
<filter id="filter15_dd" x="77.1827" y="28.8027" width="12.9891" height="9.06285" filterUnits="userSpaceOnUse" color-interpolation-filters="sRGB">
<feFlood flood-opacity="0" result="BackgroundImageFix"/>
<feColorMatrix in="SourceAlpha" type="matrix" values="0 0 0 0 0 0 0 0 0 0 0 0 0 0 0 0 0 0 127 0"/>
<feOffset dy="2.02388"/>
<feGaussianBlur stdDeviation="2.02388"/>
<feColorMatrix type="matrix" values="0 0 0 0 0.36 0 0 0 0 0.404445 0 0 0 0 0.6 0 0 0 0.2 0"/>
<feBlend mode="normal" in2="BackgroundImageFix" result="effect1_dropShadow"/>
<feColorMatrix in="SourceAlpha" type="matrix" values="0 0 0 0 0 0 0 0 0 0 0 0 0 0 0 0 0 0 127 0"/>
<feOffset dy="0.101194"/>
<feGaussianBlur stdDeviation="0.151791"/>
<feColorMatrix type="matrix" values="0 0 0 0 0 0 0 0 0 0 0 0 0 0 0 0 0 0 0.05 0"/>
<feBlend mode="normal" in2="effect1_dropShadow" result="effect2_dropShadow"/>
<feBlend mode="normal" in="SourceGraphic" in2="effect2_dropShadow" result="shape"/>
</filter>
<filter id="filter16_dd" x="77.1827" y="30.2824" width="17.2567" height="9.06285" filterUnits="userSpaceOnUse" color-interpolation-filters="sRGB">
<feFlood flood-opacity="0" result="BackgroundImageFix"/>
<feColorMatrix in="SourceAlpha" type="matrix" values="0 0 0 0 0 0 0 0 0 0 0 0 0 0 0 0 0 0 127 0"/>
<feOffset dy="2.02388"/>
<feGaussianBlur stdDeviation="2.02388"/>
<feColorMatrix type="matrix" values="0 0 0 0 0.36 0 0 0 0 0.404445 0 0 0 0 0.6 0 0 0 0.2 0"/>
<feBlend mode="normal" in2="BackgroundImageFix" result="effect1_dropShadow"/>
<feColorMatrix in="SourceAlpha" type="matrix" values="0 0 0 0 0 0 0 0 0 0 0 0 0 0 0 0 0 0 127 0"/>
<feOffset dy="0.101194"/>
<feGaussianBlur stdDeviation="0.151791"/>
<feColorMatrix type="matrix" values="0 0 0 0 0 0 0 0 0 0 0 0 0 0 0 0 0 0 0.05 0"/>
<feBlend mode="normal" in2="effect1_dropShadow" result="effect2_dropShadow"/>
<feBlend mode="normal" in="SourceGraphic" in2="effect2_dropShadow" result="shape"/>
</filter>
<filter id="filter17_b" x="75.4561" y="69.0958" width="23.2314" height="19.3052" filterUnits="userSpaceOnUse" color-interpolation-filters="sRGB">
<feFlood flood-opacity="0" result="BackgroundImageFix"/>
<feGaussianBlur in="BackgroundImage" stdDeviation="4.58447"/>
<feComposite in2="SourceAlpha" operator="in" result="effect1_backgroundBlur"/>
<feBlend mode="normal" in="SourceGraphic" in2="effect1_backgroundBlur" result="shape"/>
</filter>
<filter id="filter18_b" x="75.4561" y="70.4899" width="27.4991" height="19.3052" filterUnits="userSpaceOnUse" color-interpolation-filters="sRGB">
<feFlood flood-opacity="0" result="BackgroundImageFix"/>
<feGaussianBlur in="BackgroundImage" stdDeviation="4.58447"/>
<feComposite in2="SourceAlpha" operator="in" result="effect1_backgroundBlur"/>
<feBlend mode="normal" in="SourceGraphic" in2="effect1_backgroundBlur" result="shape"/>
</filter>
<filter id="filter19_b" x="108.464" y="69.0958" width="23.2314" height="19.3052" filterUnits="userSpaceOnUse" color-interpolation-filters="sRGB">
<feFlood flood-opacity="0" result="BackgroundImageFix"/>
<feGaussianBlur in="BackgroundImage" stdDeviation="4.58447"/>
<feComposite in2="SourceAlpha" operator="in" result="effect1_backgroundBlur"/>
<feBlend mode="normal" in="SourceGraphic" in2="effect1_backgroundBlur" result="shape"/>
</filter>
<filter id="filter20_b" x="108.464" y="70.4899" width="27.4991" height="19.3052" filterUnits="userSpaceOnUse" color-interpolation-filters="sRGB">
<feFlood flood-opacity="0" result="BackgroundImageFix"/>
<feGaussianBlur in="BackgroundImage" stdDeviation="4.58447"/>
<feComposite in2="SourceAlpha" operator="in" result="effect1_backgroundBlur"/>
<feBlend mode="normal" in="SourceGraphic" in2="effect1_backgroundBlur" result="shape"/>
</filter>
<filter id="filter21_dd" x="65.212" y="76.1556" width="12.9891" height="9.06285" filterUnits="userSpaceOnUse" color-interpolation-filters="sRGB">
<feFlood flood-opacity="0" result="BackgroundImageFix"/>
<feColorMatrix in="SourceAlpha" type="matrix" values="0 0 0 0 0 0 0 0 0 0 0 0 0 0 0 0 0 0 127 0"/>
<feOffset dy="2.02388"/>
<feGaussianBlur stdDeviation="2.02388"/>
<feColorMatrix type="matrix" values="0 0 0 0 0.36 0 0 0 0 0.404445 0 0 0 0 0.6 0 0 0 0.2 0"/>
<feBlend mode="normal" in2="BackgroundImageFix" result="effect1_dropShadow"/>
<feColorMatrix in="SourceAlpha" type="matrix" values="0 0 0 0 0 0 0 0 0 0 0 0 0 0 0 0 0 0 127 0"/>
<feOffset dy="0.101194"/>
<feGaussianBlur stdDeviation="0.151791"/>
<feColorMatrix type="matrix" values="0 0 0 0 0 0 0 0 0 0 0 0 0 0 0 0 0 0 0.05 0"/>
<feBlend mode="normal" in2="effect1_dropShadow" result="effect2_dropShadow"/>
<feBlend mode="normal" in="SourceGraphic" in2="effect2_dropShadow" result="shape"/>
</filter>
<filter id="filter22_dd" x="65.2413" y="77.578" width="17.2567" height="9.06285" filterUnits="userSpaceOnUse" color-interpolation-filters="sRGB">
<feFlood flood-opacity="0" result="BackgroundImageFix"/>
<feColorMatrix in="SourceAlpha" type="matrix" values="0 0 0 0 0 0 0 0 0 0 0 0 0 0 0 0 0 0 127 0"/>
<feOffset dy="2.02388"/>
<feGaussianBlur stdDeviation="2.02388"/>
<feColorMatrix type="matrix" values="0 0 0 0 0.36 0 0 0 0 0.404445 0 0 0 0 0.6 0 0 0 0.2 0"/>
<feBlend mode="normal" in2="BackgroundImageFix" result="effect1_dropShadow"/>
<feColorMatrix in="SourceAlpha" type="matrix" values="0 0 0 0 0 0 0 0 0 0 0 0 0 0 0 0 0 0 127 0"/>
<feOffset dy="0.101194"/>
<feGaussianBlur stdDeviation="0.151791"/>
<feColorMatrix type="matrix" values="0 0 0 0 0 0 0 0 0 0 0 0 0 0 0 0 0 0 0.05 0"/>
<feBlend mode="normal" in2="effect1_dropShadow" result="effect2_dropShadow"/>
<feBlend mode="normal" in="SourceGraphic" in2="effect2_dropShadow" result="shape"/>
</filter>
<filter id="filter23_dd" x="98.2237" y="76.1556" width="12.9891" height="9.06285" filterUnits="userSpaceOnUse" color-interpolation-filters="sRGB">
<feFlood flood-opacity="0" result="BackgroundImageFix"/>
<feColorMatrix in="SourceAlpha" type="matrix" values="0 0 0 0 0 0 0 0 0 0 0 0 0 0 0 0 0 0 127 0"/>
<feOffset dy="2.02388"/>
<feGaussianBlur stdDeviation="2.02388"/>
<feColorMatrix type="matrix" values="0 0 0 0 0.36 0 0 0 0 0.404445 0 0 0 0 0.6 0 0 0 0.2 0"/>
<feBlend mode="normal" in2="BackgroundImageFix" result="effect1_dropShadow"/>
<feColorMatrix in="SourceAlpha" type="matrix" values="0 0 0 0 0 0 0 0 0 0 0 0 0 0 0 0 0 0 127 0"/>
<feOffset dy="0.101194"/>
<feGaussianBlur stdDeviation="0.151791"/>
<feColorMatrix type="matrix" values="0 0 0 0 0 0 0 0 0 0 0 0 0 0 0 0 0 0 0.05 0"/>
<feBlend mode="normal" in2="effect1_dropShadow" result="effect2_dropShadow"/>
<feBlend mode="normal" in="SourceGraphic" in2="effect2_dropShadow" result="shape"/>
</filter>
<filter id="filter24_dd" x="98.2511" y="77.578" width="17.2567" height="9.06285" filterUnits="userSpaceOnUse" color-interpolation-filters="sRGB">
<feFlood flood-opacity="0" result="BackgroundImageFix"/>
<feColorMatrix in="SourceAlpha" type="matrix" values="0 0 0 0 0 0 0 0 0 0 0 0 0 0 0 0 0 0 127 0"/>
<feOffset dy="2.02388"/>
<feGaussianBlur stdDeviation="2.02388"/>
<feColorMatrix type="matrix" values="0 0 0 0 0.36 0 0 0 0 0.404445 0 0 0 0 0.6 0 0 0 0.2 0"/>
<feBlend mode="normal" in2="BackgroundImageFix" result="effect1_dropShadow"/>
<feColorMatrix in="SourceAlpha" type="matrix" values="0 0 0 0 0 0 0 0 0 0 0 0 0 0 0 0 0 0 127 0"/>
<feOffset dy="0.101194"/>
<feGaussianBlur stdDeviation="0.151791"/>
<feColorMatrix type="matrix" values="0 0 0 0 0 0 0 0 0 0 0 0 0 0 0 0 0 0 0.05 0"/>
<feBlend mode="normal" in2="effect1_dropShadow" result="effect2_dropShadow"/>
<feBlend mode="normal" in="SourceGraphic" in2="effect2_dropShadow" result="shape"/>
</filter>
<filter id="filter25_dd" x="148.341" y="70.2935" width="31.1331" height="52.6101" filterUnits="userSpaceOnUse" color-interpolation-filters="sRGB">
<feFlood flood-opacity="0" result="BackgroundImageFix"/>
<feColorMatrix in="SourceAlpha" type="matrix" values="0 0 0 0 0 0 0 0 0 0 0 0 0 0 0 0 0 0 127 0"/>
<feOffset dy="2.05406"/>
<feGaussianBlur stdDeviation="2.05406"/>
<feColorMatrix type="matrix" values="0 0 0 0 0.36 0 0 0 0 0.404445 0 0 0 0 0.6 0 0 0 0.2 0"/>
<feBlend mode="normal" in2="BackgroundImageFix" result="effect1_dropShadow"/>
<feColorMatrix in="SourceAlpha" type="matrix" values="0 0 0 0 0 0 0 0 0 0 0 0 0 0 0 0 0 0 127 0"/>
<feOffset dy="0.102703"/>
<feGaussianBlur stdDeviation="0.154055"/>
<feColorMatrix type="matrix" values="0 0 0 0 0 0 0 0 0 0 0 0 0 0 0 0 0 0 0.05 0"/>
<feBlend mode="normal" in2="effect1_dropShadow" result="effect2_dropShadow"/>
<feBlend mode="normal" in="SourceGraphic" in2="effect2_dropShadow" result="shape"/>
</filter>
<filter id="filter26_b" x="154.742" y="110.037" width="18.305" height="8.89835" filterUnits="userSpaceOnUse" color-interpolation-filters="sRGB">
<feFlood flood-opacity="0" result="BackgroundImageFix"/>
<feGaussianBlur in="BackgroundImage" stdDeviation="2.02062"/>
<feComposite in2="SourceAlpha" operator="in" result="effect1_backgroundBlur"/>
<feBlend mode="normal" in="SourceGraphic" in2="effect1_backgroundBlur" result="shape"/>
</filter>
<filter id="filter27_b" x="139.185" y="79.4009" width="21.4338" height="20.7184" filterUnits="userSpaceOnUse" color-interpolation-filters="sRGB">
<feFlood flood-opacity="0" result="BackgroundImageFix"/>
<feGaussianBlur in="BackgroundImage" stdDeviation="4.58447"/>
<feComposite in2="SourceAlpha" operator="in" result="effect1_backgroundBlur"/>
<feBlend mode="normal" in="SourceGraphic" in2="effect1_backgroundBlur" result="shape"/>
</filter>
<filter id="filter28_b" x="142.767" y="79.4009" width="23.0989" height="20.7184" filterUnits="userSpaceOnUse" color-interpolation-filters="sRGB">
<feFlood flood-opacity="0" result="BackgroundImageFix"/>
<feGaussianBlur in="BackgroundImage" stdDeviation="4.58447"/>
<feComposite in2="SourceAlpha" operator="in" result="effect1_backgroundBlur"/>
<feBlend mode="normal" in="SourceGraphic" in2="effect1_backgroundBlur" result="shape"/>
</filter>
<filter id="filter29_b" x="165.491" y="79.4009" width="24.3974" height="20.7184" filterUnits="userSpaceOnUse" color-interpolation-filters="sRGB">
<feFlood flood-opacity="0" result="BackgroundImageFix"/>
<feGaussianBlur in="BackgroundImage" stdDeviation="4.58447"/>
<feComposite in2="SourceAlpha" operator="in" result="effect1_backgroundBlur"/>
<feBlend mode="normal" in="SourceGraphic" in2="effect1_backgroundBlur" result="shape"/>
</filter>
<filter id="filter30_b" x="169.187" y="38.3535" width="16.8118" height="16.8118" filterUnits="userSpaceOnUse" color-interpolation-filters="sRGB">
<feFlood flood-opacity="0" result="BackgroundImageFix"/>
<feGaussianBlur in="BackgroundImage" stdDeviation="1.57233"/>
<feComposite in2="SourceAlpha" operator="in" result="effect1_backgroundBlur"/>
<feBlend mode="normal" in="SourceGraphic" in2="effect1_backgroundBlur" result="shape"/>
</filter>
<linearGradient id="paint0_linear" x1="20.0458" y1="82.2703" x2="31.4723" y2="102.931" gradientUnits="userSpaceOnUse">
<stop offset="0.0656958" stop-color="#8364F9"/>
<stop offset="1" stop-color="#492BBF"/>
</linearGradient>
<linearGradient id="paint1_linear" x1="134.413" y1="104.718" x2="145.84" y2="125.378" gradientUnits="userSpaceOnUse">
<stop offset="0.0656958" stop-color="#8364F9"/>
<stop offset="1" stop-color="#492BBF"/>
</linearGradient>
<linearGradient id="paint2_linear" x1="42.2636" y1="63.7298" x2="42.4904" y2="63.8004" gradientUnits="userSpaceOnUse">
<stop offset="0.0656958" stop-color="#2E29C2"/>
<stop offset="1" stop-color="#25217C"/>
</linearGradient>
<linearGradient id="paint3_linear" x1="90.9632" y1="26.0099" x2="81.1668" y2="30.294" gradientUnits="userSpaceOnUse">
<stop offset="0.0656958" stop-color="#8364F9"/>
<stop offset="1" stop-color="#492BBF"/>
</linearGradient>
<linearGradient id="paint4_linear" x1="68.7357" y1="24.6516" x2="62.3262" y2="27.3919" gradientUnits="userSpaceOnUse">
<stop offset="0.0656958" stop-color="#8364F9"/>
<stop offset="1" stop-color="#492BBF"/>
</linearGradient>
<linearGradient id="paint5_linear" x1="53.7315" y1="25.7726" x2="50.3862" y2="29.3924" gradientUnits="userSpaceOnUse">
<stop offset="0.0656958" stop-color="#8364F9"/>
<stop offset="1" stop-color="#492BBF"/>
</linearGradient>
<linearGradient id="paint6_linear" x1="39.3134" y1="26.411" x2="47.6292" y2="38.32" gradientUnits="userSpaceOnUse">
<stop offset="0.0656958" stop-color="#8364F9"/>
<stop offset="1" stop-color="#492BBF"/>
</linearGradient>
<linearGradient id="paint7_linear" x1="35.9027" y1="56.4645" x2="37.8654" y2="59.2753" gradientUnits="userSpaceOnUse">
<stop offset="0.0656958" stop-color="#8364F9"/>
<stop offset="1" stop-color="#492BBF"/>
</linearGradient>
<linearGradient id="paint8_linear" x1="36.1151" y1="58.3564" x2="36.9181" y2="59.5063" gradientUnits="userSpaceOnUse">
<stop offset="0.0656958" stop-color="#4541C3"/>
<stop offset="1" stop-color="#5853D8"/>
</linearGradient>
<linearGradient id="paint9_linear" x1="63.8813" y1="10.0366" x2="84.9509" y2="50.9604" gradientUnits="userSpaceOnUse">
<stop offset="0.0656958" stop-color="#8364F9"/>
<stop offset="1" stop-color="#492BBF"/>
</linearGradient>
<linearGradient id="paint10_linear" x1="152.651" y1="96.0214" x2="152.346" y2="93.7325" gradientUnits="userSpaceOnUse">
<stop offset="0.0656958" stop-color="#060606"/>
<stop offset="1" stop-color="#59316C"/>
</linearGradient>
<linearGradient id="paint11_linear" x1="152.651" y1="97.273" x2="152.573" y2="96.1134" gradientUnits="userSpaceOnUse">
<stop offset="0.0656958" stop-color="#060606"/>
<stop offset="1" stop-color="#59316C"/>
</linearGradient>
<linearGradient id="paint12_linear" x1="154.446" y1="102.142" x2="154.392" y2="100.98" gradientUnits="userSpaceOnUse">
<stop offset="0.0656958" stop-color="#060606"/>
<stop offset="1" stop-color="#59316C"/>
</linearGradient>
<linearGradient id="paint13_linear" x1="59.5726" y1="59.4122" x2="62.5243" y2="64.6484" gradientUnits="userSpaceOnUse">
<stop offset="0.0656958" stop-color="#8364F9"/>
<stop offset="1" stop-color="#492BBF"/>
</linearGradient>
<linearGradient id="paint14_linear" x1="176.873" y1="38.4511" x2="182.124" y2="47.7655" gradientUnits="userSpaceOnUse">
<stop offset="0.0656958" stop-color="#8364F9"/>
<stop offset="1" stop-color="#492BBF"/>
</linearGradient>
</defs>
</svg>
