<svg width="200" height="150" viewBox="0 0 200 150" fill="none" xmlns="http://www.w3.org/2000/svg">
<path opacity="0.1" d="M194.143 136.189C189.11 141.773 70.8517 139.177 51.1115 139.413C0.830105 108.427 -3.2595 60.3475 7.12182 33.8175C11.8144 21.8369 25.158 9.12241 41.0447 6.42224C60.5752 3.11909 77.7462 16.9609 85.5322 23.2264C109.624 42.6257 109.415 62.8642 122.863 63.9915C137.596 65.2235 142.682 39.0342 163.864 37.6972C176.946 36.8585 186.252 46.0337 187.406 47.1872C198.337 58.2765 199.543 77.073 192.255 87.9525C185.099 98.6482 171.152 99.8805 171.624 103.97C172.096 107.876 186.751 105.333 193.724 114.246C198.443 120.25 198.914 130.893 194.143 136.189Z" fill="#3913B8"/>
<path opacity="0.19" d="M129.775 94.25H121C120.775 94.25 120.6 94.075 120.6 93.85V88.4C120.6 88.175 120.775 88 121 88H129.775C130 88 130.175 88.175 130.175 88.4V93.85C130.175 94.05 130 94.25 129.775 94.25Z" stroke="#2249B3" stroke-width="0.25"/>
<path opacity="0.19" d="M129.775 79.75H121C120.775 79.75 120.6 79.575 120.6 79.35V73.9C120.6 73.675 120.775 73.5 121 73.5H129.775C130 73.5 130.175 73.675 130.175 73.9V79.35C130.175 79.575 130 79.75 129.775 79.75Z" stroke="#2249B3" stroke-width="0.25"/>
<path d="M99.9508 86.0125H10.7133C9.92688 86.0125 9.27148 85.357 9.27148 84.5705V44.959C9.27148 44.1725 9.92688 43.517 10.7133 43.517H70.1438C70.2225 43.517 70.275 43.5695 70.275 43.6482C70.275 43.7267 70.2225 43.7792 70.1438 43.7792H10.7133C10.058 43.7792 9.53366 44.3035 9.53366 44.959V84.5705C9.53366 85.226 10.058 85.7502 10.7133 85.7502H99.9508C100.03 85.7502 100.082 85.8027 100.082 85.8812C100.082 85.96 100.003 86.0125 99.9508 86.0125Z" fill="black"/>
<path d="M174.901 83.4432H120.844C119.979 83.4432 119.271 82.7355 119.271 81.8705V71.253C119.271 70.388 119.979 69.6802 120.844 69.6802H174.901C175.766 69.6802 176.474 70.388 176.474 71.253V81.8705C176.474 82.7355 175.766 83.4432 174.901 83.4432ZM120.844 70.2045C120.268 70.2045 119.796 70.6762 119.796 71.253V81.8705C119.796 82.447 120.268 82.919 120.844 82.919H174.901C175.477 82.919 175.949 82.447 175.949 81.8705V71.253C175.949 70.6762 175.477 70.2045 174.901 70.2045H120.844Z" fill="#3913B8"/>
<path d="M174.823 98.753H120.766C119.901 98.753 119.193 98.0452 119.193 97.1802V86.563C119.193 85.6977 119.901 84.99 120.766 84.99H174.823C175.688 84.99 176.396 85.6977 176.396 86.563V97.1802C176.396 98.0452 175.688 98.753 174.823 98.753ZM120.766 85.5142C120.19 85.5142 119.718 85.9862 119.718 86.563V97.1802C119.718 97.757 120.19 98.2287 120.766 98.2287H174.823C175.399 98.2287 175.871 97.757 175.871 97.1802V86.563C175.871 85.9862 175.399 85.5142 174.823 85.5142H120.766Z" fill="#3913B8"/>
<path d="M160.979 76.9158H132.798C132.614 76.9158 132.457 76.7585 132.457 76.575V73.3243C132.457 73.1408 132.614 72.9835 132.798 72.9835H160.979C161.163 72.9835 161.32 73.1408 161.32 73.3243V76.575C161.346 76.7585 161.189 76.9158 160.979 76.9158Z" fill="#3913B8"/>
<path d="M161.084 80.1663H132.693C132.562 80.1663 132.457 80.0615 132.457 79.9305V78.5147C132.457 78.3837 132.562 78.2787 132.693 78.2787H161.084C161.215 78.2787 161.32 78.3837 161.32 78.5147V79.9305C161.346 80.0615 161.215 80.1663 161.084 80.1663Z" fill="#3913B8"/>
<path d="M160.979 92.2255H132.798C132.614 92.2255 132.457 92.0683 132.457 91.8848V88.634C132.457 88.4505 132.614 88.2933 132.798 88.2933H160.979C161.163 88.2933 161.32 88.4505 161.32 88.634V91.8848C161.346 92.0683 161.189 92.2255 160.979 92.2255Z" fill="#3913B8"/>
<path d="M161.084 95.45H132.693C132.562 95.45 132.457 95.3452 132.457 95.214V93.7985C132.457 93.6673 132.562 93.5625 132.693 93.5625H161.084C161.215 93.5625 161.32 93.6673 161.32 93.7985V95.214C161.346 95.3452 161.215 95.45 161.084 95.45Z" fill="#3913B8"/>
<path d="M173.012 80.1665H164.44C164.282 80.1665 164.178 80.0615 164.178 79.9043V73.2455C164.178 73.0883 164.282 72.9835 164.44 72.9835H173.012C173.169 72.9835 173.274 73.0883 173.274 73.2455V79.9043C173.274 80.0353 173.169 80.1665 173.012 80.1665Z" fill="#3913B8"/>
<path d="M173.012 95.4502H164.44C164.282 95.4502 164.178 95.3452 164.178 95.188V88.5292C164.178 88.372 164.282 88.267 164.44 88.267H173.012C173.169 88.267 173.274 88.372 173.274 88.5292V95.188C173.274 95.3452 173.169 95.4502 173.012 95.4502Z" fill="#3913B8"/>
<path fill-rule="evenodd" clip-rule="evenodd" d="M118.904 17.0657H176.001C176.709 17.0657 177.312 17.6424 177.312 18.3764V57.8307C177.312 58.5647 176.735 59.1415 176.001 59.1415H118.904C118.169 59.1415 117.593 58.5647 117.593 57.8307V18.3764C117.593 17.6424 118.169 17.0657 118.904 17.0657ZM35.1451 47.6592C35.0666 50.0185 33.2839 52.011 30.8984 52.3255C28.4867 52.6403 26.2844 51.1197 25.6552 48.865L29.7974 48.3407L35.1451 47.6592ZM114.001 73.324H110.147C109.413 73.324 108.837 73.9008 108.837 74.6348V78.4885C108.837 79.2225 109.413 79.7992 110.147 79.7992H114.001C114.735 79.7992 115.312 79.2225 115.312 78.4885V74.6348C115.312 73.9008 114.735 73.324 114.001 73.324ZM98.1934 52.1683H85.0069C84.2467 52.1683 83.6177 51.5392 83.6177 50.779V33.634C83.6177 32.8737 84.2207 32.2445 85.0069 32.2445H98.1934C98.9537 32.2445 99.5829 32.8475 99.5829 33.634V50.779C99.5829 51.5392 98.9799 52.1683 98.1934 52.1683ZM101.575 65.9575H81.6514V68.7103H101.575V65.9575ZM101.733 62.9165H81.4942V59.8495H101.733V62.9165ZM101.418 60.164H81.8089V62.602H101.418V60.164ZM81.7037 58.2503H101.942V55.183H81.7037V58.2503ZM81.9921 55.4977H101.601V57.9357H81.9921V55.4977ZM73.4461 121.325H76.7491C77.2996 121.325 77.7454 121.77 77.7454 122.321V125.624C77.7454 126.175 77.2996 126.62 76.7491 126.62H73.4461C72.8956 126.62 72.4499 126.175 72.4499 125.624V122.321C72.4499 121.77 72.8956 121.325 73.4461 121.325ZM76.7491 111.205H73.4461C72.8956 111.205 72.4499 111.651 72.4499 112.201V115.505C72.4499 116.055 72.8956 116.501 73.4461 116.501H76.7491C77.2996 116.501 77.7454 116.055 77.7454 115.505V112.201C77.7454 111.651 77.2996 111.205 76.7491 111.205ZM73.4461 101.113H76.7491C77.2996 101.113 77.7454 101.558 77.7454 102.108V105.412C77.7454 105.962 77.2996 106.408 76.7491 106.408H73.4461C72.8956 106.408 72.4499 105.962 72.4499 105.412V102.108C72.4499 101.558 72.8956 101.113 73.4461 101.113ZM57.7429 102.922H40.9911C38.1074 102.922 35.7744 105.255 35.7744 108.138V121.561C35.7744 124.444 38.1074 126.777 40.9911 126.777H57.7429C60.6267 126.777 62.9599 124.444 62.9599 121.561V108.138C62.9599 105.255 60.6267 102.922 57.7429 102.922ZM37.2687 128.796H61.4654C62.3044 128.796 62.9599 129.478 62.9599 130.29C62.9599 131.103 62.3044 131.785 61.4654 131.785H37.2687C36.4559 131.785 35.7744 131.103 35.7744 130.29C35.7744 129.478 36.4297 128.796 37.2687 128.796ZM165.357 109.606H152.774V112.254H165.357V109.606ZM131.068 109.58H137.621V112.307H131.068V109.58ZM150.572 82.7615H143.546C142.812 82.7615 142.235 83.3383 142.235 84.0723V91.098C142.235 91.8322 142.812 92.409 143.546 92.409H150.572C151.306 92.409 151.883 91.8322 151.883 91.098V84.0723C151.883 83.3383 151.306 82.7615 150.572 82.7615ZM37.9499 65.276V68.422C37.9499 68.7102 37.7141 68.9463 37.4256 68.9463H16.165C15.8766 68.9463 15.6406 68.7102 15.6406 68.422V65.276C15.6406 64.9878 15.8766 64.7517 16.165 64.7517H37.4256C37.7141 64.7517 37.9499 64.9878 37.9499 65.276ZM19.0747 75.972C20.1496 75.972 21.0409 75.0805 21.0409 74.0058C21.0409 72.931 20.1496 72.0395 19.0747 72.0395C17.9999 72.0395 17.1086 72.931 17.1086 74.0058C17.1086 75.0805 17.9737 75.972 19.0747 75.972ZM21.1756 78.959C21.3496 80.0307 20.6217 81.0408 19.5498 81.2148C18.4779 81.3885 17.468 80.6608 17.294 79.5888C17.1201 78.517 17.848 77.507 18.9199 77.333C19.9917 77.159 21.0017 77.887 21.1756 78.959Z" stroke="#2249B3" stroke-width="0.25"/>
<path d="M127.739 88.8698C127.739 88.8698 126.953 91.8847 126.953 92.278C126.953 92.6972 128.814 92.671 128.814 92.671L128.211 89.3942L127.739 88.8698Z" fill="black"/>
<path d="M51.5572 107.116C51.5572 107.116 49.9057 113.355 49.932 114.22C49.958 115.085 53.7855 115.007 53.7855 115.007L52.5272 108.191L51.5572 107.116Z" fill="#3913B8"/>
<path d="M57.1143 122.111H41.6211V120.827C41.6211 117.629 44.0853 116.685 47.3886 115.059L51.0323 115.374C54.5978 117.288 57.1143 117.629 57.1143 120.827V122.111Z" fill="black"/>
<path fill-rule="evenodd" clip-rule="evenodd" d="M96.2021 19.897H87.0266C85.7944 19.897 84.7984 18.9008 84.8246 17.6687V15.5977H98.4304V17.6687C98.4304 18.9008 97.4341 19.897 96.2021 19.897ZM12.4697 42.5733C12.4697 33.2668 20.0198 25.7168 29.3264 25.7168C38.6329 25.7168 46.1829 33.2668 46.1829 42.5733C46.1829 51.8798 38.6329 59.4298 29.3264 59.4298C20.0198 59.4298 12.4697 51.8798 12.4697 42.5733ZM25.6299 48.865C26.2854 51.1195 28.4874 52.64 30.8994 52.3255C33.2849 52.0108 35.0676 50.0185 35.1199 47.659L29.7719 48.3408L25.6299 48.865ZM174.953 63.703H122.365C120.399 63.703 118.8 62.1038 118.8 60.1375V53.2953C118.8 51.3293 120.399 49.73 122.365 49.73H174.953C176.919 49.73 178.519 51.3293 178.519 53.2953V60.1375C178.519 62.1038 176.919 63.703 174.953 63.703ZM130.413 80.3763C130.413 79.0375 129.608 78.6218 128.287 77.9395C128.082 77.8333 127.864 77.7208 127.635 77.5973H127.53V76.7323C127.844 76.575 128.054 76.2865 128.054 75.8408L128.075 74.925C128.08 74.8423 128.08 74.7648 128.08 74.6873L128.075 74.925C128.071 74.9825 128.065 75.0425 128.054 75.1068C128.054 75.1068 128.002 74.6088 128.002 74.1893C128.002 74.0583 127.975 73.9795 127.949 73.927C127.936 73.927 127.929 73.9338 127.923 73.9403C127.916 73.9468 127.91 73.9533 127.897 73.9533C127.372 74.163 125.904 73.9533 125.904 73.9533C125.773 73.927 125.983 74.4515 125.983 74.4515C125.983 74.4515 125.721 75.1068 125.59 75.2903C125.58 75.3003 125.574 75.3103 125.568 75.319C125.56 75.3328 125.553 75.3428 125.537 75.3428C125.432 75.3428 125.275 74.8448 125.275 74.8448L125.249 74.8185L125.065 74.7135C125.065 74.7093 125.065 74.7048 125.063 74.7005L125.063 74.6983L125.062 74.696L125.062 74.6948C125.061 74.6928 125.06 74.6908 125.059 74.6888C125.058 74.687 125.058 74.6855 125.057 74.684C125.055 74.6808 125.054 74.6775 125.052 74.6743C125.048 74.6658 125.044 74.6575 125.041 74.649C125.041 74.6465 125.04 74.6443 125.04 74.642C125.039 74.6395 125.039 74.6373 125.039 74.635C125.013 74.635 125.013 74.635 124.987 74.6613C124.777 74.7398 124.672 75.0283 124.777 75.2903C124.856 75.5263 125.065 75.6835 125.249 75.6573C125.301 76.0505 125.511 76.4175 125.826 76.6273V77.571H125.721C125.674 77.594 125.627 77.6168 125.581 77.6393C125.515 77.6718 125.449 77.7038 125.384 77.7353L125.381 77.7368L125.377 77.7388L125.371 77.7418L125.366 77.7438L125.366 77.7443L125.365 77.7448C123.95 78.4315 122.942 78.9205 122.942 80.35V80.979H130.413V80.3763ZM125.366 92.8445C125.481 92.7883 125.6 92.7308 125.721 92.6713H125.852V91.7275C125.511 91.4653 125.275 91.0458 125.275 90.574V89.7613C125.275 88.9748 125.904 88.3458 126.691 88.3458C127.084 88.3458 127.425 88.4243 127.687 88.6078C127.949 88.7913 128.106 89.0798 128.106 89.473V90.574C128.106 91.0458 127.87 91.439 127.53 91.7013V92.6713H127.635C127.864 92.7948 128.082 92.9073 128.287 93.0135C129.608 93.6958 130.413 94.1115 130.413 95.45V96.0793H122.942V95.45C122.942 94.0205 123.95 93.5315 125.365 92.8448L125.366 92.8445ZM147.06 79.1963C148.161 79.1963 149.053 78.3043 149.053 77.204C149.053 76.1035 148.161 75.2115 147.06 75.2115C145.96 75.2115 145.068 76.1035 145.068 77.204C145.068 78.3043 145.96 79.1963 147.06 79.1963ZM98.0111 48.7603C98.0111 46.4653 96.6046 45.7375 94.2846 44.5365L94.2844 44.5363H94.2841C93.9539 44.3653 93.6054 44.1848 93.2399 43.989H89.9629C89.7696 44.0838 89.5799 44.1758 89.3939 44.2658L89.3929 44.2663L89.3926 44.2665L89.3881 44.2685L89.3876 44.269C86.9539 45.4483 85.1916 46.3023 85.1916 48.7603V49.8088H98.0111V48.7603ZM91.5881 58.1978C90.6966 58.1978 89.9626 57.49 89.9626 56.5723C89.9626 55.681 90.6966 54.947 91.5881 54.947C92.4794 54.947 93.2134 55.6548 93.2134 56.5723C93.2134 57.4638 92.5056 58.1978 91.5881 58.1978ZM189.817 134.065H10.1888C7.40997 134.065 5.18164 136.32 5.18164 139.073C5.18164 141.851 7.43617 144.08 10.1888 144.08H189.817C192.596 144.08 194.825 141.825 194.825 139.073C194.825 136.294 192.596 134.065 189.817 134.065ZM23.323 101.113C23.8735 101.113 24.3191 101.558 24.3191 102.109V105.412C24.3191 105.962 23.8735 106.408 23.323 106.408H20.0198C19.4693 106.408 19.0236 105.962 19.0236 105.412V102.109C19.0236 101.558 19.4693 101.113 20.0198 101.113H23.323ZM24.3191 112.228C24.3191 111.678 23.8735 111.232 23.323 111.232H20.0198C19.4693 111.232 19.0236 111.678 19.0236 112.228V115.531C19.0236 116.082 19.4693 116.527 20.0198 116.527H23.323C23.8735 116.527 24.3191 116.082 24.3191 115.531V112.228ZM20.0198 121.325H23.323C23.8735 121.325 24.3191 121.77 24.3191 122.321V125.624C24.3191 126.175 23.8735 126.62 23.323 126.62H20.0198C19.4693 126.62 19.0236 126.175 19.0236 125.624V122.321C19.0236 121.77 19.4693 121.325 20.0198 121.325ZM112.378 116.976C113.231 114.916 112.253 112.554 110.193 111.701C108.133 110.848 105.771 111.826 104.918 113.886C104.065 115.946 105.043 118.307 107.103 119.161C109.163 120.014 111.525 119.036 112.378 116.976ZM47.6249 115.819V113.067C46.8909 112.543 46.4189 111.677 46.3926 110.707V109.003C46.3926 107.378 47.7034 106.067 49.3289 106.067C50.1416 106.067 50.8756 106.225 51.3999 106.618C51.9241 107.011 52.2649 107.588 52.2649 108.401V110.681C52.2649 111.651 51.7931 112.516 51.0854 113.041V115.819C51.0854 116.763 50.3251 117.55 49.3551 117.55C48.4114 117.55 47.6249 116.789 47.6249 115.819Z" fill="#CAA9FF"/>
<path d="M189.292 122.242H178.151C178.072 122.242 178.02 122.19 178.02 122.111C178.02 122.032 178.072 121.98 178.151 121.98H189.292C189.948 121.98 190.472 121.456 190.472 120.8V77.8857C190.472 77.2302 189.948 76.706 189.292 76.706H182.03C181.952 76.706 181.899 76.6535 181.899 76.575C181.899 76.4962 181.952 76.4437 182.03 76.4437H189.292C190.079 76.4437 190.734 77.0992 190.734 77.8857V120.8C190.734 121.587 190.105 122.242 189.292 122.242Z" fill="black"/>
<path d="M29.3258 53.3218C26.8616 53.3218 24.7119 51.4868 24.3973 48.97L24.3711 48.839L34.2806 47.5805V47.7378C34.4378 49.0488 34.0971 50.3595 33.2843 51.408C32.4716 52.4568 31.2921 53.1383 29.9813 53.2955C29.7453 53.2955 29.5356 53.3218 29.3258 53.3218ZM24.6595 49.0488C25.0526 51.5653 27.3858 53.3218 29.9026 53.0073C31.1608 52.85 32.2621 52.2208 33.0483 51.2245C33.7826 50.2545 34.1233 49.0748 34.0183 47.869L24.6595 49.0488Z" fill="black"/>
<path opacity="0.37" d="M37.2704 47.397L35.1209 47.6593L29.7729 48.3408L25.6309 48.865L22.3014 49.2845C21.1741 49.4155 20.4663 48.262 21.1741 47.4495L22.4587 45.9553C23.7695 44.4085 24.3724 42.4685 24.1365 40.5548L23.8481 38.1953C23.6384 36.57 24.5559 35.4428 25.9979 34.7873L25.8666 33.7125C25.7881 33.1358 26.2076 32.6115 26.7581 32.559L28.8029 32.2968C29.3796 32.2183 29.9039 32.6378 29.9564 33.1883L30.0874 34.263C31.6604 34.5253 32.8139 35.3903 33.0236 37.0158L33.3119 39.375C33.5479 41.2888 34.6226 43.019 36.2744 44.1725L37.8996 45.2998C38.7909 45.9553 38.3976 47.266 37.2704 47.397Z" fill="#3913B8"/>
<path d="M21.5136 49.442C20.9893 49.442 20.5174 49.1797 20.2815 48.7342C20.0456 48.2885 20.098 47.7642 20.4388 47.3447L21.7496 45.8242C23.0866 44.2775 23.6633 42.3637 23.4274 40.4237L23.1128 38.012C22.9031 36.439 23.6895 35.1807 25.2886 34.4467L25.1576 33.4505C25.1051 33.136 25.2101 32.8212 25.3936 32.5592C25.5771 32.297 25.8654 32.1397 26.1799 32.1135L28.2509 31.8515C28.5656 31.799 28.8801 31.9037 29.1424 32.0872C29.4044 32.2707 29.5619 32.5592 29.5879 32.8737L29.7191 33.87C31.4494 34.1845 32.5241 35.207 32.7076 36.78L33.0221 39.1917C33.2581 41.1055 34.3329 42.8095 35.9846 43.9892L37.6361 45.1427C38.0819 45.4572 38.2654 45.9552 38.1341 46.4535C38.0031 47.004 37.5314 47.3972 36.9284 47.4757L21.6709 49.4157C21.6447 49.442 21.5923 49.442 21.5136 49.442ZM28.4606 32.1135C28.4084 32.1135 28.3821 32.1135 28.3296 32.1135L26.2586 32.3757C26.0226 32.402 25.7866 32.533 25.6294 32.7165C25.4721 32.9 25.4196 33.1622 25.4459 33.398L25.6031 34.604L25.5246 34.6302C24.4236 35.102 23.1652 36.072 23.4011 37.9595L23.7157 40.3715C23.9779 42.3637 23.3487 44.3562 21.9593 45.9552L20.6485 47.4757C20.3601 47.7905 20.3077 48.2097 20.5174 48.5767C20.7272 48.97 21.199 49.206 21.6971 49.1275L36.9546 47.1875C37.4526 47.135 37.8459 46.7942 37.9506 46.3485C38.0556 45.9552 37.8984 45.562 37.5574 45.3262L35.9059 44.1727C34.1756 42.9667 33.0746 41.184 32.8124 39.1917L32.4979 36.78C32.2619 34.8925 30.7939 34.2895 29.6141 34.0797L29.5094 34.0535L29.3521 32.8475C29.3259 32.6117 29.1949 32.3757 29.0111 32.2185C28.8539 32.166 28.6441 32.1135 28.4606 32.1135Z" fill="black"/>
<path opacity="0.86" d="M174.823 128.718H108.838C108.104 128.718 107.527 128.141 107.527 127.407V116.79C107.527 116.056 108.104 115.479 108.838 115.479H174.823C175.557 115.479 176.133 116.056 176.133 116.79V127.407C176.133 128.141 175.557 128.718 174.823 128.718Z" fill="#3913B8"/>
<path opacity="0.86" d="M175.295 136.661H108.366C107.894 136.661 107.527 136.294 107.527 135.822V132.047C107.527 131.575 107.894 131.208 108.366 131.208H175.295C175.766 131.208 176.133 131.575 176.133 132.047V135.822C176.133 136.294 175.766 136.661 175.295 136.661Z" fill="#3913B8"/>
<path d="M178.754 47.502C178.676 47.502 178.623 47.4495 178.623 47.3708V19.6348C178.623 17.4852 176.867 15.7287 174.717 15.7287H123.073C120.923 15.7287 119.167 17.4852 119.167 19.6348V33.293C119.167 33.3718 119.114 33.4243 119.035 33.4243C118.957 33.4243 118.904 33.3718 118.904 33.293V19.6348C118.904 17.3541 120.766 15.4666 123.073 15.4666H174.717C176.998 15.4666 178.885 17.3279 178.885 19.6348V47.3708C178.885 47.4495 178.807 47.502 178.754 47.502Z" fill="black"/>
<path d="M175.19 62.6805H122.575C120.531 62.6805 118.879 61.029 118.879 58.9842V52.142C118.879 50.0972 120.531 48.4455 122.575 48.4455H175.164C177.208 48.4455 178.86 50.0972 178.86 52.142V58.9842C178.886 61.029 177.208 62.6805 175.19 62.6805ZM122.575 48.734C120.688 48.734 119.141 50.2807 119.141 52.1682V59.0105C119.141 60.898 120.688 62.4447 122.575 62.4447H175.164C177.051 62.4447 178.598 60.898 178.598 59.0105V52.1682C178.598 50.2807 177.051 48.734 175.164 48.734H122.575Z" fill="black"/>
<path opacity="0.19" d="M125.904 60.2425C127.844 60.2425 129.416 58.6697 129.416 56.7297C129.416 54.7895 127.844 53.2167 125.904 53.2167C123.964 53.2167 122.391 54.7895 122.391 56.7297C122.391 58.6697 123.964 60.2425 125.904 60.2425Z" fill="black"/>
<path opacity="0.19" d="M173.486 59.9542H133.874C132.773 59.9542 131.855 59.0627 131.855 57.9355V54.816C131.855 53.715 132.747 52.7972 133.874 52.7972H173.486C174.587 52.7972 175.504 53.6887 175.504 54.816V57.9355C175.478 59.0367 174.587 59.9542 173.486 59.9542Z" fill="black"/>
<path opacity="0.19" d="M150.52 33.8175C150.678 33.9222 150.652 34.1582 150.52 34.2367L148.528 35.5475C148.345 35.6525 148.135 35.5215 148.135 35.338V32.6377C148.135 32.428 148.371 32.297 148.554 32.428L150.52 33.8175Z" fill="black"/>
<path opacity="0.19" d="M122.023 25.6382V45.5095H174.271V25.6382H122.023ZM153.875 36.334C153.875 37.0682 153.298 37.645 152.564 37.645H145.539C144.805 37.645 144.228 37.0682 144.228 36.334V31.4317C144.228 30.6977 144.805 30.121 145.539 30.121H152.564C153.298 30.121 153.875 30.6977 153.875 31.4317V36.334Z" fill="black"/>
<path d="M79.7114 138.627H77.0899C77.0114 138.627 76.9589 138.575 76.9589 138.496C76.9589 138.417 77.0114 138.365 77.0899 138.365H79.7114C79.7902 138.365 79.8427 138.417 79.8427 138.496C79.8427 138.575 79.7902 138.627 79.7114 138.627ZM74.4684 138.627H71.8469C71.7682 138.627 71.7157 138.575 71.7157 138.496C71.7157 138.417 71.7682 138.365 71.8469 138.365H74.4684C74.5472 138.365 74.5994 138.417 74.5994 138.496C74.5994 138.575 74.5472 138.627 74.4684 138.627ZM69.2254 138.627H66.6037C66.5252 138.627 66.4727 138.575 66.4727 138.496C66.4727 138.417 66.5252 138.365 66.6037 138.365H69.2254C69.3039 138.365 69.3564 138.417 69.3564 138.496C69.3564 138.575 69.3039 138.627 69.2254 138.627ZM63.9822 138.627H61.3607C61.2819 138.627 61.2297 138.575 61.2297 138.496C61.2297 138.417 61.2819 138.365 61.3607 138.365H63.9822C64.0609 138.365 64.1134 138.417 64.1134 138.496C64.1134 138.575 64.0609 138.627 63.9822 138.627ZM58.7392 138.627H56.1177C56.0389 138.627 55.9864 138.575 55.9864 138.496C55.9864 138.417 56.0389 138.365 56.1177 138.365H58.7392C58.8177 138.365 58.8702 138.417 58.8702 138.496C58.8702 138.575 58.8177 138.627 58.7392 138.627ZM53.4959 138.627H50.8744C50.7959 138.627 50.7434 138.575 50.7434 138.496C50.7434 138.417 50.7959 138.365 50.8744 138.365H53.4959C53.5747 138.365 53.6272 138.417 53.6272 138.496C53.6272 138.575 53.5747 138.627 53.4959 138.627ZM48.2529 138.627H45.6314C45.5527 138.627 45.5004 138.575 45.5004 138.496C45.5004 138.417 45.5527 138.365 45.6314 138.365H48.2529C48.3317 138.365 48.3839 138.417 48.3839 138.496C48.3839 138.575 48.3317 138.627 48.2529 138.627ZM43.0099 138.627H40.3882C40.3097 138.627 40.2572 138.575 40.2572 138.496C40.2572 138.417 40.3097 138.365 40.3882 138.365H43.0099C43.0884 138.365 43.1409 138.417 43.1409 138.496C43.1409 138.575 43.0884 138.627 43.0099 138.627ZM37.7667 138.627H35.1452C35.0664 138.627 35.0142 138.575 35.0142 138.496C35.0142 138.417 35.0664 138.365 35.1452 138.365H37.7667C37.8454 138.365 37.8979 138.417 37.8979 138.496C37.8979 138.575 37.8454 138.627 37.7667 138.627ZM32.5237 138.627H29.9022C29.8234 138.627 29.7709 138.575 29.7709 138.496C29.7709 138.417 29.8234 138.365 29.9022 138.365H32.5237C32.6022 138.365 32.6547 138.417 32.6547 138.496C32.6547 138.575 32.6022 138.627 32.5237 138.627ZM27.2804 138.627H24.659C24.5804 138.627 24.5279 138.575 24.5279 138.496C24.5279 138.417 24.5804 138.365 24.659 138.365H27.2804C27.3592 138.365 27.4117 138.417 27.4117 138.496C27.4117 138.575 27.3592 138.627 27.2804 138.627ZM22.0375 138.627H19.4159C19.3373 138.627 19.2848 138.575 19.2848 138.496C19.2848 138.417 19.3373 138.365 19.4159 138.365H22.0375C22.1161 138.365 22.1685 138.417 22.1685 138.496C22.1685 138.575 22.1161 138.627 22.0375 138.627ZM16.7944 138.627H16.4536C15.6671 138.627 15.0117 137.972 15.0117 137.185V136.949C15.0117 136.871 15.0641 136.818 15.1428 136.818C15.2214 136.818 15.2739 136.871 15.2739 136.949V137.185C15.2739 137.841 15.7982 138.365 16.4536 138.365H16.7944C16.873 138.365 16.9254 138.417 16.9254 138.496C16.9254 138.575 16.873 138.627 16.7944 138.627ZM82.1757 138.129C82.1497 138.129 82.1234 138.129 82.0972 138.103C82.0447 138.05 82.0447 137.972 82.0709 137.919C82.2282 137.709 82.3332 137.447 82.3332 137.185V135.455C82.3332 135.376 82.3854 135.324 82.4642 135.324C82.5427 135.324 82.5952 135.376 82.5952 135.455V137.185C82.5952 137.526 82.4904 137.841 82.2807 138.076C82.2544 138.103 82.2282 138.129 82.1757 138.129ZM15.1428 134.459C15.0641 134.459 15.0117 134.406 15.0117 134.328V131.706C15.0117 131.627 15.0641 131.575 15.1428 131.575C15.2214 131.575 15.2739 131.627 15.2739 131.706V134.328C15.2739 134.406 15.2214 134.459 15.1428 134.459ZM82.4642 132.964C82.3854 132.964 82.3332 132.912 82.3332 132.833V130.212C82.3332 130.133 82.3854 130.081 82.4642 130.081C82.5427 130.081 82.5952 130.133 82.5952 130.212V132.833C82.5952 132.886 82.5427 132.964 82.4642 132.964ZM15.1428 129.216C15.0641 129.216 15.0117 129.163 15.0117 129.085V126.463C15.0117 126.384 15.0641 126.332 15.1428 126.332C15.2214 126.332 15.2739 126.384 15.2739 126.463V129.085C15.2739 129.163 15.2214 129.216 15.1428 129.216ZM82.4642 127.721C82.3854 127.721 82.3332 127.669 82.3332 127.59V124.969C82.3332 124.89 82.3854 124.838 82.4642 124.838C82.5427 124.838 82.5952 124.89 82.5952 124.969V127.59C82.5952 127.643 82.5427 127.721 82.4642 127.721ZM15.1428 123.973C15.0641 123.973 15.0117 123.92 15.0117 123.841V121.22C15.0117 121.141 15.0641 121.089 15.1428 121.089C15.2214 121.089 15.2739 121.141 15.2739 121.22V123.841C15.2739 123.92 15.2214 123.973 15.1428 123.973ZM82.4642 122.478C82.3854 122.478 82.3332 122.426 82.3332 122.347V119.726C82.3332 119.647 82.3854 119.595 82.4642 119.595C82.5427 119.595 82.5952 119.647 82.5952 119.726V122.347C82.5952 122.4 82.5427 122.478 82.4642 122.478ZM15.1428 118.729C15.0641 118.729 15.0117 118.677 15.0117 118.598V115.977C15.0117 115.898 15.0641 115.846 15.1428 115.846C15.2214 115.846 15.2739 115.898 15.2739 115.977V118.598C15.2739 118.677 15.2214 118.729 15.1428 118.729ZM82.4642 117.235C82.3854 117.235 82.3332 117.183 82.3332 117.104V114.483C82.3332 114.404 82.3854 114.351 82.4642 114.351C82.5427 114.351 82.5952 114.404 82.5952 114.483V117.104C82.5952 117.157 82.5427 117.235 82.4642 117.235Z" fill="black"/>
<path d="M82.4642 111.756C82.3854 111.756 82.3332 111.704 82.3332 111.625V93.4577C82.3332 92.8022 81.8087 92.278 81.1534 92.278H16.4536C15.7982 92.278 15.2739 92.8022 15.2739 93.4577V111.625C15.2739 111.704 15.2214 111.756 15.1428 111.756C15.0641 111.756 15.0117 111.704 15.0117 111.625V93.4577C15.0117 92.6712 15.6671 92.0157 16.4536 92.0157H81.1534C81.9399 92.0157 82.5952 92.6712 82.5952 93.4577V111.625C82.5952 111.704 82.5427 111.756 82.4642 111.756Z" fill="black"/>
<path opacity="0.2" d="M27.8329 119.044H18.9983C18.9196 119.044 18.8672 118.991 18.8672 118.913C18.8672 118.834 18.9196 118.782 18.9983 118.782H27.8329C27.9114 118.782 27.9639 118.834 27.9639 118.913C27.9639 118.991 27.9114 119.044 27.8329 119.044Z" fill="black"/>
<path opacity="0.2" d="M27.8329 108.925H18.9983C18.9196 108.925 18.8672 108.872 18.8672 108.794C18.8672 108.715 18.9196 108.662 18.9983 108.662H27.8329C27.9114 108.662 27.9639 108.715 27.9639 108.794C27.9639 108.872 27.9114 108.925 27.8329 108.925Z" fill="black"/>
<path opacity="0.2" d="M61.8082 96.787H18.9983C18.9196 96.787 18.8672 96.7348 18.8672 96.656C18.8672 96.5773 18.9196 96.525 18.9983 96.525H61.8082C61.8869 96.525 61.9392 96.5773 61.9392 96.656C61.9392 96.7348 61.8869 96.787 61.8082 96.787Z" fill="black"/>
<path opacity="0.2" d="M77.7467 96.787H68.9123C68.8335 96.787 68.7812 96.7348 68.7812 96.656C68.7812 96.5773 68.8335 96.525 68.9123 96.525H77.7467C77.8255 96.525 77.878 96.5773 77.878 96.656C77.878 96.7348 77.8255 96.787 77.7467 96.787Z" fill="black"/>
<path opacity="0.2" d="M77.7467 108.925H68.9123C68.8335 108.925 68.7812 108.872 68.7812 108.794C68.7812 108.715 68.8335 108.662 68.9123 108.662H77.7467C77.8255 108.662 77.878 108.715 77.878 108.794C77.878 108.872 77.8255 108.925 77.7467 108.925Z" fill="black"/>
<path opacity="0.2" d="M77.7467 119.044H68.9123C68.8335 119.044 68.7812 118.991 68.7812 118.913C68.7812 118.834 68.8335 118.782 68.9123 118.782H77.7467C77.8255 118.782 77.878 118.834 77.878 118.913C77.878 118.991 77.8255 119.044 77.7467 119.044Z" fill="black"/>
<path d="M97.4085 119.647H96.0977C96.019 119.647 95.9667 119.595 95.9667 119.516C95.9667 119.437 96.019 119.385 96.0977 119.385H97.4085C97.4872 119.385 97.5395 119.437 97.5395 119.516C97.5395 119.595 97.4872 119.647 97.4085 119.647ZM94.787 119.647H93.4762C93.3975 119.647 93.3452 119.595 93.3452 119.516C93.3452 119.437 93.3975 119.385 93.4762 119.385H94.787C94.8657 119.385 94.918 119.437 94.918 119.516C94.918 119.595 94.8657 119.647 94.787 119.647ZM92.1655 119.647H90.8547C90.776 119.647 90.7235 119.595 90.7235 119.516C90.7235 119.437 90.776 119.385 90.8547 119.385H92.1655C92.244 119.385 92.2965 119.437 92.2965 119.516C92.2965 119.595 92.244 119.647 92.1655 119.647ZM89.544 119.647H88.233C88.1545 119.647 88.102 119.595 88.102 119.516C88.102 119.437 88.1545 119.385 88.233 119.385H89.544C89.6225 119.385 89.675 119.437 89.675 119.516C89.675 119.595 89.6225 119.647 89.544 119.647ZM86.9222 119.647H85.6115C85.533 119.647 85.4805 119.595 85.4805 119.516C85.4805 119.437 85.533 119.385 85.6115 119.385H86.9222C87.001 119.385 87.0535 119.437 87.0535 119.516C87.0535 119.595 87.001 119.647 86.9222 119.647ZM98.693 119.437C98.6407 119.437 98.6145 119.411 98.5882 119.385C98.562 119.333 98.562 119.254 98.6407 119.201C98.9815 118.992 99.1912 118.625 99.1912 118.205C99.1912 118.127 99.2435 118.074 99.3222 118.074C99.401 118.074 99.4532 118.127 99.4532 118.205C99.4532 118.703 99.1912 119.149 98.798 119.411C98.7455 119.437 98.7192 119.437 98.693 119.437ZM99.296 117.026C99.2175 117.026 99.165 116.973 99.165 116.895V115.584C99.165 115.505 99.2175 115.453 99.296 115.453C99.3747 115.453 99.4272 115.505 99.4272 115.584V116.895C99.4272 116.973 99.3747 117.026 99.296 117.026ZM99.296 114.404C99.2175 114.404 99.165 114.352 99.165 114.273V112.962C99.165 112.884 99.2175 112.831 99.296 112.831C99.3747 112.831 99.4272 112.884 99.4272 112.962V114.273C99.4272 114.352 99.3747 114.404 99.296 114.404ZM99.296 111.782C99.2175 111.782 99.165 111.73 99.165 111.651V110.341C99.165 110.262 99.2175 110.21 99.296 110.21C99.3747 110.21 99.4272 110.262 99.4272 110.341V111.651C99.4272 111.73 99.3747 111.782 99.296 111.782ZM99.296 109.161C99.2175 109.161 99.165 109.109 99.165 109.03V107.719C99.165 107.64 99.2175 107.588 99.296 107.588C99.3747 107.588 99.4272 107.64 99.4272 107.719V109.03C99.4272 109.109 99.3747 109.161 99.296 109.161ZM99.296 106.539C99.2175 106.539 99.165 106.487 99.165 106.408V105.098C99.165 105.019 99.2175 104.966 99.296 104.966C99.3747 104.966 99.4272 105.019 99.4272 105.098V106.408C99.4272 106.487 99.3747 106.539 99.296 106.539ZM99.296 103.918C99.2175 103.918 99.165 103.839 99.165 103.787C99.1912 103.341 99.3485 102.869 99.5845 102.502C99.6107 102.45 99.7155 102.424 99.768 102.45C99.8202 102.476 99.8465 102.581 99.8202 102.633C99.6107 103 99.4795 103.394 99.4532 103.813C99.427 103.865 99.3747 103.918 99.296 103.918ZM100.633 101.768C100.58 101.768 100.554 101.742 100.528 101.716C100.502 101.663 100.502 101.585 100.58 101.532C100.974 101.296 101.419 101.165 101.891 101.139C101.97 101.139 102.022 101.191 102.022 101.27C102.022 101.349 101.97 101.401 101.891 101.401C101.472 101.427 101.079 101.558 100.712 101.768C100.659 101.768 100.633 101.768 100.633 101.768ZM109.73 101.401H108.419C108.34 101.401 108.288 101.349 108.288 101.27C108.288 101.191 108.34 101.139 108.419 101.139H109.73C109.808 101.139 109.861 101.191 109.861 101.27C109.861 101.349 109.808 101.401 109.73 101.401ZM107.108 101.401H105.797C105.719 101.401 105.666 101.349 105.666 101.27C105.666 101.191 105.719 101.139 105.797 101.139H107.108C107.187 101.139 107.239 101.191 107.239 101.27C107.239 101.349 107.187 101.401 107.108 101.401ZM104.487 101.401H103.176C103.097 101.401 103.045 101.349 103.045 101.27C103.045 101.191 103.097 101.139 103.176 101.139H104.487C104.565 101.139 104.618 101.191 104.618 101.27C104.618 101.349 104.565 101.401 104.487 101.401ZM111.04 101.375C110.988 101.375 110.936 101.323 110.909 101.27C110.883 101.191 110.936 101.139 111.014 101.113C111.407 101.034 111.722 100.746 111.879 100.379C111.906 100.3 111.984 100.274 112.037 100.3C112.115 100.326 112.142 100.405 112.115 100.457C111.932 100.929 111.539 101.244 111.067 101.349C111.04 101.349 111.04 101.375 111.04 101.375ZM112.089 99.2513C112.01 99.2513 111.958 99.199 111.958 99.1203V97.8095C111.958 97.7308 112.01 97.6785 112.089 97.6785C112.168 97.6785 112.22 97.7308 112.22 97.8095V99.1203C112.22 99.199 112.142 99.2513 112.089 99.2513ZM112.089 96.6298C112.01 96.6298 111.958 96.5775 111.958 96.4988V95.188C111.958 95.1093 112.01 95.057 112.089 95.057C112.168 95.057 112.22 95.1093 112.22 95.188V96.4988C112.22 96.5775 112.142 96.6298 112.089 96.6298Z" fill="black"/>
<path d="M175.451 131.444H174.638C174.559 131.444 174.507 131.392 174.507 131.313C174.507 131.234 174.559 131.182 174.638 131.182H175.451C175.608 131.182 175.765 131.156 175.922 131.13C176.001 131.103 176.053 131.156 176.08 131.234C176.106 131.313 176.053 131.365 175.975 131.392C175.818 131.418 175.634 131.444 175.451 131.444ZM173.327 131.444H172.016C171.938 131.444 171.885 131.392 171.885 131.313C171.885 131.234 171.938 131.182 172.016 131.182H173.327C173.406 131.182 173.458 131.234 173.458 131.313C173.458 131.392 173.406 131.444 173.327 131.444ZM170.706 131.444H169.395C169.316 131.444 169.264 131.392 169.264 131.313C169.264 131.234 169.316 131.182 169.395 131.182H170.706C170.784 131.182 170.837 131.234 170.837 131.313C170.837 131.392 170.784 131.444 170.706 131.444ZM177.128 130.841C177.102 130.841 177.05 130.815 177.023 130.789C176.971 130.736 176.997 130.658 177.05 130.605C177.364 130.343 177.626 130.002 177.81 129.635C177.836 129.557 177.915 129.53 177.993 129.557C178.072 129.583 178.098 129.661 178.072 129.74C177.889 130.16 177.6 130.527 177.233 130.815C177.181 130.841 177.155 130.841 177.128 130.841ZM178.151 128.534C178.072 128.534 178.02 128.482 178.02 128.403V127.092C178.02 127.014 178.072 126.961 178.151 126.961C178.229 126.961 178.282 127.014 178.282 127.092V128.403C178.282 128.482 178.229 128.534 178.151 128.534ZM178.151 125.913C178.072 125.913 178.02 125.86 178.02 125.782V124.471C178.02 124.392 178.072 124.34 178.151 124.34C178.229 124.34 178.282 124.392 178.282 124.471V125.782C178.282 125.86 178.229 125.913 178.151 125.913ZM178.151 123.291C178.072 123.291 178.02 123.239 178.02 123.16V121.849C178.02 121.771 178.072 121.718 178.151 121.718C178.229 121.718 178.282 121.771 178.282 121.849V123.16C178.282 123.239 178.229 123.291 178.151 123.291Z" fill="black"/>
<path d="M178.151 121.98C178.072 121.98 178.02 121.928 178.02 121.849V120.538C178.02 120.46 178.072 120.407 178.151 120.407C178.229 120.407 178.282 120.46 178.282 120.538V121.849C178.282 121.928 178.229 121.98 178.151 121.98ZM178.151 119.359C178.072 119.359 178.02 119.306 178.02 119.228V117.917C178.02 117.838 178.072 117.786 178.151 117.786C178.229 117.786 178.282 117.838 178.282 117.917V119.228C178.282 119.306 178.229 119.359 178.151 119.359ZM178.151 116.737C178.072 116.737 178.02 116.685 178.02 116.606V115.295C178.02 115.217 178.072 115.164 178.151 115.164C178.229 115.164 178.282 115.217 178.282 115.295V116.606C178.282 116.685 178.229 116.737 178.151 116.737ZM177.915 114.168C177.862 114.168 177.81 114.142 177.784 114.089C177.626 113.722 177.364 113.381 177.023 113.119C176.971 113.067 176.945 112.988 176.997 112.936C177.05 112.883 177.128 112.857 177.181 112.91C177.548 113.198 177.836 113.565 178.02 113.984C178.046 114.063 178.02 114.115 177.941 114.168C177.967 114.168 177.941 114.168 177.915 114.168ZM175.949 112.595C175.765 112.569 175.608 112.543 175.451 112.543H174.638C174.559 112.543 174.507 112.49 174.507 112.411C174.507 112.333 174.559 112.28 174.638 112.28H175.451C175.634 112.28 175.818 112.307 175.975 112.333C176.053 112.359 176.08 112.411 176.08 112.49C176.08 112.543 176.027 112.595 175.949 112.595ZM173.327 112.543H172.016C171.938 112.543 171.885 112.49 171.885 112.411C171.885 112.333 171.938 112.28 172.016 112.28H173.327C173.406 112.28 173.458 112.333 173.458 112.411C173.458 112.49 173.406 112.543 173.327 112.543ZM170.706 112.543H169.395C169.316 112.543 169.264 112.49 169.264 112.411C169.264 112.333 169.316 112.28 169.395 112.28H170.706C170.784 112.28 170.837 112.333 170.837 112.411C170.837 112.49 170.784 112.543 170.706 112.543Z" fill="black"/>
<path d="M178.098 86.5105H177.286C177.207 86.5105 177.154 86.4582 177.154 86.3795C177.154 86.301 177.207 86.2485 177.286 86.2485H178.098C178.256 86.2485 178.413 86.2222 178.57 86.196C178.649 86.1697 178.701 86.2222 178.727 86.301C178.754 86.3795 178.701 86.432 178.623 86.4582C178.439 86.4845 178.256 86.5105 178.098 86.5105ZM179.776 85.9077C179.75 85.9077 179.697 85.8815 179.671 85.8552C179.619 85.8027 179.645 85.7242 179.697 85.6717C180.012 85.4095 180.274 85.0687 180.458 84.7017C180.484 84.623 180.562 84.597 180.641 84.623C180.72 84.6492 180.746 84.728 180.72 84.8065C180.536 85.226 180.248 85.593 179.881 85.8815C179.828 85.9077 179.802 85.9077 179.776 85.9077ZM180.798 83.6007C180.72 83.6007 180.667 83.5482 180.667 83.4695V82.1587C180.667 82.0802 180.72 82.0277 180.798 82.0277C180.877 82.0277 180.929 82.0802 180.929 82.1587V83.4695C180.929 83.5482 180.877 83.6007 180.798 83.6007ZM180.798 80.9792C180.72 80.9792 180.667 80.9267 180.667 80.848V79.5372C180.667 79.4587 180.72 79.4062 180.798 79.4062C180.877 79.4062 180.929 79.4587 180.929 79.5372V80.848C180.929 80.9267 180.877 80.9792 180.798 80.9792ZM180.798 78.3575C180.72 78.3575 180.667 78.3052 180.667 78.2265V76.9157C180.667 76.837 180.72 76.7847 180.798 76.7847C180.877 76.7847 180.929 76.837 180.929 76.9157V78.2265C180.929 78.3052 180.877 78.3575 180.798 78.3575Z" fill="black"/>
<path d="M180.799 77.0467C180.721 77.0467 180.668 76.9942 180.668 76.9155V75.6047C180.668 75.5262 180.721 75.4737 180.799 75.4737C180.878 75.4737 180.93 75.5262 180.93 75.6047V76.9155C180.93 76.9942 180.878 77.0467 180.799 77.0467ZM180.799 74.425C180.721 74.425 180.668 74.3727 180.668 74.294V72.9832C180.668 72.9045 180.721 72.8522 180.799 72.8522C180.878 72.8522 180.93 72.9045 180.93 72.9832V74.294C180.93 74.3727 180.878 74.425 180.799 74.425ZM180.799 71.8035C180.721 71.8035 180.668 71.7512 180.668 71.6725V70.3617C180.668 70.283 180.721 70.2307 180.799 70.2307C180.878 70.2307 180.93 70.283 180.93 70.3617V71.6725C180.93 71.7512 180.878 71.8035 180.799 71.8035ZM180.563 69.2345C180.511 69.2345 180.458 69.2082 180.432 69.1557C180.275 68.7887 180.013 68.448 179.672 68.1857C179.619 68.1335 179.593 68.0547 179.646 68.0022C179.698 67.95 179.777 67.95 179.829 67.976C180.196 68.2645 180.485 68.6315 180.668 69.051C180.694 69.1295 180.668 69.182 180.589 69.2345C180.589 69.2345 180.589 69.2345 180.563 69.2345ZM178.597 67.6615C178.571 67.6615 178.571 67.6615 178.597 67.6615C178.414 67.6352 178.256 67.609 178.099 67.609H177.286C177.208 67.609 177.155 67.5567 177.155 67.478C177.155 67.3992 177.208 67.347 177.286 67.347H178.099C178.282 67.347 178.466 67.3732 178.623 67.3992C178.702 67.4255 178.728 67.478 178.728 67.5567C178.702 67.609 178.649 67.6615 178.597 67.6615ZM175.976 67.609H174.665C174.586 67.609 174.534 67.5567 174.534 67.478C174.534 67.3992 174.586 67.347 174.665 67.347H175.976C176.054 67.347 176.107 67.3992 176.107 67.478C176.107 67.5567 176.054 67.609 175.976 67.609ZM173.354 67.609H172.043C171.965 67.609 171.912 67.5567 171.912 67.478C171.912 67.3992 171.965 67.347 172.043 67.347H173.354C173.433 67.347 173.485 67.3992 173.485 67.478C173.485 67.5567 173.433 67.609 173.354 67.609Z" fill="black"/>
<path d="M112.088 93.7985C112.01 93.7985 111.957 93.746 111.957 93.6673V80.9528C111.957 80.8743 112.01 80.8218 112.088 80.8218C112.167 80.8218 112.219 80.8743 112.219 80.9528V93.6673C112.219 93.746 112.141 93.7985 112.088 93.7985Z" fill="black"/>
<path d="M69.0168 75.6835H23.4019C23.1659 75.6835 22.9824 75.5 22.9824 75.264V73.3765C22.9824 73.1405 23.1659 72.957 23.4019 72.957H69.0168C69.2528 72.957 69.4363 73.1405 69.4363 73.3765V75.264C69.4101 75.5 69.2265 75.6835 69.0168 75.6835Z" stroke="#2249B3" stroke-width="0.25"/>
<path d="M73.6041 80.5857H23.48C23.2441 80.5857 23.0605 80.4023 23.0605 80.1663V78.2787C23.0605 78.043 23.2441 77.8595 23.48 77.8595H73.6041C73.8401 77.8595 74.0236 78.043 74.0236 78.2787V80.1663C74.0236 80.4023 73.8401 80.5857 73.6041 80.5857Z" stroke="#2249B3" stroke-width="0.25"/>
<path d="M95.1001 116.868H91.2463C90.5123 116.868 89.9355 116.291 89.9355 115.557V111.704C89.9355 110.97 90.5123 110.393 91.2463 110.393H95.1001C95.8341 110.393 96.4108 110.97 96.4108 111.704V115.557C96.4108 116.265 95.8078 116.868 95.1001 116.868Z" fill="black"/>
<path d="M107.108 97.3115H103.254C102.52 97.3115 101.943 96.7347 101.943 96.0007V92.147C101.943 91.413 102.52 90.8362 103.254 90.8362H107.108C107.842 90.8362 108.419 91.413 108.419 92.147V96.0007C108.419 96.7085 107.842 97.3115 107.108 97.3115Z" fill="black"/>
<path d="M167.351 138.627H128.998V108.138H167.351V138.627ZM129.26 138.365H167.089V108.4H129.26V138.365Z" fill="black"/>
<path d="M167.22 113.329H129.129C129.05 113.329 128.998 113.277 128.998 113.198C128.998 113.119 129.05 113.067 129.129 113.067H167.22C167.299 113.067 167.351 113.119 167.351 113.198C167.351 113.277 167.299 113.329 167.22 113.329Z" fill="black"/>
<path d="M138.592 117.34H134.004C133.925 117.34 133.873 117.287 133.873 117.209C133.873 117.13 133.925 117.078 134.004 117.078H138.592C138.67 117.078 138.723 117.13 138.723 117.209C138.723 117.287 138.67 117.34 138.592 117.34Z" fill="black"/>
<path d="M162.344 117.34H139.877C139.799 117.34 139.746 117.287 139.746 117.209C139.746 117.13 139.799 117.078 139.877 117.078H162.344C162.423 117.078 162.475 117.13 162.475 117.209C162.475 117.287 162.423 117.34 162.344 117.34Z" fill="black"/>
<path d="M147.795 119.621H134.031C133.953 119.621 133.9 119.568 133.9 119.49C133.9 119.411 133.953 119.359 134.031 119.359H147.795C147.873 119.359 147.926 119.411 147.926 119.49C147.926 119.568 147.873 119.621 147.795 119.621Z" fill="black"/>
<path d="M162.344 119.621H149.629C149.551 119.621 149.498 119.568 149.498 119.49C149.498 119.411 149.551 119.359 149.629 119.359H162.344C162.422 119.359 162.475 119.411 162.475 119.49C162.475 119.568 162.422 119.621 162.344 119.621Z" fill="black"/>
<path d="M138.592 121.875H134.004C133.925 121.875 133.873 121.823 133.873 121.744C133.873 121.665 133.925 121.613 134.004 121.613H138.592C138.67 121.613 138.723 121.665 138.723 121.744C138.723 121.823 138.67 121.875 138.592 121.875Z" fill="black"/>
<path d="M162.344 121.875H139.877C139.799 121.875 139.746 121.823 139.746 121.744C139.746 121.665 139.799 121.613 139.877 121.613H162.344C162.423 121.613 162.475 121.665 162.475 121.744C162.475 121.823 162.423 121.875 162.344 121.875Z" fill="black"/>
<path d="M155.843 124.156H134.031C133.953 124.156 133.9 124.103 133.9 124.025C133.9 123.946 133.953 123.894 134.031 123.894H155.843C155.921 123.894 155.974 123.946 155.974 124.025C155.974 124.103 155.921 124.156 155.843 124.156Z" fill="black"/>
<path d="M162.342 124.156H157.493C157.414 124.156 157.361 124.103 157.361 124.025C157.361 123.946 157.414 123.894 157.493 123.894H162.342C162.421 123.894 162.474 123.946 162.474 124.025C162.474 124.103 162.421 124.156 162.342 124.156Z" fill="black"/>
<path d="M122.077 31.6415C121.999 31.6415 121.92 31.5627 121.92 31.4842V21.7845C121.92 21.7058 121.999 21.6272 122.077 21.6272C122.156 21.6272 122.234 21.7058 122.234 21.7845V31.4842C122.234 31.589 122.156 31.6415 122.077 31.6415Z" fill="black"/>
<path d="M174.298 44.094C174.22 44.094 174.141 44.0152 174.141 43.9367V20.8408H122.234V21.8108C122.234 21.8895 122.156 21.9681 122.077 21.9681C121.999 21.9681 121.92 21.8895 121.92 21.8108V20.5525H174.456V43.9367C174.456 44.0152 174.377 44.094 174.298 44.094Z" fill="black"/>
<path d="M174.298 25.7955H122.077C121.999 25.7955 121.92 25.717 121.92 25.6383C121.92 25.5595 121.999 25.481 122.077 25.481H174.298C174.377 25.481 174.456 25.5595 174.456 25.6383C174.456 25.717 174.377 25.7955 174.298 25.7955Z" fill="black"/>
<path d="M158.412 43.7792H123.624C123.546 43.7792 123.467 43.7005 123.467 43.622C123.467 43.5432 123.546 43.4645 123.624 43.4645H158.412C158.491 43.4645 158.569 43.5432 158.569 43.622C158.569 43.7005 158.491 43.7792 158.412 43.7792Z" fill="black"/>
<path d="M172.148 43.7792H160.665C160.587 43.7792 160.508 43.7005 160.508 43.622C160.508 43.5432 160.587 43.4645 160.665 43.4645H172.148C172.226 43.4645 172.305 43.5432 172.305 43.622C172.305 43.7005 172.226 43.7792 172.148 43.7792Z" fill="black"/>
<path d="M180.798 77.807C181.479 77.807 182.031 77.2555 182.031 76.575C182.031 75.8945 181.479 75.3428 180.798 75.3428C180.118 75.3428 179.566 75.8945 179.566 76.575C179.566 77.2555 180.118 77.807 180.798 77.807Z" fill="black"/>
<path d="M178.152 123.081C178.833 123.081 179.384 122.53 179.384 121.849C179.384 121.169 178.833 120.617 178.152 120.617C177.472 120.617 176.92 121.169 176.92 121.849C176.92 122.53 177.472 123.081 178.152 123.081Z" fill="black"/>
<path d="M126.69 78.9603C126.035 78.9603 125.484 78.5148 125.484 77.9643C125.484 77.8855 125.563 77.807 125.642 77.807C125.72 77.807 125.799 77.8855 125.799 77.9643C125.799 78.3313 126.192 78.6458 126.69 78.6458C127.188 78.6458 127.582 78.3313 127.582 77.9643C127.582 77.8855 127.66 77.807 127.739 77.807C127.817 77.807 127.896 77.8855 127.896 77.9643C127.896 78.5148 127.346 78.9603 126.69 78.9603Z" fill="black"/>
<path opacity="0.34" d="M127.528 76.7585V76.8108C127.292 76.9943 127.004 77.204 126.689 77.204C126.375 77.204 126.087 76.9943 125.877 76.8108V76.6535C126.113 76.837 126.401 76.9157 126.689 76.9157C127.004 76.9157 127.292 76.8632 127.528 76.7585Z" fill="black"/>
<path d="M126.953 76.3127C126.901 76.3127 126.822 76.3127 126.769 76.2865C126.638 76.2077 126.586 76.0767 126.586 76.0767C126.586 76.0505 126.586 75.998 126.638 75.998C126.665 75.998 126.717 75.998 126.717 76.0505C126.717 76.0505 126.743 76.1292 126.822 76.1815C126.901 76.2077 127.005 76.2077 127.11 76.1552C127.136 76.1552 127.189 76.1552 127.189 76.1815C127.189 76.2077 127.189 76.2602 127.163 76.2602C127.084 76.3127 127.005 76.3127 126.953 76.3127Z" fill="black"/>
<path d="M127.004 75.6835C126.926 75.6835 126.899 75.6572 126.899 75.6312L126.873 75.5787L126.926 75.5525C126.952 75.5525 126.978 75.5525 127.004 75.5525C127.031 75.5525 127.083 75.5525 127.162 75.5262C127.188 75.5262 127.188 75.5262 127.214 75.5C127.266 75.3952 127.188 75.0545 127.109 74.871C127.109 74.8447 127.109 74.7922 127.135 74.7922C127.162 74.7922 127.214 74.7922 127.214 74.8185C127.24 74.871 127.424 75.369 127.293 75.5787C127.266 75.6312 127.214 75.6572 127.162 75.6572C127.109 75.6835 127.031 75.6835 127.004 75.6835Z" fill="black"/>
<path d="M128.08 73.7172L128.053 74.6872C128.053 74.8182 128.053 74.9495 128.027 75.1067C128.027 75.1067 127.975 74.6087 127.975 74.1892C127.975 74.058 127.949 73.9795 127.922 73.927C127.896 73.927 127.896 73.9532 127.87 73.9532C127.346 74.163 125.878 73.9532 125.878 73.9532C125.747 73.927 125.956 74.4512 125.956 74.4512C125.956 74.4512 125.694 75.1067 125.563 75.2902C125.537 75.3165 125.537 75.3427 125.511 75.3427C125.406 75.3427 125.248 74.8445 125.248 74.8445L125.222 74.8182L125.039 74.7135C125.039 74.6872 125.012 74.661 125.012 74.6347C124.855 74.058 125.039 73.429 125.144 73.429C125.144 73.429 125.17 73.429 125.17 73.4552C125.301 72.8522 125.799 72.3802 126.428 72.328L128.132 72.1182C128.185 72.1182 128.316 73.2192 128.08 73.7172Z" fill="black"/>
<path d="M128.08 74.6875L128.106 73.7175C128.106 74.006 128.08 74.3468 128.08 74.6875Z" fill="black"/>
<path d="M126.69 94.0342C126.035 94.0342 125.484 93.5887 125.484 93.0382C125.484 92.9595 125.563 92.8807 125.642 92.8807C125.72 92.8807 125.799 92.9595 125.799 93.0382C125.799 93.4052 126.192 93.7197 126.69 93.7197C127.188 93.7197 127.582 93.4052 127.582 93.0382C127.582 92.9595 127.66 92.8807 127.739 92.8807C127.817 92.8807 127.896 92.9595 127.896 93.0382C127.896 93.5887 127.346 94.0342 126.69 94.0342Z" fill="black"/>
<path opacity="0.34" d="M127.529 91.7012V91.8585C127.529 91.8585 127.451 92.304 127.031 92.409C126.743 92.4877 126.088 92.042 125.852 91.8847V91.7275C126.088 91.911 126.376 91.9895 126.664 91.9895C126.979 91.9895 127.294 91.8847 127.529 91.7012Z" fill="black"/>
<path d="M127.032 91.3605C127.032 91.3605 127.006 91.3605 127.032 91.3605C126.875 91.3605 126.77 91.2292 126.77 91.203C126.743 91.177 126.743 91.1245 126.77 91.0982C126.796 91.072 126.848 91.072 126.875 91.0982C126.875 91.0982 126.953 91.203 127.058 91.203C127.11 91.203 127.189 91.0982 127.215 90.9932C127.215 90.9672 127.268 90.941 127.294 90.9672C127.32 90.9672 127.346 91.0195 127.32 91.0457C127.294 91.1245 127.189 91.3605 127.032 91.3605Z" fill="black"/>
<path d="M127.162 90.7575C127.11 90.7575 127.031 90.7575 126.953 90.7313C126.927 90.7313 126.9 90.679 126.9 90.6528C126.9 90.6265 126.953 90.6003 126.979 90.6003C127.084 90.6265 127.189 90.6265 127.241 90.6265C127.241 90.5215 127.189 90.207 127.136 89.9448C127.136 89.9188 127.162 89.8663 127.189 89.8663C127.215 89.8663 127.267 89.8925 127.267 89.9188C127.425 90.6528 127.372 90.705 127.346 90.7313C127.294 90.7575 127.241 90.7575 127.162 90.7575Z" fill="black"/>
<path d="M125.957 89.7612L126.403 89.7087L126.586 89.0272L126.822 89.6562L128.395 89.604C128.395 89.604 128.395 88.3717 128.028 88.0835C127.137 87.3755 125.066 87.664 124.882 88.1882C123.729 88.9485 123.833 92.671 124.069 93.3265L126.35 93.038C126.324 93.038 125.826 89.735 125.957 89.7612Z" fill="black"/>
<path d="M103.096 76.2342H80.1314C77.8506 76.2342 76.0156 74.399 76.0156 72.1182V20.7359C76.0156 18.4552 77.8506 16.6201 80.1314 16.6201H103.096C105.377 16.6201 107.212 18.4552 107.212 20.7359V72.1182C107.212 74.399 105.351 76.2342 103.096 76.2342ZM80.1314 16.9347C78.0341 16.9347 76.3301 18.6387 76.3301 20.7359V72.1182C76.3301 74.2155 78.0341 75.9195 80.1314 75.9195H103.096C105.193 75.9195 106.897 74.2155 106.897 72.1182V20.7359C106.897 18.6387 105.193 16.9347 103.096 16.9347H80.1314Z" fill="black"/>
<path d="M101 73.7698H82.229C79.9483 73.7698 78.1133 71.9347 78.1133 69.654V23.0167C78.1133 22.938 78.192 22.8594 78.2705 22.8594C78.3493 22.8594 78.4278 22.938 78.4278 23.0167V69.654C78.4278 71.7513 80.132 73.4553 82.229 73.4553H101C103.097 73.4553 104.801 71.7513 104.801 69.654V23.0167C104.801 22.938 104.879 22.8594 104.958 22.8594C105.037 22.8594 105.115 22.938 105.115 23.0167V69.654C105.115 71.9347 103.28 73.7698 101 73.7698Z" fill="black"/>
<path d="M91.6139 46.0863C90.8274 46.0863 90.1719 45.4308 90.1719 44.6443V41.577C90.1719 40.7908 90.8274 40.1353 91.6139 40.1353C92.4004 40.1353 93.0556 40.7908 93.0556 41.577V44.6443C93.0556 45.4308 92.4004 46.0863 91.6139 46.0863Z" fill="#3913B8"/>
<path d="M91.6131 46.3223C90.4859 46.3223 89.5684 45.562 89.5684 44.6445C89.5684 44.5135 89.6731 44.3823 89.8304 44.3823C89.9879 44.3823 90.0926 44.4873 90.0926 44.6445C90.0926 45.2998 90.8004 45.8243 91.6394 45.8243C92.4784 45.8243 93.1861 45.2998 93.1861 44.6445C93.1861 44.5135 93.2909 44.3823 93.4481 44.3823C93.6056 44.3823 93.7104 44.4873 93.7104 44.6445C93.6579 45.562 92.7404 46.3223 91.6131 46.3223Z" fill="black"/>
<path opacity="0.34" d="M93.0567 42.2065V42.6257C92.6635 42.9405 92.1392 43.3075 91.6147 43.3075C91.0905 43.3075 90.5925 42.9405 90.1992 42.652V42.2065C90.1992 41.787 90.54 41.4722 90.9332 41.4722H92.3227C92.716 41.4462 93.0567 41.787 93.0567 42.2065Z" fill="black"/>
<path d="M91.5884 42.8093C90.2514 42.8093 89.1504 41.7345 89.1504 40.3713V38.9818C89.1504 37.6448 90.2251 36.5438 91.5884 36.5438C92.9254 36.5438 94.0264 35.9408 94.0264 37.2778V40.3713C94.0264 41.7345 92.9254 42.8093 91.5884 42.8093Z" fill="#3913B8"/>
<path d="M89.3136 40.6645C89.6834 40.5377 89.8536 40.0575 89.6941 39.5917C89.5344 39.1262 89.1051 38.8515 88.7354 38.9782C88.3656 39.105 88.1951 39.5852 88.3549 40.051C88.5144 40.5167 88.9436 40.7915 89.3136 40.6645Z" fill="#3913B8"/>
<path d="M92.0591 41.787C91.9544 41.787 91.8494 41.7607 91.7709 41.7082C91.5349 41.6035 91.4561 41.3675 91.4561 41.3675C91.4301 41.315 91.4824 41.2365 91.5349 41.2365C91.5874 41.2102 91.6659 41.2627 91.6659 41.315C91.6659 41.315 91.7184 41.4725 91.8756 41.5247C92.0069 41.5772 92.1904 41.5772 92.3739 41.4985C92.4261 41.4725 92.5049 41.4985 92.5311 41.5772C92.5574 41.656 92.5311 41.7082 92.4524 41.7345C92.2951 41.7607 92.1641 41.787 92.0591 41.787Z" fill="black"/>
<path d="M92.1648 40.686C92.0336 40.686 92.0076 40.6598 91.9813 40.5813L91.9551 40.5025L92.0598 40.45C92.1123 40.4238 92.1386 40.4238 92.1911 40.45C92.2433 40.45 92.3221 40.45 92.4793 40.4238C92.5056 40.4238 92.5318 40.3978 92.5581 40.3715C92.6628 40.188 92.5056 39.6113 92.4006 39.2703C92.3746 39.218 92.4006 39.1393 92.4531 39.113C92.5056 39.0868 92.5843 39.113 92.6103 39.1655C92.6366 39.2703 92.9513 40.1093 92.7678 40.45C92.7153 40.5288 92.6366 40.5813 92.5318 40.6073C92.3221 40.686 92.2171 40.686 92.1648 40.686Z" fill="black"/>
<path d="M91.2204 39.716C91.3506 39.716 91.4561 39.6105 91.4561 39.48C91.4561 39.3498 91.3506 39.2443 91.2204 39.2443C91.0899 39.2443 90.9844 39.3498 90.9844 39.48C90.9844 39.6105 91.0899 39.716 91.2204 39.716Z" fill="black"/>
<path d="M93.1872 39.716C93.3174 39.716 93.4232 39.6105 93.4232 39.48C93.4232 39.3498 93.3174 39.2443 93.1872 39.2443C93.0569 39.2443 92.9512 39.3498 92.9512 39.48C92.9512 39.6105 93.0569 39.716 93.1872 39.716Z" fill="black"/>
<path d="M90.2512 37.7497C90.2512 37.7497 92.7677 38.0905 93.6592 37.7235C94.5505 37.3565 94.8127 36.3865 94.0262 36.1767C93.2397 35.967 89.4122 35.9932 89.0977 36.9107C88.9405 36.675 88.4685 37.9595 88.8617 39.0867L89.2287 39.2965C89.2287 39.2965 89.491 40.1615 89.6482 40.1615C89.8055 40.1615 90.4085 38.6147 90.4085 38.6147C90.4085 38.6147 90.0152 37.6972 90.2512 37.7497Z" fill="black"/>
<path d="M93.4238 37.435C93.4238 37.435 93.8171 38.169 93.8433 38.903C93.8696 39.611 94.0268 39.8468 94.0268 39.8468V37.304L93.4238 37.435Z" fill="black"/>
<path opacity="0.86" d="M101.76 26.5032H81.8359V29.2557H101.76V26.5032Z" fill="#E6E6E6"/>
<path d="M125.642 56.8608H124.331C124.253 56.8608 124.2 56.8083 124.2 56.7298C124.2 56.651 124.253 56.5988 124.331 56.5988H125.642C125.721 56.5988 125.773 56.651 125.773 56.7298C125.773 56.8083 125.695 56.8608 125.642 56.8608ZM123.021 56.8608H121.71C121.631 56.8608 121.579 56.8083 121.579 56.7298C121.579 56.651 121.631 56.5988 121.71 56.5988H123.021C123.099 56.5988 123.152 56.651 123.152 56.7298C123.152 56.8083 123.073 56.8608 123.021 56.8608ZM120.399 56.8608H119.088C119.01 56.8608 118.957 56.8083 118.957 56.7298C118.957 56.651 119.01 56.5988 119.088 56.5988H120.399C120.478 56.5988 120.53 56.651 120.53 56.7298C120.53 56.8083 120.452 56.8608 120.399 56.8608ZM117.778 56.8608H116.467C116.388 56.8608 116.336 56.8083 116.336 56.7298C116.336 56.651 116.388 56.5988 116.467 56.5988H117.778C117.856 56.5988 117.909 56.651 117.909 56.7298C117.909 56.8083 117.83 56.8608 117.778 56.8608ZM115.156 56.8608H113.845C113.767 56.8608 113.714 56.8083 113.714 56.7298C113.714 56.651 113.767 56.5988 113.845 56.5988H115.156C115.235 56.5988 115.287 56.651 115.287 56.7298C115.287 56.8083 115.208 56.8608 115.156 56.8608ZM112.535 56.8608H111.224C111.145 56.8608 111.093 56.8083 111.093 56.7298C111.093 56.651 111.145 56.5988 111.224 56.5988H112.535C112.613 56.5988 112.666 56.651 112.666 56.7298C112.666 56.8083 112.587 56.8608 112.535 56.8608ZM109.913 56.8608H108.602C108.524 56.8608 108.471 56.8083 108.471 56.7298C108.471 56.651 108.524 56.5988 108.602 56.5988H109.913C109.992 56.5988 110.044 56.651 110.044 56.7298C110.044 56.8083 109.965 56.8608 109.913 56.8608ZM107.291 56.8608H105.981C105.902 56.8608 105.85 56.8083 105.85 56.7298C105.85 56.651 105.902 56.5988 105.981 56.5988H107.291C107.37 56.5988 107.422 56.651 107.422 56.7298C107.422 56.8083 107.344 56.8608 107.291 56.8608ZM104.67 56.8608H103.359C103.28 56.8608 103.228 56.8083 103.228 56.7298C103.228 56.651 103.28 56.5988 103.359 56.5988H104.67C104.749 56.5988 104.801 56.651 104.801 56.7298C104.801 56.8083 104.722 56.8608 104.67 56.8608ZM102.048 56.8608H100.738C100.659 56.8608 100.606 56.8083 100.606 56.7298C100.606 56.651 100.659 56.5988 100.738 56.5988H102.048C102.127 56.5988 102.179 56.651 102.179 56.7298C102.179 56.8083 102.101 56.8608 102.048 56.8608ZM99.4268 56.8608H98.1158C98.0373 56.8608 97.9848 56.8083 97.9848 56.7298C97.9848 56.651 98.0373 56.5988 98.1158 56.5988H99.4268C99.5053 56.5988 99.5578 56.651 99.5578 56.7298C99.5578 56.8083 99.479 56.8608 99.4268 56.8608ZM96.805 56.8608H95.4943C95.4158 56.8608 95.3633 56.8083 95.3633 56.7298C95.3633 56.651 95.4158 56.5988 95.4943 56.5988H96.805C96.8838 56.5988 96.9363 56.651 96.9363 56.7298C96.9363 56.8083 96.8575 56.8608 96.805 56.8608Z" fill="black"/>
<path d="M74.652 48.2885C74.2062 48.2885 73.7607 48.236 73.315 48.105C73.2362 48.0787 73.21 48 73.2362 47.9477C73.2625 47.869 73.3412 47.8427 73.3935 47.869C73.7867 48 74.2325 48.0525 74.652 48.0525C74.7305 48.0525 74.783 48.105 74.783 48.1835C74.783 48.2622 74.7305 48.2885 74.652 48.2885ZM72.1877 47.5545C72.1615 47.5545 72.1352 47.5545 72.109 47.5282C71.742 47.2922 71.4012 46.9777 71.113 46.6367C71.0605 46.5845 71.0605 46.5057 71.139 46.4532C71.1915 46.401 71.2702 46.401 71.3225 46.4795C71.5847 46.7942 71.9255 47.0825 72.2662 47.3185C72.3187 47.371 72.345 47.4495 72.2925 47.502C72.2662 47.5282 72.2402 47.5545 72.1877 47.5545ZM70.51 45.5882C70.4575 45.5882 70.405 45.562 70.3787 45.5095C70.1952 45.0902 70.0905 44.6707 70.0117 44.225C70.0117 44.1465 70.0642 44.094 70.1167 44.0677C70.1952 44.0677 70.2477 44.1202 70.274 44.1725C70.3265 44.592 70.4312 45.0115 70.6147 45.4047C70.641 45.4835 70.6147 45.5357 70.5362 45.5882C70.5622 45.5882 70.5362 45.5882 70.51 45.5882ZM70.1952 43.019C70.1952 43.019 70.169 43.019 70.1952 43.019C70.0905 42.993 70.0642 42.9405 70.0642 42.8617C70.143 42.4162 70.274 41.9967 70.4837 41.5772C70.51 41.5247 70.5885 41.4985 70.6672 41.5247C70.7197 41.551 70.772 41.6297 70.7197 41.7082C70.5362 42.1015 70.405 42.4947 70.3265 42.9142C70.3265 42.9667 70.2477 43.019 70.1952 43.019ZM71.3225 40.7122C71.2965 40.7122 71.2702 40.7122 71.244 40.686C71.1915 40.6335 71.1915 40.5547 71.244 40.5025C71.5585 40.1617 71.8992 39.8732 72.2925 39.6635C72.345 39.6372 72.4237 39.6372 72.476 39.716C72.5022 39.7685 72.5022 39.847 72.4237 39.8995C72.0567 40.1092 71.7157 40.3975 71.4275 40.7122C71.4012 40.686 71.375 40.7122 71.3225 40.7122ZM73.551 39.3752C73.4985 39.3752 73.446 39.3227 73.4197 39.2702C73.3935 39.1917 73.446 39.1392 73.5247 39.113C73.8917 39.0082 74.285 38.982 74.6782 38.982C74.7567 38.982 74.8092 39.0342 74.8092 39.113C74.8092 39.1917 74.7567 39.244 74.6782 39.244C74.3112 39.244 73.9442 39.2965 73.6032 39.3752C73.5772 39.3752 73.551 39.3752 73.551 39.3752Z" fill="black"/>
<path d="M152.565 30.121H145.539C144.805 30.121 144.229 30.6977 144.229 31.4317V36.3342C144.229 37.0682 144.805 37.645 145.539 37.645H152.565C153.299 37.645 153.876 37.0682 153.876 36.3342V31.4317C153.876 30.724 153.299 30.121 152.565 30.121ZM150.52 34.2632L148.528 35.5477C148.344 35.6525 148.135 35.5215 148.135 35.338V32.6377C148.135 32.428 148.371 32.297 148.554 32.428L150.52 33.8437C150.678 33.9222 150.678 34.1582 150.52 34.2632Z" fill="#CAA9FF"/>
<path d="M150.52 34.263L148.528 35.5475C148.345 35.6525 148.135 35.5215 148.135 35.338V32.6377C148.135 32.428 148.371 32.297 148.554 32.428L150.52 33.8435C150.678 33.9222 150.678 34.1582 150.52 34.263Z" stroke="#2249B3" stroke-width="0.25"/>
<path d="M153.561 95.0567H140.532C140.453 95.0567 140.4 95.0045 140.4 94.9257C140.4 94.847 140.453 94.7947 140.532 94.7947H153.561C153.639 94.7947 153.692 94.847 153.692 94.9257C153.692 95.0045 153.639 95.0567 153.561 95.0567Z" fill="black"/>
<path d="M147.061 82.4472C146.982 82.4472 146.93 82.421 146.93 82.421V79.5897C146.93 79.5635 146.982 79.5635 147.061 79.5635C147.139 79.5635 147.192 79.5897 147.192 79.5897V82.3947C147.192 82.421 147.113 82.4472 147.061 82.4472Z" fill="black"/>
<path d="M147.401 90.2595C147.349 90.2595 147.27 90.207 147.27 90.1545C147.27 90.076 147.322 90.0235 147.375 89.9973C147.794 89.9448 148.188 89.7875 148.502 89.5255C148.555 89.473 148.633 89.4993 148.686 89.5515C148.738 89.604 148.712 89.6828 148.659 89.735C148.292 90.0235 147.873 90.207 147.401 90.2595ZM146.09 90.1023C146.064 90.1023 146.064 90.1023 146.038 90.1023C145.618 89.9448 145.225 89.6565 144.937 89.2895C144.884 89.237 144.911 89.1583 144.963 89.106C145.015 89.0535 145.094 89.0798 145.147 89.1323C145.409 89.4468 145.75 89.709 146.143 89.8663C146.221 89.8925 146.248 89.971 146.221 90.0235C146.195 90.076 146.143 90.1023 146.09 90.1023ZM149.393 88.7653C149.367 88.7653 149.367 88.7653 149.341 88.7653C149.262 88.739 149.236 88.6603 149.262 88.5818C149.393 88.267 149.472 87.9263 149.472 87.5855C149.472 87.5068 149.472 87.4543 149.472 87.3758C149.472 87.297 149.525 87.2448 149.603 87.2448C149.682 87.2448 149.734 87.297 149.734 87.3758C149.734 87.4543 149.734 87.533 149.734 87.6118C149.734 88.005 149.656 88.372 149.498 88.7128C149.498 88.739 149.446 88.7653 149.393 88.7653ZM144.517 88.1623C144.465 88.1623 144.413 88.1098 144.386 88.0573C144.36 87.9 144.334 87.7428 144.334 87.5855C144.334 87.1135 144.465 86.668 144.675 86.2748C144.701 86.2223 144.78 86.196 144.858 86.2223C144.911 86.2485 144.937 86.327 144.911 86.4058C144.701 86.7728 144.596 87.166 144.596 87.5855C144.596 87.7165 144.596 87.8738 144.622 88.005C144.648 88.0835 144.622 88.136 144.517 88.1623C144.517 88.1623 144.544 88.1623 144.517 88.1623ZM149.184 86.2748C149.131 86.2748 149.105 86.2485 149.079 86.2223C148.843 85.8815 148.528 85.593 148.161 85.4095C148.109 85.3833 148.083 85.3048 148.109 85.226C148.135 85.1735 148.214 85.1475 148.292 85.1735C148.712 85.3833 149.053 85.698 149.315 86.065C149.367 86.1175 149.341 86.196 149.289 86.2485C149.236 86.2748 149.21 86.2748 149.184 86.2748ZM145.697 85.5145C145.645 85.5145 145.618 85.4883 145.592 85.462C145.566 85.4095 145.566 85.331 145.645 85.2785C146.038 85.0425 146.484 84.8853 146.955 84.8853C147.034 84.8853 147.086 84.9378 147.086 85.0163C147.086 85.095 147.034 85.1475 146.955 85.1475C146.536 85.1735 146.143 85.2785 145.776 85.5145C145.75 85.5145 145.723 85.5145 145.697 85.5145Z" fill="black"/>
<path opacity="0.34" d="M51.1115 113.041V113.355C51.1115 113.355 50.928 114.273 50.063 114.509C49.4337 114.666 48.123 113.749 47.625 113.408V113.067C48.0967 113.408 48.6997 113.618 49.329 113.618C50.0105 113.618 50.6135 113.408 51.1115 113.041Z" fill="black"/>
<path d="M50.1158 112.359C49.8538 112.359 49.5653 112.176 49.539 112.149C49.4868 112.097 49.4605 112.018 49.513 111.966C49.5653 111.913 49.644 111.887 49.6965 111.94C49.775 111.992 50.011 112.123 50.1683 112.097C50.378 112.044 50.4043 111.651 50.4043 111.651C50.4043 111.573 50.4568 111.52 50.5353 111.52C50.614 111.52 50.6665 111.573 50.6665 111.651C50.6665 111.677 50.6665 112.254 50.247 112.359C50.1945 112.359 50.142 112.359 50.1158 112.359Z" fill="black"/>
<path d="M50.3776 111.048C50.2466 111.048 50.1156 111.022 49.9321 110.996C49.8534 110.996 49.8009 110.917 49.8271 110.839C49.8271 110.76 49.9059 110.734 49.9844 110.734C50.1941 110.76 50.4301 110.786 50.5089 110.76C50.5089 110.576 50.4039 109.895 50.2729 109.318C50.2466 109.239 50.2991 109.187 50.3776 109.161C50.4564 109.135 50.5089 109.187 50.5351 109.266C50.8759 110.812 50.7709 110.891 50.7186 110.943C50.6399 111.022 50.5351 111.048 50.3776 111.048Z" fill="black"/>
<path d="M47.8617 108.977L48.8054 108.846L49.1724 107.457L49.6704 108.794L52.9212 108.663C52.9212 108.663 52.8949 106.12 52.1347 105.49C50.2997 103.996 45.9742 104.599 45.5809 105.726C43.2214 107.299 43.4049 115.033 43.8769 116.396L48.5957 115.819C48.5957 115.793 47.5732 108.925 47.8617 108.977Z" fill="#3913B8"/>
<path d="M43.5608 116.973L43.5345 116.92C43.0625 115.557 42.9315 109.266 44.5045 106.67C44.5308 106.644 44.557 106.618 44.583 106.644C44.6093 106.67 44.6355 106.696 44.6093 106.723C43.115 109.213 43.22 115.4 43.6393 116.816L48.2533 116.239C48.0173 114.561 47.3095 109.423 47.5455 109.213L47.5718 109.187H47.5978L48.4893 109.056L48.8825 107.457L49.433 108.977L53.2343 108.846C53.2343 108.427 53.1555 105.989 52.474 105.438C52.1593 105.176 51.74 104.94 51.2418 104.809C51.2155 104.809 51.1895 104.756 51.1895 104.73C51.1895 104.704 51.2418 104.678 51.268 104.678C51.7923 104.835 52.2118 105.071 52.5525 105.333C53.339 105.989 53.3653 108.794 53.3653 108.899V108.951L49.328 109.082L48.9088 107.876L48.594 109.134L47.624 109.266C47.5193 109.633 48.0173 113.722 48.3843 116.239V116.318L43.5608 116.973Z" fill="black"/>
<path d="M57.5346 125.204H36.6149C34.8059 125.204 33.3379 123.736 33.3379 121.927V104.337C33.3379 102.528 34.8059 101.06 36.6149 101.06H57.5346C59.3436 101.06 60.8116 102.528 60.8116 104.337V121.927C60.8116 123.736 59.3436 125.204 57.5346 125.204ZM36.6149 101.322C34.9369 101.322 33.6001 102.685 33.6001 104.337V121.927C33.6001 123.605 34.9631 124.942 36.6149 124.942H57.5346C59.2126 124.942 60.5496 123.579 60.5496 121.927V104.337C60.5496 102.659 59.1864 101.322 57.5346 101.322H36.6149Z" fill="black"/>
<path opacity="0.2" d="M169.265 103.891H126.325C126.246 103.891 126.193 103.839 126.193 103.76C126.193 103.682 126.246 103.629 126.325 103.629H169.292C169.37 103.629 169.423 103.682 169.423 103.76C169.423 103.839 169.344 103.891 169.265 103.891Z" fill="black"/>
<path d="M91.614 58.958C90.3033 58.958 89.2285 57.8833 89.2285 56.5723C89.2285 55.2615 90.3033 54.1868 91.614 54.1868C92.925 54.1868 93.9998 55.2615 93.9998 56.5723C93.9998 57.8833 92.925 58.958 91.614 58.958ZM91.614 54.449C90.4345 54.449 89.4908 55.3928 89.4908 56.5723C89.4908 57.752 90.4345 58.6958 91.614 58.6958C92.7938 58.6958 93.7375 57.752 93.7375 56.5723C93.7375 55.3928 92.7938 54.449 91.614 54.449Z" fill="black"/>
<path opacity="0.1" d="M76.1997 24.7207H52.6582V28.3648H76.1997V24.7207Z" fill="black"/>
<path opacity="0.1" d="M76.1992 30.2258H58.1367V37.2253H76.1992V30.2258Z" fill="black"/>
<path opacity="0.1" d="M76.1992 49.9925H58.1367V56.992H76.1992V49.9925Z" fill="black"/>
<path opacity="0.1" d="M76.1992 59.9017H58.1367V66.9015H76.1992V59.9017Z" fill="black"/>
<path opacity="0.1" d="M56.6687 30.2258H52.9199V37.2253H56.6687V30.2258Z" fill="black"/>
<path opacity="0.1" d="M56.6687 49.9925H52.9199V56.992H56.6687V49.9925Z" fill="black"/>
<path opacity="0.1" d="M56.6687 59.9017H52.9199V66.9015H56.6687V59.9017Z" fill="black"/>
<path d="M54.3886 115.426H52.5798C52.5536 115.426 52.5273 115.4 52.5273 115.374C52.5273 115.347 52.5536 115.321 52.5798 115.321H54.2313L53.8643 113.67C53.8643 113.643 53.8906 113.591 53.9168 113.591C53.9431 113.591 53.9953 113.617 53.9953 113.644L54.3886 115.426Z" fill="black"/>
</svg>
