<svg id="Layer_1" xmlns="http://www.w3.org/2000/svg" xmlns:xlink="http://www.w3.org/1999/xlink" viewBox="0 0 385.7 303.4"><style>.st2{display:none}.st3{display:inline;fill:none;stroke:#b3b3b3;stroke-width:.5;stroke-miterlimit:10}</style><image width="345" height="293" xlink:href="F70FBB1F48A7752.png" transform="translate(136.016 19.351)" overflow="visible" opacity=".2"/><linearGradient id="SVGID_1_" gradientUnits="userSpaceOnUse" x1="241.939" y1="165.973" x2="375.59" y2="165.973"><stop offset="0" stop-color="#008db2"/><stop offset="1" stop-color="#00d1b2"/></linearGradient><path d="M246.3 197.3c13.1 17.3 33.7 6.5 39.3 3.2 8.2 7.9 28 9.3 39.1-3.2 24 8.8 47.9 5.8 45-16.2 14.2-17.7 0-32.4-14.4-29.1.7-13.5-10.7-19.4-25.1-16.7-2.4-16.2-30.2-11.1-30.2 1.9-19.9-8.4-31.3 14.2-31.3 14.2s-23.4-1.6-21.3 15.3c-11.7 15.1-1.1 30.6-1.1 30.6z" fill="url(#SVGID_1_)"/><g class="st2"><path class="st3" d="M179.8 120.4l1357.3 783.7-1357.3 783.7-1357.3-783.7zM-1166.3 897.6L191 1681.3M-1155.1 891.1l1357.3 783.7M-1143.9 884.7l1357.3 783.7M-1132.7 878.2l1357.3 783.7M-1121.4 871.7l1357.3 783.7M-1110.2 865.2l1357.3 783.7M-1099 858.8l1357.3 783.7M-1087.8 852.3L269.5 1636M-1076.6 845.8l1357.3 783.7M-1065.4 839.3L291.9 1623M-1054.1 832.9l1357.3 783.7M-1042.9 826.4l1357.3 783.7M-1031.7 819.9l1357.3 783.7M-1020.5 813.4l1357.3 783.7M-1009.3 806.9L348 1590.6M-998 800.5l1357.2 783.7M-986.8 794l1357.3 783.7M-975.6 787.5l1357.3 783.7M-964.4 781l1357.3 783.7M-953.2 774.6l1357.3 783.7M-942 768.1l1357.3 783.7M-930.7 761.6l1357.2 783.7M-919.5 755.1l1357.3 783.7M-908.3 748.7L449 1532.4M-897.1 742.2l1357.3 783.7M-885.9 735.7l1357.3 783.7M-874.7 729.2l1357.3 783.7M-863.4 722.7l1357.3 783.7M-852.2 716.3L505.1 1500M-841 709.8l1357.3 783.7M-829.8 703.3L527.5 1487M-818.6 696.8l1357.3 783.7M-807.4 690.4l1357.3 783.7M-796.1 683.9l1357.3 783.7M-784.9 677.4l1357.3 783.7M-773.7 670.9l1357.3 783.7M-762.5 664.5l1357.3 783.7M-751.3 658L606 1441.7M-740.1 651.5l1357.3 783.7M-728.8 645l1357.3 783.7M-717.6 638.5l1357.3 783.7M-706.4 632.1l1357.3 783.7M-695.2 625.6l1357.3 783.7M-684 619.1l1357.3 783.7M-672.7 612.6l1357.2 783.7M-661.5 606.2l1357.3 783.7M-650.3 599.7L707 1383.4M-639.1 593.2l1357.3 783.7M-627.9 586.7l1357.3 783.7M-616.7 580.3L740.6 1364M-605.4 573.8l1357.2 783.7M-594.2 567.3L763.1 1351M-583 560.8l1357.3 783.7M-571.8 554.4l1357.3 783.7M-560.6 547.9l1357.3 783.7M-549.4 541.4l1357.3 783.7M-538.1 534.9l1357.3 783.7M-526.9 528.4l1357.3 783.7M-515.7 522l1357.3 783.7M-504.5 515.5l1357.3 783.7M-493.3 509L864 1292.7M-482.1 502.5l1357.3 783.7M-470.8 496.1l1357.3 783.7M-459.6 489.6l1357.3 783.7M-448.4 483.1l1357.3 783.7M-437.2 476.6l1357.3 783.7M-426 470.2l1357.3 783.7M-414.7 463.7l1357.2 783.7M-403.5 457.2l1357.3 783.7M-392.3 450.7L965 1234.4M-381.1 444.2l1357.3 783.7M-369.9 437.8l1357.3 783.7M-358.7 431.3L998.6 1215M-347.4 424.8l1357.2 783.7M-336.2 418.3L1021.1 1202M-325 411.9l1357.3 783.7M-313.8 405.4l1357.3 783.7M-302.6 398.9l1357.3 783.7M-291.4 392.4l1357.3 783.7M-280.1 386l1357.2 783.7M-268.9 379.5l1357.3 783.7M-257.7 373l1357.3 783.7M-246.5 366.5l1357.3 783.7M-235.3 360L1122 1143.7M-224.1 353.6l1357.3 783.7M-212.8 347.1l1357.3 783.7M-201.6 340.6l1357.3 783.7M-190.4 334.1l1357.3 783.7M-179.2 327.7l1357.3 783.7M-168 321.2l1357.3 783.7M-156.8 314.7l1357.3 783.7M-145.5 308.2l1357.3 783.7M-134.3 301.8L1223 1085.5M-123.1 295.3L1234.2 1079M-111.9 288.8l1357.3 783.7M-100.7 282.3L1256.6 1066M-89.4 275.8l1357.2 783.7M-78.2 269.4l1357.3 783.7M-67 262.9l1357.3 783.7M-55.8 256.4l1357.3 783.7M-44.6 249.9l1357.3 783.7M-33.4 243.5l1357.3 783.7M-22.1 237l1357.2 783.7M-10.9 230.5l1357.3 783.7M.3 224l1357.3 783.7M11.5 217.6l1357.3 783.7M22.7 211.1L1380 994.8M33.9 204.6l1357.3 783.7M45.2 198.1l1357.3 783.7M56.4 191.6l1357.3 783.7M67.6 185.2l1357.3 783.7M78.8 178.7l1357.3 783.7M90 172.2l1357.3 783.7M101.2 165.7l1357.3 783.7M112.5 159.3L1469.8 943M123.7 152.8L1481 936.5M134.9 146.3L1492.2 930M146.1 139.8l1357.3 783.7M157.3 133.4l1357.3 783.7M168.5 126.9l1357.3 783.7M1525.8 897.6L168.5 1681.3M1514.6 891.1L157.3 1674.8M1503.4 884.7L146.1 1668.4M1492.2 878.2L134.9 1661.9M1481 871.7L123.7 1655.4M1469.8 865.2L112.5 1648.9M1458.5 858.8L101.2 1642.5M1447.3 852.3L90 1636M1436.1 845.8L78.8 1629.5M1424.9 839.3L67.6 1623M1413.7 832.9L56.4 1616.6M1402.5 826.4L45.2 1610.1M1391.2 819.9L33.9 1603.6M1380 813.4L22.7 1597.1M1368.8 806.9L11.5 1590.6M1357.6 800.5L.3 1584.2M1346.4 794L-10.9 1577.7M1335.1 787.5L-22.1 1571.2M1323.9 781L-33.4 1564.7M1312.7 774.6L-44.6 1558.3M1301.5 768.1L-55.8 1551.8M1290.3 761.6L-67 1545.3M1279.1 755.1L-78.2 1538.8M1267.8 748.7L-89.4 1532.4M1256.6 742.2l-1357.3 783.7M1245.4 735.7l-1357.3 783.7M1234.2 729.2l-1357.3 783.7M1223 722.7l-1357.3 783.7M1211.8 716.3L-145.5 1500M1200.5 709.8l-1357.3 783.7M1189.3 703.3L-168 1487M1178.1 696.8l-1357.3 783.7M1166.9 690.4l-1357.3 783.7M1155.7 683.9l-1357.3 783.7M1144.5 677.4l-1357.3 783.7M1133.2 670.9l-1357.3 783.7M1122 664.5l-1357.3 783.7M1110.8 658l-1357.3 783.7M1099.6 651.5l-1357.3 783.7M1088.4 645l-1357.3 783.7M1077.1 638.5l-1357.2 783.7M1065.9 632.1l-1357.3 783.7M1054.7 625.6l-1357.3 783.7M1043.5 619.1l-1357.3 783.7M1032.3 612.6L-325 1396.3M1021.1 606.2l-1357.3 783.7M1009.8 599.7l-1357.2 783.7M998.6 593.2l-1357.3 783.7M987.4 586.7l-1357.3 783.7M976.2 580.3L-381.1 1364M965 573.8l-1357.3 783.7M953.8 567.3L-403.5 1351M942.5 560.8l-1357.2 783.7M931.3 554.4L-426 1338.1M920.1 547.9l-1357.3 783.7M908.9 541.4l-1357.3 783.7M897.7 534.9l-1357.3 783.7M886.5 528.4l-1357.3 783.7M875.2 522l-1357.3 783.7M864 515.5l-1357.3 783.7M852.8 509l-1357.3 783.7M841.6 502.5l-1357.3 783.7M830.4 496.1l-1357.3 783.7M819.2 489.6l-1357.3 783.7M807.9 483.1l-1357.3 783.7M796.7 476.6l-1357.3 783.7M785.5 470.2l-1357.3 783.7M774.3 463.7L-583 1247.4M763.1 457.2l-1357.3 783.7M751.8 450.7l-1357.2 783.7M740.6 444.2l-1357.3 783.7M729.4 437.8l-1357.3 783.7M718.2 431.3L-639.1 1215M707 424.8l-1357.3 783.7M695.8 418.3L-661.5 1202M684.5 411.9l-1357.2 783.7M673.3 405.4L-684 1189.1M662.1 398.9l-1357.3 783.7M650.9 392.4l-1357.3 783.7M639.7 386l-1357.3 783.7M628.5 379.5l-1357.3 783.7M617.2 373l-1357.3 783.7M606 366.5l-1357.3 783.7M594.8 360l-1357.3 783.7M583.6 353.6l-1357.3 783.7M572.4 347.1l-1357.3 783.7M561.2 340.6l-1357.3 783.7M549.9 334.1l-1357.3 783.7M538.7 327.7l-1357.3 783.7M527.5 321.2l-1357.3 783.7M516.3 314.7L-841 1098.4M505.1 308.2l-1357.3 783.7M493.9 301.8l-1357.3 783.7M482.6 295.3L-874.7 1079M471.4 288.8l-1357.3 783.7M460.2 282.3L-897.1 1066M449 275.8l-1357.3 783.7M437.8 269.4l-1357.3 783.7M426.5 262.9l-1357.2 783.7M415.3 256.4L-942 1040.1M404.1 249.9l-1357.3 783.7M392.9 243.5l-1357.3 783.7M381.7 237l-1357.3 783.7M370.5 230.5l-1357.3 783.7M359.2 224L-998 1007.7M348 217.6l-1357.3 783.7M336.8 211.1l-1357.3 783.7M325.6 204.6l-1357.3 783.7M314.4 198.1l-1357.3 783.7M303.2 191.6l-1357.3 783.7M291.9 185.2l-1357.3 783.7M280.7 178.7l-1357.3 783.7M269.5 172.2l-1357.3 783.7M258.3 165.7L-1099 949.4M247.1 159.3L-1110.2 943M235.9 152.8l-1357.3 783.7M224.6 146.3L-1132.7 930M213.4 139.8l-1357.3 783.7M202.2 133.4l-1357.3 783.7M191 126.9l-1357.3 783.7"/></g><image width="576" height="372" xlink:href="F70FBB1F48A7756.png" transform="translate(-94.984 -93.649)" overflow="visible" opacity=".2"/><linearGradient id="SVGID_2_" gradientUnits="userSpaceOnUse" x1="10.159" y1="92.304" x2="375.328" y2="92.304"><stop offset="0" stop-color="#008db2"/><stop offset="1" stop-color="#00d1b2"/></linearGradient><path d="M232.5 166.8s63.2-4.5 95.2-18.5c3.6 17.1 16.2 17.1 20.2 13 13.4 10.3 43.9-11.4 16-29.5 11.4-15.8-4.7-36-32.9-30.7 0 0 11.6-9.8-14.5-17.5-10.5-6.1-9.7-16.6-20.8-6.5 0 0 6.3-60.7-40.9-42.1 3.1-16.2-29-33.9-56.3-12.9 0 0-14.4-.3-15.4 3.1-1.3-10-25.8-21.1-38.3-6.5 0 0-3.6-7.9-13.5 0s2.1 19.4 2.1 19.4-38.8-11.6-35.6 19.6c-22.5-9.8-37.7 1-39.3 22.3-13.5-2.9-26.7-1.6-22.4 20.7-8.7 0-15.4 12.4-7.7 21.7 2.1 6.5.9 16.1 7.7 17.1-5.6 5.6-12.4 7.8-11.1 15.3-11.3-3.9-19.9 3.4-11.3 15.3 16.8 7.4 28-2.3 28-2.3s7.1-12.1 33.7 0 100-9.1 100-9.1l57.1 8.1z" fill="url(#SVGID_2_)"/><linearGradient id="SVGID_3_" gradientUnits="userSpaceOnUse" x1="239.097" y1="140.177" x2="269.249" y2="140.177"><stop offset="0" stop-color="#0a50a0"/><stop offset="1" stop-color="#0a1a60"/></linearGradient><path d="M250.1 162l15.3-9.1c2.4-1.4 3.9-3.9 3.9-6.7v-21.5c-4.3 3.1-11.2-6.5-11.2-6.5v22.9c0 1.8-1 3.5-2.6 4.4l-16.4 9.7 11 6.8z" fill="url(#SVGID_3_)"/><linearGradient id="SVGID_4_" gradientUnits="userSpaceOnUse" x1="126.091" y1="194.882" x2="281.452" y2="194.882"><stop offset="0" stop-color="#0a50a0"/><stop offset="1" stop-color="#0a1a60"/></linearGradient><path d="M127.4 263c-1.7-1-1.7-3.4 0-4.4L230 198.9c7.2-4.2 7.2-14.7 0-18.9l-64.8-37.9c-4.9-2.9-8-8.2-8-13.9v-16.8s14.1 4 22-13l.3 17c.1 5.6 3.1 10.7 7.9 13.5l14.8 8.5 73.9 42.7c7.2 4.1 7.2 14.5 0 18.6L188.5 249c-2.7 1.6-2.7 5.5.1 7l43.1 1.8c2 1.1 2 4 0 5.2l-46.1 26.7c-3.7 2.1-8.2 2.1-11.8 0L127.4 263z" fill="url(#SVGID_4_)"/><linearGradient id="SVGID_5_" gradientUnits="userSpaceOnUse" x1="147.348" y1="193.127" x2="262.391" y2="193.127"><stop offset="0" stop-color="#0ff"/><stop offset="1" stop-color="#29abe2"/></linearGradient><path d="M168.4 109.8v14.6c0 4.3 2.3 8.3 6 10.5l84.1 48.6c4.8 2.8 4.8 9.7 0 12.4l-109.9 62.7c-1.4.8-1.4 2.9.1 3.6l27.8 13.5c1.9.9 4.2.9 6.1 0l15.9-7.7c1.9-.9 1.3-3.8-.9-3.8h-21.5c-1.1 0-2.1.9-2.1 2.1v2.1" fill="none" stroke="url(#SVGID_5_)" stroke-width=".5" stroke-miterlimit="10"/><linearGradient id="SVGID_6_" gradientUnits="userSpaceOnUse" x1="136.788" y1="196.882" x2="253.194" y2="196.882"><stop offset="0" stop-color="#0ff"/><stop offset="1" stop-color="#29abe2"/></linearGradient><path d="M162.8 111.1v18c0 3.4 1.8 6.5 4.7 8.2l82.8 47.8c3.5 2 3.5 7 0 9L138 258.5c-1.4.8-1.4 2.9.1 3.7l37.6 19.4c2.4 1.2 5.3 1.2 7.7 0l33.7-17.3c1.9-1 1.2-3.8-.9-3.8h-44.8c-1.7 0-3.1 1.4-3.1 3.1v2.1" fill="none" stroke="url(#SVGID_6_)" stroke-width=".5" stroke-miterlimit="10"/><linearGradient id="SVGID_7_" gradientUnits="userSpaceOnUse" x1="158.347" y1="188.66" x2="271.436" y2="188.66"><stop offset="0" stop-color="#0ff"/><stop offset="1" stop-color="#29abe2"/></linearGradient><path d="M174 106.4v15.5c0 3.8 2 7.3 5.3 9.2l87.2 50.3c6.3 3.6 6.2 12.6 0 16.2l-107.3 61.6c-.8.5-.8 1.7.1 2.1l19.5 9.1c.6.3 1.2.2 1.7 0l4.2-2.1c.5-.3.3-1.1-.2-1.1h-3.6c-.7 0-1.2.5-1.2 1.2v2" fill="none" stroke="url(#SVGID_7_)" stroke-width=".5" stroke-miterlimit="10"/><linearGradient id="SVGID_8_" gradientUnits="userSpaceOnUse" x1="244.3" y1="141.239" x2="264.016" y2="141.239"><stop offset="0" stop-color="#0ff"/><stop offset="1" stop-color="#29abe2"/></linearGradient><path d="M244.4 158.6l17.2-10.4c1.3-.8 2.1-2.2 2.1-3.8v-20.8" fill="none" stroke="url(#SVGID_8_)" stroke-width=".5" stroke-miterlimit="10"/><g class="st2"><linearGradient id="SVGID_9_" gradientUnits="userSpaceOnUse" x1="1458.798" y1="1308.229" x2="1458.798" y2="1036.201"><stop offset="0" stop-color="#460055"/><stop offset=".994" stop-color="#940080"/></linearGradient><path opacity=".76" fill="url(#SVGID_9_)" d="M1235.1 1178.2l223.4 130 224-129.3v-13l-223-129.7-224.4 129z"/><linearGradient id="SVGID_10_" gradientUnits="userSpaceOnUse" x1="1458.798" y1="1295.275" x2="1458.798" y2="1036.201"><stop offset="0" stop-color="#460055"/><stop offset=".994" stop-color="#940080"/></linearGradient><path opacity=".76" fill="url(#SVGID_10_)" d="M1235.1 1165.2l223.4 130.1 224-129.4-222.6-129.7z"/></g><linearGradient id="SVGID_11_" gradientUnits="userSpaceOnUse" x1="179.141" y1="291.849" x2="179.141" y2="181.742"><stop offset="0" stop-color="#0ff"/><stop offset="1" stop-color="#f2f2f2" stop-opacity="0"/></linearGradient><path d="M126.2 263.1l-1.3-50.1c0-1.3.7-2.6 2-3.3l50.6-27.4c1.2-.7 2.8-.7 4 0l49.6 27.4c1.2.7 1.9 1.9 1.9 3.1l.2 48.8c0 1.3-.7 2.5-1.9 3.2l-45.7 25.4c-4 2.2-9.1 2.3-13.1.1l-44.3-24.1c-1.2-.7-1.9-1.9-2-3.1z" opacity=".58" fill="url(#SVGID_11_)"/><linearGradient id="SVGID_12_" gradientUnits="userSpaceOnUse" x1="179.141" y1="282.59" x2="179.141" y2="220.327"><stop offset="0" stop-color="#0ff"/><stop offset="1" stop-color="#f2f2f2" stop-opacity="0"/></linearGradient><path d="M147.8 266.3L147 238c0-.8.4-1.5 1.2-1.8l30-15.5c.7-.4 1.6-.4 2.4 0l29.4 15.5c.7.4 1.1 1 1.1 1.8l.1 27.6c0 .7-.4 1.4-1.1 1.8L183 281.6c-2.4 1.3-5.4 1.3-7.8 0L148.9 268c-.7-.3-1.1-1-1.1-1.7z" opacity=".58" fill="url(#SVGID_12_)"/><linearGradient id="SVGID_13_" gradientUnits="userSpaceOnUse" x1="180.016" y1="269.516" x2="180.016" y2="223.475"><stop offset="0" stop-color="#0ff"/><stop offset="1" stop-color="#f2f2f2" stop-opacity="0"/></linearGradient><path d="M156.8 257.5l-.6-21c0-.6.3-1.1.9-1.4l22.2-11.5c.5-.3 1.2-.3 1.8 0l21.7 11.5c.5.3.8.8.8 1.3l.1 20.4c0 .5-.3 1-.8 1.3l-20.1 10.6c-1.8.9-4 .9-5.7 0l-19.4-10.1c-.5-.1-.9-.6-.9-1.1z" opacity=".58" fill="url(#SVGID_13_)"/><g class="st2"><image width="273" height="248" xlink:href="F70FBB1F48A7751.png" transform="translate(19.016 -21.649)" overflow="visible" opacity=".2"/><linearGradient id="SVGID_14_" gradientUnits="userSpaceOnUse" x1="142.763" y1="84.31" x2="169.939" y2="116.697"><stop offset="0" stop-color="#008db2" stop-opacity=".5"/><stop offset=".238" stop-color="#00a7b2" stop-opacity=".619"/><stop offset=".515" stop-color="#00beb2" stop-opacity=".757"/><stop offset=".775" stop-color="#00ccb2" stop-opacity=".888"/><stop offset="1" stop-color="#00d1b2"/></linearGradient><path d="M132.8 114.5s8.6 11.6 20.5 3.9c8.2 2.7 24.5-1.6 25.9-16 6.2 1.6 11-9.2 4.3-12.6-6.7-3.4-21.1-10.1-27.8-1.3-18.7 1.3-45 10-22.9 26z" fill="url(#SVGID_14_)"/></g></svg>