<svg id="Layer_1" xmlns="http://www.w3.org/2000/svg" xmlns:xlink="http://www.w3.org/1999/xlink" viewBox="0 0 487.5 765.6"><style>.st0{fill:#fff}.st17,.st27{fill:none;stroke:#00d1b2;stroke-width:.5;stroke-miterlimit:10}.st27{fill:#fff}</style><image width="660" height="345" xlink:href="505BE3611F968E3F.png" transform="translate(-86.248 284.47)" overflow="visible" opacity=".2"/><path class="st0" d="M467.8 523.8c0-3.7-2-7.1-5.2-9L248.8 391c-3.2-1.9-7.1-1.9-10.4 0L24.1 514.1c-3.2 1.9-5.2 5.3-5.2 9"/><image width="345" height="293" xlink:href="505BE3611F968E3D.png" transform="translate(199.752 62.47)" overflow="visible" opacity=".2"/><linearGradient id="SVGID_1_" gradientUnits="userSpaceOnUse" x1="305.675" y1="209.092" x2="439.327" y2="209.092"><stop offset="0" stop-color="#008db2"/><stop offset="1" stop-color="#00d1b2"/></linearGradient><path d="M310.1 240.4c13.1 17.3 33.7 6.5 39.3 3.2 8.2 7.9 28 9.3 39.1-3.2 24 8.8 47.9 5.8 45-16.2 14.2-17.7 0-32.4-14.4-29.1.7-13.5-10.7-19.4-25.1-16.7-2.4-16.2-30.2-11.1-30.2 1.9-19.9-8.4-31.3 14.2-31.3 14.2s-23.4-1.6-21.3 15.3c-11.8 15.1-1.1 30.6-1.1 30.6z" fill="url(#SVGID_1_)"/><image width="576" height="372" xlink:href="505BE3611F968E43.png" transform="translate(-31.248 -50.53)" overflow="visible" opacity=".2"/><linearGradient id="SVGID_2_" gradientUnits="userSpaceOnUse" x1="73.895" y1="135.423" x2="439.064" y2="135.423"><stop offset="0" stop-color="#008db2"/><stop offset="1" stop-color="#00d1b2"/></linearGradient><path d="M296.2 209.9s63.2-4.5 95.2-18.5c3.6 17.1 16.2 17.1 20.2 13 13.4 10.3 43.9-11.4 16-29.5 11.4-15.8-4.7-36-32.9-30.7 0 0 11.6-9.8-14.5-17.5-10.5-6.1-9.7-16.6-20.8-6.5 0 0 6.3-60.7-40.9-42.1 3.1-16.2-29-33.9-56.3-12.9 0 0-14.4-.3-15.4 3.1-1.3-10-25.8-21.1-38.3-6.5 0 0-3.6-7.9-13.5 0s2.1 19.4 2.1 19.4-38.8-11.7-35.7 19.4c-22.4-9.7-37.6 1.1-39.3 22.3-13.5-2.9-26.7-1.6-22.4 20.7-8.7 0-15.4 12.4-7.7 21.7 2.1 6.5.9 16.1 7.7 17.1-5.6 5.6-12.4 7.8-11.1 15.3-11.3-3.9-19.9 3.4-11.3 15.3 16.8 7.4 28-2.3 28-2.3s7.1-12.1 33.7 0 100-9.1 100-9.1l57.2 8.3z" fill="url(#SVGID_2_)"/><path d="M131.2 453L19 517.8l112.2 64.8 95.5 55.2c10.3 5.9 23 5.9 33.2 0l95.6-55.2 112.2-64.8-224.3-129.6L131.2 453z" opacity=".26" fill="#d8d8d8"/><image width="431" height="372" xlink:href="505BE3611F968E45.png" transform="translate(27.752 220.47)" overflow="visible" opacity=".2"/><path class="st0" d="M133.1 416.4v-75.6c0-11.7 12.6-19 22.8-13.1l72.7 42c9.2 5.3 20.4 5.3 29.6 0l72.7-41.8c10.1-5.8 22.7 1.5 22.7 13.1v75.4c0 5.4-2.9 10.4-7.6 13.1l-95.1 54.9c-4.7 2.7-10.5 2.7-15.2 0l-95-54.9c-4.7-2.6-7.6-7.6-7.6-13.1z"/><path d="M243.4 385.4c0-3.7-1.9-7.1-5.1-8.9l-83.9-49.6c-10.3-5.9-23.2 1.5-23.2 13.4v76c0 5.5 2.9 10.6 7.7 13.4l101.2 58.9c1.4.8 3.3-.2 3.3-1.9V385.4z" opacity=".26" fill="#e6e6e6"/><image width="449" height="362" xlink:href="505BE3611F968E47.png" transform="translate(18.752 128.47)" overflow="visible" opacity=".2"/><linearGradient id="SVGID_3_" gradientUnits="userSpaceOnUse" x1="124.678" y1="309.361" x2="361.991" y2="309.361"><stop offset="0" stop-color="#008db2"/><stop offset="1" stop-color="#00d1b2"/></linearGradient><path d="M251.3 382.5L354 323.2c10.6-6.1 10.6-21.4 0-27.6l-102.7-59.4c-4.9-2.8-11-2.8-15.9 0l-102.8 59.3c-10.6 6.1-10.6 21.4 0 27.6l102.8 59.3c4.9 2.9 11 2.9 15.9.1z" fill="url(#SVGID_3_)"/><linearGradient id="SVGID_4_" gradientUnits="userSpaceOnUse" x1="302.834" y1="183.296" x2="332.986" y2="183.296"><stop offset="0" stop-color="#0a50a0"/><stop offset="1" stop-color="#0a1a60"/></linearGradient><path d="M313.8 205.1l15.3-9.1c2.4-1.4 3.9-3.9 3.9-6.7v-21.5c-4.3 3.1-11.2-6.5-11.2-6.5v22.9c0 1.8-1 3.5-2.6 4.4l-16.4 9.7 11 6.8z" fill="url(#SVGID_4_)"/><linearGradient id="SVGID_5_" gradientUnits="userSpaceOnUse" x1="189.827" y1="238.001" x2="345.188" y2="238.001"><stop offset="0" stop-color="#0a50a0"/><stop offset="1" stop-color="#0a1a60"/></linearGradient><path d="M191.1 306.1c-1.7-1-1.7-3.4 0-4.4L293.7 242c7.2-4.2 7.2-14.7 0-18.9l-64.8-37.9c-4.9-2.9-8-8.2-8-13.9v-16.8s14.1 4 22-13l.3 17c.1 5.6 3.1 10.7 7.9 13.5l14.8 8.5 73.9 42.7c7.2 4.1 7.2 14.5 0 18.6l-87.6 50.3c-2.7 1.6-2.7 5.5.1 7l43.1 1.8c2 1.1 2 4 0 5.2l-46.1 26.7c-3.7 2.1-8.2 2.1-11.8 0l-46.4-26.7z" fill="url(#SVGID_5_)"/><linearGradient id="SVGID_6_" gradientUnits="userSpaceOnUse" x1="211.084" y1="236.246" x2="326.127" y2="236.246"><stop offset="0" stop-color="#0ff"/><stop offset="1" stop-color="#29abe2"/></linearGradient><path d="M232.2 152.9v14.6c0 4.3 2.3 8.3 6 10.5l84.1 48.6c4.8 2.8 4.8 9.7 0 12.4l-109.9 62.7c-1.4.8-1.4 2.9.1 3.6l27.8 13.5c1.9.9 4.2.9 6.1 0l15.9-7.7c1.9-.9 1.3-3.8-.9-3.8h-21.5c-1.1 0-2.1.9-2.1 2.1v2.1" fill="none" stroke="url(#SVGID_6_)" stroke-width=".5" stroke-miterlimit="10"/><linearGradient id="SVGID_7_" gradientUnits="userSpaceOnUse" x1="200.524" y1="240" x2="316.93" y2="240"><stop offset="0" stop-color="#0ff"/><stop offset="1" stop-color="#29abe2"/></linearGradient><path d="M226.5 154.2v18c0 3.4 1.8 6.5 4.7 8.2l82.8 47.8c3.5 2 3.5 7 0 9l-112.3 64.4c-1.4.8-1.4 2.9.1 3.7l37.6 19.4c2.4 1.2 5.3 1.2 7.7 0l33.7-17.3c1.9-1 1.2-3.8-.9-3.8h-44.8c-1.7 0-3.1 1.4-3.1 3.1v2.1" fill="none" stroke="url(#SVGID_7_)" stroke-width=".5" stroke-miterlimit="10"/><linearGradient id="SVGID_8_" gradientUnits="userSpaceOnUse" x1="222.083" y1="231.778" x2="335.173" y2="231.778"><stop offset="0" stop-color="#0ff"/><stop offset="1" stop-color="#29abe2"/></linearGradient><path d="M237.8 149.6V165c0 3.8 2 7.3 5.3 9.2l87.2 50.3c6.3 3.6 6.2 12.6 0 16.2L223 302.3c-.8.5-.8 1.7.1 2.1l19.5 9.1c.6.3 1.2.2 1.7 0l4.2-2.1c.5-.3.3-1.1-.2-1.1h-3.6c-.7 0-1.2.5-1.2 1.2v2" fill="none" stroke="url(#SVGID_8_)" stroke-width=".5" stroke-miterlimit="10"/><linearGradient id="SVGID_9_" gradientUnits="userSpaceOnUse" x1="308.037" y1="184.357" x2="327.752" y2="184.357"><stop offset="0" stop-color="#0ff"/><stop offset="1" stop-color="#29abe2"/></linearGradient><path d="M308.2 201.7l17.2-10.4c1.3-.8 2.1-2.2 2.1-3.8v-20.8" fill="none" stroke="url(#SVGID_9_)" stroke-width=".5" stroke-miterlimit="10"/><linearGradient id="SVGID_10_" gradientUnits="userSpaceOnUse" x1="253.339" y1="491.769" x2="457.728" y2="491.769"><stop offset="0" stop-color="#00d1b2"/><stop offset="1" stop-color="#197c82"/></linearGradient><path d="M258.3 500.4l89.1 51.5c5 2.9 11.2 2.9 16.2 0l89.1-51.4c6.7-3.9 6.7-17.5 0-21.3l-89.1-47.4c-5-2.9-11.2-2.9-16.1 0l-89.1 47.5c-6.7 3.7-6.7 17.3-.1 21.1z" fill="url(#SVGID_10_)"/><linearGradient id="SVGID_11_" gradientUnits="userSpaceOnUse" x1="253.339" y1="487.792" x2="457.728" y2="487.792"><stop offset="0" stop-color="#008db2"/><stop offset="1" stop-color="#00d1b2"/></linearGradient><path d="M258.3 496.4l89.1 51.5c5 2.9 11.2 2.9 16.2 0l89.1-51.4c6.7-3.9 6.7-13.5 0-17.4l-89.1-51.4c-5-2.9-11.2-2.9-16.1 0l-89.1 51.4c-6.7 3.9-6.7 13.5-.1 17.3z" fill="url(#SVGID_11_)"/><linearGradient id="SVGID_12_" gradientUnits="userSpaceOnUse" x1="29.051" y1="491.771" x2="233.351" y2="491.771"><stop offset="0" stop-color="#00d1b2"/><stop offset="1" stop-color="#197c82"/></linearGradient><path d="M34.1 500.5l89 51.4c5 2.9 11.2 2.9 16.2 0l89-51.4c6.7-3.9 6.7-17 0-20.8l-89-48c-5-2.9-11.2-2.9-16.1 0l-89 48c-6.8 3.8-6.8 16.9-.1 20.8z" fill="url(#SVGID_12_)"/><linearGradient id="SVGID_13_" gradientUnits="userSpaceOnUse" x1="29.051" y1="487.792" x2="233.351" y2="487.792"><stop offset="0" stop-color="#008db2"/><stop offset="1" stop-color="#00d1b2"/></linearGradient><path d="M34.1 496.5l89 51.4c5 2.9 11.2 2.9 16.2 0l89-51.4c6.7-3.9 6.7-13.5 0-17.4l-89-51.4c-5-2.9-11.2-2.9-16.1 0l-89 51.4c-6.8 3.8-6.8 13.5-.1 17.4z" fill="url(#SVGID_13_)"/><path class="st17" d="M254.6 498.2v38.9l22.4 12.7V563M265.8 504.7v38.9"/><ellipse class="st17" cx="277" cy="564.6" rx="2" ry="1.2"/><ellipse class="st17" cx="254.5" cy="575" rx="2" ry="1.2"/><ellipse class="st17" cx="243.9" cy="557" rx="2" ry="1.2"/><ellipse class="st17" cx="198.5" cy="557.5" rx="2" ry="1.2"/><ellipse class="st17" cx="141.1" cy="563.4" rx="2" ry="1.2"/><ellipse class="st17" cx="133.2" cy="568.6" rx="2" ry="1.2"/><ellipse class="st17" cx="131.2" cy="606.2" rx="1.2" ry="2"/><ellipse class="st17" cx="110.1" cy="608.4" rx="1.2" ry="2"/><ellipse class="st17" cx="220.9" cy="518.3" rx="2" ry="1.2"/><ellipse class="st17" cx="288.2" cy="530.6" rx="2" ry="1.2"/><ellipse class="st17" cx="277" cy="523" rx="2" ry="1.2"/><ellipse class="st17" cx="220.9" cy="530.6" rx="2" ry="1.2"/><ellipse class="st17" cx="188.3" cy="640.7" rx="1.2" ry="2"/><ellipse class="st17" cx="220.9" cy="594.7" rx="2" ry="1.2"/><ellipse class="st17" cx="243.3" cy="581" rx="2" ry="1.2"/><ellipse class="st17" cx="232.1" cy="587.8" rx="2" ry="1.2"/><ellipse class="st17" cx="366.7" cy="603.9" rx="1.2" ry="2"/><linearGradient id="SVGID_14_" gradientUnits="userSpaceOnUse" x1="243.084" y1="548.631" x2="310.801" y2="548.631"><stop offset="0" stop-color="#00d1b2"/><stop offset="1" stop-color="#008db2"/></linearGradient><path fill="none" stroke="url(#SVGID_14_)" stroke-width=".5" stroke-miterlimit="10" d="M243.3 488.7l.1 54.9 22.4 12.9v25.9l44.9 26"/><path class="st17" d="M321.9 537.1l-11.1 6.7-11.3 6.8V576"/><linearGradient id="SVGID_15_" gradientUnits="userSpaceOnUse" x1="321.661" y1="566.255" x2="344.453" y2="566.255"><stop offset="0" stop-color="#00d1b2"/><stop offset="1" stop-color="#008db2"/></linearGradient><path fill="none" stroke="url(#SVGID_15_)" stroke-width=".5" stroke-miterlimit="10" d="M333.1 543.6l-11.2 6.5V576l22.4 12.9"/><path class="st17" d="M355.5 556.5l.1 13 11.2 6.5-.1 25.9"/><ellipse class="st17" cx="299.5" cy="577.1" rx="2" ry="1.2"/><linearGradient id="SVGID_16_" gradientUnits="userSpaceOnUse" x1="310.419" y1="569.707" x2="333.227" y2="569.707"><stop offset="0" stop-color="#00d1b2"/><stop offset="1" stop-color="#008db2"/></linearGradient><path fill="none" stroke="url(#SVGID_16_)" stroke-width=".5" stroke-miterlimit="10" d="M310.8 543.8l-.1 38.6 22.4 13"/><path class="st17" d="M290.3 530.6h20.4M153.6 595.4l56.1-32 22.5-13.3 11.2-6.5M241.9 557.4l-77 44.6v38.7l22.4 13"/><path class="st17" d="M198.5 660.2v-64.8l56.1-32.4 11.2-6.5M198.5 595.4l-22.4 13v25.9l11.2 6.4M198.5 517.7l11.2 6.5h22.4v-26M220.9 517.7l-11.2-6.5M209.7 524.2l-22.4 12.9V563l-44.9 25.9M254.6 576v12.9l22.2 13.1v12.8l-44.7 25.9v139.5"/><path class="st17" d="M243.3 582.5l.1 12.9 11.2 6.6v12.8l-33.7 19.5v142.8"/><path class="st17" d="M232.2 588.9v25.9l-22.5 13M221 595.4l-.1 13-22.4 12.9M232.1 524.2v12.9l-33.6 19.4v-12.9l22.4-13"/><linearGradient id="SVGID_17_" gradientUnits="userSpaceOnUse" x1="276.708" y1="633.834" x2="288.481" y2="633.834"><stop offset="0" stop-color="#00d1b2"/><stop offset="1" stop-color="#008db2"/></linearGradient><path fill="none" stroke="url(#SVGID_17_)" stroke-width=".5" stroke-miterlimit="10" d="M276.8 614.8l11.4 6.5v13l-11.1 18.6"/><path class="st17" d="M142.4 563l33.6-19.4-.2 12.8-44.6 26.1v12.2l-11.6 7-55.7-32.2v-25.7l22.4-13.2M52.7 575.5v104.3M411.6 524.2l22.5 13 .2 142.6"/><path class="st17" d="M97.5 537.1l-22.5 13 .1 13.3 44.8 26.1-.2-13.4 11.5-6.6"/><path class="st17" d="M75 524.2l-22.3 12.9.3 39 55.8 32.3M366.6 549.9l.2 13.1 11.2 5.6.2 39.9-11.5 19.4.3 90.5-11.4 6.5-.1-142.5-22.4-12.9v-13l10.4-5.9"/><linearGradient id="SVGID_18_" gradientUnits="userSpaceOnUse" x1="242.877" y1="334.967" x2="242.877" y2="224.86"><stop offset="0" stop-color="#0ff"/><stop offset="1" stop-color="#f2f2f2" stop-opacity="0"/></linearGradient><path d="M190 306.2l-1.3-50.1c0-1.3.7-2.6 2-3.3l50.6-27.4c1.2-.7 2.8-.7 4 0l49.6 27.4c1.2.7 1.9 1.9 1.9 3.1l.2 48.8c0 1.3-.7 2.5-1.9 3.2l-45.7 25.4c-4 2.2-9.1 2.3-13.1.1L192 309.3c-1.2-.7-2-1.9-2-3.1z" opacity=".58" fill="url(#SVGID_18_)"/><linearGradient id="SVGID_19_" gradientUnits="userSpaceOnUse" x1="242.877" y1="325.708" x2="242.877" y2="263.446"><stop offset="0" stop-color="#0ff"/><stop offset="1" stop-color="#f2f2f2" stop-opacity="0"/></linearGradient><path d="M211.5 309.4l-.8-28.4c0-.8.4-1.5 1.2-1.8l30-15.5c.7-.4 1.6-.4 2.4 0l29.4 15.5c.7.4 1.1 1 1.1 1.8l.1 27.6c0 .7-.4 1.4-1.1 1.8l-27.1 14.3c-2.4 1.3-5.4 1.3-7.8 0l-26.3-13.6c-.6-.3-1.1-1-1.1-1.7z" opacity=".58" fill="url(#SVGID_19_)"/><linearGradient id="SVGID_20_" gradientUnits="userSpaceOnUse" x1="243.752" y1="312.635" x2="243.752" y2="266.594"><stop offset="0" stop-color="#0ff"/><stop offset="1" stop-color="#f2f2f2" stop-opacity="0"/></linearGradient><path d="M220.6 300.6l-.6-21c0-.6.3-1.1.9-1.4l22.2-11.5c.5-.3 1.2-.3 1.8 0l21.7 11.5c.5.3.8.8.8 1.3l.1 20.4c0 .5-.3 1-.8 1.3l-20.1 10.6c-1.8.9-4 .9-5.7 0l-19.4-10.1c-.6-.1-.9-.6-.9-1.1z" opacity=".58" fill="url(#SVGID_20_)"/><g><image width="273" height="248" xlink:href="505BE3611F968E44.png" transform="translate(82.752 17.47)" overflow="visible" opacity=".2"/><linearGradient id="SVGID_21_" gradientUnits="userSpaceOnUse" x1="206.5" y1="123.429" x2="233.675" y2="155.816"><stop offset="0" stop-color="#008db2" stop-opacity=".5"/><stop offset=".238" stop-color="#00a7b2" stop-opacity=".619"/><stop offset=".515" stop-color="#00beb2" stop-opacity=".757"/><stop offset=".775" stop-color="#00ccb2" stop-opacity=".888"/><stop offset="1" stop-color="#00d1b2"/></linearGradient><path d="M196.5 153.6s8.6 11.6 20.5 3.9c8.2 2.7 24.5-1.6 25.9-16 6.2 1.6 11-9.2 4.3-12.6-6.7-3.4-21.1-10.1-27.8-1.3-18.6 1.3-45 10-22.9 26z" fill="url(#SVGID_21_)"/></g><g><path class="st27" d="M323.3 461.8l29.2 16.9c2 1.1 4.4 1.1 6.4 0l29.2-16.9c2.8-1.6 2.8-5.8 0-7.4l-29.2-16.9c-2-1.1-4.4-1.1-6.4 0l-29.2 16.9c-2.9 1.7-2.9 5.8 0 7.4z"/><path class="st27" d="M323.3 453.9l29.2 16.9c2 1.1 4.4 1.1 6.4 0l29.2-16.9c2.8-1.6 2.8-5.8 0-7.4l-29.2-16.9c-2-1.1-4.4-1.1-6.4 0l-29.2 16.9c-2.9 1.6-2.9 5.8 0 7.4z"/><path class="st27" d="M323.3 444.2l29.2 16.9c2 1.1 4.4 1.1 6.4 0l29.2-16.9c2.8-1.6 2.8-5.8 0-7.4l-29.2-16.9c-2-1.1-4.4-1.1-6.4 0l-29.2 16.9c-2.9 1.6-2.9 5.7 0 7.4z"/><path class="st27" d="M322.3 433.9l29.2 16.9c2 1.1 4.4 1.1 6.4 0l29.2-16.9c2.8-1.6 2.8-5.8 0-7.4l-29.2-16.9c-2-1.1-4.4-1.1-6.4 0l-29.2 16.9c-2.9 1.7-2.9 5.8 0 7.4z"/><path class="st27" d="M322.3 423.1l29.2 16.9c2 1.1 4.4 1.1 6.4 0l29.2-16.9c2.8-1.6 2.8-5.8 0-7.4l-29.2-16.9c-2-1.1-4.4-1.1-6.4 0l-29.2 16.9c-2.9 1.7-2.9 5.8 0 7.4z"/><linearGradient id="SVGID_22_" gradientUnits="userSpaceOnUse" x1="355.473" y1="485.355" x2="355.473" y2="390.337"><stop offset="0" stop-color="#0ff"/><stop offset="1" stop-color="#f2f2f2" stop-opacity="0"/></linearGradient><path d="M398.1 456.2v-36.6c0-3.9-2.1-7.5-5.4-9.4L361 391.9c-3.4-1.9-7.5-1.9-10.9 0l-31.7 18.3c-3.4 1.9-5.4 5.5-5.4 9.4v36.6c0 3.9 2.1 7.5 5.4 9.4l31.7 18.3c3.4 1.9 7.5 1.9 10.9 0l31.7-18.3c3.3-2 5.4-5.6 5.4-9.4z" opacity=".58" fill="url(#SVGID_22_)"/></g><g><linearGradient id="SVGID_23_" gradientUnits="userSpaceOnUse" x1="393.869" y1="506.086" x2="393.869" y2="411.068"><stop offset="0" stop-color="#0ff"/><stop offset="1" stop-color="#f2f2f2" stop-opacity="0"/></linearGradient><path d="M436.5 476.9v-36.6c0-3.9-2.1-7.5-5.4-9.4l-31.7-18.3c-3.4-1.9-7.5-1.9-10.9 0l-31.7 18.3c-3.4 1.9-5.4 5.5-5.4 9.4v36.6c0 3.9 2.1 7.5 5.4 9.4l31.7 18.3c3.4 1.9 7.5 1.9 10.9 0l31.7-18.3c3.3-1.9 5.4-5.5 5.4-9.4z" opacity=".58" fill="url(#SVGID_23_)"/><path class="st27" d="M361.7 482.5l29.2 16.9c2 1.1 4.4 1.1 6.4 0l29.2-16.9c2.8-1.6 2.8-5.8 0-7.4l-29.2-16.9c-2-1.1-4.4-1.1-6.4 0l-29.2 16.9c-2.9 1.7-2.9 5.8 0 7.4z"/><path class="st27" d="M361.7 474.6l29.2 16.9c2 1.1 4.4 1.1 6.4 0l29.2-16.9c2.8-1.6 2.8-5.8 0-7.4l-29.2-16.9c-2-1.1-4.4-1.1-6.4 0l-29.2 16.9c-2.9 1.7-2.9 5.8 0 7.4z"/><path class="st27" d="M361.7 464.9l29.2 16.9c2 1.1 4.4 1.1 6.4 0l29.2-16.9c2.8-1.6 2.8-5.8 0-7.4l-29.2-16.9c-2-1.1-4.4-1.1-6.4 0l-29.2 16.9c-2.9 1.7-2.9 5.8 0 7.4z"/><path class="st27" d="M360.7 454.6l29.2 16.9c2 1.1 4.4 1.1 6.4 0l29.2-16.9c2.8-1.6 2.8-5.8 0-7.4l-29.2-16.9c-2-1.1-4.4-1.1-6.4 0l-29.2 16.9c-2.9 1.7-2.9 5.8 0 7.4z"/></g><g><path class="st27" d="M284.9 482.5l29.2 16.9c2 1.1 4.4 1.1 6.4 0l29.2-16.9c2.8-1.6 2.8-5.8 0-7.4l-29.2-16.9c-2-1.1-4.4-1.1-6.4 0l-29.2 16.9c-2.8 1.7-2.8 5.8 0 7.4z"/><path class="st27" d="M284.9 474.6l29.2 16.9c2 1.1 4.4 1.1 6.4 0l29.2-16.9c2.8-1.6 2.8-5.8 0-7.4l-29.2-16.9c-2-1.1-4.4-1.1-6.4 0l-29.2 16.9c-2.8 1.7-2.8 5.8 0 7.4z"/><path class="st27" d="M284.9 464.9l29.2 16.9c2 1.1 4.4 1.1 6.4 0l29.2-16.9c2.8-1.6 2.8-5.8 0-7.4l-29.2-16.9c-2-1.1-4.4-1.1-6.4 0l-29.2 16.9c-2.8 1.7-2.8 5.8 0 7.4z"/><path class="st27" d="M283.9 454.6l29.2 16.9c2 1.1 4.4 1.1 6.4 0l29.2-16.9c2.8-1.6 2.8-5.8 0-7.4l-29.2-16.9c-2-1.1-4.4-1.1-6.4 0l-29.2 16.9c-2.8 1.7-2.8 5.8 0 7.4z"/><path class="st27" d="M283.9 445.1l29.2 16.9c2 1.1 4.4 1.1 6.4 0l29.2-16.9c2.8-1.6 2.8-5.8 0-7.4l-29.2-16.9c-2-1.1-4.4-1.1-6.4 0l-29.2 16.9c-2.8 1.6-2.8 5.7 0 7.4z"/><linearGradient id="SVGID_24_" gradientUnits="userSpaceOnUse" x1="317.123" y1="506.086" x2="317.123" y2="411.068"><stop offset="0" stop-color="#0ff"/><stop offset="1" stop-color="#f2f2f2" stop-opacity="0"/></linearGradient><path d="M359.7 476.9v-36.6c0-3.9-2.1-7.5-5.4-9.4l-31.7-18.3c-3.4-1.9-7.5-1.9-10.9 0L280 430.8c-3.4 1.9-5.4 5.5-5.4 9.4v36.6c0 3.9 2.1 7.5 5.4 9.4l31.7 18.3c3.4 1.9 7.5 1.9 10.9 0l31.7-18.3c3.4-1.8 5.4-5.4 5.4-9.3z" opacity=".58" fill="url(#SVGID_24_)"/></g><g><linearGradient id="SVGID_25_" gradientUnits="userSpaceOnUse" x1="354.473" y1="528.483" x2="354.473" y2="433.465"><stop offset="0" stop-color="#0ff"/><stop offset="1" stop-color="#f2f2f2" stop-opacity="0"/></linearGradient><path d="M397.1 499.3v-36.6c0-3.9-2.1-7.5-5.4-9.4L360 435c-3.4-1.9-7.5-1.9-10.9 0l-31.7 18.3c-3.4 1.9-5.4 5.5-5.4 9.4v36.6c0 3.9 2.1 7.5 5.4 9.4L349 527c3.4 1.9 7.5 1.9 10.9 0l31.7-18.3c3.4-1.9 5.5-5.5 5.5-9.4z" opacity=".58" fill="url(#SVGID_25_)"/><path class="st27" d="M322.3 504.9l29.2 16.9c2 1.1 4.4 1.1 6.4 0l29.2-16.9c2.8-1.6 2.8-5.8 0-7.4l-29.2-16.9c-2-1.1-4.4-1.1-6.4 0l-29.2 16.9c-2.9 1.7-2.9 5.8 0 7.4z"/><path class="st27" d="M322.3 497l29.2 16.9c2 1.1 4.4 1.1 6.4 0l29.2-16.9c2.8-1.6 2.8-5.8 0-7.4l-29.2-16.9c-2-1.1-4.4-1.1-6.4 0l-29.2 16.9c-2.9 1.7-2.9 5.8 0 7.4z"/><path class="st27" d="M322.3 487.3l29.2 16.9c2 1.1 4.4 1.1 6.4 0l29.2-16.9c2.8-1.6 2.8-5.8 0-7.4L357.9 463c-2-1.1-4.4-1.1-6.4 0l-29.2 16.9c-2.9 1.7-2.9 5.8 0 7.4z"/><path class="st27" d="M321.3 477l29.2 16.9c2 1.1 4.4 1.1 6.4 0l29.2-16.9c2.8-1.6 2.8-5.8 0-7.4l-29.2-16.9c-2-1.1-4.4-1.1-6.4 0l-29.2 16.9c-2.9 1.7-2.9 5.8 0 7.4z"/></g><g><path class="st27" d="M164.6 461.8l-29.2 16.9c-2 1.1-4.4 1.1-6.4 0l-29.2-16.9c-2.8-1.6-2.8-5.8 0-7.4l29.2-16.9c2-1.1 4.4-1.1 6.4 0l29.2 16.9c2.8 1.7 2.8 5.8 0 7.4z"/><path class="st27" d="M164.6 453.9l-29.2 16.9c-2 1.1-4.4 1.1-6.4 0l-29.2-16.9c-2.8-1.6-2.8-5.8 0-7.4l29.2-16.9c2-1.1 4.4-1.1 6.4 0l29.2 16.9c2.8 1.6 2.8 5.8 0 7.4z"/><path class="st27" d="M164.6 444.2l-29.2 16.9c-2 1.1-4.4 1.1-6.4 0l-29.2-16.9c-2.8-1.6-2.8-5.8 0-7.4l29.2-16.9c2-1.1 4.4-1.1 6.4 0l29.2 16.9c2.8 1.6 2.8 5.7 0 7.4z"/><path class="st27" d="M165.6 433.9l-29.2 16.9c-2 1.1-4.4 1.1-6.4 0l-29.2-16.9c-2.8-1.6-2.8-5.8 0-7.4l29.2-16.9c2-1.1 4.4-1.1 6.4 0l29.2 16.9c2.8 1.7 2.8 5.8 0 7.4z"/><path class="st27" d="M165.6 423.1L136.3 440c-2 1.1-4.4 1.1-6.4 0l-29.2-16.9c-2.8-1.6-2.8-5.8 0-7.4l29.2-16.9c2-1.1 4.4-1.1 6.4 0l29.2 16.9c2.9 1.7 2.9 5.8.1 7.4z"/><linearGradient id="SVGID_26_" gradientUnits="userSpaceOnUse" x1="132.306" y1="485.355" x2="132.306" y2="390.337" gradientTransform="matrix(-1 0 0 1 264.658 0)"><stop offset="0" stop-color="#0ff"/><stop offset="1" stop-color="#f2f2f2" stop-opacity="0"/></linearGradient><path d="M89.8 456.2v-36.6c0-3.9 2.1-7.5 5.4-9.4l31.7-18.3c3.4-1.9 7.5-1.9 10.9 0l31.7 18.3c3.4 1.9 5.4 5.5 5.4 9.4v36.6c0 3.9-2.1 7.5-5.4 9.4l-31.7 18.3c-3.4 1.9-7.5 1.9-10.9 0l-31.7-18.3c-3.4-2-5.4-5.6-5.4-9.4z" opacity=".58" fill="url(#SVGID_26_)"/></g><g><linearGradient id="SVGID_27_" gradientUnits="userSpaceOnUse" x1="170.702" y1="506.086" x2="170.702" y2="411.068" gradientTransform="matrix(-1 0 0 1 264.658 0)"><stop offset="0" stop-color="#0ff"/><stop offset="1" stop-color="#f2f2f2" stop-opacity="0"/></linearGradient><path d="M51.4 476.9v-36.6c0-3.9 2.1-7.5 5.4-9.4l31.7-18.3c3.4-1.9 7.5-1.9 10.9 0l31.7 18.3c3.4 1.9 5.4 5.5 5.4 9.4v36.6c0 3.9-2.1 7.5-5.4 9.4l-31.7 18.3c-3.4 1.9-7.5 1.9-10.9 0l-31.7-18.3c-3.4-1.9-5.4-5.5-5.4-9.4z" opacity=".58" fill="url(#SVGID_27_)"/><path class="st27" d="M126.2 482.5L97 499.4c-2 1.1-4.4 1.1-6.4 0l-29.2-16.9c-2.8-1.6-2.8-5.8 0-7.4l29.2-16.9c2-1.1 4.4-1.1 6.4 0l29.2 16.9c2.8 1.7 2.8 5.8 0 7.4z"/><path class="st27" d="M126.2 474.6L97 491.5c-2 1.1-4.4 1.1-6.4 0l-29.2-16.9c-2.8-1.6-2.8-5.8 0-7.4l29.2-16.9c2-1.1 4.4-1.1 6.4 0l29.2 16.9c2.8 1.7 2.8 5.8 0 7.4z"/><path class="st27" d="M126.2 464.9L97 481.8c-2 1.1-4.4 1.1-6.4 0l-29.2-16.9c-2.8-1.6-2.8-5.8 0-7.4l29.2-16.9c2-1.1 4.4-1.1 6.4 0l29.2 16.9c2.8 1.7 2.8 5.8 0 7.4z"/><path class="st27" d="M127.2 454.6L98 471.5c-2 1.1-4.4 1.1-6.4 0l-29.2-16.9c-2.8-1.6-2.8-5.8 0-7.4l29.2-16.9c2-1.1 4.4-1.1 6.4 0l29.2 16.9c2.8 1.7 2.8 5.8 0 7.4z"/></g><g><path class="st27" d="M202.9 482.5l-29.2 16.9c-2 1.1-4.4 1.1-6.4 0l-29.2-16.9c-2.8-1.6-2.8-5.8 0-7.4l29.2-16.9c2-1.1 4.4-1.1 6.4 0l29.2 16.9c2.9 1.7 2.9 5.8 0 7.4z"/><path class="st27" d="M202.9 474.6l-29.2 16.9c-2 1.1-4.4 1.1-6.4 0l-29.2-16.9c-2.8-1.6-2.8-5.8 0-7.4l29.2-16.9c2-1.1 4.4-1.1 6.4 0l29.2 16.9c2.9 1.7 2.9 5.8 0 7.4z"/><path class="st27" d="M202.9 464.9l-29.2 16.9c-2 1.1-4.4 1.1-6.4 0l-29.2-16.9c-2.8-1.6-2.8-5.8 0-7.4l29.2-16.9c2-1.1 4.4-1.1 6.4 0l29.2 16.9c2.9 1.7 2.9 5.8 0 7.4z"/><path class="st27" d="M203.9 454.6l-29.2 16.9c-2 1.1-4.4 1.1-6.4 0l-29.2-16.9c-2.8-1.6-2.8-5.8 0-7.4l29.2-16.9c2-1.1 4.4-1.1 6.4 0l29.2 16.9c2.9 1.7 2.9 5.8 0 7.4z"/><path class="st27" d="M203.9 445.1L174.7 462c-2 1.1-4.4 1.1-6.4 0l-29.2-16.9c-2.8-1.6-2.8-5.8 0-7.4l29.2-16.9c2-1.1 4.4-1.1 6.4 0l29.2 16.9c2.9 1.6 2.9 5.7 0 7.4z"/><linearGradient id="SVGID_28_" gradientUnits="userSpaceOnUse" x1="93.956" y1="506.086" x2="93.956" y2="411.068" gradientTransform="matrix(-1 0 0 1 264.658 0)"><stop offset="0" stop-color="#0ff"/><stop offset="1" stop-color="#f2f2f2" stop-opacity="0"/></linearGradient><path d="M128.1 476.9v-36.6c0-3.9 2.1-7.5 5.4-9.4l31.7-18.3c3.4-1.9 7.5-1.9 10.9 0l31.7 18.3c3.4 1.9 5.4 5.5 5.4 9.4v36.6c0 3.9-2.1 7.5-5.4 9.4l-31.7 18.3c-3.4 1.9-7.5 1.9-10.9 0l-31.7-18.3c-3.3-1.9-5.4-5.5-5.4-9.4z" opacity=".58" fill="url(#SVGID_28_)"/></g><g><linearGradient id="SVGID_29_" gradientUnits="userSpaceOnUse" x1="131.306" y1="528.483" x2="131.306" y2="433.465" gradientTransform="matrix(-1 0 0 1 264.658 0)"><stop offset="0" stop-color="#0ff"/><stop offset="1" stop-color="#f2f2f2" stop-opacity="0"/></linearGradient><path d="M90.8 499.3v-36.6c0-3.9 2.1-7.5 5.4-9.4l31.7-18.3c3.4-1.9 7.5-1.9 10.9 0l31.7 18.3c3.4 1.9 5.4 5.5 5.4 9.4v36.6c0 3.9-2.1 7.5-5.4 9.4L138.8 527c-3.4 1.9-7.5 1.9-10.9 0l-31.7-18.3c-3.4-1.9-5.4-5.5-5.4-9.4z" opacity=".58" fill="url(#SVGID_29_)"/><path class="st27" d="M165.6 504.9l-29.2 16.9c-2 1.1-4.4 1.1-6.4 0l-29.2-16.9c-2.8-1.6-2.8-5.8 0-7.4l29.2-16.9c2-1.1 4.4-1.1 6.4 0l29.2 16.9c2.8 1.7 2.8 5.8 0 7.4z"/><path class="st27" d="M165.6 497l-29.2 16.9c-2 1.1-4.4 1.1-6.4 0L100.7 497c-2.8-1.6-2.8-5.8 0-7.4l29.2-16.9c2-1.1 4.4-1.1 6.4 0l29.2 16.9c2.9 1.7 2.9 5.8.1 7.4z"/><path class="st27" d="M165.6 487.3l-29.2 16.9c-2 1.1-4.4 1.1-6.4 0l-29.2-16.9c-2.8-1.6-2.8-5.8 0-7.4L130 463c2-1.1 4.4-1.1 6.4 0l29.2 16.9c2.8 1.7 2.8 5.8 0 7.4z"/><path class="st27" d="M166.6 477l-29.2 16.9c-2 1.1-4.4 1.1-6.4 0L101.7 477c-2.8-1.6-2.8-5.8 0-7.4l29.2-16.9c2-1.1 4.4-1.1 6.4 0l29.2 16.9c2.9 1.7 2.9 5.8.1 7.4z"/></g></svg>