<svg xmlns="http://www.w3.org/2000/svg" viewBox="0 0 971.3 222"><path d="M263.7 98.9l3.1 9.2-8.1-5.7-8.4 5.9 3.2 9.5v.1h10.1l-8.1 5.7 3.2 9.5v.1h10.4l3.1-9.2 3.1 9.2v.1h10.4l3.2-9.5-8.1-5.7h10.1l3.2-9.5-8.4-5.9-8.1 5.7 3.1-9.2-8.4-5.9-8.6 5.6zm.2 18.8l3.1-9.3h10.1l3.1 9.3-8.2 5.7-8.1-5.7zM179.6 135.1c-5.1-5.1-8-12-8-19.2v-11.2c0-.4-.3-.7-.7-.7s-.7.3-.7.7c0 7.3-2.8 14.1-8 19.2l-17 17c-.1.1-.2.3-.2.6 0 .2.1.4.3.5 5.9 4.2 12.8 6.4 20 6.4s14.1-2.2 20-6.4c.2-.1.3-.3.3-.5s-.1-.4-.2-.6l-5.8-5.8zm-30.5-41.7v-8.7c0-.4-.3-.7-.7-.7-.1 0-.2 0-.4.1-10.6 6.1-17.2 17.6-17.2 29.8 0 1 .1 2 .2 3.2 0 .3.2.5.5.6h.2c.2 0 .4-.1.5-.2l11.8-11.8c3.3-3.3 5.2-7.7 5.1-12.3zm33.5-9.3c-.2-.1-.5-.1-.7 0s-.4.4-.4.6v31.2c0 4.6 1.8 9 5.1 12.3l5.7 5.7c.1.1.3.2.5.2h.1c.2 0 .4-.1.5-.3 4.2-5.9 6.4-12.8 6.4-19.9 0-12.2-6.6-23.7-17.2-29.8zm-27.3 32.8l-17 17c-.1.1-.3.2-.5.2h-.1c-.2 0-.4-.1-.5-.3-.9-1.3-1.8-2.7-2.6-4.2-.1-.3-.1-.6.1-.8l16.2-16.2c5.1-5.1 8-12 8-19.2 0-.4.3-.7.7-.7s.7.3.7.7v11.2c.1 4.7-1.7 9.1-5 12.3zM325.1 96.2l-.6.6v7.6l.5.5 16.5-2.8.5.5v5.3l16.8-2.8.7-.7v-7.6l-.6-.6h-33.8zm.1 14.5l-.7.7v4.7l.5.5 17-2.8V108c0-.1-16.8 2.7-16.8 2.7zm16.8 3.1v5.8l16.8-2.8.7-.7v-4.7l-.5-.5-17 2.9zm-16.8 8.6l-.7.7v7.6l.6.6H359l.6-.6v-7.6l-.5-.5-16.5 2.8-.5-.5v-5.3l-16.9 2.8zm98.3-24l-4.2 4.2-4.2-4.2H396v4.2h19.1l4.2 4.2 4.2-4.2h6.4v-4.2h-6.4zm-4.3 8.5l-4.2 4.2-4.2-4.2h-14.9v4.2h14.9l4.2 4.2 4.2-4.2h10.6v-4.2h-10.6zm-4.2 8.5l-4.2 4.2-4.2-4.2H396v4.2h10.6l4.2 4.2 4.2-4.2h14.9v-4.2H415zm-4.3 8.5l-4.2 4.2-4.2-4.2h-6.4v4.2h6.4l4.2 4.2 4.2-4.2h19.1v-4.2h-19.1zM45.2 142.6c2.9.9 5.9 1.3 9 1.3 3.7 0 7.1-.6 10.3-1.8l-9.9-26.8-9.4 27.3zM23.3 112.9c0 12.4 7.2 23 17.6 28l-14.8-40.8c-1.8 3.8-2.8 8.3-2.8 12.8z"/><path d="M39.6 96.2V98c0 .2-.1.3-.3.3h-3.5c-.4 0-.5.2-.4.6l11.3 33 6.8-20.6L48.8 99c-.2-.4-.4-.6-1.1-.6h-3.1c-.2 0-.3-.1-.3-.3v-1.8c0-.2.1-.3.3-.3 5.8.2 11.7.2 17.6 0 .2 0 .3.1.3.3V98c0 .2-.1.3-.3.3h-3.1c-.6 0-.9.2-.6.8l11 32.5 4.1-12.4c4.8-14.8-4.2-16.5-4-23.9.1-3.7 2.8-5.3 5.5-5.2-5.5-5-12.8-8.1-20.9-8.1-10.9 0-20.4 5.6-26 14.2 3.5-.1 7.3-.1 11.1-.3.2 0 .3.1.3.3z"/><path d="M54.2 77c-19.8 0-35.9 16.1-35.9 35.9s16.1 35.9 35.9 35.9c19.8 0 35.9-16.1 35.9-35.9S74 77 54.2 77zm0 69.8c-18.7 0-33.8-15.2-33.8-33.8s15.2-33.9 33.8-33.9c18.7 0 33.8 15.2 33.8 33.8s-15.1 33.9-33.8 33.9z"/><path d="M81.4 98.2c.1 4.5-1.3 10.2-2.6 14.5L69.1 140c9.6-5.3 16-15.4 16-27.1.1-5.3-1.3-10.2-3.7-14.7zM921.6 113.9h-12.5v12.6h12.5c2.1 0 3.8-.6 5-1.7 1.2-1.1 1.8-2.7 1.8-4.7s-.6-3.5-1.8-4.6-2.8-1.6-5-1.6zM924.8 107.5c1.1-1 1.7-2.3 1.7-4.1 0-2-.5-3.5-1.5-4.3-1-.8-2.5-1.2-4.4-1.2h-11.5v11h11.5c1.7 0 3.1-.5 4.2-1.4z"/><path d="M940.8 77h-46c-6.3 0-11.5 5.2-11.5 11.5v46c0 6.3 5.2 11.5 11.5 11.5h46c6.3 0 11.5-5.2 11.5-11.5v-46c0-6.3-5.2-11.5-11.5-11.5zm-6.3 48.5c-.6 1.4-1.4 2.6-2.6 3.6-1.2 1-2.7 1.8-4.6 2.4-1.9.6-4.1.9-6.7.9h-18.5V92h19.5c3.6 0 6.5.8 8.7 2.5s3.3 4.1 3.3 7.5c0 2-.5 3.8-1.5 5.2-1 1.4-2.4 2.6-4.3 3.4v.1c2.5.5 4.4 1.7 5.6 3.5 1.3 1.8 1.9 4.1 1.9 6.9 0 1.6-.3 3.1-.8 4.4zM526.1 147.1v-13.6c14.4 0 25.6-14.2 20-29.4C544 98.5 539.6 94 534 92c-15.1-5.5-29.4 5.6-29.4 20H491c0-22.9 22.2-40.8 46.2-33.3 10.5 3.3 18.9 11.6 22.1 22.1 7.6 24.1-10.2 46.3-33.2 46.3z"/><path d="M512.6 133.6V120h13.5v13.5h-13.5v.1zM502.2 144v-10.4h10.4V144h-10.4zm0-10.4h-8.7v-8.7h8.7v8.7zm327.1-44.1l-23-13.3c-2.9-1.7-7.7-1.7-10.6 0l-23 13.3c-2.9 1.7-5.3 5.8-5.3 9.2v26.5c0 3.4 2.4 7.5 5.3 9.2l23 13.3c2.9 1.7 7.7 1.7 10.6 0l23-13.3c2.9-1.7 5.3-5.8 5.3-9.2V98.7c.1-3.3-2.3-7.5-5.3-9.2zm-4.3 16.4h-30.4c-1.9 0-3.3.5-4.4 1.7-2.4 2.6-3.7 7.6-3.9 10.4h29.9v-7.5h8.6v16.1h-47.6s.2-17.8 6.8-24.8c2.8-2.9 6.4-4.4 10.7-4.4H825v8.5z"/><g><path d="M691.7 108.4c-1.3 0-2.8 1-2.8 3.4h5.5c0-2.4-1.4-3.4-2.7-3.4zM674.3 108.8c-1.2 0-2 .4-2.5 1v7.8c.5.6 1.3 1 2.5 1 1.9 0 3.2-2.1 3.2-4.9 0-2.8-1.3-4.9-3.2-4.9z"/><path d="M701.2 75h-79.7c-9.5 0-17.2 7.7-17.2 17.2v39.7c0 9.5 7.7 17.2 17.2 17.2h79.7c9.5 0 17.2-7.7 17.2-17.2V92.2c0-9.5-7.7-17.2-17.2-17.2zm-41.9 23.6l5.2-1.1v4.3l-5.2 1.1v-4.3zm-29.8 24.7c-1.8 0-3.7-.4-5.7-1.2v-5c1.7 1 4 1.7 5.7 1.7 1.2 0 2-.3 2-1.3 0-2.5-8-1.6-8-7.4 0-3.8 2.8-6 7.1-6 1.7 0 3.5.3 5.2 1v4.9c-1.6-.8-3.6-1.3-5.2-1.3-1.1 0-1.8.3-1.8 1.1 0 2.4 8.1 1.3 8.1 7.6 0 3.7-3 5.9-7.4 5.9zm17.7-14.3h-4v7.4c0 3.1 3.3 2.2 4 1.9v4.3c-.7.4-2 .7-3.7.7-3.2 0-5.5-2.3-5.5-5.4V101l5.1-1.1.1 4.6h4v4.5zm10.9.3c-.7-.2-2.8-.5-4 1.1v12.5h-5.3v-18.4h4.5l.3 1.6c1.2-2.3 3.7-1.9 4.5-1.6v4.8zm6.5 13.6h-5.3v-18.4h5.3v18.4zm10.9.3c-1.8 0-2.9-.8-3.7-1.3v6l-5.3 1.1v-24.6h4.6l.3 1.3c.7-.6 2-1.6 4.1-1.6 3.7 0 7.2 3.4 7.2 9.4 0 6.7-3.4 9.7-7.2 9.7zm23.8-7.5h-10.4c.2 2.5 2.1 3.2 4.1 3.2 2.1 0 3.8-.5 5.2-1.2v4.2c-1.4.8-3.3 1.4-5.8 1.4-5.1 0-8.7-3.2-8.7-9.5 0-5.3 3-9.6 8-9.6s7.6 4.2 7.6 9.6v1.9z"/></g><path d="M426.2 149H254.4c-11.1 0-20.1-9-20.1-20.1V98.1c0-11.1 9-20.1 20.1-20.1h171.8c11.1 0 20.1 9 20.1 20.1v30.8c0 11.1-9 20.1-20.1 20.1z" fill="none" stroke="#acacac" stroke-miterlimit="10"/></svg>