<svg id="Layer_1" xmlns="http://www.w3.org/2000/svg" viewBox="0 0 64 64"><style>.st0{fill:#acacac}</style><path class="st0" d="M47.1 26.8l.3-1.1c1.1-4 2.2-8 3.8-11.8.7-1.7 1.8-2.7 3.7-2.9 1.2-.1 2.5-.2 3.3.9.5.7 1.1 1.1 2 1.3l1.2.3c.5.2.7 0 .9-.5l1.4-4.8c.5-1.8.5-1.8-1.2-2.4-.7-.3-1.4-.4-2.2 0-1.3.4-2.4.2-3.4-.8-1.1-1.1-2.3-1.9-3.7-2.4C49 1.1 44.7.5 40.3 1.2c-2.1.3-4.2.9-6 2.2-.3.2-.5.4-.7.6 2.4-.2 4.8-.2 7.1.1 1.6.2 3 .7 4.1 2.1 1.1 1.4 1.4 3.1 1.5 4.8.2 2.4-.2 4.7-.9 6.9l-2 7.2c-.1.3-.2.6.3.7l3.4 1zM35.8 63.1c1.2.1 2.1-.4 2.7-1.5.4-.6.6-1.3.8-2l5.3-22 2.1-9.1c.1-.6 0-.8-.6-1l-2.3-.6c-1.4-.4-1.1-.4-1.6.8L31.8 57.5c-.1.4-.3.8-.3 1.3-.1 2.5 1.6 4.3 4.3 4.3zM.1 18.9l.2 1.6 1.6 10.6 1.6 10.7 1.6 10.8 1 6.8c.1.5.2.7.8.6L17 58.4l14.4-2.2c.2 0 .3-.3.5-.4-.2-.1-.4-.3-.6-.3l-7.8 1.2-16 2.4c-.6.1-.7 0-.8-.6l-1-6.9-2.3-15.2L.9 19.8c-.1-.6.1-.9.7-1l3.2-.5 13-2.1 22-3.6 5-.8c.2 0 .3-.3.5-.5l-.6-.3h-.2l-6.2 1L.6 18.3c-.5.1-.7.2-.5.6zm52.5-6.1h-.3c-.1.5-.2.9-.2 1.4l.7 4.5 2 12 3.3 19.7c.1.4 0 .7-.5.7L47 52.7l-5 .8c-.1 0-.3.3-.4.4.2.1.3.3.5.3.5 0 1-.1 1.6-.2L59 51.5l-6.4-38.7zM25.9 28.2c-.1-.1-.3-.2-.4-.3l-3.8-1.4c-.4-.1-.6 0-.7.4L14 44c-.2.4-.1.6.3.8l3.6 1.5 8-18.1zm9.6 4.8c-.6-1-1.3-1.5-2.5-1-.3.1-.6.1-.9.1l-7.4 1.3c-.4.1-.7.2-.9.6l-1.5 4.1c-.1.1-.1.3-.1.6L38 36.1 35.5 33zm-21.1 6.9c.5-.1.8-.2.9-.7l1.7-4c.1-.2.1-.4.2-.8l-8.9 1.4.6 4"/><path class="st0" d="M44.2 42.6c.1.3 0 .8.2 1 .4.4.8.7 1.2 1 .6.3 1.3.6 1.9.9.9.5 1.6 1.1 1.6 2.3 0 .2.1.4.2.6l.2-.1c.1 0 .1-.1.1-.2 1.1-1.6 1.2-3.4.7-5.3-.5-2.1-1.5-3.9-3.5-4.9-.6-.3-.9 0-1.3.2-.4.3-.7.6-.6 1.3l-.7 3.2zm-26.6 4l-.6-.4-2.7-1.1c-.6-.2-.7-.1-.8.5l-.5 4.7-.4 3.4 5-7.1zm9.6-21.5c.4-.9.2-1.7-.6-2.3-.6-.4-1.3-.6-2-.9-1.1.1-1.8.6-2.2 1.5l-.8 2c-.2.4-.1.6.3.8l3.7 1.4 1.6-2.5zM51 33.5l-.7-3.6c0-.2-.3-.4-.5-.4-.8.1-1.2.1-2 .2-.4.1-.6.2-.8.9 0 0-.8 3.3-.9 4.1M.1 18.9c-.2-.4.1-.5.6-.6l37.7-6.2 6.2-1c.1 0 .1-.1.2 0l.7.3c-.2.2-.3.5-.5.5l-5 .8-10.6 1.7L18 16.3 5 18.4l-3.2.5c-.6.1-.8.4-.7 1l4.8 31.9 1 6.9c.1.5.2.7.8.6l15.9-2.5 7.8-1.2c.2 0 .4.2.6.3-.2.1-.3.4-.5.4L17 58.4 6.9 60c-.6.1-.7-.1-.8-.6l-1-6.8-1.6-10.8-1.6-10.7L.1 18.9zm52.5-6.1l6.5 38.8-3.6.6L43.7 54l-1.6.2c-.2 0-.3-.2-.5-.3.1-.1.3-.4.4-.4l5-.8L57.6 51c.5-.1.5-.3.5-.7l-1.3-7.7-4-24-.7-4.5c-.1-.4.1-.9.2-1.4.1.1.2.1.3.1z"/><path class="st0" d="M38.5 35.5l-1.7-2.1-11.7-14c-1-1.3-1-2.6.1-3.6 1.2-1 2.7-.9 3.7.3l11.2 13.2c.3.4.4.6.1 1.1l-1.7 5.1z"/></svg>